<?xml version="1.0" encoding="utf-8"?>
<svg version="1.1" id="Capa_1" x="0px" y="0px" viewBox="0 0 83.786 82.199" style="enable-background:new 0 0 135.2 135.2;" xmlns="http://www.w3.org/2000/svg">
  <style type="text/css">
	.st0{fill:#FFFFFF;stroke:#CCCCCC;stroke-width:0.5;stroke-miterlimit:10;}
	.st1{fill:#93C01F;}
	.st2{fill:#35A8E0;}
	.st3{fill:#F8B133;}
	.st4{fill:#D8BEA2;}
</style>
  <g transform="matrix(1, 0, 0, 1, -25.865728, -20.94648)">
    <rect x="90.1" y="40.4" width="3" height="3"/>
    <rect x="96.1" y="40.4" width="3" height="3"/>
    <rect x="96.1" y="46.3" width="3" height="3"/>
    <rect x="96.1" y="52.2" width="3" height="3"/>
    <rect x="96.1" y="58.1" width="3" height="3"/>
    <rect x="96.1" y="64" width="3" height="3"/>
    <rect x="96.1" y="69.9" width="3" height="3"/>
    <rect x="42.1" y="40.4" transform="matrix(-1 -4.486867e-11 4.486867e-11 -1 87.2 83.7155)" width="3" height="3"/>
    <rect x="36.1" y="40.4" transform="matrix(-1 -4.486867e-11 4.486867e-11 -1 75.2 83.7155)" width="3" height="3"/>
    <rect x="36.1" y="46.3" transform="matrix(-1 -4.486867e-11 4.486867e-11 -1 75.2 95.5155)" width="3" height="3"/>
    <rect x="36.1" y="52.2" transform="matrix(-1 -4.486867e-11 4.486867e-11 -1 75.2 107.3155)" width="3" height="3"/>
    <rect x="36.1" y="58.1" transform="matrix(-1 -4.486867e-11 4.486867e-11 -1 75.2 119.1155)" width="3" height="3"/>
    <rect x="36.1" y="64" transform="matrix(-1 -4.486867e-11 4.486867e-11 -1 75.2 130.9155)" width="3" height="3"/>
    <rect x="36.1" y="69.9" transform="matrix(-1 -4.486867e-11 4.486867e-11 -1 75.2 142.7155)" width="3" height="3"/>
    <rect x="66.1" y="64" transform="matrix(-1 -4.486867e-11 4.486867e-11 -1 135.2 130.9155)" width="3" height="3"/>
    <rect x="66.1" y="69.9" transform="matrix(-1 -4.486867e-11 4.486867e-11 -1 135.2 142.7155)" width="3" height="3"/>
    <g>
      <path d="M41.5,88.1c1.6-1.2,2.6-3.1,2.6-5.2c0-3.6-2.9-6.5-6.5-6.5s-6.5,2.9-6.5,6.5c0,2.1,1,4,2.6,5.2c-4.2,1.6-7.1,5.6-7.1,10.3 v3c0,0.6,0.4,1,1,1h20c0.6,0,1-0.4,1-1v-3C48.6,93.7,45.6,89.6,41.5,88.1z M33.1,82.9c0-2.5,2-4.5,4.5-4.5s4.5,2,4.5,4.5 s-2,4.5-4.5,4.5S33.1,85.3,33.1,82.9z M46.6,100.4h-18v-2c0-5,4-9,9-9s9,4,9,9V100.4z"/>
      <path d="M71.5,88.1c1.6-1.2,2.6-3.1,2.6-5.2c0-3.6-2.9-6.5-6.5-6.5s-6.5,2.9-6.5,6.5c0,2.1,1,4,2.6,5.2c-4.2,1.6-7.1,5.6-7.1,10.3 v3c0,0.6,0.4,1,1,1h20c0.6,0,1-0.4,1-1v-3C78.6,93.7,75.6,89.6,71.5,88.1z M63.1,82.9c0-2.5,2-4.5,4.5-4.5s4.5,2,4.5,4.5 s-2,4.5-4.5,4.5S63.1,85.3,63.1,82.9z M76.6,100.4h-18v-2c0-5,4-9,9-9s9,4,9,9V100.4z"/>
      <path d="M101.5,88.1c1.6-1.2,2.6-3.1,2.6-5.2c0-3.6-2.9-6.5-6.5-6.5s-6.5,2.9-6.5,6.5c0,2.1,1,4,2.6,5.2 c-4.2,1.6-7.1,5.6-7.1,10.3v3c0,0.6,0.4,1,1,1h20c0.6,0,1-0.4,1-1v-3C108.6,93.7,105.6,89.6,101.5,88.1z M93.1,82.9 c0-2.5,2-4.5,4.5-4.5s4.5,2,4.5,4.5s-2,4.5-4.5,4.5S93.1,85.3,93.1,82.9z M106.6,100.4h-18v-2c0-5,4-9,9-9s9,4,9,9V100.4z"/>
      <path d="M67.6,29.9c-6.6,0-12,5.4-12,12s5.4,12,12,12s12-5.4,12-12S74.2,29.9,67.6,29.9z M67.6,51.9c-5.5,0-10-4.5-10-10 s4.5-10,10-10s10,4.5,10,10S73.1,51.9,67.6,51.9z"/>
      <path d="M82.4,48.9l0.6-1.5c0.1-0.3,0.4-0.5,0.8-0.5h3.8v-10h-3.8c-0.4,0-0.7-0.2-0.8-0.5l-0.6-1.5c-0.1-0.3-0.1-0.7,0.2-0.9 l2.7-2.7l-7.1-7.1l-2.7,2.7c-0.2,0.2-0.6,0.3-0.9,0.2l-1.5-0.6c-0.3-0.1-0.5-0.4-0.5-0.8v-3.8h-10v3.8c0,0.4-0.2,0.7-0.5,0.8 L60.6,27c-0.3,0.1-0.7,0.1-0.9-0.2L57,24.2l-7.1,7.1l2.7,2.7c0.2,0.2,0.3,0.6,0.2,0.9l-0.6,1.5c-0.1,0.3-0.4,0.5-0.8,0.5h-3.8v10 h3.8c0.4,0,0.7,0.2,0.8,0.5l0.6,1.5c0.1,0.3,0.1,0.7-0.2,0.9l-2.7,2.7l7.1,7.1l2.7-2.7c0.2-0.2,0.6-0.3,0.9-0.2l1.5,0.6 c0.3,0.1,0.5,0.4,0.5,0.8v3.8h10v-3.8c0-0.4,0.2-0.7,0.5-0.8l1.5-0.6c0.3-0.1,0.7-0.1,0.9,0.2l2.7,2.7l7.1-7.1l-2.7-2.7 C82.4,49.6,82.3,49.2,82.4,48.9z M78.2,56.7L77,55.5c-0.8-0.8-2-1.1-3.1-0.6l-1.5,0.6c-1.1,0.4-1.8,1.5-1.8,2.6v1.8h-6v-1.8 c0-1.2-0.7-2.2-1.8-2.6l-1.5-0.6c-1.1-0.4-2.3-0.2-3.1,0.6L57,56.7l-4.2-4.2l1.2-1.2c0.8-0.8,1.1-2,0.6-3.1L54,46.6 c-0.4-1.1-1.5-1.8-2.6-1.8h-1.8v-6h1.8c1.2,0,2.2-0.7,2.6-1.8l0.6-1.5c0.4-1.1,0.2-2.3-0.6-3.1l-1.2-1.2L57,27l1.2,1.2 c0.8,0.8,2,1.1,3.1,0.6l1.5-0.6c1.1-0.4,1.8-1.5,1.8-2.6v-1.8h6v1.8c0,1.2,0.7,2.2,1.8,2.6l1.5,0.6c1.1,0.4,2.3,0.2,3.1-0.6 l1.2-1.2l4.2,4.2l-1.2,1.2c-0.8,0.8-1.1,2-0.6,3.1l0.6,1.5c0.4,1.1,1.5,1.8,2.6,1.8h1.8v6h-1.8c-1.2,0-2.2,0.7-2.6,1.8l-0.6,1.5 c-0.4,1.1-0.2,2.3,0.6,3.1l1.2,1.2L78.2,56.7z"/>
      <path d="M64.6,35.1c-0.3-0.2-0.7-0.2-1,0s-0.5,0.5-0.5,0.9v11.5c0,0.4,0.2,0.7,0.5,0.9c0.2,0.1,0.3,0.1,0.5,0.1s0.3,0,0.5-0.1 l10-5.8c0.3-0.2,0.5-0.5,0.5-0.9s-0.2-0.7-0.5-0.9L64.6,35.1z M65.1,45.7v-8.1l7,4L65.1,45.7z"/>
    </g>
  </g>
  <path class="st1" d="M 20.734 79.454 L 2.734 79.454 L 2.734 77.454 C 2.734 72.454 6.734 68.454 11.734 68.454 C 16.734 68.454 20.734 72.454 20.734 77.454 L 20.734 79.454 Z" style="fill: rgb(216, 190, 162);"/>
  <path class="st2" d="M 50.734 79.454 L 32.734 79.454 L 32.734 77.454 C 32.734 72.454 36.734 68.454 41.734 68.454 C 46.734 68.454 50.734 72.454 50.734 77.454 L 50.734 79.454 Z" style="fill: rgb(216, 190, 162);"/>
  <path class="st3" d="M 80.734 79.454 L 62.734 79.454 L 62.734 77.454 C 62.734 72.454 66.734 68.454 71.734 68.454 C 76.734 68.454 80.734 72.454 80.734 77.454 L 80.734 79.454 Z" style="fill: rgb(216, 190, 162);"/>
  <path class="st4" d="M 57.934 17.954 C 56.734 17.954 55.734 17.254 55.334 16.154 L 54.734 14.654 C 54.334 13.554 54.534 12.354 55.334 11.554 L 56.534 10.354 L 52.334 6.054 L 51.134 7.254 C 50.334 8.054 49.134 8.354 48.034 7.854 L 46.534 7.254 C 45.434 6.854 44.734 5.754 44.734 4.654 L 44.734 2.854 L 38.734 2.854 L 38.734 4.654 C 38.734 5.854 38.034 6.854 36.934 7.254 L 35.434 7.854 C 34.334 8.254 33.134 8.054 32.334 7.254 L 31.134 6.054 L 26.934 10.254 L 28.134 11.454 C 28.934 12.254 29.234 13.454 28.734 14.554 L 28.134 16.154 C 27.734 17.254 26.634 17.954 25.534 17.954 L 23.734 17.954 L 23.734 23.954 L 25.534 23.954 C 26.734 23.954 27.734 24.654 28.134 25.754 L 28.734 27.254 C 29.134 28.354 28.934 29.554 28.134 30.354 L 26.934 31.554 L 31.134 35.754 L 32.334 34.554 C 33.134 33.754 34.334 33.454 35.434 33.954 L 36.934 34.554 C 38.034 34.954 38.734 36.054 38.734 37.154 L 38.734 38.954 L 44.734 38.954 L 44.734 37.154 C 44.734 35.954 45.434 34.954 46.534 34.554 L 48.034 33.954 C 49.134 33.554 50.334 33.754 51.134 34.554 L 52.334 35.754 L 56.534 31.554 L 55.334 30.354 C 54.534 29.554 54.234 28.354 54.734 27.254 L 55.334 25.754 C 55.734 24.654 56.834 23.954 57.934 23.954 L 59.734 23.954 L 59.734 17.954 L 57.934 17.954 Z M 41.734 32.954 C 35.134 32.954 29.734 27.554 29.734 20.954 C 29.734 14.354 35.134 8.954 41.734 8.954 C 48.334 8.954 53.734 14.354 53.734 20.954 C 53.734 27.554 48.334 32.954 41.734 32.954 Z"/>
</svg>