<?xml version="1.0" encoding="utf-8"?>
<!-- Generator: Adobe Illustrator 26.0.0, SVG Export Plug-In . SVG Version: 6.00 Build 0)  -->
<svg version="1.1" id="Capa_1" xmlns="http://www.w3.org/2000/svg" xmlns:xlink="http://www.w3.org/1999/xlink" x="0px" y="0px"
	 viewBox="0 0 133 133" style="enable-background:new 0 0 133 133;" xml:space="preserve">
<style type="text/css">
	.st0{fill:#FFFFFF;stroke:#CCCCCC;stroke-width:0.5;stroke-miterlimit:10;}
	.st1{fill:#F39200;}
	.st2{fill:#ECECEC;}
	.st3{fill:#F8B133;}
	.st4{fill:#1D1D1B;}
	.st5{fill:#D8BEA1;}
	.st6{fill:#35A8E0;}
	.st7{fill:#93C01F;}
</style>
<g id="iconos">
	<circle class="st0" cx="66.5" cy="66.5" r="66"/>
	<path class="st1" d="M66.5,133C29.8,133,0,103.2,0,66.5S29.8,0,66.5,0S133,29.8,133,66.5C133,103.2,103.2,133,66.5,133z M66.5,1
		C30.3,1,1,30.3,1,66.5S30.3,132,66.5,132S132,102.7,132,66.5C131.9,30.3,102.7,1.1,66.5,1z"/>
	<path class="st2" d="M92.1,101.8H40.9c-0.6,0-1-0.4-1-1V32.2c0-0.6,0.4-1,1-1h33.3v15.5c0,1.8,1.5,3.3,3.4,3.3h15.4v50.8
		C93.1,101.3,92.6,101.8,92.1,101.8z"/>
	<path class="st3" d="M70.6,51.6V37.2H45.4v20.6H87v-4.2H72.5C71.4,53.6,70.6,52.7,70.6,51.6z"/>
	<path class="st4" d="M95.2,48.5c-0.1-0.1-0.1-0.3-0.2-0.4L76.2,29.3c-0.1-0.1-0.2-0.2-0.4-0.2C75.6,29,75.5,29,75.3,29H40.9
		c-1.8,0-3.2,1.4-3.2,3.2v68.7c0,1.8,1.5,3.2,3.2,3.2h51.2c1.8,0,3.2-1.4,3.2-3.2V48.9C95.3,48.8,95.3,48.6,95.2,48.5z M76.5,32.8
		l15,15H77.6c-0.6,0-1.1-0.5-1.1-1.1V32.8z M92.1,101.8H40.9c-0.6,0-1-0.4-1-1V32.2c0-0.6,0.4-1,1-1h33.3v15.5
		c0,1.8,1.5,3.3,3.4,3.3h15.4v50.8C93.1,101.3,92.6,101.8,92.1,101.8L92.1,101.8z"/>
	<path class="st5" d="M76.5,32.8l15,15H77.6c-0.6,0-1.1-0.5-1.1-1.1V32.8z"/>
	<path class="st4" d="M85.1,58.9H47.2c-1.6,0-2.9-1.3-2.9-2.9V39c0-1.6,1.3-2.9,2.9-2.9h23.3c0.6,0.1,1.1,0.6,1,1.2
		c-0.1,0.5-0.5,1-1,1H47.2c-0.4,0-0.7,0.3-0.7,0.7v17c0,0.4,0.3,0.7,0.7,0.7c0,0,0,0,0,0h37.9c0.4,0,0.7-0.3,0.7-0.7l0,0v-2.4
		c0.1-0.6,0.6-1.1,1.2-1c0.5,0.1,1,0.5,1,1V56C88,57.6,86.7,58.9,85.1,58.9z"/>
	<path class="st4" d="M87,69.1H45.4c-0.6,0.1-1.2-0.4-1.2-1c-0.1-0.6,0.4-1.2,1-1.2c0.1,0,0.1,0,0.2,0H87c0.6,0.1,1.1,0.6,1,1.2
		C88,68.6,87.5,69.1,87,69.1z"/>
	<path class="st4" d="M87,76.6H45.4c-0.6,0.1-1.2-0.4-1.2-1c-0.1-0.6,0.4-1.2,1-1.2c0.1,0,0.1,0,0.2,0H87c0.6,0.1,1.1,0.6,1,1.2
		C88,76.1,87.5,76.5,87,76.6z"/>
	<path class="st4" d="M87,84H45.4c-0.6,0.1-1.2-0.4-1.2-1c-0.1-0.6,0.4-1.2,1-1.2c0.1,0,0.1,0,0.2,0H87c0.6,0.1,1.1,0.6,1,1.2
		C88,83.5,87.5,83.9,87,84z"/>
	<path class="st6" d="M45.2,92.3h3.4c0.3,0,0.5,0.2,0.5,0.5v3.4c0,0.3-0.2,0.5-0.5,0.5h-3.4c-0.3,0-0.5-0.2-0.5-0.5v-3.4
		C44.7,92.5,44.9,92.3,45.2,92.3z"/>
	<path class="st7" d="M52.5,92.3H56c0.3,0,0.5,0.2,0.5,0.5v3.4c0,0.3-0.2,0.5-0.5,0.5h-3.4c-0.3,0-0.5-0.2-0.5-0.5v-3.4
		C52,92.5,52.3,92.3,52.5,92.3z"/>
	<path class="st3" d="M59.9,92.3h3.4c0.3,0,0.5,0.2,0.5,0.5v3.4c0,0.3-0.2,0.5-0.5,0.5h-3.4c-0.3,0-0.5-0.2-0.5-0.5v-3.4
		C59.4,92.5,59.7,92.3,59.9,92.3z"/>
</g>
</svg>
