<?xml version="1.0" encoding="utf-8"?>
<!-- Generator: Adobe Illustrator 26.0.0, SVG Export Plug-In . SVG Version: 6.00 Build 0)  -->
<svg version="1.1" id="Capa_1" xmlns="http://www.w3.org/2000/svg" xmlns:xlink="http://www.w3.org/1999/xlink" x="0px" y="0px"
	 viewBox="0 0 133 133" style="enable-background:new 0 0 133 133;" xml:space="preserve">
<style type="text/css">
	.st0{fill:#FFFFFF;stroke:#CCCCCC;stroke-width:0.5;stroke-miterlimit:10;}
	.st1{fill:#F39200;}
	.st2{fill:#1D1D1B;}
	.st3{fill:#35A8E0;}
	.st4{fill:#D8BEA1;}
	.st5{fill:#93C01F;}
	.st6{fill:#F8B133;}
</style>
<g id="iconos">
	<circle class="st0" cx="66.5" cy="66.5" r="66"/>
	<path class="st1" d="M66.5,133C29.8,133,0,103.2,0,66.5S29.8,0,66.5,0S133,29.8,133,66.5C133,103.2,103.2,133,66.5,133z M66.5,1
		C30.3,1,1,30.3,1,66.5S30.3,132,66.5,132S132,102.7,132,66.5C131.9,30.3,102.7,1.1,66.5,1z"/>
	<path class="st2" d="M94.7,29.5H43.5c-0.6,0-1.1,0.5-1.1,1.1v4.1h-4c-0.6,0-1.1,0.5-1.1,1.1v69c0,0.6,0.5,1.1,1.1,1.1h51.1
		c0.6,0,1.1-0.5,1.1-1.1c0,0,0,0,0,0v-4.1h4c0.6,0,1.1-0.5,1.1-1.1c0,0,0,0,0,0v-69C95.7,30.1,95.3,29.6,94.7,29.5z M88.4,103.8
		H39.5V37h2.9v62.7c0,0.6,0.5,1.1,1.1,1.1l0,0h44.9V103.8z M93.5,98.5H44.6V31.8h48.9V98.5z"/>
	<path class="st3" d="M88.4,103.8H39.5V37h2.9v62.7c0,0.6,0.5,1.1,1.1,1.1l0,0h44.9V103.8z"/>
	<path class="st2" d="M91.9,27.5C91.7,27.2,91.3,27,91,27H74.8c-0.6,0-1.1,0.5-1.1,1.1c0,0.1,0,0.2,0,0.3l2.2,7.8
		c0.1,0.5,0.6,0.8,1.1,0.8h2.1v4.5c-0.7,0.9-1.1,2-1.1,3.1c-0.4,2.7,1.5,5.3,4.2,5.7c2.7,0.4,5.3-1.5,5.7-4.2c0.1-0.5,0.1-0.9,0-1.4
		c0-1.2-0.4-2.3-1.2-3.2V37h2c0.5,0,0.9-0.3,1.1-0.8l2.2-7.8C92.1,28.1,92.1,27.7,91.9,27.5z M82.9,47.5c-1.5,0-2.7-1.2-2.7-2.7
		c0-0.9,0.4-1.7,1.2-2.2V37h3.1v5.4c1.2,0.8,1.6,2.5,0.8,3.7C84.7,47,83.8,47.4,82.9,47.5L82.9,47.5z M87.9,34.8h-10l-1.6-5.5h13.2
		L87.9,34.8z"/>
	<polygon class="st4" points="87.9,34.8 85.6,34.8 80.2,34.8 77.9,34.8 76.3,29.2 89.5,29.2 	"/>
	<rect x="48.8" y="35.9" class="st5" width="18" height="25.6"/>
	<path class="st2" d="M66.8,62.6h-18c-0.6,0-1.1-0.5-1.1-1.1V35.9c0-0.6,0.5-1.1,1.1-1.1h18c0.6,0,1.1,0.5,1.1,1.1v25.6
		C67.9,62.1,67.4,62.6,66.8,62.6z M50,60.4h15.7V37H50V60.4z"/>
	<path class="st2" d="M61.5,42.5h-8.3c-0.6,0-1.1-0.5-1.1-1.1c0-0.6,0.5-1.1,1.1-1.1l0,0h8.3c0.6,0,1.1,0.5,1.1,1.1
		C62.6,41.9,62.1,42.5,61.5,42.5z"/>
	<path class="st2" d="M61.5,47.4h-8.3c-0.6,0.1-1.2-0.4-1.2-1c-0.1-0.6,0.4-1.2,1-1.2c0.1,0,0.1,0,0.2,0h8.3c0.6-0.1,1.2,0.4,1.2,1
		c0.1,0.6-0.4,1.2-1,1.2C61.7,47.4,61.6,47.4,61.5,47.4z"/>
	<path class="st2" d="M61.5,52.3h-8.3c-0.6,0.1-1.2-0.4-1.2-1c-0.1-0.6,0.4-1.2,1-1.2c0.1,0,0.1,0,0.2,0h8.3c0.6-0.1,1.2,0.4,1.2,1
		c0.1,0.6-0.4,1.2-1,1.2C61.7,52.3,61.6,52.3,61.5,52.3z"/>
	<path class="st2" d="M61.5,57.3h-8.3c-0.6,0.1-1.2-0.4-1.2-1c-0.1-0.6,0.4-1.2,1-1.2c0.1,0,0.1,0,0.2,0h8.3c0.6-0.1,1.2,0.4,1.2,1
		c0.1,0.6-0.4,1.2-1,1.2C61.7,57.3,61.6,57.3,61.5,57.3z"/>
	<path class="st2" d="M89.5,55.1H76.3c-0.6,0-1.1-0.5-1.1-1.1c0-0.6,0.5-1.1,1.1-1.1h13.2c0.6,0,1.1,0.5,1.1,1.1
		C90.6,54.6,90.1,55.1,89.5,55.1z"/>
	<path class="st2" d="M89.5,60H76.3c-0.6,0-1.1-0.5-1.1-1.1c0-0.6,0.5-1.1,1.1-1.1h13.2c0.6,0,1.1,0.5,1.1,1.1
		C90.6,59.5,90.1,60,89.5,60z"/>
	<path class="st2" d="M89.5,65H76.3c-0.6,0-1.1-0.5-1.1-1.1c0-0.6,0.5-1.1,1.1-1.1h13.2c0.6,0,1.1,0.5,1.1,1.1
		C90.6,64.5,90.1,65,89.5,65z"/>
	<path class="st2" d="M71.7,55.1h-0.6c-0.6,0-1.1-0.5-1.1-1.1c0-0.6,0.5-1.1,1.1-1.1h0.6c0.6,0,1.1,0.5,1.1,1.1
		C72.8,54.6,72.3,55.1,71.7,55.1z"/>
	<path class="st2" d="M71.7,60h-0.6c-0.6,0-1.1-0.5-1.1-1.1c0-0.6,0.5-1.1,1.1-1.1h0.6c0.6,0,1.1,0.5,1.1,1.1
		C72.8,59.5,72.3,60,71.7,60z"/>
	<path class="st2" d="M71.7,65h-0.6c-0.6,0-1.1-0.5-1.1-1.1c0-0.6,0.5-1.1,1.1-1.1h0.6c0.6,0,1.1,0.5,1.1,1.1
		C72.8,64.5,72.3,65,71.7,65z"/>
	<rect x="51" y="87" class="st6" width="5.3" height="7.7"/>
	<rect x="61.1" y="81.9" class="st6" width="5.3" height="12.8"/>
	<rect x="71.2" y="76.8" class="st6" width="5.3" height="17.8"/>
	<rect x="81.3" y="71.6" class="st6" width="5.3" height="23.1"/>
	<path class="st2" d="M89.5,93.6h-1.8V71.6c0-0.6-0.5-1.1-1.1-1.1c0,0,0,0,0,0h-5.3c-0.6,0-1.1,0.5-1.1,1.1c0,0,0,0,0,0v21.9h-2.6
		V76.8c0-0.6-0.5-1.1-1.1-1.1c0,0,0,0,0,0h-5.3c-0.6,0-1.1,0.5-1.1,1.1c0,0,0,0,0,0v16.7h-2.6V81.9c0-0.6-0.5-1.1-1.1-1.1
		c0,0,0,0,0,0h-5.3c-0.6,0-1.1,0.5-1.1,1.1v11.6h-2.7V87c0-0.6-0.5-1.1-1.1-1.1l0,0H51c-0.6,0-1.1,0.5-1.2,1.1c0,0,0,0,0,0.1v6.6
		h-1.6c-0.6,0-1.1,0.5-1.1,1.1c0,0.6,0.5,1.1,1.1,1.1h41.3c0.6,0,1.1-0.5,1.1-1.1S90.1,93.6,89.5,93.6
		C89.5,93.6,89.5,93.6,89.5,93.6L89.5,93.6z M52.1,93.6v-5.5h3v5.5H52.1z M62.2,93.6V83.1h3v10.5H62.2z M72.3,93.6V78h3v15.6H72.3z
		 M82.5,93.6V72.7h3v20.8H82.5z"/>
</g>
</svg>
