<?xml version="1.0" encoding="utf-8"?>
<!-- Generator: Adobe Illustrator 26.0.0, SVG Export Plug-In . SVG Version: 6.00 Build 0)  -->
<svg version="1.1" id="Capa_1" xmlns="http://www.w3.org/2000/svg" xmlns:xlink="http://www.w3.org/1999/xlink" x="0px" y="0px"
	 viewBox="0 0 86.4 70.1" style="enable-background:new 0 0 86.4 70.1;" xml:space="preserve">
<style type="text/css">
	.st0{fill:#D8BEA2;}
</style>
<g>
	<path class="st0" d="M3.7,69.1h16.4c1.5,0,2.7-1.2,2.7-2.7v-12H1v12C1,67.9,2.2,69.1,3.7,69.1z"/>
	<path class="st0" d="M35,69.1h16.4c1.5,0,2.7-1.2,2.7-2.7v-12H32.3v12C32.3,67.9,33.5,69.1,35,69.1z"/>
	<path class="st0" d="M66.4,69.1h16.4c1.5,0,2.7-1.2,2.7-2.7v-12H63.7v12C63.7,67.9,64.9,69.1,66.4,69.1z"/>
	<path class="st0" d="M60.2,25.3H26c-2.9-4-2.9-8.1,0-12.1h34.2C63.3,17.2,63.3,21.2,60.2,25.3z"/>
	<path d="M20.3,46.4h-7.4v-6.5c0-1.3,1.1-2.4,2.4-2.4h6.1c0.6,0,1-0.4,1-1s-0.4-1-1-1h-6.1c-2.4,0-4.4,2-4.4,4.4v6.5H3.5
		c-1.9,0-3.5,1.6-3.5,3.5v16.8c0,1.9,1.6,3.5,3.5,3.5h16.8c1.9,0,3.5-1.6,3.5-3.5V49.8C23.7,47.9,22.2,46.4,20.3,46.4z M3.5,48.4
		h16.8c0.8,0,1.5,0.7,1.5,1.5v3.6H2v-3.6C2,49,2.7,48.4,3.5,48.4z M20.3,68.1H3.5c-0.8,0-1.5-0.7-1.5-1.5V55.4h19.7v11.2
		C21.7,67.4,21.1,68.1,20.3,68.1z M82.9,46.4h-7.3v-6.5c0-2.4-2-4.4-4.4-4.4h-27v-9.2h16.1c0.3,0,0.6-0.1,0.8-0.4
		c3.2-4.2,3.3-8.5,0.4-12.7c2.9-4.2,2.7-8.5-0.4-12.7C60.9,0.1,60.6,0,60.2,0H26c-0.3,0-0.6,0.2-0.8,0.4c-3,4.2-3.1,8.5-0.4,12.7
		c-2.7,4.2-2.6,8.5,0.4,12.7c0.2,0.3,0.5,0.4,0.8,0.4h16.2v9.2H36c-0.6,0-1,0.4-1,1s0.4,1,1,1h6.2v8.9h-7.4c-1.9,0-3.5,1.6-3.5,3.5
		v16.8c0,1.9,1.6,3.5,3.5,3.5h16.8c1.9,0,3.5-1.6,3.5-3.5V49.8c0-1.9-1.6-3.5-3.5-3.5h-7.4v-8.9h27c1.3,0,2.4,1.1,2.4,2.4v6.5h-7.5
		c-1.9,0-3.5,1.6-3.5,3.5v16.8c0,1.9,1.6,3.5,3.5,3.5h16.8c1.9,0,3.5-1.6,3.5-3.5V49.8C86.4,47.9,84.8,46.4,82.9,46.4z M26.5,2h33.2
		c2.4,3.4,2.4,6.7,0,10.1H26.5C24.3,8.7,24.3,5.4,26.5,2z M26.5,14.1h33.2c2.4,3.4,2.4,6.7,0,10.1H26.5
		C24.3,20.9,24.3,17.5,26.5,14.1z M51.6,68.1H34.8c-0.8,0-1.5-0.7-1.5-1.5V55.4h19.7v11.2C53.1,67.4,52.4,68.1,51.6,68.1z
		 M53.1,49.8v3.6H33.3v-3.6c0-0.8,0.7-1.5,1.5-1.5h16.8C52.4,48.4,53.1,49,53.1,49.8z M66.1,48.4h16.8c0.8,0,1.5,0.7,1.5,1.5v3.6
		H64.7v-3.6C64.7,49,65.3,48.4,66.1,48.4z M82.9,68.1H66.1c-0.8,0-1.5-0.7-1.5-1.5V55.4h19.7v11.2C84.4,67.4,83.7,68.1,82.9,68.1z
		 M29.9,36.6c0,0.7-0.6,1.3-1.3,1.3c-0.7,0-1.3-0.6-1.3-1.3s0.6-1.3,1.3-1.3C29.3,35.3,29.9,35.8,29.9,36.6z M33.1,19.5
		c0,0.8-0.7,1.5-1.5,1.5s-1.5-0.7-1.5-1.5s0.7-1.5,1.5-1.5S33.1,18.7,33.1,19.5z M40.5,19.5c0,0.8-0.7,1.5-1.5,1.5s-1.5-0.7-1.5-1.5
		s0.7-1.5,1.5-1.5S40.5,18.7,40.5,19.5z M33.1,7.4c0,0.8-0.7,1.5-1.5,1.5s-1.5-0.7-1.5-1.5s0.7-1.5,1.5-1.5S33.1,6.6,33.1,7.4z
		 M40.5,7.4c0,0.8-0.7,1.5-1.5,1.5s-1.5-0.7-1.5-1.5s0.7-1.5,1.5-1.5S40.5,6.6,40.5,7.4z"/>
</g>
</svg>
