<?xml version="1.0" encoding="utf-8"?>
<!-- Generator: Adobe Illustrator 26.0.0, SVG Export Plug-In . SVG Version: 6.00 Build 0)  -->
<svg version="1.1" id="Capa_1" xmlns="http://www.w3.org/2000/svg" xmlns:xlink="http://www.w3.org/1999/xlink" x="0px" y="0px"
	 viewBox="0 0 19.5 14.5" style="enable-background:new 0 0 19.5 14.5;" xml:space="preserve">
<style type="text/css">
	.st0{fill:#D8BFA3;}
	.st1{fill:#020203;}
</style>
<g>
	<rect x="0.4" y="0.7" class="st0" width="18.2" height="12.8"/>
	<path class="st1" d="M19.5,7.1V0.7c0-0.4-0.3-0.7-0.7-0.7H0.7C0.3,0,0,0.3,0,0.7v13.1c0,0.4,0.3,0.7,0.7,0.7h18.1
		c0.4,0,0.7-0.3,0.7-0.7v-2.5c0-0.4-0.3-0.7-0.7-0.7c-0.4,0-0.7,0.3-0.7,0.7v1.8H1.4V1.4h16.7v5H8.6l1.6-1.6c0.3-0.3,0.3-0.7,0-1
		c-0.3-0.3-0.7-0.3-1,0L6.5,6.6c0,0-0.1,0.1-0.1,0.1c0,0,0,0,0,0c0,0.1,0,0.1-0.1,0.2c0,0,0,0,0,0c0,0.1,0,0.1,0,0.2c0,0,0,0,0,0
		c0,0.1,0,0.1,0,0.2c0,0,0,0,0,0c0,0,0,0,0,0c0,0.1,0.1,0.1,0.1,0.2c0,0,0,0,0,0c0,0,0,0,0,0l2.8,2.8c0.1,0.1,0.3,0.2,0.5,0.2
		c0.2,0,0.4-0.1,0.5-0.2c0.3-0.3,0.3-0.7,0-1L8.6,7.8h10.2C19.2,7.8,19.5,7.5,19.5,7.1z"/>
</g>
</svg>
