<?xml version="1.0" encoding="utf-8"?>
<!-- Generator: Adobe Illustrator 26.0.0, SVG Export Plug-In . SVG Version: 6.00 Build 0)  -->
<svg version="1.1" id="Capa_1" xmlns="http://www.w3.org/2000/svg" xmlns:xlink="http://www.w3.org/1999/xlink" x="0px" y="0px"
	 viewBox="0 0 90.1 71.2" style="enable-background:new 0 0 90.1 71.2;" xml:space="preserve">
<style type="text/css">
	.st0{fill:#ECECEC;}
	.st1{fill:#35A8E0;}
	.st2{fill:#1D1D1B;}
	.st3{fill:#F8B133;}
	.st4{fill:#93C01F;}
	.st5{fill:#D8BEA1;}
	.st6{fill:none;}
</style>
<path class="st0" d="M55.7,33.2v-2.5c0-0.5-0.4-0.9-0.9-0.9h-8.3c-0.5,0-0.9,0.4-0.9,0.9c0,0,0,0,0,0v4.4c0,0.5,0.4,0.9,0.9,0.9
	c0,0,0,0,0,0h7.1C54.2,35,54.9,34,55.7,33.2z"/>
<path class="st1" d="M5.8,9.3h7.9c0.6,0,1.1,0.5,1.1,1.1v4c0,0.6-0.5,1.1-1.1,1.1H5.8c-0.6,0-1.1-0.5-1.1-1.1v-4
	C4.7,9.8,5.2,9.3,5.8,9.3z"/>
<path class="st0" d="M19.4,9.3h7.9c0.6,0,1.1,0.5,1.1,1.1v4c0,0.6-0.5,1.1-1.1,1.1h-7.9c-0.6,0-1.1-0.5-1.1-1.1v-4
	C18.3,9.8,18.8,9.3,19.4,9.3z"/>
<path class="st2" d="M27.5,16.3h-8.3c-0.9,0-1.7-0.8-1.7-1.7c0,0,0,0,0,0v-4.4c0-0.9,0.8-1.7,1.7-1.7h8.3c0.9,0,1.7,0.8,1.7,1.7v4.4
	C29.2,15.6,28.4,16.3,27.5,16.3C27.5,16.3,27.5,16.3,27.5,16.3z M19.2,10.1C19.2,10.1,19.2,10.1,19.2,10.1l-0.1,4.5
	c0,0,0,0.1,0.1,0.1h8.3c0,0,0.1,0,0.1-0.1v-4.4c0,0,0-0.1-0.1-0.1H19.2z"/>
<path class="st0" d="M33.1,9.3H41c0.6,0,1.1,0.5,1.1,1.1v4c0,0.6-0.5,1.1-1.1,1.1h-7.9c-0.6,0-1.1-0.5-1.1-1.1v-4
	C32,9.8,32.5,9.3,33.1,9.3z"/>
<path class="st2" d="M41.2,16.3h-8.3c-0.9,0-1.7-0.8-1.7-1.7v-4.4c0-0.9,0.8-1.7,1.7-1.7h8.3c0.9,0,1.7,0.8,1.7,1.7v4.4
	C42.9,15.6,42.1,16.3,41.2,16.3z M32.9,10.1C32.9,10.1,32.8,10.2,32.9,10.1l-0.1,4.5c0,0,0,0.1,0.1,0.1h8.3c0,0,0.1,0,0.1-0.1v-4.4
	c0,0,0-0.1-0.1-0.1H32.9z"/>
<path class="st0" d="M46.8,9.3h7.9c0.6,0,1.1,0.5,1.1,1.1v4c0,0.6-0.5,1.1-1.1,1.1h-7.9c-0.6,0-1.1-0.5-1.1-1.1v-4
	C45.7,9.8,46.2,9.3,46.8,9.3z"/>
<path class="st2" d="M54.8,16.3h-8.3c-0.9,0-1.7-0.8-1.7-1.7v-4.4c0-0.9,0.8-1.7,1.7-1.7h8.3c0.9,0,1.7,0.8,1.7,1.7v4.4
	C56.5,15.6,55.8,16.3,54.8,16.3z M46.6,10.1C46.5,10.1,46.5,10.1,46.6,10.1l-0.1,4.5c0,0,0,0.1,0.1,0.1h8.3c0,0,0.1,0,0.1-0.1v-4.4
	c0,0,0-0.1-0.1-0.1H46.6z"/>
<path class="st3" d="M5.8,19.5h7.9c0.6,0,1.1,0.5,1.1,1.1v4c0,0.6-0.5,1.1-1.1,1.1H5.8c-0.6,0-1.1-0.5-1.1-1.1v-4
	C4.7,20,5.2,19.5,5.8,19.5z"/>
<path class="st2" d="M13.8,26.6H5.6c-0.9,0-1.7-0.8-1.7-1.7v-4.4c0-0.9,0.8-1.7,1.7-1.7h8.3c0.9,0,1.7,0.8,1.7,1.7v4.4
	C15.5,25.8,14.8,26.6,13.8,26.6z M5.6,20.4C5.5,20.4,5.5,20.4,5.6,20.4l-0.1,4.5c0,0,0,0.1,0.1,0.1h8.3c0,0,0.1,0,0.1-0.1v-4.4
	c0,0,0-0.1-0.1-0.1H5.6z"/>
<path class="st0" d="M19.4,19.5h7.9c0.6,0,1.1,0.5,1.1,1.1v4c0,0.6-0.5,1.1-1.1,1.1h-7.9c-0.6,0-1.1-0.5-1.1-1.1v-4
	C18.3,20,18.8,19.5,19.4,19.5z"/>
<path class="st2" d="M27.5,26.6h-8.3c-0.9,0-1.7-0.8-1.7-1.7v-4.4c0-0.9,0.8-1.7,1.7-1.7h8.3c0.9,0,1.7,0.8,1.7,1.7v4.4
	C29.2,25.8,28.4,26.6,27.5,26.6z M19.2,20.4C19.2,20.4,19.2,20.4,19.2,20.4l-0.1,4.5c0,0,0,0.1,0.1,0.1h8.3c0,0,0.1,0,0.1-0.1v-4.4
	c0,0,0-0.1-0.1-0.1H19.2z"/>
<path class="st0" d="M33.1,19.5H41c0.6,0,1.1,0.5,1.1,1.1v4c0,0.6-0.5,1.1-1.1,1.1h-7.9c-0.6,0-1.1-0.5-1.1-1.1v-4
	C32,20,32.5,19.5,33.1,19.5z"/>
<path class="st2" d="M41.2,26.6h-8.3c-0.9,0-1.7-0.8-1.7-1.7v-4.4c0-0.9,0.8-1.7,1.7-1.7h8.3c0.9,0,1.7,0.8,1.7,1.7v4.4
	C42.9,25.8,42.1,26.6,41.2,26.6z M32.9,20.4C32.9,20.4,32.8,20.4,32.9,20.4l-0.1,4.5c0,0,0,0.1,0.1,0.1h8.3c0,0,0.1,0,0.1-0.1v-4.4
	c0,0,0-0.1-0.1-0.1H32.9z"/>
<path class="st0" d="M46.8,19.5h7.9c0.6,0,1.1,0.5,1.1,1.1v4c0,0.6-0.5,1.1-1.1,1.1h-7.9c-0.6,0-1.1-0.5-1.1-1.1v-4
	C45.7,20,46.2,19.5,46.8,19.5z"/>
<path class="st2" d="M54.8,26.6h-8.3c-0.9,0-1.7-0.8-1.7-1.7v-4.4c0-0.9,0.8-1.7,1.7-1.7h8.3c0.9,0,1.7,0.8,1.7,1.7v4.4
	C56.5,25.8,55.8,26.6,54.8,26.6z M46.6,20.4C46.5,20.4,46.5,20.4,46.6,20.4l-0.1,4.5c0,0,0,0.1,0.1,0.1h8.3c0,0,0.1,0,0.1-0.1v-4.4
	c0,0,0-0.1-0.1-0.1H46.6z"/>
<path class="st4" d="M5.8,29.8h7.9c0.6,0,1.1,0.5,1.1,1.1v4c0,0.6-0.5,1.1-1.1,1.1H5.8c-0.6,0-1.1-0.5-1.1-1.1v-4
	C4.7,30.3,5.2,29.8,5.8,29.8z"/>
<path class="st2" d="M13.8,36.8H5.6c-0.9,0-1.7-0.8-1.7-1.7v-4.4c0-0.9,0.8-1.7,1.7-1.7h8.3c0.9,0,1.7,0.8,1.7,1.7v4.4
	C15.5,36.1,14.8,36.8,13.8,36.8z M5.6,30.6C5.5,30.6,5.5,30.6,5.6,30.6l-0.1,4.5c0,0,0,0.1,0.1,0.1h8.3c0,0,0.1,0,0.1-0.1v-4.4
	c0,0,0-0.1-0.1-0.1H5.6z"/>
<path class="st0" d="M19.4,29.8h7.9c0.6,0,1.1,0.5,1.1,1.1v4c0,0.6-0.5,1.1-1.1,1.1h-7.9c-0.6,0-1.1-0.5-1.1-1.1v-4
	C18.3,30.3,18.8,29.8,19.4,29.8z"/>
<path class="st2" d="M27.5,36.8h-8.3c-0.9,0-1.7-0.8-1.7-1.7v-4.4c0-0.9,0.8-1.7,1.7-1.7h8.3c0.9,0,1.7,0.8,1.7,1.7v4.4
	C29.2,36.1,28.4,36.8,27.5,36.8z M19.2,30.6C19.2,30.6,19.1,30.6,19.2,30.6l-0.1,4.5c0,0,0,0.1,0.1,0.1h8.3c0,0,0.1,0,0.1-0.1v-4.4
	c0,0,0-0.1-0.1-0.1L19.2,30.6z"/>
<path class="st0" d="M33.1,29.8H41c0.6,0,1.1,0.5,1.1,1.1v4c0,0.6-0.5,1.1-1.1,1.1h-7.9c-0.6,0-1.1-0.5-1.1-1.1v-4
	C32,30.3,32.5,29.8,33.1,29.8z"/>
<path class="st2" d="M41.2,36.8h-8.3c-0.9,0-1.7-0.8-1.7-1.7v-4.4c0-0.9,0.8-1.7,1.7-1.7h8.3c0.9,0,1.7,0.8,1.7,1.7v4.4
	C42.8,36.1,42.1,36.8,41.2,36.8z M32.9,30.6C32.8,30.6,32.8,30.6,32.9,30.6l-0.1,4.5c0,0,0,0.1,0.1,0.1h8.3c0,0,0.1,0,0.1-0.1v-4.4
	c0,0,0-0.1-0.1-0.1L32.9,30.6z"/>
<path class="st5" d="M5.8,40h7.9c0.6,0,1.1,0.5,1.1,1.1v4c0,0.6-0.5,1.1-1.1,1.1H5.8c-0.6,0-1.1-0.5-1.1-1.1v-4
	C4.7,40.5,5.2,40,5.8,40z"/>
<path class="st2" d="M13.8,47H5.6c-0.9,0-1.7-0.8-1.7-1.7v-4.4c0-0.9,0.8-1.7,1.7-1.7h8.3c0.9,0,1.7,0.8,1.7,1.7v4.4
	C15.5,46.3,14.8,47,13.8,47z M5.6,40.8C5.5,40.8,5.5,40.9,5.6,40.8l-0.1,4.5c0,0,0,0.1,0.1,0.1h8.3c0,0,0.1,0,0.1-0.1v-4.4
	c0,0,0-0.1-0.1-0.1L5.6,40.8z"/>
<path class="st0" d="M19.4,40h7.9c0.6,0,1.1,0.5,1.1,1.1v4c0,0.6-0.5,1.1-1.1,1.1h-7.9c-0.6,0-1.1-0.5-1.1-1.1v-4
	C18.3,40.5,18.8,40,19.4,40z"/>
<path class="st2" d="M27.5,47h-8.3c-0.9,0-1.7-0.8-1.7-1.7v-4.4c0-0.9,0.8-1.7,1.7-1.7h8.3c0.9,0,1.7,0.8,1.7,1.7v4.4
	C29.2,46.3,28.4,47,27.5,47z M19.2,40.8C19.2,40.8,19.1,40.8,19.2,40.8l-0.1,4.5c0,0,0,0.1,0.1,0.1h8.3c0,0,0.1,0,0.1-0.1v-4.4
	c0,0,0-0.1-0.1-0.1L19.2,40.8z"/>
<path class="st0" d="M33.1,40H41c0.6,0,1.1,0.5,1.1,1.1v4c0,0.6-0.5,1.1-1.1,1.1h-7.9c-0.6,0-1.1-0.5-1.1-1.1v-4
	C32,40.5,32.5,40,33.1,40z"/>
<path class="st2" d="M41.2,47h-8.3c-0.9,0-1.7-0.8-1.7-1.7v-4.4c0-0.9,0.8-1.7,1.7-1.7h8.3c0.9,0,1.7,0.8,1.7,1.7v4.4
	C42.8,46.3,42.1,47,41.2,47z M32.9,40.8C32.8,40.8,32.8,40.8,32.9,40.8l-0.1,4.5c0,0,0,0.1,0.1,0.1h8.3c0,0,0.1,0,0.1-0.1v-4.4
	c0,0,0-0.1-0.1-0.1L32.9,40.8z"/>
<path class="st0" d="M60.4,9.3h7.9c0.6,0,1.1,0.5,1.1,1.1v4c0,0.6-0.5,1.1-1.1,1.1h-7.9c-0.6,0-1.1-0.5-1.1-1.1v-4
	C59.3,9.8,59.8,9.3,60.4,9.3z"/>
<path class="st2" d="M68.5,16.3h-8.3c-0.9,0-1.7-0.8-1.7-1.7c0,0,0,0,0,0v-4.4c0-0.9,0.8-1.7,1.7-1.7h8.3c0.9,0,1.7,0.8,1.7,1.7v4.4
	C70.2,15.5,69.4,16.3,68.5,16.3C68.5,16.3,68.5,16.3,68.5,16.3z M60.2,10.1C60.2,10.1,60.2,10.1,60.2,10.1l-0.1,4.5
	c0,0,0,0.1,0.1,0.1h8.3c0,0,0.1,0,0.1-0.1v-4.4c0,0,0-0.1-0.1-0.1H60.2z"/>
<path class="st0" d="M60.4,19.5h7.9c0.6,0,1.1,0.5,1.1,1.1v4c0,0.6-0.5,1.1-1.1,1.1h-7.9c-0.6,0-1.1-0.5-1.1-1.1v-4
	C59.3,20,59.8,19.5,60.4,19.5z"/>
<path class="st2" d="M68.5,26.6h-8.3c-0.9,0-1.7-0.8-1.7-1.7v-4.4c0-0.9,0.8-1.7,1.7-1.7h8.3c0.9,0,1.7,0.8,1.7,1.7v4.4
	C70.2,25.8,69.4,26.6,68.5,26.6z M60.2,20.4C60.2,20.4,60.2,20.4,60.2,20.4l-0.1,4.5c0,0,0,0.1,0.1,0.1h8.3c0,0,0.1,0,0.1-0.1v-4.4
	c0,0,0-0.1-0.1-0.1H60.2z"/>
<path class="st5" d="M24.6,4.2V3.3c0-0.1-0.2-0.2-0.4-0.2h-1.6c-0.2,0-0.4,0.1-0.4,0.2v0.9c0,0.1-0.2,0.2-0.4,0.2h-1.8
	c-0.3,0-0.5,0.2-0.4,0.3L23,7.5c0.2,0.1,0.5,0.1,0.7,0l3.5-2.8c0.1-0.1,0-0.3-0.4-0.3H25C24.8,4.4,24.6,4.3,24.6,4.2z"/>
<path class="st5" d="M38.2,4.2V3.3c0-0.1-0.2-0.2-0.4-0.2h-1.6c-0.2,0-0.4,0.1-0.4,0.2v0.9c0,0.1-0.2,0.2-0.4,0.2h-1.8
	c-0.3,0-0.5,0.2-0.3,0.3l3.5,2.8c0.2,0.1,0.5,0.1,0.7,0l3.5-2.8c0.2-0.1,0-0.3-0.4-0.3h-1.8C38.4,4.4,38.2,4.3,38.2,4.2z"/>
<path class="st5" d="M51.9,4.2V3.3c0-0.1-0.2-0.2-0.4-0.2h-1.6c-0.2,0-0.4,0.1-0.4,0.2v0.9c0,0.1-0.2,0.2-0.4,0.2h-1.8
	c-0.3,0-0.5,0.2-0.3,0.3l3.5,2.8c0.2,0.1,0.5,0.1,0.7,0l3.5-2.8c0.2-0.1,0-0.3-0.3-0.3h-1.8C52.1,4.4,51.9,4.3,51.9,4.2z"/>
<path class="st5" d="M65.6,4.2V3.3c0-0.1-0.2-0.2-0.4-0.2h-1.6c-0.2,0-0.4,0.1-0.4,0.2v0.9c0,0.1-0.2,0.2-0.4,0.2h-1.8
	c-0.3,0-0.5,0.2-0.3,0.3L64,7.5c0.2,0.1,0.5,0.1,0.7,0l3.5-2.8c0.2-0.1,0-0.3-0.3-0.3H66C65.8,4.4,65.6,4.3,65.6,4.2z"/>
<path class="st2" d="M13.8,8.5H5.6c-0.9,0-1.7,0.8-1.7,1.7v4.4c0,0.9,0.8,1.7,1.7,1.7c0,0,0,0,0,0h0.5c0.4,0,0.8-0.4,0.8-0.8
	c0,0,0,0,0,0l0,0c0-0.4-0.4-0.8-0.8-0.8h0H5.6c0,0-0.1,0-0.1-0.1v-4.4c0,0,0-0.1,0.1-0.1h8.3c0,0,0.1,0,0.1,0.1v4.4
	c0,0,0,0.1-0.1,0.1H9.7c-0.4,0-0.8,0.4-0.8,0.8l0,0c0,0.5,0.4,0.8,0.8,0.8h4.1c0.9,0,1.7-0.8,1.7-1.7v-4.4
	C15.5,9.2,14.8,8.5,13.8,8.5z"/>
<path class="st6" d="M59.1,34.7h10.3c0,0,0.1,0,0.1-0.1v-5.2c-0.8-0.2-1.6-0.3-2.4-0.4H65c-2.1,0.1-4.2,0.7-6,1.8v3.8
	C59,34.6,59,34.7,59.1,34.7C59.1,34.7,59.1,34.7,59.1,34.7z"/>
<path class="st6" d="M52.5,41.8C52.5,41.8,52.4,41.7,52.5,41.8L52.5,41.8l-0.6-0.1c0,0.5-0.1,0.9-0.1,1.4c0,1.4,0.2,2.9,0.6,4.2l0,0
	L52.5,41.8z"/>
<path class="st6" d="M59.1,41.7h10.3c0,0,0.1,0,0.1,0.1v5.5c0,0,0,0.1-0.1,0.1H59.1c0,0-0.1,0-0.1-0.1L59.1,41.7
	C59,41.8,59.1,41.7,59.1,41.7z"/>
<path class="st6" d="M76.3,33.4v17c0,2.1-1.7,3.8-3.8,3.8H57.2c6.2,4.8,15.1,3.7,19.9-2.5C81.3,46.2,81,38.5,76.3,33.4z"/>
<path class="st6" d="M74.3,50.4V31.6c-0.9-0.6-1.8-1.2-2.8-1.6v4.5c0,1.2-1,2.1-2.1,2.1H59.1c-1.2,0-2.1-0.9-2.1-2.1v-2.4
	c-2.3,1.9-4,4.6-4.7,7.5h0.1c1.2,0,2.1,1,2.1,2.1v5.5c0,0.9-0.5,1.7-1.3,2c0.5,1.1,1.1,2,1.9,2.9h17.4
	C73.5,52.2,74.3,51.4,74.3,50.4C74.3,50.4,74.3,50.4,74.3,50.4z M71.5,47.3c0,1.2-1,2.1-2.1,2.1H59.1c-1.2,0-2.1-1-2.1-2.1v-5.5
	c0-1.2,1-2.1,2.1-2.1c0,0,0,0,0,0h10.2c1.2,0,2.1,1,2.1,2.1V47.3z"/>
<path d="M66,28.9c-0.3,0-0.7,0-1,0h2.1C66.7,28.9,66.4,28.9,66,28.9z"/>
<path d="M76.3,50.4v-17c-0.6-0.7-1.3-1.2-2-1.8v18.8c0,1-0.8,1.8-1.8,1.8l0,0H55.1c0.6,0.7,1.3,1.4,2.1,2h15.3
	C74.6,54.2,76.3,52.5,76.3,50.4z"/>
<path d="M69.4,39.7H59.1c-1.2,0-2.1,1-2.1,2.1v5.5c0,1.2,1,2.1,2.1,2.1h10.2c1.2,0,2.1-1,2.1-2.1v-5.5
	C71.5,40.6,70.6,39.7,69.4,39.7z M69.5,47.3C69.5,47.3,69.4,47.4,69.5,47.3l-10.4,0.1c0,0-0.1,0-0.1-0.1c0,0,0,0,0,0v-5.5
	c0,0,0-0.1,0.1-0.1c0,0,0,0,0,0h10.3c0,0,0.1,0,0.1,0.1V47.3z"/>
<path d="M54.5,47.3v-5.5c0-1.2-1-2.1-2.1-2.1l0,0h-0.1c-0.2,0.7-0.3,1.3-0.4,2h0.5c0,0,0.1,0,0.1,0.1l0,0v5.5l0,0
	c0.2,0.7,0.5,1.3,0.8,1.9C54,48.8,54.5,48.1,54.5,47.3z"/>
<path d="M59.1,36.7h10.3c1.2,0,2.1-1,2.1-2.1V30c-0.6-0.3-1.3-0.5-2-0.7v5.2c0,0,0,0.1-0.1,0.1H59.1c0,0-0.1,0-0.1-0.1c0,0,0,0,0,0
	v-3.8c-0.7,0.4-1.4,0.9-2,1.4v2.4C57,35.7,57.9,36.7,59.1,36.7z"/>
<path class="st2" d="M53.5,49.3H3.1c-0.8,0-1.4-0.6-1.4-1.4c0,0,0,0,0,0V3.1c0-0.8,0.6-1.4,1.4-1.4c0,0,0,0,0,0H71
	c0.8,0,1.4,0.6,1.4,1.4c0,0,0,0,0,0V30c0.6,0.3,1.1,0.6,1.6,0.9V3.1C74.1,1.4,72.7,0,71,0H3.1C1.4,0,0,1.4,0,3.1v44.7
	c0,1.7,1.4,3.1,3.1,3.1c0,0,0,0,0,0h51.4C54.1,50.4,53.8,49.8,53.5,49.3z"/>
<path class="st0" d="M51.9,42.8c0-0.9,0.1-1.9,0.3-2.8h-5.7c-0.5,0-0.9,0.4-0.9,0.9v0v4.4c0,0.5,0.4,0.9,0.9,0.9c0,0,0,0,0,0h5.8
	C52.1,45.1,51.9,43.9,51.9,42.8z"/>
<path class="st2" d="M52.2,45.4h-5.6c0,0-0.1,0-0.1-0.1v-4.4c0,0,0-0.1,0.1-0.1h5.5c0.1-0.5,0.2-1.1,0.3-1.6h-5.9
	c-0.9,0-1.7,0.8-1.7,1.7v4.4c0,0.9,0.8,1.7,1.7,1.7h6C52.4,46.5,52.3,46,52.2,45.4z"/>
<path class="st2" d="M54.2,35.2h-7.6c0,0-0.1,0-0.1-0.1v-4.4c0,0,0-0.1,0.1-0.1h8.3c0,0,0.1,0,0.1,0.1v3.5c0.5-0.6,1-1.2,1.6-1.8
	v-1.7c0-0.9-0.8-1.7-1.7-1.7h-8.3c-0.9,0-1.7,0.8-1.7,1.7v4.4c0,0.9,0.8,1.7,1.7,1.7h6.7C53.5,36.3,53.8,35.7,54.2,35.2z"/>
<path class="st2" d="M62.9,29h-2.6c-0.9,0-1.7,0.8-1.7,1.7v0.1C59.9,30,61.3,29.4,62.9,29z"/>
<path class="st2" d="M89.2,64.3l-7.4-9.4c6.7-8.7,5.2-21.2-3.5-27.9S57,21.8,50.3,30.5s-5.2,21.2,3.5,27.9
	c6.1,4.8,14.5,5.5,21.4,1.9l7.3,9.2c0.7,0.9,1.7,1.5,2.8,1.6c0.2,0,0.3,0,0.5,0c2.3,0,4.2-1.9,4.2-4.3C90.1,65.9,89.7,65,89.2,64.3
	L89.2,64.3z M47.8,42.8c0-10.1,8.2-18.2,18.2-18.2s18.2,8.2,18.2,18.2S76.1,61,66,61c0,0,0,0,0,0C55.9,61,47.8,52.8,47.8,42.8z
	 M88.4,67.2c-0.2,1.4-1.5,2.5-2.9,2.3c-0.7-0.1-1.3-0.4-1.7-1l-7.2-9c1.5-0.9,2.8-2.1,4-3.3l7.2,9.1C88.3,65.8,88.5,66.5,88.4,67.2z
	"/>
<path class="st2" d="M66,27.8c-8.3,0-15,6.7-15,15s6.7,15,15,15s15-6.7,15-15S74.3,27.8,66,27.8z M66,56.2c-7.4,0-13.4-6-13.4-13.4
	c0-7.4,6-13.4,13.4-13.4s13.4,6,13.4,13.4C79.4,50.2,73.4,56.2,66,56.2z"/>
<path class="st5" d="M88.4,67.2c-0.2,1.4-1.5,2.5-2.9,2.3c-0.7-0.1-1.3-0.4-1.7-1l-7.2-9c1.5-0.9,2.8-2.1,4-3.3l7.2,9.1
	C88.3,65.8,88.5,66.5,88.4,67.2z"/>
<path class="st5" d="M66,24.5c-10.1,0-18.2,8.2-18.2,18.2C47.8,52.8,56,61,66,61c10.1,0,18.2-8.2,18.2-18.2
	C84.2,32.7,76.1,24.5,66,24.5z M66,57.8c-8.3,0-15-6.7-15-15s6.7-15,15-15s15,6.7,15,15S74.3,57.8,66,57.8z"/>
</svg>
