<?xml version="1.0" encoding="utf-8"?>
<!-- Generator: Adobe Illustrator 26.0.0, SVG Export Plug-In . SVG Version: 6.00 Build 0)  -->
<svg version="1.1" id="Capa_1" xmlns="http://www.w3.org/2000/svg" xmlns:xlink="http://www.w3.org/1999/xlink" x="0px" y="0px"
	 viewBox="0 0 16.9 16.9" style="enable-background:new 0 0 16.9 16.9;" xml:space="preserve">
<style type="text/css">
	.st0{fill:#EDEDED;}
	.st1{fill:#1D1D1B;}
</style>
<g id="Capa_2_00000018916944671059842780000012154796327440730250_">
	<path class="st0" d="M0.5,8.4c0,4.4,3.5,7.9,7.9,7.9s7.9-3.5,7.9-7.9s-3.5-7.9-7.9-7.9c0,0,0,0,0,0C4.1,0.5,0.5,4.1,0.5,8.4z
		 M3.6,8.4l4.6-4.2v2.6h5.1v3.4H8.2v2.4L3.6,8.4z"/>
	<path class="st1" d="M0,8.4C0,3.8,3.8,0,8.4,0s8.4,3.8,8.4,8.4c0,4.7-3.8,8.4-8.4,8.4c0,0,0,0,0,0C3.8,16.9,0,13.1,0,8.4z M1,8.4
		c0,4.1,3.3,7.4,7.4,7.4s7.4-3.3,7.4-7.4S12.6,1,8.4,1c0,0,0,0,0,0C4.3,1,1,4.3,1,8.4z M7.8,13L3.2,8.8C3.1,8.7,3.1,8.6,3.1,8.4
		c0-0.1,0.1-0.3,0.2-0.4l4.6-4.2C8,3.7,8.2,3.7,8.4,3.8C8.6,3.9,8.7,4,8.7,4.2v2.1h4.6c0.3,0,0.5,0.2,0.5,0.5v3.4
		c0,0.3-0.2,0.5-0.5,0.5H8.7v1.9c0,0.2-0.1,0.4-0.3,0.4c-0.1,0-0.1,0-0.2,0.1C8.1,13.1,7.9,13.1,7.8,13z M12.8,7.3H8.2
		c-0.3,0-0.5-0.2-0.5-0.5V5.4L4.3,8.4l3.4,3.1v-1.3c0-0.3,0.2-0.5,0.5-0.5l0,0h4.6L12.8,7.3z"/>
</g>
</svg>
