<?xml version="1.0" encoding="utf-8"?>
<!-- Generator: Adobe Illustrator 26.0.0, SVG Export Plug-In . SVG Version: 6.00 Build 0)  -->
<svg version="1.1" id="Capa_1" xmlns="http://www.w3.org/2000/svg" xmlns:xlink="http://www.w3.org/1999/xlink" x="0px" y="0px"
	 viewBox="0 0 79.4 79.4" style="enable-background:new 0 0 79.4 79.4;" xml:space="preserve">
<style type="text/css">
	.st0{fill:#B2B2B2;}
</style>
<g>
	<g>
		<path class="st0" d="M52.6,38.7c-0.6,0-1,0.4-1,1c0,6.5-5.3,11.9-11.9,11.9s-11.9-5.3-11.9-11.9c0-6.5,5.3-11.9,11.9-11.9
			c2.4,0,4.7,0.7,6.6,2c0.5,0.3,1.1,0.2,1.4-0.3c0.3-0.5,0.2-1.1-0.3-1.4c-2.3-1.5-5-2.4-7.7-2.4c-7.6,0-13.9,6.2-13.9,13.9
			S32,53.5,39.7,53.5s13.9-6.2,13.9-13.9C53.6,39.2,53.1,38.7,52.6,38.7z"/>
		<path class="st0" d="M12.9,28.5c-0.5-0.2-1.1,0.1-1.3,0.6c-1.3,3.4-1.9,7-1.9,10.6c0,3.5,0.6,7,1.8,10.3c0.1,0.4,0.5,0.7,0.9,0.7
			c0.1,0,0.2,0,0.3-0.1c0.5-0.2,0.8-0.8,0.6-1.3c-1.1-3.1-1.7-6.3-1.7-9.6c0-3.4,0.6-6.7,1.8-9.9C13.7,29.3,13.4,28.7,12.9,28.5z"/>
		<path class="st0" d="M49.3,66c-6.2,2.3-13.3,2.3-19.5-0.1c-0.5-0.2-1.1,0.1-1.3,0.6c-0.2,0.5,0.1,1.1,0.6,1.3
			c3.4,1.3,7,1.9,10.6,1.9c3.5,0,7-0.6,10.3-1.8c0.5-0.2,0.8-0.8,0.6-1.3C50.4,66.1,49.9,65.8,49.3,66z"/>
		<path class="st0" d="M66.6,28.8c-0.5,0.2-0.8,0.8-0.6,1.3c1.1,3.1,1.7,6.3,1.7,9.6c0,3.4-0.6,6.7-1.8,9.9
			c-0.2,0.5,0.1,1.1,0.6,1.3c0.1,0,0.2,0.1,0.4,0.1c0.4,0,0.8-0.2,0.9-0.6c1.3-3.4,1.9-7,1.9-10.6c0-3.5-0.6-7-1.8-10.3
			C67.7,28.9,67.1,28.6,66.6,28.8z"/>
		<path class="st0" d="M30.1,13.4c6.2-2.3,13.3-2.3,19.5,0.1c0.1,0,0.2,0.1,0.4,0.1c0.4,0,0.8-0.2,0.9-0.6c0.2-0.5-0.1-1.1-0.6-1.3
			c-6.7-2.5-14.2-2.6-20.9-0.1c-0.5,0.2-0.8,0.8-0.6,1.3C29,13.3,29.6,13.6,30.1,13.4z"/>
		<path class="st0" d="M72.3,62.4c4.7-6.7,7.1-14.5,7.1-22.7s-2.5-16-7.1-22.7l2.7-2.7c0.4-0.4,0.4-1,0-1.4s-1-0.4-1.4,0L65.4,21
			c-0.4,0.4-0.4,1,0,1.4l2.3,2.3H54.6V11.6L57,14c0.2,0.2,0.4,0.3,0.7,0.3s0.5-0.1,0.7-0.3l8.2-8.2c0.4-0.4,0.4-1,0-1.4
			s-1-0.4-1.4,0l-2.7,2.7C55.7,2.5,47.9,0,39.7,0S23.7,2.5,17,7.1l-2.7-2.7c-0.4-0.4-1-0.4-1.4,0s-0.4,1,0,1.4L21,14
			c0.4,0.4,1,0.4,1.4,0l2.3-2.3v13.1H11.6l2.3-2.3c0.4-0.4,0.4-1,0-1.4l-8.2-8.2c-0.4-0.4-1-0.4-1.4,0s-0.4,1,0,1.4L7.1,17
			C2.5,23.7,0,31.5,0,39.7s2.5,16,7.1,22.7l-2.7,2.7c-0.4,0.4-0.4,1,0,1.4s1,0.4,1.4,0l8.2-8.2c0.2-0.2,0.3-0.4,0.3-0.7
			S14.2,57.1,14,57l-2.3-2.3h13.1v13.1l-2.3-2.3c-0.4-0.4-1-0.4-1.4,0l-8.2,8.2c-0.4,0.4-0.4,1,0,1.4c0.2,0.2,0.5,0.3,0.7,0.3
			s0.5-0.1,0.7-0.3l2.7-2.7c6.7,4.7,14.5,7.1,22.7,7.1s16-2.5,22.7-7.1l2.7,2.7c0.2,0.2,0.5,0.3,0.7,0.3s0.5-0.1,0.7-0.3
			c0.4-0.4,0.4-1,0-1.4l-8.2-8.2c-0.2-0.2-0.4-0.3-0.7-0.3s-0.5,0.1-0.7,0.3l-2.3,2.3V54.7h13.1L65.4,57c-0.4,0.4-0.4,1,0,1.4
			l8.2,8.2c0.4,0.4,1,0.4,1.4,0s0.4-1,0-1.4L72.3,62.4z M70.9,54.4c0.3-0.3,0.4-0.7,0.2-1.1s-0.5-0.6-0.9-0.6H53.7c-0.6,0-1,0.4-1,1
			v16.5c0,0.4,0.2,0.8,0.6,0.9c0.4,0.2,0.8,0.1,1.1-0.2l3.3-3.3l3.3,3.3c-6.3,4.3-13.6,6.6-21.2,6.6s-15-2.3-21.2-6.6l3.3-3.3
			l3.3,3.3c0.3,0.3,0.7,0.4,1.1,0.2c0.4-0.2,0.6-0.5,0.6-0.9V53.7c0-0.6-0.4-1-1-1H9.4c-0.4,0-0.8,0.2-0.9,0.6
			c-0.2,0.4-0.1,0.8,0.2,1.1l3.3,3.3L8.7,61C4.3,54.7,2,47.3,2,39.7s2.3-15,6.6-21.2l3.3,3.3L8.5,25c-0.3,0.3-0.4,0.7-0.2,1.1
			s0.5,0.6,0.9,0.6h16.5c0.6,0,1-0.4,1-1V9.2c0-0.4-0.2-0.8-0.6-0.9c-0.4-0.2-0.8-0.1-1.1,0.2l-3.3,3.3l-3.3-3.3
			C24.7,4.3,32.1,2,39.7,2s15,2.3,21.2,6.6l-3.3,3.3l-3.3-3.3c-0.3-0.3-0.7-0.4-1.1-0.2c-0.4,0.2-0.6,0.5-0.6,0.9v16.5
			c0,0.6,0.4,1,1,1h16.5c0.4,0,0.8-0.2,0.9-0.6s0.1-0.8-0.2-1.1l-3.3-3.3l3.3-3.3c4.3,6.3,6.6,13.6,6.6,21.2s-2.3,15-6.6,21.2
			l-3.3-3.3L70.9,54.4z"/>
		<path class="st0" d="M32.1,36.9c-0.4-0.4-1-0.4-1.4,0s-0.4,1,0,1.4l7,7c0.2,0.2,0.4,0.3,0.7,0.3s0.5-0.1,0.7-0.3l14-14
			c0.4-0.4,0.4-1,0-1.4s-1-0.4-1.4,0L38.4,43.2L32.1,36.9z"/>
	</g>
</g>
</svg>
