<?xml version="1.0" encoding="utf-8"?>
<!-- Generator: Adobe Illustrator 26.0.0, SVG Export Plug-In . SVG Version: 6.00 Build 0)  -->
<svg version="1.1" id="Capa_1" xmlns="http://www.w3.org/2000/svg" xmlns:xlink="http://www.w3.org/1999/xlink" x="0px" y="0px"
	 viewBox="0 0 78.8 79.5" style="enable-background:new 0 0 78.8 79.5;" xml:space="preserve">
<style type="text/css">
	.st0{fill:#B2B2B2;}
</style>
<g>
	<g>
		<path class="st0" d="M45.1,4.2h-3.2V1c0-0.6-0.4-1-1-1s-1,0.4-1,1v3.2h-8V1c0-0.6-0.4-1-1-1s-1,0.4-1,1v3.2h-8V1c0-0.6-0.4-1-1-1
			s-1,0.4-1,1v3.2h-8V1c0-0.6-0.4-1-1-1s-1,0.4-1,1v3.2h-3C3,4.2,0,7.2,0,10.9v61.9c0,3.7,3,6.7,6.7,6.7h38.4c3.7,0,6.7-3,6.7-6.7
			V10.9C51.8,7.2,48.8,4.2,45.1,4.2z M6.7,6.2h3v3.4c0,0.6,0.4,1,1,1s1-0.4,1-1V6.2h8v3.4c0,0.6,0.4,1,1,1s1-0.4,1-1V6.2h8v3.4
			c0,0.6,0.4,1,1,1s1-0.4,1-1V6.2h8v3.4c0,0.6,0.4,1,1,1s1-0.4,1-1V6.2h3.2c2.6,0,4.7,2.1,4.7,4.7v6.9H2v-6.9C2,8.3,4.1,6.2,6.7,6.2
			z M45.1,77.5H6.7c-2.6,0-4.7-2.1-4.7-4.7v-53h47.8v53C49.8,75.4,47.7,77.5,45.1,77.5z"/>
		<path class="st0" d="M40.9,28.2H10.8c-0.6,0-1,0.4-1,1s0.4,1,1,1h30.1c0.6,0,1-0.4,1-1S41.5,28.2,40.9,28.2z"/>
		<path class="st0" d="M40.9,37.5H10.8c-0.6,0-1,0.4-1,1s0.4,1,1,1h30.1c0.6,0,1-0.4,1-1S41.5,37.5,40.9,37.5z"/>
		<path class="st0" d="M40.9,46.8H10.8c-0.6,0-1,0.4-1,1s0.4,1,1,1h30.1c0.6,0,1-0.4,1-1S41.5,46.8,40.9,46.8z"/>
		<path class="st0" d="M40.9,56.1H10.8c-0.6,0-1,0.4-1,1s0.4,1,1,1h30.1c0.6,0,1-0.4,1-1S41.5,56.1,40.9,56.1z"/>
		<path class="st0" d="M35.2,65.4H10.8c-0.6,0-1,0.4-1,1s0.4,1,1,1h24.4c0.6,0,1-0.4,1-1S35.8,65.4,35.2,65.4z"/>
	</g>
	<path class="st0" d="M77.8,17.8c-0.6,0-1,0.4-1,1v1.7h-5.2v-7.7c0-3.5-2.8-6.3-6.3-6.3S59,9.3,59,12.8v48.3
		c0,2.1,1.8,11.7,5.3,13.3v3.2c0,0.6,0.4,1,1,1s1-0.4,1-1v-3.2c3.5-1.6,5.3-11.2,5.3-13.3V40.4h5.2v7.4c0,0.6,0.4,1,1,1s1-0.4,1-1
		v-29C78.8,18.3,78.4,17.8,77.8,17.8z M61.1,60.1v-42h8.6v42H61.1z M65.4,8.4c2.4,0,4.3,1.9,4.3,4.3v3.4h-8.6v-3.4
		C61.1,10.4,63,8.4,65.4,8.4z M65.4,72.6c-1.6,0-3.9-6.7-4.2-10.5h8.5C69.2,65.8,67,72.6,65.4,72.6z M71.7,38.4V22.5h5.2v15.9H71.7z
		"/>
</g>
</svg>
