<?xml version="1.0" encoding="utf-8"?>
<!-- Generator: Adobe Illustrator 26.0.0, SVG Export Plug-In . SVG Version: 6.00 Build 0)  -->
<svg version="1.1" id="Capa_1" xmlns="http://www.w3.org/2000/svg" xmlns:xlink="http://www.w3.org/1999/xlink" x="0px" y="0px"
	 viewBox="0 0 16 13" style="enable-background:new 0 0 16 13;" xml:space="preserve">
<style type="text/css">
	.st0{fill:#008ABA;}
	.st1{fill:#FFFFFF;}
</style>
<path class="st0" d="M14.8,1.8c-0.2,0.1-0.4,0.1-0.6,0.1V1.9c0.5-0.4,0.9-0.9,1.3-1.4c0-0.2,0-0.2,0-0.2l-1,0.4L13.5,1l0,0
	c-0.7-0.7-1.6-1-2.5-1C9.3-0.1,7.8,1.2,7.7,2.9c0,0.4,0,0.8,0.1,1.1l0,0c-1.4-0.1-2.8-0.5-4-1.2C1.2,1.4,1.1,0.5,1.1,0.5
	c-0.5,0.9-0.6,2-0.2,3c0.3,0.6,0.7,1,1.2,1.4l0,0c-0.3,0-0.6-0.1-0.9-0.1C1,4.7,0.8,4.6,0.6,4.5C0.4,5.1,0.9,6.2,1.8,7
	c0.4,0.3,0.9,0.6,1.5,0.8H1.8c-0.1,1.4,3,2.3,3,2.3l0,0c-0.9,0.7-2,1.1-3.1,1.1c-0.6,0-1.1,0-1.7-0.2c1.5,1.3,3.5,2,5.5,2
	c5.5-0.3,8.6-5,8.8-9.7l0,0c0.3-0.2,0.6-0.4,0.8-0.7c0.4-0.4,0.7-0.8,0.9-1.2C16,1.4,15.2,1.7,14.8,1.8z"/>
<path class="st1" d="M15.4,0.2C15.4,0.3,15.4,0.2,15.4,0.2z"/>
</svg>
