<?xml version="1.0" encoding="utf-8"?>
<!-- Generator: Adobe Illustrator 26.0.0, SVG Export Plug-In . SVG Version: 6.00 Build 0)  -->
<svg version="1.1" id="Capa_1" xmlns="http://www.w3.org/2000/svg" xmlns:xlink="http://www.w3.org/1999/xlink" x="0px" y="0px"
	 viewBox="0 0 73.4 79.9" style="enable-background:new 0 0 73.4 79.9;" xml:space="preserve">
<style type="text/css">
	.st0{fill:#B2B2B2;}
</style>
<g>
	<g>
		<path class="st0" d="M73.2,57.4c-0.5-1.5-1.9-2.3-3.5-2l-27.3,4.7l-8.2-8.4c-0.2-0.2-0.4-0.3-0.7-0.3H19.4H1c-0.6,0-1,0.4-1,1
			v21.8c0,0.6,0.4,1,1,1h18.4c0.6,0,1-0.4,1-1v-1.8l4.2-0.1l15.7,7.6c0.1,0.1,0.3,0.1,0.4,0.1c0.2,0,0.4,0,0.5-0.1l30.5-18.5
			C73.2,60.4,73.7,58.9,73.2,57.4z M2,53.4h11v19.8H2V53.4z M18.4,73.2H15V53.4h3.5v19.8H18.4z M70.8,59.5L40.7,77.8l-15.4-7.5
			c-0.1-0.1-0.3-0.1-0.5-0.1l-4.4,0.1v-17H33l10.9,11.2c0.4,0.5,0.7,1.1,0.6,1.7c0,0.6-0.3,1.2-0.8,1.6c-0.9,0.8-2.2,0.7-3.1-0.1
			l-6.5-6.4c-0.4-0.4-1-0.4-1.4,0s-0.4,1,0,1.4l6.5,6.4c0.8,0.8,1.9,1.2,3,1.2c1,0,2-0.3,2.8-1c0.9-0.8,1.4-1.9,1.5-3.1
			s-0.4-2.3-1.2-3.2L44,61.6l26-4.5c0.7-0.1,1.1,0.3,1.3,0.7C71.5,58.6,71.4,59.1,70.8,59.5z"/>
		<g>
			<path class="st0" d="M59.6,28.3c0.6,0,1-0.5,1-1c0-0.6-0.5-1-1-1c-0.6,0-1,0.5-1,1C58.6,27.9,59,28.3,59.6,28.3z"/>
			<path class="st0" d="M24.9,28.3h17.3c0.6,0,1-0.4,1-1s-0.4-1-1-1H24.9c-0.6,0-1,0.4-1,1S24.3,28.3,24.9,28.3z"/>
			<path class="st0" d="M24.9,41.7h17.3c0.6,0,1-0.4,1-1s-0.4-1-1-1H24.9c-0.6,0-1,0.4-1,1S24.3,41.7,24.9,41.7z"/>
			<path class="st0" d="M59.6,41.8c0.6,0,1-0.5,1-1c0-0.6-0.5-1-1-1c-0.6,0-1,0.5-1,1S59,41.8,59.6,41.8z"/>
			<path class="st0" d="M61.7,6.1H43.4V2h7.9c0.6,0,1-0.4,1-1s-0.4-1-1-1H33.5c-0.6,0-1,0.4-1,1s0.4,1,1,1h7.9v4.1H22.6
				c-2.4,0-4.3,1.9-4.3,4.3v6.9c0,1.3,0.6,2.5,1.6,3.3c-0.9,0.8-1.6,2-1.6,3.3v6.9c0,1.3,0.6,2.5,1.6,3.3c-0.9,0.8-1.6,2-1.6,3.3
				v6.9c0,2.4,1.9,4.3,4.3,4.3h39.2c2.4,0,4.3-1.9,4.3-4.3v-6.9c0-1.3-0.6-2.5-1.6-3.3c0.9-0.8,1.6-2,1.6-3.3v-6.9
				c0-1.3-0.6-2.5-1.6-3.3c0.9-0.8,1.6-2,1.6-3.3v-6.9C66,8,64.1,6.1,61.7,6.1z M64,37.3v6.9c0,1.3-1,2.3-2.3,2.3H22.6
				c-1.3,0-2.3-1-2.3-2.3v-6.9c0-1.3,1-2.3,2.3-2.3h39.2C63,35,64,36,64,37.3z M64,23.8v6.9c0,1.3-1,2.3-2.3,2.3H22.6
				c-1.3,0-2.3-1-2.3-2.3v-6.9c0-1.3,1-2.3,2.3-2.3h39.2C63,21.6,64,22.6,64,23.8z M22.6,19.6c-1.3,0-2.3-1-2.3-2.3v-6.9
				c0-1.3,1-2.3,2.3-2.3h39.2c1.3,0,2.3,1,2.3,2.3v6.9c0,1.3-1,2.3-2.3,2.3H22.6z"/>
			<circle class="st0" cx="59.6" cy="13.8" r="1"/>
			<path class="st0" d="M42.2,12.8H24.9c-0.6,0-1,0.4-1,1s0.4,1,1,1h17.3c0.6,0,1-0.4,1-1S42.7,12.8,42.2,12.8z"/>
			<path class="st0" d="M55.6,2.1c0.6,0,1-0.5,1-1c0-0.6-0.5-1-1-1c-0.6,0-1,0.5-1,1C54.5,1.6,55,2.1,55.6,2.1z"/>
			<path class="st0" d="M60.9,2.1c0.6,0,1-0.5,1-1c0-0.6-0.5-1-1-1c-0.6,0-1,0.5-1,1S60.4,2.1,60.9,2.1z"/>
			<path class="st0" d="M66.3,0c-0.6,0-1,0.5-1,1c0,0.6,0.5,1,1,1c0.6,0,1-0.5,1-1C67.4,0.5,66.9,0,66.3,0z"/>
			<path class="st0" d="M19.4,1c0-0.6-0.5-1-1-1s-1,0.5-1,1c0,0.6,0.5,1,1,1S19.4,1.6,19.4,1z"/>
			<path class="st0" d="M23.7,2.1c0.6,0,1-0.5,1-1c0-0.6-0.5-1-1-1c-0.6,0-1,0.5-1,1S23.1,2.1,23.7,2.1z"/>
			<path class="st0" d="M29.1,2.1c0.6,0,1-0.5,1-1c0-0.6-0.5-1-1-1c-0.6,0-1,0.5-1,1C28,1.6,28.5,2.1,29.1,2.1z"/>
		</g>
	</g>
</g>
</svg>
