<?xml version="1.0" encoding="utf-8"?>
<!-- Generator: Adobe Illustrator 26.0.0, SVG Export Plug-In . SVG Version: 6.00 Build 0)  -->
<svg version="1.1" id="Capa_1" xmlns="http://www.w3.org/2000/svg" xmlns:xlink="http://www.w3.org/1999/xlink" x="0px" y="0px"
	 viewBox="0 0 13.6 13" style="enable-background:new 0 0 13.6 13;" xml:space="preserve">
<style type="text/css">
	.st0{fill:#008ABA;}
</style>
<path class="st0" d="M9.4,13H4.2C1.9,13,0,11.1,0,8.8c0,0,0,0,0,0V4.2C0,1.9,1.9,0,4.2,0c0,0,0,0,0,0h5.2c2.3,0,4.2,1.9,4.2,4.2l0,0
	v4.6C13.6,11.1,11.7,13,9.4,13L9.4,13z M4.2,0.9c-1.8,0-3.3,1.5-3.3,3.3v4.6c0,1.8,1.5,3.3,3.3,3.3h5.2c1.8,0,3.3-1.5,3.3-3.3V4.2
	c0-1.8-1.5-3.3-3.3-3.3H4.2z"/>
<path class="st0" d="M6.8,10.2c-2.1,0-3.7-1.7-3.7-3.7s1.7-3.7,3.7-3.7s3.7,1.7,3.7,3.7v0C10.5,8.6,8.9,10.2,6.8,10.2z M6.8,3.7
	C5.3,3.7,4,4.9,4,6.5s1.3,2.8,2.8,2.8s2.8-1.3,2.8-2.8S8.4,3.7,6.8,3.7C6.8,3.7,6.8,3.7,6.8,3.7z"/>
<path class="st0" d="M11.3,2.9c0,0.4-0.4,0.8-0.8,0.8c-0.4,0-0.7-0.4-0.7-0.9c0-0.4,0.3-0.6,0.7-0.7C10.9,2.1,11.3,2.4,11.3,2.9z"/>
</svg>
