<?xml version="1.0" encoding="utf-8"?>
<!-- Generator: Adobe Illustrator 26.0.0, SVG Export Plug-In . SVG Version: 6.00 Build 0)  -->
<svg version="1.1" id="Capa_1" xmlns="http://www.w3.org/2000/svg" xmlns:xlink="http://www.w3.org/1999/xlink" x="0px" y="0px"
	 viewBox="0 0 16.5 11.6" style="enable-background:new 0 0 16.5 11.6;" xml:space="preserve">
<style type="text/css">
	.st0{fill:#FFFFFF;}
</style>
<path class="st0" d="M13.2,0h-10C1.5,0,0,1.4,0,3.2c0,0,0,0,0,0v5.1c0,1.8,1.4,3.2,3.2,3.2c0,0,0,0,0,0h10c1.8,0,3.2-1.4,3.2-3.2
	c0,0,0,0,0,0V3.2C16.5,1.5,15.1,0,13.2,0C13.3,0,13.3,0,13.2,0z M10.6,6L8.5,7L6.2,8.1C6.1,8.1,6,8.1,6,8c0,0,0,0,0-0.1V3.7
	c0-0.1,0.1-0.2,0.2-0.2c0,0,0.1,0,0.1,0l2.2,1.1l2.2,1c0.1,0,0.2,0.1,0.2,0.2S10.8,6,10.6,6z"/>
</svg>
