<?xml version="1.0" encoding="utf-8"?>
<!-- Generator: Adobe Illustrator 26.0.0, SVG Export Plug-In . SVG Version: 6.00 Build 0)  -->
<svg version="1.1" id="Capa_1" xmlns="http://www.w3.org/2000/svg" xmlns:xlink="http://www.w3.org/1999/xlink" x="0px" y="0px"
	 viewBox="0 0 92.4 69.3" style="enable-background:new 0 0 92.4 69.3;" xml:space="preserve">
<style type="text/css">
	.st0{fill:#F9B233;}
	.st1{fill:#FFD77B;}
	.st2{fill:#95C11F;}
	.st3{fill:#D3DE79;}
	.st4{fill:#36A9E1;}
	.st5{fill:#7FC3ED;}
</style>
<g>
	<g>
		<path class="st0" d="M5.7,37.9c-2.1-4.6-2.1-9.8,0-14.4c1.5-3.4,4.1-6.3,7.3-8.1c-4.7,1.6-8.6,5.1-10.6,9.6c-2,4.6-2,9.8,0,14.4
			C3.6,41.9,6.5,43,9,41.8c0.6-0.3,1.1-0.6,1.5-1C8.5,40.9,6.6,39.8,5.7,37.9z"/>
		<path class="st0" d="M25.7,51.3l-1.3-2.8c-1.9-4.1-0.8-9,2.6-12.2c2.7-2.5,3.3-6.5,1.4-9.7c-1.8-3-5.6-4.5-8.9-3.4
			c-0.9,0.3-1.7,0.7-2.4,1.3c3.1-0.6,6.4,0.9,8.1,3.6c1.9,3.2,1.3,7.2-1.4,9.7c-3.4,3.1-4.5,8-2.6,12.2l1.3,2.8
			c1.1,2.5,4.1,3.6,6.6,2.5c0.6-0.3,1.1-0.6,1.5-1C28.5,54.4,26.6,53.3,25.7,51.3z"/>
		<path class="st1" d="M31.5,48.7l-1.3-2.8c-0.1-0.3,0-0.6,0.3-0.8c6.1-5.6,7.5-14.9,3.3-22.1c-4.2-7-12.8-10.3-20.6-7.8
			c-0.1,0-0.1,0.1-0.2,0.1c-3.2,1.9-5.8,4.7-7.3,8.1c-2,4.6-2,9.8,0,14.4c0.9,1.9,2.8,3,4.8,2.9c1.4-1.4,1.9-3.6,1-5.5
			c-0.9-2-0.9-4.3,0-6.3c0.9-2,2.6-3.5,4.7-4.2c0.3-0.1,0.6-0.2,0.9-0.2c0.7-0.5,1.5-1,2.4-1.3c3.3-1.1,7.2,0.4,8.9,3.4
			c1.9,3.2,1.3,7.2-1.4,9.7c-3.4,3.1-4.5,8-2.6,12.2l1.3,2.8c0.9,1.9,2.8,3,4.8,2.9C31.9,52.8,32.4,50.6,31.5,48.7z"/>
		<path class="st0" d="M30.3,64.4c-1-2.1-0.3-4.6,1.5-6c-0.4,0.1-0.8,0.2-1.2,0.4c-2.5,1.1-3.6,4.1-2.5,6.6c1.1,2.5,4.1,3.6,6.6,2.5
			c0.4-0.2,0.7-0.4,1-0.6C33.6,67.7,31.3,66.6,30.3,64.4z"/>
		<ellipse transform="matrix(0.9118 -0.4107 0.4107 0.9118 -22.8492 19.415)" class="st1" cx="33.8" cy="62.9" rx="3.8" ry="4.8"/>
		<path d="M29.4,56.1c-3,1.3-6.5,0-7.8-2.9l-1.3-2.8c-2-4.5-0.9-9.8,2.8-13.2c2.4-2.2,2.9-5.7,1.2-8.5c-1.6-2.7-5-3.9-7.9-3
			c-1.9,0.6-3.4,1.9-4.2,3.7c-0.8,1.8-0.8,3.8,0,5.6c1.3,3,0,6.5-2.9,7.8c-3,1.3-6.5,0-7.8-2.9c-2.2-4.8-2.2-10.3,0-15.2
			c2.1-4.8,6.3-8.5,11.3-10.2c8.2-2.6,17.3,0.8,21.7,8.2c4.4,7.5,3,17.2-3.4,23.1l1.2,2.6C33.7,51.3,32.4,54.8,29.4,56.1z M15,24.2
			c0.3-0.1,0.6-0.3,0.9-0.4c3.7-1.2,8,0.4,10,3.8c2.1,3.6,1.5,8-1.6,10.8c-3.1,2.9-4.1,7.4-2.4,11.1l1.3,2.8c0.9,2,3.3,3,5.4,2
			c2-0.9,3-3.3,2-5.4l-1.3-2.8c-0.3-0.6-0.1-1.3,0.5-1.8c5.8-5.3,7.1-14.1,3.1-20.9c-3.9-6.7-12.2-9.8-19.5-7.4
			c-4.6,1.5-8.3,4.8-10.2,9.2c-1.9,4.4-1.9,9.3,0,13.7c0.9,2,3.3,3,5.4,2s3-3.3,2-5.4c-1-2.2-1-4.8,0-7C11.6,26.6,13.1,25.1,15,24.2
			z"/>
		<path d="M35.1,68.8c-3,1.3-6.5,0-7.8-2.9c-1.3-3,0-6.5,2.9-7.8s6.5,0,7.8,2.9C39.4,63.9,38,67.4,35.1,68.8z M31,59.7
			c-2,0.9-3,3.3-2,5.4c0.9,2,3.3,3,5.4,2c2-0.9,3-3.3,2-5.4S33,58.7,31,59.7z"/>
	</g>
	<g>
		<path class="st2" d="M60.3,26.5c1.4-4.8,4.8-8.8,9.3-11c3.4-1.6,7.2-2.1,10.8-1.4c-4.6-1.9-9.8-1.7-14.3,0.4
			c-4.5,2.2-7.9,6.2-9.3,11c-0.8,2.6,0.7,5.4,3.4,6.2c0.6,0.2,1.2,0.2,1.8,0.2C60.5,30.6,59.7,28.5,60.3,26.5z"/>
		<path class="st2" d="M66.8,49.7l0.9-3c1.3-4.4,5.3-7.4,9.9-7.6c3.7-0.1,6.7-2.8,7.3-6.4c0.6-3.4-1.4-7-4.6-8.4
			c-0.9-0.4-1.7-0.5-2.6-0.6c2.7,1.6,4.3,4.8,3.8,8c-0.6,3.7-3.7,6.3-7.3,6.4c-4.7,0.2-8.6,3.2-9.9,7.6l-0.9,3
			c-0.8,2.6,0.7,5.4,3.4,6.2c0.6,0.2,1.2,0.2,1.8,0.2C66.9,53.8,66.2,51.7,66.8,49.7z"/>
		<path class="st3" d="M72.9,51.5l0.9-3c0.1-0.3,0.4-0.4,0.7-0.4c8.3-0.3,15.4-6.4,16.8-14.7c1.4-8.1-3-16.2-10.6-19.3
			c-0.1,0-0.1,0-0.2-0.1c-3.7-0.7-7.4-0.2-10.8,1.4c-4.5,2.2-7.9,6.2-9.3,11c-0.6,2,0.2,4.1,1.8,5.3c2-0.2,3.8-1.5,4.4-3.6
			c0.6-2.1,2.1-3.9,4.1-4.8c2-1,4.3-1,6.3-0.1c0.3,0.1,0.6,0.3,0.8,0.4c0.9,0,1.8,0.2,2.6,0.6c3.2,1.3,5.2,4.9,4.6,8.4
			c-0.6,3.7-3.7,6.3-7.3,6.4c-4.7,0.2-8.6,3.2-9.9,7.6l-0.9,3c-0.6,2,0.2,4.1,1.8,5.3C70.5,54.9,72.3,53.5,72.9,51.5z"/>
		<path class="st2" d="M61.8,62.6c0.7-2.2,2.7-3.7,5-3.6c-0.3-0.2-0.7-0.4-1.1-0.5c-2.6-0.8-5.4,0.7-6.2,3.4
			c-0.8,2.6,0.7,5.4,3.4,6.2c0.4,0.1,0.8,0.2,1.2,0.2C62.1,67.2,61.1,64.9,61.8,62.6z"/>
		<ellipse transform="matrix(0.2801 -0.96 0.96 0.2801 -14.0743 108.6201)" class="st3" cx="65.4" cy="63.7" rx="4.8" ry="3.8"/>
		<path d="M66.5,55.7c-3.1-0.9-4.9-4.2-4-7.3l0.9-3c1.4-4.7,5.7-8,10.7-8.2c3.2-0.1,5.9-2.4,6.5-5.7c0.5-3-1.2-6.2-4.1-7.4
			c-1.8-0.8-3.8-0.7-5.6,0.1c-1.7,0.8-3.1,2.4-3.6,4.2c-0.9,3.1-4.2,4.9-7.3,4c-3.1-0.9-4.9-4.2-4-7.3c1.5-5.1,5.1-9.3,9.8-11.6
			c4.8-2.3,10.3-2.4,15.2-0.4c7.9,3.3,12.6,11.8,11.1,20.3c-1.5,8.6-8.9,15.1-17.6,15.4l-0.8,2.7C72.8,54.8,69.6,56.6,66.5,55.7z
			 M76.2,22.1c0.3,0.1,0.6,0.2,1,0.3c3.6,1.5,5.8,5.5,5.1,9.4c-0.7,4.1-4.1,7-8.2,7.2c-4.3,0.1-7.9,2.9-9.1,6.9l-0.9,3
			c-0.6,2.2,0.6,4.4,2.8,5.1s4.4-0.6,5.1-2.8l0.9-3c0.2-0.6,0.8-1,1.5-1.1c7.9-0.3,14.6-6.1,16-13.9c1.3-7.6-2.9-15.3-10-18.3
			c-4.4-1.8-9.4-1.7-13.7,0.3c-4.3,2.1-7.5,5.9-8.9,10.4c-0.6,2.2,0.6,4.4,2.8,5.1c2.2,0.6,4.4-0.6,5.1-2.8c0.7-2.3,2.3-4.3,4.6-5.4
			C72.1,21.7,74.2,21.5,76.2,22.1z"/>
		<path d="M62.6,69c-3.1-0.9-4.9-4.2-4-7.3c0.9-3.1,4.2-4.9,7.3-4c3.1,0.9,4.9,4.2,4,7.3C69,68.1,65.7,69.9,62.6,69z M65.4,59.4
			c-2.2-0.6-4.4,0.6-5.1,2.8c-0.6,2.2,0.6,4.4,2.8,5.1c2.2,0.6,4.4-0.6,5.1-2.8S67.5,60.1,65.4,59.4z"/>
	</g>
	<path class="st4" d="M32.8,20.5c0-5.5,2.4-10.8,6.5-14.5c3.1-2.8,7-4.4,11-4.9c-5.5-0.5-10.9,1.2-15,4.9c-4.1,3.7-6.5,9-6.5,14.5
		c0,3,2.5,5.5,5.5,5.5c0.7,0,1.4-0.1,2-0.4C34.3,24.8,32.8,22.9,32.8,20.5z"/>
	<path class="st4" d="M45.5,58.4c0-2.6,1.8-4.7,4.2-5.3c-0.4-0.1-0.9-0.2-1.3-0.2c-3,0-5.5,2.5-5.5,5.5c0,3,2.5,5.5,5.5,5.5
		c0.5,0,0.9-0.1,1.3-0.2C47.3,63.2,45.5,61,45.5,58.4z"/>
	<ellipse class="st5" cx="49.7" cy="58.4" rx="4.2" ry="5.3"/>
	<g>
		<path class="st4" d="M46.8,43.1v-3.4c0-5,3.3-9.5,8.2-11.1c3.9-1.3,6.2-5,5.8-9.1c-0.4-3.8-3.6-7-7.5-7.5c-1-0.1-2,0-3,0.2
			c3.4,0.8,6.1,3.8,6.5,7.3c0.5,4.1-1.9,7.8-5.8,9.1c-4.9,1.6-8.2,6.1-8.2,11.1v3.4c0,3,2.5,5.5,5.5,5.5c0.7,0,1.4-0.1,2-0.4
			C48.3,47.5,46.8,45.5,46.8,43.1z"/>
		<path class="st5" d="M53.9,43.1v-3.4c0-0.3,0.3-0.5,0.6-0.6c8.7-2.9,14.3-11.6,13.3-20.7c-1-9-8.2-16.2-17.2-17.2
			c-0.1,0-0.1,0-0.2,0c-4.1,0.4-8,2.1-11,4.9c-4.1,3.7-6.5,9-6.5,14.5c0,2.3,1.5,4.3,3.5,5.1c2.1-0.8,3.5-2.8,3.5-5.1
			c0-2.4,1-4.7,2.8-6.4c1.8-1.6,4.2-2.4,6.7-2.1c0.3,0,0.7,0.1,1,0.2c1-0.2,2-0.3,3-0.2c3.8,0.4,7,3.6,7.5,7.5
			c0.5,4.1-1.9,7.8-5.8,9.1c-4.9,1.6-8.2,6.1-8.2,11.1v3.4c0,2.3,1.5,4.3,3.5,5.1C52.4,47.5,53.9,45.5,53.9,43.1z"/>
		<path d="M48.4,49.6c-3.6,0-6.5-2.9-6.5-6.5v-3.4c0-5.5,3.6-10.3,8.9-12c3.4-1.1,5.5-4.4,5.1-8c-0.4-3.4-3.2-6.2-6.6-6.6
			c-2.2-0.2-4.3,0.4-5.9,1.9c-1.6,1.4-2.5,3.5-2.5,5.6c0,3.6-2.9,6.5-6.5,6.5s-6.5-2.9-6.5-6.5c0-5.8,2.5-11.4,6.8-15.3
			c4.3-3.9,10.2-5.7,16-5.1c9.4,1,17,8.6,18.1,18.1C69.8,27.8,64,36.9,54.9,40v3.1C54.9,46.7,51.9,49.6,48.4,49.6z M48.4,11
			c0.4,0,0.7,0,1.1,0.1c4.3,0.5,7.9,4.1,8.4,8.4c0.5,4.6-2.2,8.7-6.5,10.1c-4.5,1.5-7.5,5.5-7.5,10.1v3.4c0,2.5,2,4.5,4.5,4.5
			s4.5-2,4.5-4.5v-3.4c0-0.7,0.5-1.3,1.3-1.6c8.3-2.7,13.6-11,12.6-19.7C65.8,9.9,59,3.1,50.5,2.1C45.2,1.5,39.9,3.2,36,6.7
			c-3.9,3.5-6.2,8.5-6.2,13.8c0,2.5,2,4.5,4.5,4.5s4.5-2,4.5-4.5c0-2.7,1.2-5.3,3.2-7.1C43.8,11.8,46,11,48.4,11z"/>
		<path d="M48.4,64.9c-3.6,0-6.5-2.9-6.5-6.5s2.9-6.5,6.5-6.5s6.5,2.9,6.5,6.5S51.9,64.9,48.4,64.9z M48.4,53.9
			c-2.5,0-4.5,2-4.5,4.5s2,4.5,4.5,4.5s4.5-2,4.5-4.5S50.8,53.9,48.4,53.9z"/>
	</g>
</g>
</svg>
