<?xml version="1.0" encoding="utf-8"?>
<!-- Generator: Adobe Illustrator 26.0.0, SVG Export Plug-In . SVG Version: 6.00 Build 0)  -->
<svg version="1.1" id="Capa_1" xmlns="http://www.w3.org/2000/svg" xmlns:xlink="http://www.w3.org/1999/xlink" x="0px" y="0px"
	 viewBox="0 0 82.1 80.6" style="enable-background:new 0 0 82.1 80.6;" xml:space="preserve">
<style type="text/css">
	.st0{fill:#D8BEA2;}
</style>
<g>
	<g>
		<path class="st0" d="M34.5,11.8l-0.4-1.7l1.4-2l1.3-1l-1.3-1.6l0-0.3C18.3,7.7,5.2,22.5,5.2,40.3c0,5.5,1.3,10.7,3.5,15.4h7.3
			c-2.8-4.5-4.4-9.7-4.4-15.4C11.7,26.3,21.5,14.7,34.5,11.8z"/>
		<path class="st0" d="M65.7,25c2.7,4.4,4.3,9.7,4.3,15.3c0,13.9-9.7,25.5-22.7,28.4l0.6,1.6L46,72.7l-0.1,0.9l0.7,1.8
			C63.5,72.7,76.4,58,76.4,40.3c0-5.6-1.3-10.8-3.5-15.5L65.7,25z"/>
	</g>
	<rect x="1.3" y="53.2" class="st0" width="8.1" height="25.3"/>
	<rect x="73" y="1.9" class="st0" width="8.1" height="25.1"/>
	<path d="M61.4,52.8H33.1c-0.5,0-0.9-0.4-0.9-0.9v-8.1c0-2.7-2.2-5-5-5c-2.7,0-5,2.2-5,5l0,5.7c-0.2,0.8-3.6,3.7-6.2,5.3h-5.7v-1.4
		c0-0.6-0.4-1-1-1H1c-0.6,0-1,0.4-1,1v25.5c0,0.6,0.4,1,1,1h8.3c0.6,0,1-0.4,1-1v-1.5H14c2,2.1,4.7,3.2,8,3.2c0.1,0,0.2,0,0.4,0
		h21.3c2.3,0,4.2-1.9,4.2-4.2c0-1.1-0.4-2.1-1.1-2.8c1.3-0.7,2.1-2.1,2.1-3.6c0-1-0.4-2-1-2.7c1.4-0.7,2.3-2.1,2.3-3.8
		c0-0.8-0.2-1.6-0.6-2.2h11.8c2.3,0,4.2-1.9,4.2-4.2C65.7,54.7,63.8,52.8,61.4,52.8z M61.4,59.2H46h-1.4h-1.8c-0.6,0-1,0.4-1,1
		s0.4,1,1,1h1.8H46c1.2,0,2.2,1,2.2,2.2c0,1.2-1,2.2-2.2,2.2h-1.3h-1.9c-0.6,0-1,0.4-1,1s0.4,1,1,1h1.9c1.2,0,2.2,1,2.2,2.2
		s-1,2.2-2.2,2.2h-1h-0.5h-0.3c-0.6,0-1,0.4-1,1s0.4,1,1,1h0.3h0.5c1.2,0,2.2,1,2.2,2.2s-1,2.2-2.2,2.2H22.4
		c-3.1,0.1-5.4-0.9-7.2-2.9c-0.2-0.2-0.5-0.3-0.8-0.3h-4.1v-5.4c0-0.6-0.4-1-1-1s-1,0.4-1,1v7.9H2V54.3h6.3v9.9c0,0.6,0.4,1,1,1
		s1-0.4,1-1v-7.5h6c0.2,0,0.4,0,0.5-0.1c0.1,0,7.3-4.5,7.4-7v-5.8c0-1.6,1.3-3,3-3s3,1.3,3,3v8.1c0,1.6,1.3,2.9,2.9,2.9h28.3
		c1.2,0,2.2,1,2.2,2.2S62.7,59.2,61.4,59.2z"/>
	<path d="M81.1,0.8h-8.3c-0.6,0-1,0.4-1,1v1.5h-3.7C66,1,63.1-0.1,59.7,0H38.4c-2.3,0-4.2,1.9-4.2,4.2c0,1.1,0.4,2.1,1.1,2.8
		c-1.3,0.7-2.1,2.1-2.1,3.6c0,1,0.4,2,1,2.7c-1.4,0.7-2.3,2.1-2.3,3.8c0,0.8,0.2,1.6,0.6,2.2H20.6c-2.3,0-4.2,1.9-4.2,4.2
		c0,2.3,1.9,4.2,4.2,4.2h15.4c0.6,0,1-0.4,1-1s-0.4-1-1-1H20.6c-1.2,0-2.2-1-2.2-2.2s1-2.2,2.2-2.2h15.4h1.4h1.8c0.6,0,1-0.4,1-1
		s-0.4-1-1-1h-1.8h-1.4c-1.2,0-2.2-1-2.2-2.2s1-2.2,2.2-2.2h1.3h1.9c0.6,0,1-0.4,1-1s-0.4-1-1-1h-1.9c-1.2,0-2.2-1-2.2-2.2
		s1-2.2,2.2-2.2h1H39h0.3c0.6,0,1-0.4,1-1s-0.4-1-1-1H39h-0.5c-1.2,0-2.2-1-2.2-2.2s1-2.2,2.2-2.2h21.3c3.1-0.1,5.4,0.9,7.2,2.9
		c0.2,0.2,0.5,0.3,0.8,0.3h4.1v18.7h-6c-0.2,0-0.4,0-0.5,0.1c-0.1,0-7.3,4.5-7.4,7v5.8c0,1.6-1.3,3-3,3s-3-1.3-3-3v-8.1
		c0-1.6-1.3-2.9-2.9-2.9h-7.1c-0.6,0-1,0.4-1,1s0.4,1,1,1H49c0.5,0,0.9,0.4,0.9,0.9v8.1c0,2.7,2.2,5,5,5c2.7,0,5-2.2,5-5l0-5.7
		c0.2-0.8,3.6-3.7,6.2-5.3h5.7v1.4c0,0.6,0.4,1,1,1h8.3c0.6,0,1-0.4,1-1V1.8C82.1,1.2,81.6,0.8,81.1,0.8z M80.1,26.3h-6.3V2.8h6.3
		V26.3z"/>
	<circle cx="40.8" cy="40.3" r="1.2"/>
	<path d="M48.4,39.3h-1.6c-0.4-2.5-2.4-4.5-5-5v-1.6c0-0.6-0.4-1-1-1s-1,0.4-1,1v1.6c-2.5,0.4-4.5,2.4-5,5h-1.6c-0.6,0-1,0.4-1,1
		s0.4,1,1,1h1.6c0.4,2.5,2.4,4.5,5,5v1.6c0,0.6,0.4,1,1,1s1-0.4,1-1v-1.6c2.5-0.4,4.5-2.4,5-5h1.6c0.6,0,1-0.4,1-1
		S49,39.3,48.4,39.3z M40.8,44.4c-2.2,0-4.1-1.8-4.1-4.1s1.8-4.1,4.1-4.1s4.1,1.8,4.1,4.1S43.1,44.4,40.8,44.4z"/>
	<path d="M67.4,53.2c-0.1,0-0.3,0-0.4-0.1c-0.5-0.2-0.7-0.8-0.5-1.3c1.6-3.6,2.5-7.5,2.5-11.5c0-3.6-0.7-7.1-2-10.4
		c-0.2-0.5,0-1.1,0.6-1.3c0.5-0.2,1.1,0,1.3,0.6c1.4,3.5,2.1,7.3,2.1,11.1c0,4.3-0.9,8.5-2.6,12.3C68.2,53,67.8,53.2,67.4,53.2z"/>
	<path d="M25.8,16.3c-0.3,0-0.7-0.2-0.9-0.5c-0.3-0.5-0.1-1.1,0.3-1.4c0.8-0.5,1.6-0.9,2.4-1.3c0.5-0.2,1.1,0,1.3,0.5
		c0.2,0.5,0,1.1-0.5,1.3c-0.8,0.4-1.5,0.8-2.3,1.2C26.1,16.3,25.9,16.3,25.8,16.3z"/>
	<path d="M13.8,52.2c-0.4,0-0.8-0.2-0.9-0.6c-1.4-3.6-2.2-7.4-2.2-11.3c0-4.5,0.9-8.7,2.8-12.7c0.2-0.5,0.8-0.7,1.3-0.5
		c0.5,0.2,0.7,0.8,0.5,1.3c-1.7,3.7-2.6,7.7-2.6,11.9c0,3.6,0.7,7.2,2,10.5c0.2,0.5,0,1.1-0.6,1.3C14,52.2,13.9,52.2,13.8,52.2z"/>
	<path d="M52.4,68.1c-0.4,0-0.8-0.2-0.9-0.6c-0.2-0.5,0-1.1,0.5-1.3c1.5-0.7,3-1.5,4.4-2.4c0.5-0.3,1.1-0.2,1.4,0.3
		c0.3,0.5,0.2,1.1-0.3,1.4c-1.5,1-3.1,1.9-4.7,2.6C52.7,68,52.5,68.1,52.4,68.1z"/>
	<path d="M50.8,75.5c-0.4,0-0.8-0.3-1-0.7c-0.2-0.5,0.1-1.1,0.7-1.2C62,70.2,71,61,74.2,49.5c0.1-0.5,0.7-0.8,1.2-0.7
		c0.5,0.1,0.8,0.7,0.7,1.2c-3.3,12.1-12.9,21.9-25,25.4C51,75.5,50.9,75.5,50.8,75.5z"/>
	<path d="M76.1,45.8c0,0-0.1,0-0.1,0c-0.5-0.1-0.9-0.6-0.9-1.1c0.2-1.5,0.3-2.9,0.3-4.4c0-2.7-0.3-5.5-1-8.1
		c-0.1-0.5,0.2-1.1,0.7-1.2c0.5-0.1,1.1,0.2,1.2,0.7c0.7,2.8,1,5.7,1,8.6c0,1.6-0.1,3.1-0.3,4.7C77.1,45.5,76.6,45.8,76.1,45.8z"/>
	<path d="M6.2,49.8c-0.5,0-0.9-0.3-1-0.8c-0.7-2.8-1-5.8-1-8.7c0-15.9,10.2-29.9,25.3-34.8c0.5-0.2,1.1,0.1,1.3,0.6
		c0.2,0.5-0.1,1.1-0.6,1.3C15.8,12,6.2,25.3,6.2,40.3c0,2.8,0.3,5.6,1,8.3c0.1,0.5-0.2,1.1-0.7,1.2C6.4,49.8,6.3,49.8,6.2,49.8z"/>
</g>
</svg>
