<?xml version="1.0" encoding="utf-8"?>
<!-- Generator: Adobe Illustrator 26.0.0, SVG Export Plug-In . SVG Version: 6.00 Build 0)  -->
<svg version="1.1" id="Capa_1" xmlns="http://www.w3.org/2000/svg" xmlns:xlink="http://www.w3.org/1999/xlink" x="0px" y="0px"
	 viewBox="0 0 77.4 77" style="enable-background:new 0 0 77.4 77;" xml:space="preserve">
<style type="text/css">
	.st0{fill:#35A8E0;}
	.st1{fill:#F8B133;}
	.st2{fill:#93C01F;}
</style>
<g>
	<g>
		<path class="st0" d="M71.4,26c0-0.9-0.1-1.7-0.2-2.6l5-3.4c-0.3-1.2-0.7-2.4-1.1-3.5l-6,0.2c-0.8-1.5-1.9-2.9-3-4.1l2-5.7
			c-0.9-0.8-1.9-1.5-3-2.2l-4.8,3.7c-1.5-0.7-3.2-1.3-4.9-1.6L53.7,1c-0.6,0-1.2-0.1-1.8-0.1s-1.2,0-1.8,0.1l-1.7,5.8
			c-1.7,0.3-3.3,0.9-4.9,1.6l-4.8-3.7c-1,0.6-2,1.4-3,2.2l2,5.7c-1.2,1.2-2.2,2.6-3,4.1l-6-0.2c-0.5,1.1-0.8,2.3-1.1,3.5l5,3.4
			c-0.1,0.8-0.2,1.7-0.2,2.6s0.1,1.7,0.2,2.6l-5,3.4c0.3,1.2,0.7,2.4,1.1,3.5l6-0.2c0.8,1.5,1.9,2.9,3,4.1l-2,5.7
			c0.9,0.8,1.9,1.5,3,2.2l4.8-3.7c1.5,0.7,3.2,1.3,4.9,1.6l1.7,5.8c0.6,0,1.2,0.1,1.8,0.1s1.2,0,1.8-0.1l1.7-5.8
			c1.7-0.3,3.3-0.9,4.9-1.6l4.8,3.7c1-0.6,2-1.4,3-2.2l-2-5.7c1.2-1.2,2.2-2.6,3-4.1l6,0.2c0.5-1.1,0.8-2.3,1.1-3.5l-5-3.4
			C71.3,27.7,71.4,26.9,71.4,26z M51.9,39c-7.2,0-13-5.8-13-13s5.8-13,13-13s13,5.8,13,13S59.1,39,51.9,39z"/>
		<path d="M51.9,52c-0.6,0-1.2,0-1.9-0.1c-0.4,0-0.8-0.3-0.9-0.7L47.6,46c-1.3-0.3-2.7-0.7-4-1.3L39.3,48c-0.3,0.3-0.8,0.3-1.1,0.1
			c-1.1-0.7-2.1-1.4-3.1-2.2c-0.3-0.3-0.4-0.7-0.3-1.1l1.8-5.1c-0.9-1.1-1.8-2.2-2.5-3.4l-5.3,0.1c-0.4,0-0.8-0.2-1-0.6
			c-0.5-1.2-0.9-2.4-1.2-3.6c-0.1-0.4,0.1-0.8,0.4-1.1l4.5-3.1c-0.1-0.8-0.1-1.4-0.1-2.1s0-1.3,0.1-2.1l-4.4-2.9
			c-0.3-0.2-0.5-0.7-0.4-1.1c0.3-1.2,0.7-2.5,1.2-3.6c0.2-0.4,0.6-0.6,1-0.6l5.4,0.1c0.7-1.2,1.5-2.3,2.5-3.4l-2-5.1
			c-0.1-0.4,0-0.8,0.3-1.1c1-0.8,2-1.6,3.1-2.2C38.6,3.7,39,3.7,39.3,4l4.3,3.3c1.3-0.6,2.6-1,4-1.3l1.5-5.2
			c0.1-0.4,0.5-0.7,0.9-0.7c1.4-0.1,2.4-0.1,3.8,0c0.4,0,0.8,0.3,0.9,0.7L56.2,6c1.3,0.3,2.7,0.7,4,1.3L64.5,4
			c0.3-0.3,0.8-0.3,1.1-0.1c1.1,0.7,2.1,1.4,3.1,2.2C69,6.4,69.1,6.8,69,7.2l-1.8,5.1c0.9,1.1,1.8,2.2,2.5,3.4l5.4-0.1
			c0.4,0,0.8,0.2,1,0.6c0.5,1.2,0.9,2.4,1.2,3.6c0.1,0.4-0.1,0.8-0.4,1.1L72.4,24c0.1,0.8,0.1,1.4,0.1,2.1s0,1.3-0.1,2.1l4.5,3.1
			c0.3,0.2,0.5,0.7,0.4,1.1c-0.3,1.2-0.7,2.5-1.2,3.6c-0.2,0.4-0.5,0.6-1,0.6l-5.4-0.1c-0.7,1.2-1.5,2.3-2.5,3.4L69,45
			c0.1,0.4,0,0.8-0.3,1.1c-1,0.8-2,1.6-3.1,2.2c-0.4,0.2-0.8,0.2-1.1-0.1l-4.3-3.3c-1.3,0.6-2.6,1-4,1.3l-1.5,5.2
			c-0.1,0.2-0.5,0.5-0.9,0.5C53.1,52,52.5,52,51.9,52z M53.7,50.9L53.7,50.9L53.7,50.9z M50.8,50c0.7,0,1.4,0,2.1,0l1.5-5.1
			c0.1-0.4,0.4-0.6,0.8-0.7c1.6-0.3,3.1-0.8,4.6-1.5c0.3-0.2,0.7-0.1,1,0.1L65,46c0.6-0.4,1.2-0.8,1.7-1.3l-1.8-5
			c-0.1-0.4,0-0.8,0.2-1c1.2-1.2,2.1-2.5,2.9-3.9c0.2-0.3,0.5-0.5,0.9-0.5l5.3,0.1c0.3-0.7,0.5-1.3,0.7-2l-4.4-3
			c-0.3-0.2-0.5-0.6-0.4-1c0.1-0.9,0.2-1.7,0.2-2.4s-0.1-1.5-0.2-2.4c0-0.4,0.1-0.7,0.4-1l4.4-3c-0.2-0.7-0.4-1.4-0.7-2l-5.3,0.1
			c-0.4,0-0.7-0.2-0.9-0.5c-0.8-1.4-1.7-2.7-2.9-3.9c-0.3-0.3-0.3-0.7-0.2-1l1.8-5C66.1,6.9,65.6,6.4,65,6l-4.2,3.2
			c-0.3,0.2-0.7,0.3-1,0.1c-1.5-0.7-3-1.2-4.6-1.5c-0.4-0.1-0.7-0.3-0.8-0.7L52.9,2c-0.7,0-1.4,0-2.1,0l-1.5,5.1
			c-0.1,0.4-0.4,0.6-0.8,0.7c-1.6,0.3-3.1,0.8-4.6,1.5c-0.3,0.2-0.7,0.1-1-0.1L38.7,6c-0.6,0.4-1.2,0.8-1.7,1.3l1.8,5
			c0.1,0.4,0,0.8-0.2,1c-1.2,1.2-2.1,2.5-2.9,3.9c-0.2,0.3-0.5,0.5-0.9,0.5l-5.3-0.1c-0.3,0.7-0.5,1.3-0.7,2l4.4,3
			c0.3,0.2,0.5,0.6,0.4,1c-0.1,0.9-0.2,1.7-0.2,2.4s0.1,1.5,0.2,2.4c0,0.4-0.1,0.7-0.4,1l-4.4,3c0.2,0.7,0.4,1.4,0.7,2l5.3-0.1
			c0.4,0,0.7,0.2,0.9,0.5c0.8,1.4,1.7,2.7,2.9,3.9c0.3,0.3,0.3,0.7,0.2,1l-1.8,5c0.6,0.4,1.1,0.9,1.7,1.3l4.2-3.2
			c0.3-0.2,0.7-0.3,1-0.1c1.5,0.7,3,1.2,4.6,1.5c0.4,0.1,0.7,0.3,0.8,0.7L50.8,50z"/>
		<path d="M51.9,40c-7.7,0-14-6.3-14-14s6.3-14,14-14s14,6.3,14,14S59.6,40,51.9,40z M51.9,14c-6.6,0-12,5.4-12,12s5.4,12,12,12
			s12-5.4,12-12S58.5,14,51.9,14z"/>
		<g>
			<path d="M56.7,31.2c-0.3,0-0.5-0.1-0.7-0.3c-0.4-0.4-0.4-1,0-1.4l3-3l-3.3-3.3c-0.4-0.4-0.4-1,0-1.4s1-0.4,1.4,0l4,4
				c0.2,0.2,0.3,0.4,0.3,0.7s-0.1,0.5-0.3,0.7l-3.7,3.7C57.2,31.1,56.9,31.2,56.7,31.2z"/>
			<path d="M47.4,31.2c-0.3,0-0.5-0.1-0.7-0.3l-4-4c-0.2-0.2-0.3-0.4-0.3-0.7s0.1-0.5,0.3-0.7l3.7-3.7c0.4-0.4,1-0.4,1.4,0
				s0.4,1,0,1.4l-3,3l3.3,3.3c0.4,0.4,0.4,1,0,1.4C47.9,31.1,47.7,31.2,47.4,31.2z"/>
		</g>
		<path d="M50.3,31.4c-0.1,0-0.3,0-0.4-0.1c-0.5-0.2-0.8-0.8-0.6-1.3l3.2-8c0.2-0.5,0.8-0.8,1.3-0.6s0.8,0.8,0.6,1.3l-3.2,8
			C51.1,31.1,50.7,31.4,50.3,31.4z"/>
	</g>
	<g>
		<path class="st1" d="M27.3,44c0-0.5,0-1-0.1-1.5l3-2c-0.2-0.7-0.4-1.4-0.7-2.1l-3.6,0.1c-0.5-0.9-1.1-1.7-1.8-2.5l1.2-3.4
			c-0.6-0.5-1.2-0.9-1.8-1.3l-2.9,2.2c-0.9-0.4-1.9-0.8-2.9-1l-1-3.5c-0.4,0-0.7,0-1.1,0c-0.4,0-0.7,0-1.1,0l-1,3.5
			c-1,0.2-2,0.5-2.9,1l-2.9-2.2c-0.6,0.4-1.2,0.8-1.8,1.3L7.1,36c-0.7,0.7-1.3,1.6-1.8,2.5l-3.6-0.1c-0.3,0.7-0.5,1.4-0.7,2.1l3,2
			c-0.1,0.5-0.1,1-0.1,1.5s0,1,0.1,1.5l-3,2c0.2,0.7,0.4,1.4,0.7,2.1l3.6-0.1c0.5,0.9,1.1,1.7,1.8,2.5l-1.2,3.4
			c0.6,0.5,1.2,0.9,1.8,1.3l2.9-2.2c0.9,0.4,1.9,0.8,2.9,1l1,3.5c0.4,0,0.7,0,1.1,0c0.4,0,0.7,0,1.1,0l1-3.5c1-0.2,2-0.5,2.9-1
			l2.9,2.2c0.6-0.4,1.2-0.8,1.8-1.3L24.1,52c0.7-0.7,1.3-1.6,1.8-2.5l3.6,0.1c0.3-0.7,0.5-1.4,0.7-2.1l-3-2
			C27.3,45.1,27.3,44.6,27.3,44z M15.6,51.8c-4.3,0-7.8-3.5-7.8-7.8s3.5-7.8,7.8-7.8s7.8,3.5,7.8,7.8C23.4,48.4,19.9,51.8,15.6,51.8
			z"/>
		<g>
			<path d="M15.6,60c-0.4,0-0.8,0-1.2,0s-0.8-0.3-0.9-0.7l-0.9-2.9c-0.7-0.2-1.3-0.4-2-0.7l-2.4,1.8c-0.3,0.3-0.8,0.3-1.1,0.1
				c-0.7-0.4-1.3-0.9-1.9-1.4c-0.3-0.3-0.4-0.7-0.3-1.1l1-2.8c-0.5-0.5-0.9-1.1-1.2-1.7l-3,0.1c-0.4,0-0.8-0.2-1-0.6
				c-0.3-0.7-0.5-1.5-0.7-2.2c-0.1-0.4,0.1-0.8,0.4-1.1l2.5-1.7c0-0.4-0.1-0.7-0.1-1.1s0-0.7,0.1-1.1l-2.5-1.7
				C0.1,41-0.1,40.5,0,40.1c0.2-0.8,0.4-1.5,0.7-2.2c0.2-0.4,0.5-0.6,1-0.6l3,0.1c0.4-0.6,0.8-1.2,1.2-1.7l-1-2.8
				c-0.1-0.4,0-0.8,0.3-1.1c0.6-0.5,1.2-1,1.9-1.4c0.4-0.2,0.8-0.2,1.1,0.1l2.4,1.8c0.6-0.3,1.3-0.5,2-0.7l0.9-2.9
				c0.1-0.4,0.5-0.7,0.9-0.7c0.8-0.1,1.6-0.1,2.3,0c0.4,0,0.8,0.3,0.9,0.7l0.9,2.9c0.7,0.2,1.3,0.4,2,0.7l2.4-1.8
				c0.3-0.3,0.8-0.3,1.1-0.1c0.7,0.4,1.3,0.9,1.9,1.4c0.3,0.3,0.4,0.7,0.3,1.1l-1,2.8c0.5,0.5,0.9,1.1,1.2,1.7l3-0.1
				c0.4,0,0.8,0.2,1,0.6c0.3,0.7,0.5,1.5,0.7,2.2c0.1,0.4-0.1,0.8-0.4,1.1l-2.5,1.7c0,0.4,0.1,0.7,0.1,1.1s0,0.7-0.1,1.1l2.5,1.7
				c0.3,0.2,0.5,0.7,0.4,1.1c-0.2,0.8-0.4,1.5-0.7,2.2c-0.2,0.4-0.5,0.6-1,0.6l-3-0.1c-0.4,0.6-0.8,1.2-1.2,1.7l1,2.8
				c0.1,0.4,0,0.8-0.3,1.1c-0.6,0.5-1.2,1-1.9,1.4c-0.4,0.2-0.8,0.2-1.1-0.1l-2.4-1.8c-0.6,0.3-1.3,0.5-2,0.7l-0.9,2.9
				c-0.1,0.4-0.5,0.7-0.9,0.7C16.4,60,16,60,15.6,60z M16.7,59L16.7,59L16.7,59z M15.3,58c0.2,0,0.5,0,0.7,0l0.8-2.8
				c0.1-0.4,0.4-0.6,0.8-0.7c0.9-0.2,1.8-0.5,2.7-0.9c0.3-0.2,0.7-0.1,1,0.1l2.3,1.8c0.2-0.1,0.4-0.3,0.6-0.4l-1-2.7
				c-0.1-0.4,0-0.8,0.2-1c0.7-0.7,1.2-1.5,1.7-2.3c0.2-0.3,0.5-0.5,0.9-0.5l2.9,0.1c0.1-0.2,0.1-0.4,0.2-0.6l-2.4-1.6
				c-0.3-0.2-0.5-0.6-0.4-1c0.1-0.5,0.1-1,0.1-1.4s0-0.9-0.1-1.4c0-0.4,0.1-0.7,0.4-1l2.4-1.6c-0.1-0.2-0.1-0.4-0.2-0.6L26,39.6
				c-0.4,0-0.7-0.2-0.9-0.5c-0.4-0.8-1-1.6-1.7-2.3c-0.3-0.3-0.3-0.7-0.2-1l1-2.7c-0.2-0.1-0.4-0.3-0.6-0.4l-2.3,1.8
				c-0.3,0.2-0.7,0.3-1,0.1c-0.9-0.4-1.8-0.7-2.7-0.9c-0.4-0.1-0.7-0.3-0.8-0.7L16,30.2c-0.2,0-0.5,0-0.7,0L14.5,33
				c-0.1,0.4-0.4,0.6-0.8,0.7c-0.9,0.2-1.8,0.5-2.7,0.9c-0.3,0.2-0.7,0.1-1-0.1l-2.3-1.8c-0.2,0.1-0.4,0.3-0.6,0.4l1,2.7
				c0.1,0.4,0,0.8-0.2,1c-0.7,0.7-1.2,1.5-1.7,2.3c-0.2,0.3-0.5,0.5-0.9,0.5l-2.9-0.1c-0.1,0.2-0.1,0.4-0.2,0.6l2.4,1.6
				c0.3,0.2,0.5,0.6,0.4,1c-0.1,0.5-0.1,1-0.1,1.4s0,0.9,0.1,1.4c0,0.4-0.1,0.7-0.4,1l-2.4,1.6c0.1,0.2,0.1,0.4,0.2,0.6l2.9-0.1
				c0.4,0,0.7,0.2,0.9,0.5c0.4,0.8,1,1.6,1.7,2.3c0.3,0.3,0.3,0.7,0.2,1l-1,2.7c0.2,0.1,0.4,0.3,0.6,0.4l2.3-1.8
				c0.3-0.2,0.7-0.3,1-0.1c0.9,0.4,1.8,0.7,2.7,0.9c0.4,0.1,0.7,0.3,0.8,0.7L15.3,58z"/>
			<path d="M15.6,52.8c-4.8,0-8.8-3.9-8.8-8.8s3.9-8.8,8.8-8.8s8.8,3.9,8.8,8.8S20.5,52.8,15.6,52.8z M15.6,37.2
				c-3.7,0-6.8,3.1-6.8,6.8s3.1,6.8,6.8,6.8s6.8-3.1,6.8-6.8S19.4,37.2,15.6,37.2z"/>
		</g>
		<g>
			<path d="M10.9,46.1c-1.2,0-2.1-0.9-2.1-2.1s0.9-2.1,2.1-2.1S13,42.8,13,44S12,46.1,10.9,46.1z M10.9,43.1c-0.5,0-0.9,0.4-0.9,0.9
				s0.4,0.9,0.9,0.9s0.9-0.4,0.9-0.9S11.4,43.1,10.9,43.1z"/>
			<path d="M15.6,46.1c-1.2,0-2.1-0.9-2.1-2.1s0.9-2.1,2.1-2.1s2.1,0.9,2.1,2.1S16.8,46.1,15.6,46.1z M15.6,43.1
				c-0.5,0-0.9,0.4-0.9,0.9s0.4,0.9,0.9,0.9c0.5,0,0.9-0.4,0.9-0.9S16.1,43.1,15.6,43.1z"/>
			<path d="M20.4,46.1c-1.2,0-2.1-0.9-2.1-2.1s0.9-2.1,2.1-2.1s2.1,0.9,2.1,2.1S21.5,46.1,20.4,46.1z M20.4,43.1
				c-0.5,0-0.9,0.4-0.9,0.9s0.4,0.9,0.9,0.9s0.9-0.4,0.9-0.9S20.9,43.1,20.4,43.1z"/>
		</g>
	</g>
	<g>
		<circle class="st2" cx="35.9" cy="70.7" r="5.2"/>
		<circle class="st2" cx="51.9" cy="70.7" r="5.2"/>
		<circle class="st2" cx="67.9" cy="70.7" r="5.2"/>
		<path d="M68.9,64.6v-5.3c0-0.6-0.4-1-1-1h-15v-6.4c0-0.6-0.4-1-1-1s-1,0.4-1,1v6.4h-15c-0.6,0-1,0.4-1,1v5.3
			c-3,0.5-5.2,3.1-5.2,6.2c0,3.4,2.8,6.2,6.2,6.2s6.2-2.8,6.2-6.2c0-3.1-2.3-5.7-5.2-6.2v-4.3h14v4.3c-3,0.5-5.2,3.1-5.2,6.2
			c0,3.4,2.8,6.2,6.2,6.2s6.2-2.8,6.2-6.2c0-3.1-2.3-5.7-5.2-6.2v-4.3h14v4.3c-3,0.5-5.2,3.1-5.2,6.2c0,3.4,2.8,6.2,6.2,6.2
			s6.2-2.8,6.2-6.2C74.1,67.6,71.9,65.1,68.9,64.6z M40.1,70.7c0,2.3-1.9,4.2-4.2,4.2s-4.2-1.9-4.2-4.2s1.9-4.2,4.2-4.2
			C38.2,66.5,40.1,68.4,40.1,70.7z M56.1,70.7c0,2.3-1.9,4.2-4.2,4.2s-4.2-1.9-4.2-4.2s1.9-4.2,4.2-4.2S56.1,68.4,56.1,70.7z
			 M67.9,75c-2.3,0-4.2-1.9-4.2-4.2s1.9-4.2,4.2-4.2s4.2,1.9,4.2,4.2S70.2,75,67.9,75z"/>
	</g>
</g>
</svg>
