<?xml version="1.0" encoding="utf-8"?>
<!-- Generator: Adobe Illustrator 26.0.0, SVG Export Plug-In . SVG Version: 6.00 Build 0)  -->
<svg version="1.1" id="Capa_1" xmlns="http://www.w3.org/2000/svg" xmlns:xlink="http://www.w3.org/1999/xlink" x="0px" y="0px"
	 viewBox="0 0 86 74.1" style="enable-background:new 0 0 86 74.1;" xml:space="preserve">
<style type="text/css">
	.st0{fill:#D8BEA2;}
</style>
<g>
	<rect x="1.3" y="42.2" class="st0" width="21.3" height="25.6"/>
	<path d="M85.8,48.1c-0.6-1.6-2.1-2.5-3.9-2.2L50,51.2l-9.9-9.9C40,41.1,39.7,41,39.4,41H22.9H1c-0.6,0-1,0.4-1,1v25.8
		c0,0.6,0.4,1,1,1h21.9c0.6,0,1-0.4,1-1v-2.6l5.1-0.1L47.6,74c0.1,0.1,0.3,0.1,0.4,0.1c0.2,0,0.4,0,0.5-0.1l35.8-21.6
		C85.8,51.4,86.4,49.7,85.8,48.1z M2,43h13.3v23.8H2V43z M21.9,66.8h-4.5V43h4.5V66.8z M83.3,50.6L48,72l-18.3-8.7
		c-0.1-0.1-0.3-0.1-0.4-0.1l-5.3,0.1V43H39l12.4,12.4c1.1,1.1,1.1,3,0,4.1c-1.1,1.1-3,1.1-4.1,0l-7.7-7.7c-0.4-0.4-1-0.4-1.4,0
		s-0.4,1,0,1.4l7.7,7.7c1,1,2.2,1.4,3.5,1.4s2.5-0.5,3.5-1.4c1.9-1.9,1.9-5,0-7l-1.1-1.1l30.5-5.1c0.9-0.2,1.5,0.4,1.7,1
		C84.1,49.4,84.1,50.1,83.3,50.6z"/>
	<path class="st0" d="M22.7,37.6V37c0-0.4,0.4-0.8,0.8-0.8s0.8,0.4,0.8,0.8v0.6h15.2c0.7,0,1.3,0.2,1.9,0.5l1.6,1.2l4.3,4.3h1.5
		v-9.3c0-2.5-1-4.9-2.8-6.7c-2.3-2.3-5.1-2.7-6.3-2.8c-3.1,3.5-6.4,7.1-6.5,7.1c-0.1,0.2-0.4,0.3-0.6,0.3c0,0,0,0,0,0
		c-0.2,0-0.4-0.1-0.6-0.2c0,0-2.2-2.4-6.5-7.1c-5,0.2-9.1,4.3-9.1,9.4v3.3H22.7z"/>
	<path class="st0" d="M49.1,45.5v-3.6c0-0.4,0.3-0.8,0.8-0.8s0.8,0.3,0.8,0.8V47l0.6,0.6l15.8-2.6v-3c0-0.4,0.3-0.8,0.8-0.8
		c0.4,0,0.8,0.3,0.8,0.8v2.8l5.6-0.9v-5c0-2.4-0.9-4.7-2.6-6.4c-2.2-2.2-4.9-2.6-6.1-2.6c-2.9,3.3-6.2,6.8-6.2,6.8
		c-0.1,0.2-0.3,0.2-0.6,0.2c0,0,0,0,0,0c-0.2,0-0.4-0.1-0.6-0.2c0,0-2.1-2.3-6.2-6.8c-4.8,0.2-8.7,4.2-8.7,9v0.8L49.1,45.5z"/>
	<g>
		<path d="M65,28.5c-0.1-0.1-0.3-0.3-0.5-0.7c-0.2-0.4-0.3-0.8-0.4-1.1c2.9-1.8,4.9-5.1,4.9-8.8v-5.3c0-0.1,0-0.2,0-0.3
			c0-0.1,0-0.1,0-0.2c-0.2-4-3.6-7.2-7.7-7.2h-5.4c-4.3,0-7.7,3.5-7.7,7.7V18c0,3.7,2,7,5,8.8c-0.1,0.3-0.2,0.7-0.4,1.1
			c-0.2,0.4-0.3,0.6-0.5,0.7c-5.7,0.2-10.3,4.5-10.8,10.2c0,0.5,0.4,1,0.9,1.1c0.6,0.1,1-0.4,1.1-0.9c0.4-4.5,4.2-8.1,8.7-8.4
			l5.7,6.8c0.2,0.2,0.5,0.4,0.8,0.4c0,0,0,0,0,0c0.3,0,0.6-0.1,0.8-0.4l5.8-6.8c4.9,0.2,8.7,4.3,8.7,9.2v3.9c0,0.6,0.4,1,1,1
			s1-0.4,1-1v-3.9C75.9,33.7,71,28.7,65,28.5z M55.9,7h5.4c3,0,5.4,2.3,5.7,5.2c-0.3,0.4-1.1,1.4-3.2,1.4c-2.2,0-3.6-2.5-3.7-2.5
			c-0.2-0.3-0.5-0.5-0.9-0.5c-0.4,0-0.7,0.3-0.9,0.6c0,0-0.5,1.1-2.2,2.6c-1.5,1.3-4.1,1.7-6,1.4v-2.4C50.2,9.5,52.7,7,55.9,7z
			 M50.2,18v-0.8c0.4,0.1,0.9,0.1,1.4,0.1c2.1,0,4.4-0.6,5.9-2c0.8-0.7,1.4-1.4,1.9-1.9c0.9,1,2.4,2.3,4.5,2.2
			c1.4,0,2.4-0.4,3.2-0.8V18c0,4.6-3.7,8.3-8.3,8.3h-0.2C53.9,26.3,50.2,22.5,50.2,18z M58.6,35.1L54,29.6c0.2-0.3,0.4-0.6,0.6-1
			c0.2-0.4,0.3-0.7,0.4-1c1.1,0.4,2.3,0.6,3.6,0.6h0.2c1.3,0,2.5-0.2,3.6-0.7c0.1,0.3,0.2,0.6,0.4,1c0.2,0.4,0.4,0.7,0.6,1
			L58.6,35.1z"/>
		<path d="M49.9,40.9c-0.6,0-1,0.4-1,1v4.3c0,0.6,0.4,1,1,1s1-0.4,1-1v-4.3C50.9,41.4,50.4,40.9,49.9,40.9z"/>
		<path d="M67.7,40.9c-0.6,0-1,0.4-1,1v2.9c0,0.6,0.4,1,1,1s1-0.4,1-1v-2.9C68.7,41.4,68.2,40.9,67.7,40.9z"/>
	</g>
	<g>
		<path d="M48.8,30.1c-1.8-3.9-5.6-6.5-9.9-6.6c-0.1-0.1-0.3-0.3-0.4-0.7c-0.2-0.4-0.3-0.8-0.4-1.1c2.9-1.8,4.9-5.1,4.9-8.8V7.7
			c0-0.1,0-0.2,0-0.3c0-0.1,0-0.1,0-0.2c-0.3-4-3.6-7.2-7.7-7.2h-5.4c-4.3,0-7.7,3.5-7.7,7.7V13c0,3.7,2,7,5,8.8
			c-0.1,0.3-0.2,0.7-0.4,1.1c-0.2,0.4-0.3,0.6-0.5,0.7c-5.6,0.2-10.3,4.6-10.8,10.2c0,0.3,0,0.7,0,1v2.9c0,0.6,0.4,1,1,1s1-0.4,1-1
			v-2.9c0-0.3,0-0.5,0-0.8c0.4-4.5,4.2-8.1,8.7-8.4l5.7,6.8c0.2,0.2,0.5,0.4,0.8,0.4c0,0,0,0,0,0c0.3,0,0.6-0.1,0.8-0.4l5.8-6.8
			c3.4,0.2,6.5,2.2,7.9,5.4c0.2,0.5,0.8,0.7,1.3,0.5C48.8,31.2,49,30.6,48.8,30.1z M29.8,2h5.4c3,0,5.4,2.3,5.7,5.2
			c-0.2,0.4-1.1,1.4-3.2,1.4c0,0,0,0-0.1,0c-2.2,0-3.6-2.5-3.6-2.5c-0.2-0.3-0.5-0.5-0.9-0.5c-0.4,0-0.7,0.3-0.9,0.6
			c0,0-0.5,1.1-2.2,2.6c-1.5,1.3-4.1,1.7-6,1.4V7.7C24.1,4.6,26.6,2,29.8,2z M24.1,13v-0.8c0.4,0.1,0.9,0.1,1.4,0.1
			c2.1,0,4.4-0.6,5.9-2c0.8-0.7,1.4-1.4,1.9-1.9c0.9,1,2.4,2.3,4.5,2.2c1.4,0,2.4-0.4,3.2-0.8V13c0,4.6-3.7,8.3-8.3,8.3h-0.2
			C27.8,21.3,24.1,17.6,24.1,13z M32.5,30.1l-4.6-5.5c0.2-0.3,0.4-0.6,0.6-1c0.2-0.4,0.3-0.7,0.4-1c1.1,0.4,2.3,0.6,3.6,0.6h0.2
			c1.3,0,2.5-0.2,3.6-0.7c0.1,0.3,0.2,0.6,0.4,1c0.2,0.4,0.4,0.7,0.6,1L32.5,30.1z"/>
		<path d="M23.7,35.9c-0.6,0-1,0.4-1,1v0.7c0,0.6,0.4,1,1,1s1-0.4,1-1v-0.7C24.7,36.4,24.3,35.9,23.7,35.9z"/>
	</g>
</g>
</svg>
