<?xml version="1.0" encoding="utf-8"?>
<!-- Generator: Adobe Illustrator 26.0.0, SVG Export Plug-In . SVG Version: 6.00 Build 0)  -->
<svg version="1.1" id="Capa_1" xmlns="http://www.w3.org/2000/svg" xmlns:xlink="http://www.w3.org/1999/xlink" x="0px" y="0px"
	 viewBox="0 0 1366 709" style="enable-background:new 0 0 1366 709;" xml:space="preserve">
<style type="text/css">
	.st0{fill:#F2F2F2;}
	.st1{fill:#F44238;}
	.st2{fill:#FFFFFF;}
	.st3{fill:#808080;}
	.st4{fill:#CBA775;}
	.st5{fill:#B08C55;}
</style>
<g id="Capa_1_00000177467594969220832290000015305361792687253663_">
	<rect class="st0" width="1366" height="709"/>
	<rect class="st1" width="686" height="709"/>
	<path class="st2" d="M275.5,392.4c2.1,2,4.9,3.2,7.9,3.2h15.7l-2.5,2.2c-1,0.8-1.9,1.7-2.7,2.7c-1.1,1.2-2.2,2.6-3.1,4h-0.2
		c-4.1,5.8-6.3,12.6-6.4,19.7h0.1c0,1.5,0,3.1,0.1,4.5c0.2,1.7,0.5,3.4,0.9,5l0.1,0.2c0.5,1.7,1,3.4,1.7,5l0,0
		c2.8,6.6,7.6,12.2,13.6,16L318,466l37.2,23.6l41.7-32l16.2-12.4l9.9-7.6l0.1-84.5c0-29.8-24.2-53.9-53.9-53.9h-71.5
		c-2.2,0.1-3.9,1.9-3.9,4.1c0,0.8,0.3,1.6,0.8,2.3l4.7,6.1l0.6,0.7l3,2.9l-0.6,0.3l-32.1,12.5c-4.3,1.3-7.2,5.3-7.3,9.8v37.3
		c0,2.9,1.2,5.8,3.2,7.9L275.5,392.4z M369.1,318.8c18.9,0,34.2,15.3,34.2,34.2l-0.1,74.7l-49.1,37.7l-36.7-23.3l-5.2-2.9
		c-7.9-4.4-10.7-14.3-6.3-22.2c1-1.7,2.2-3.2,3.7-4.5l9-7.9l28.1-24.6l0.4-0.4c2.8-2.7,4.4-6.5,4.4-10.4v-23.7
		c0-3.8-1.5-7.5-4.1-10.2l-15-16.6H369.1z M282.6,344.5l34.4-13.4l14.9,16.5v19.5l-10.3,9h-34.7l-4.2-4.4V344.5z"/>
	<path class="st2" d="M323.4,290.6h60.3c2,0,3.7-1.6,3.8-3.6V262c0-1.3-0.7-2.4-1.9-2.9c-1.1-0.6-2.5-0.4-3.5,0.4l-13.2,11.7
		L356,259.7c-1.3-1.3-3.4-1.4-4.8-0.1l-13.1,11.1L325,259.5c-0.9-0.9-2.2-1-3.3-0.4c-1.2,0.5-1.9,1.6-1.9,2.9v24.9
		C319.7,288.9,321.3,290.5,323.4,290.6C323.4,290.6,323.4,290.6,323.4,290.6z"/>
	<path class="st2" d="M1199.6,134.8v314.5c0,0,3.8,54.1-11.7,71.6c-16.5,18.7-42,20.7-86.8,29.6s-75.1,31.7-75.1,31.7
		s-30.3-22.7-75.1-31.7s-70.3-10.9-86.8-29.6c-15.5-17.6-11.7-71.6-11.7-71.6V134.8H1199.6z"/>
	<rect x="895.9" y="293.3" class="st3" width="43.1" height="43.1"/>
	<rect x="895.9" y="293.3" class="st3" width="43.1" height="43.1"/>
	<path class="st4" d="M919,314c1.9-0.9,2.6-3.2,1.7-5.1c-0.9-1.9-3.2-2.6-5.1-1.7s-2.6,3.2-1.7,5.1c0.4,0.7,1,1.3,1.7,1.7
		c-2.6,0.7-4.4,3.1-4.4,5.8v2.9h12.1v-2.9C923.4,317.1,921.6,314.8,919,314z"/>
	<rect x="895.9" y="347.9" class="st3" width="43.1" height="43.1"/>
	<rect x="895.9" y="347.9" class="st3" width="43.1" height="43.1"/>
	<path class="st4" d="M922.2,365.6h-1.1v-1.3c0.1-2.4-1.8-4.5-4.2-4.6c-2.4-0.1-4.5,1.8-4.6,4.2c0,0.1,0,0.3,0,0.4v1.3h-1
		c-0.8,0-1.5,0.7-1.5,1.5v8.6c0,0.8,0.7,1.5,1.5,1.5h10.9c0.8,0,1.5-0.7,1.5-1.5v-8.6C923.7,366.2,923,365.6,922.2,365.6z
		 M914.3,364.3c-0.1-1.3,0.9-2.5,2.3-2.6c1.3-0.1,2.5,0.9,2.6,2.3c0,0.1,0,0.2,0,0.3v1.3h-4.8V364.3z M917.5,373.2v2.2
		c0,0.1-0.1,0.2-0.2,0.2c0,0,0,0,0,0h-1c-0.1,0-0.2-0.1-0.2-0.2v-2.2c-1-0.4-1.5-1.5-1.1-2.5c0.4-1,1.5-1.5,2.5-1.1s1.5,1.5,1.1,2.5
		C918.5,372.6,918.1,373,917.5,373.2L917.5,373.2z"/>
	<path class="st5" d="M1122,126.8h55l0,0v5.2c0,5.5-4.5,10-10,10h-55l0,0v-5.3C1112,131.2,1116.5,126.8,1122,126.8z"/>
</g>
</svg>
