<?xml version="1.0" encoding="utf-8"?>
<!-- Generator: Adobe Illustrator 26.0.0, SVG Export Plug-In . SVG Version: 6.00 Build 0)  -->
<svg version="1.1" id="Capa_1" xmlns="http://www.w3.org/2000/svg" xmlns:xlink="http://www.w3.org/1999/xlink" x="0px" y="0px"
	 viewBox="0 0 62.5 59.1" style="enable-background:new 0 0 62.5 59.1;" xml:space="preserve">
<style type="text/css">
	.st0{fill:#1D1D1B;}
	.st1{fill:#F8B133;}
	.st2{fill:#35A8E0;}
	.st3{fill:#93C01F;}
</style>
<g>
	<g>
		<path class="st0" d="M61.4,19.2h-2v-6.6c0-5.5-4.5-10-10-10s-10,4.5-10,10v6.6h-1.9c-0.6,0-1,0.4-1,1v13.6c0,3.6,2.9,6.6,6.6,6.6
			h12.8c3.6,0,6.6-2.9,6.6-6.6V20.2C62.4,19.7,61.9,19.2,61.4,19.2z M41.4,12.6c0-4.4,3.6-8,8-8s8,3.6,8,8v6.6h-2.3v-6.6
			c0-3.1-2.5-5.7-5.7-5.7s-5.7,2.5-5.7,5.7v6.6h-2.3V12.6z M53.1,19.2h-7.3v-6.6c0-2,1.6-3.7,3.7-3.7c2,0,3.7,1.6,3.7,3.7L53.1,19.2
			L53.1,19.2z M60.4,33.9c0,2.5-2,4.6-4.6,4.6H43.1c-2.5,0-4.6-2-4.6-4.6V21.2h21.9V33.9z"/>
		<path class="st0" d="M47,30.7v3.7c0,0.6,0.4,1,1,1h2.9c0.6,0,1-0.4,1-1v-3.7c1.1-0.8,1.7-2,1.7-3.4c0-2.3-1.9-4.2-4.2-4.2
			s-4.2,1.9-4.2,4.2C45.2,28.7,45.9,29.9,47,30.7z M49.4,25.1c1.2,0,2.2,1,2.2,2.2c0,0.8-0.5,1.6-1.2,2c-0.3,0.2-0.5,0.5-0.5,0.9
			v3.2H49v-3.2c0-0.4-0.2-0.7-0.5-0.9c-0.7-0.4-1.2-1.1-1.2-2C47.2,26.1,48.2,25.1,49.4,25.1z"/>
	</g>
	<path class="st1" d="M43.8,12.6c0-3.1,2.5-5.7,5.7-5.7s5.7,2.5,5.7,5.7v6.6h2.3v-6.6c0-4.4-3.6-8-8-8s-8,3.6-8,8v6.6h2.3V12.6z"/>
	<path class="st2" d="M38.5,33.9c0,2.5,2,4.6,4.6,4.6h12.8c2.5,0,4.6-2,4.6-4.6V21.2h-22V33.9z M49.4,23.1c2.3,0,4.2,1.9,4.2,4.2
		c0,1.4-0.7,2.6-1.7,3.4v3.7c0,0.6-0.4,1-1,1H48c-0.6,0-1-0.4-1-1v-3.7c-1.1-0.8-1.7-2-1.7-3.4C45.2,25,47.1,23.1,49.4,23.1z"/>
	<path class="st3" d="M38,57.3h-2.7V49c0-0.6-0.4-1-1-1s-1,0.4-1,1v8.3H11.7V49c0-0.6-0.4-1-1-1s-1,0.4-1,1v8.3H1.8V45.5
		c0-6.4,5.1-11.7,11.5-11.9c5.4,6,8.2,9,8.2,9c0.2,0.2,0.5,0.3,0.7,0.3l0,0c0.3,0,0.5-0.1,0.7-0.3c0,0,4.3-4.6,8.2-9
		c1.5,0.1,5.1,0.6,8,3.5c2.3,2.3,3.5,5.3,3.5,8.4v11.8C42.6,57.3,38,57.3,38,57.3z"/>
	<path class="st0" d="M44.7,57.3V45.5c0-3.7-1.5-7.2-4.1-9.9c-3.7-3.7-8.2-4.1-9.7-4.1c-0.2-0.1-1-0.5-2.1-3.1c4.1-2.3,7-6.7,7-11.8
		V9.8C35.8,4.4,31.4,0,26,0h-7.2C13.4,0,9,4.4,9,9.8v6.8c0,5,2.7,9.3,6.7,11.6c-0.3,1.1-1.1,2.2-2.2,3.2C6,31.6,0,37.8,0,45.3v12.8
		c0,0.6,0.4,1,1,1h37.1h5.7h1v-1.8H44.7z M10.8,9.9c0-4.3,3.5-7.8,7.8-7.8h7.2c4.2,0,7.6,3.3,7.8,7.4c-1.7,1.5-3.3,2.1-4.8,2
		c-1.7-0.2-3.3-1.4-4.9-3.6c-0.2-0.3-0.5-0.4-0.9-0.4c-0.3,0-0.6,0.2-0.8,0.5c-2.8,4.7-6.5,6.5-11.5,5.5V9.9H10.8z M10.8,16.8v-1.3
		c0.9,0.1,1.7,0.2,2.5,0.2c4.1,0,7.4-1.8,10-5.5c1.7,2,3.5,3.1,5.4,3.3c1.6,0.2,3.3-0.3,5-1.5v4.8c0,6.3-5.1,11.4-11.4,11.4
		C15.9,28.2,10.8,23.1,10.8,16.8z M17.3,29.3c1.5,0.6,3.2,0.9,4.9,0.9c1.6,0,3.2-0.3,4.7-0.9c0.7,1.7,1.5,2.8,2.2,3.5
		c-2.8,3.1-5.6,6.2-6.9,7.6c-1.1-1.2-3.5-3.8-7.1-7.8C16.2,31.6,16.9,30.4,17.3,29.3z M42.7,57.3H38h-2.7V49c0-0.6-0.4-1-1-1
		s-1,0.4-1,1v8.3H11.7V49c0-0.6-0.4-1-1-1s-1,0.4-1,1v8.3H1.8V45.5c0-6.4,5.1-11.7,11.5-11.9c5.4,6,8.2,9,8.2,9
		c0.2,0.2,0.5,0.3,0.7,0.3l0,0c0.3,0,0.5-0.1,0.7-0.3c0,0,4.3-4.6,8.2-9c1.5,0.1,5.1,0.6,8,3.5c2.3,2.3,3.5,5.3,3.5,8.4L42.7,57.3
		L42.7,57.3z"/>
</g>
</svg>
