<?xml version="1.0" encoding="utf-8"?>
<svg version="1.1" id="Capa_1" x="0px" y="0px" viewBox="0 0 135.2 135.2" style="enable-background:new 0 0 135.2 135.2;" xmlns="http://www.w3.org/2000/svg">
  <style type="text/css">
	.st0{fill:#FFFFFF;stroke:#CCCCCC;stroke-width:0.5;stroke-miterlimit:10;}
	.st1{fill:#93C01F;}
	.st2{fill:#35A8E0;}
	.st3{fill:#F8B133;}
	.st4{fill:#D8BEA2;}
</style>
  <g>
    <rect x="90.1" y="40.4" width="3" height="3"/>
    <rect x="96.1" y="40.4" width="3" height="3"/>
    <rect x="96.1" y="46.3" width="3" height="3"/>
    <rect x="96.1" y="52.2" width="3" height="3"/>
    <rect x="96.1" y="58.1" width="3" height="3"/>
    <rect x="96.1" y="64" width="3" height="3"/>
    <rect x="96.1" y="69.9" width="3" height="3"/>
    <rect x="42.1" y="40.4" transform="matrix(-1 -4.486867e-11 4.486867e-11 -1 87.2 83.7155)" width="3" height="3"/>
    <rect x="36.1" y="40.4" transform="matrix(-1 -4.486867e-11 4.486867e-11 -1 75.2 83.7155)" width="3" height="3"/>
    <rect x="36.1" y="46.3" transform="matrix(-1 -4.486867e-11 4.486867e-11 -1 75.2 95.5155)" width="3" height="3"/>
    <rect x="36.1" y="52.2" transform="matrix(-1 -4.486867e-11 4.486867e-11 -1 75.2 107.3155)" width="3" height="3"/>
    <rect x="36.1" y="58.1" transform="matrix(-1 -4.486867e-11 4.486867e-11 -1 75.2 119.1155)" width="3" height="3"/>
    <rect x="36.1" y="64" transform="matrix(-1 -4.486867e-11 4.486867e-11 -1 75.2 130.9155)" width="3" height="3"/>
    <rect x="36.1" y="69.9" transform="matrix(-1 -4.486867e-11 4.486867e-11 -1 75.2 142.7155)" width="3" height="3"/>
    <rect x="66.1" y="64" transform="matrix(-1 -4.486867e-11 4.486867e-11 -1 135.2 130.9155)" width="3" height="3"/>
    <rect x="66.1" y="69.9" transform="matrix(-1 -4.486867e-11 4.486867e-11 -1 135.2 142.7155)" width="3" height="3"/>
    <g>
      <path d="M41.5,88.1c1.6-1.2,2.6-3.1,2.6-5.2c0-3.6-2.9-6.5-6.5-6.5s-6.5,2.9-6.5,6.5c0,2.1,1,4,2.6,5.2c-4.2,1.6-7.1,5.6-7.1,10.3 v3c0,0.6,0.4,1,1,1h20c0.6,0,1-0.4,1-1v-3C48.6,93.7,45.6,89.6,41.5,88.1z M33.1,82.9c0-2.5,2-4.5,4.5-4.5s4.5,2,4.5,4.5 s-2,4.5-4.5,4.5S33.1,85.3,33.1,82.9z M46.6,100.4h-18v-2c0-5,4-9,9-9s9,4,9,9V100.4z"/>
      <path d="M71.5,88.1c1.6-1.2,2.6-3.1,2.6-5.2c0-3.6-2.9-6.5-6.5-6.5s-6.5,2.9-6.5,6.5c0,2.1,1,4,2.6,5.2c-4.2,1.6-7.1,5.6-7.1,10.3 v3c0,0.6,0.4,1,1,1h20c0.6,0,1-0.4,1-1v-3C78.6,93.7,75.6,89.6,71.5,88.1z M63.1,82.9c0-2.5,2-4.5,4.5-4.5s4.5,2,4.5,4.5 s-2,4.5-4.5,4.5S63.1,85.3,63.1,82.9z M76.6,100.4h-18v-2c0-5,4-9,9-9s9,4,9,9V100.4z"/>
      <path d="M101.5,88.1c1.6-1.2,2.6-3.1,2.6-5.2c0-3.6-2.9-6.5-6.5-6.5s-6.5,2.9-6.5,6.5c0,2.1,1,4,2.6,5.2 c-4.2,1.6-7.1,5.6-7.1,10.3v3c0,0.6,0.4,1,1,1h20c0.6,0,1-0.4,1-1v-3C108.6,93.7,105.6,89.6,101.5,88.1z M93.1,82.9 c0-2.5,2-4.5,4.5-4.5s4.5,2,4.5,4.5s-2,4.5-4.5,4.5S93.1,85.3,93.1,82.9z M106.6,100.4h-18v-2c0-5,4-9,9-9s9,4,9,9V100.4z"/>
      <path d="M67.6,29.9c-6.6,0-12,5.4-12,12s5.4,12,12,12s12-5.4,12-12S74.2,29.9,67.6,29.9z M67.6,51.9c-5.5,0-10-4.5-10-10 s4.5-10,10-10s10,4.5,10,10S73.1,51.9,67.6,51.9z"/>
      <path d="M82.4,48.9l0.6-1.5c0.1-0.3,0.4-0.5,0.8-0.5h3.8v-10h-3.8c-0.4,0-0.7-0.2-0.8-0.5l-0.6-1.5c-0.1-0.3-0.1-0.7,0.2-0.9 l2.7-2.7l-7.1-7.1l-2.7,2.7c-0.2,0.2-0.6,0.3-0.9,0.2l-1.5-0.6c-0.3-0.1-0.5-0.4-0.5-0.8v-3.8h-10v3.8c0,0.4-0.2,0.7-0.5,0.8 L60.6,27c-0.3,0.1-0.7,0.1-0.9-0.2L57,24.2l-7.1,7.1l2.7,2.7c0.2,0.2,0.3,0.6,0.2,0.9l-0.6,1.5c-0.1,0.3-0.4,0.5-0.8,0.5h-3.8v10 h3.8c0.4,0,0.7,0.2,0.8,0.5l0.6,1.5c0.1,0.3,0.1,0.7-0.2,0.9l-2.7,2.7l7.1,7.1l2.7-2.7c0.2-0.2,0.6-0.3,0.9-0.2l1.5,0.6 c0.3,0.1,0.5,0.4,0.5,0.8v3.8h10v-3.8c0-0.4,0.2-0.7,0.5-0.8l1.5-0.6c0.3-0.1,0.7-0.1,0.9,0.2l2.7,2.7l7.1-7.1l-2.7-2.7 C82.4,49.6,82.3,49.2,82.4,48.9z M78.2,56.7L77,55.5c-0.8-0.8-2-1.1-3.1-0.6l-1.5,0.6c-1.1,0.4-1.8,1.5-1.8,2.6v1.8h-6v-1.8 c0-1.2-0.7-2.2-1.8-2.6l-1.5-0.6c-1.1-0.4-2.3-0.2-3.1,0.6L57,56.7l-4.2-4.2l1.2-1.2c0.8-0.8,1.1-2,0.6-3.1L54,46.6 c-0.4-1.1-1.5-1.8-2.6-1.8h-1.8v-6h1.8c1.2,0,2.2-0.7,2.6-1.8l0.6-1.5c0.4-1.1,0.2-2.3-0.6-3.1l-1.2-1.2L57,27l1.2,1.2 c0.8,0.8,2,1.1,3.1,0.6l1.5-0.6c1.1-0.4,1.8-1.5,1.8-2.6v-1.8h6v1.8c0,1.2,0.7,2.2,1.8,2.6l1.5,0.6c1.1,0.4,2.3,0.2,3.1-0.6 l1.2-1.2l4.2,4.2l-1.2,1.2c-0.8,0.8-1.1,2-0.6,3.1l0.6,1.5c0.4,1.1,1.5,1.8,2.6,1.8h1.8v6h-1.8c-1.2,0-2.2,0.7-2.6,1.8l-0.6,1.5 c-0.4,1.1-0.2,2.3,0.6,3.1l1.2,1.2L78.2,56.7z"/>
      <path d="M64.6,35.1c-0.3-0.2-0.7-0.2-1,0s-0.5,0.5-0.5,0.9v11.5c0,0.4,0.2,0.7,0.5,0.9c0.2,0.1,0.3,0.1,0.5,0.1s0.3,0,0.5-0.1 l10-5.8c0.3-0.2,0.5-0.5,0.5-0.9s-0.2-0.7-0.5-0.9L64.6,35.1z M65.1,45.7v-8.1l7,4L65.1,45.7z"/>
    </g>
  </g>
  <path class="st1" d="M46.6,100.4h-18v-2c0-5,4-9,9-9s9,4,9,9V100.4z" style="fill: rgb(216, 190, 162);"/>
  <path class="st2" d="M76.6,100.4h-18v-2c0-5,4-9,9-9s9,4,9,9V100.4z" style="fill: rgb(216, 190, 162);"/>
  <path class="st3" d="M106.6,100.4h-18v-2c0-5,4-9,9-9s9,4,9,9V100.4z" style="fill: rgb(216, 190, 162);"/>
  <path class="st4" d="M83.8,38.9c-1.2,0-2.2-0.7-2.6-1.8l-0.6-1.5c-0.4-1.1-0.2-2.3,0.6-3.1l1.2-1.2L78.2,27L77,28.2 c-0.8,0.8-2,1.1-3.1,0.6l-1.5-0.6c-1.1-0.4-1.8-1.5-1.8-2.6v-1.8h-6v1.8c0,1.2-0.7,2.2-1.8,2.6l-1.5,0.6c-1.1,0.4-2.3,0.2-3.1-0.6 L57,27l-4.2,4.2l1.2,1.2c0.8,0.8,1.1,2,0.6,3.1L54,37.1c-0.4,1.1-1.5,1.8-2.6,1.8h-1.8v6h1.8c1.2,0,2.2,0.7,2.6,1.8l0.6,1.5 c0.4,1.1,0.2,2.3-0.6,3.1l-1.2,1.2l4.2,4.2l1.2-1.2c0.8-0.8,2-1.1,3.1-0.6l1.5,0.6c1.1,0.4,1.8,1.5,1.8,2.6v1.8h6v-1.8 c0-1.2,0.7-2.2,1.8-2.6l1.5-0.6c1.1-0.4,2.3-0.2,3.1,0.6l1.2,1.2l4.2-4.2l-1.2-1.2c-0.8-0.8-1.1-2-0.6-3.1l0.6-1.5 c0.4-1.1,1.5-1.8,2.6-1.8h1.8v-6H83.8z M67.6,53.9c-6.6,0-12-5.4-12-12s5.4-12,12-12s12,5.4,12,12S74.2,53.9,67.6,53.9z"/>
</svg>