<?xml version="1.0" encoding="utf-8"?>
<!-- Generator: Adobe Illustrator 26.0.0, SVG Export Plug-In . SVG Version: 6.00 Build 0)  -->
<svg version="1.1" id="Capa_1" xmlns="http://www.w3.org/2000/svg" xmlns:xlink="http://www.w3.org/1999/xlink" x="0px" y="0px"
	 viewBox="0 0 201 91.1" style="enable-background:new 0 0 201 91.1;" xml:space="preserve">
<style type="text/css">
	.st0{fill:#D7BDA1;}
	.st1{fill:#1D1D1B;}
	.st2{fill:#FFFFFF;}
</style>
<g>
	<g>
		<path class="st0" d="M155.4,3H45.6C22.1,3,3,22,3,45.6v0c0,23.5,19.1,42.6,42.6,42.6h109.8c23.5,0,42.6-19.1,42.6-42.6v0
			C198,22,178.9,3,155.4,3z"/>
		<path class="st1" d="M155.4,91.1H45.6C20.4,91.1,0,70.7,0,45.5S20.4,0,45.6,0h109.8C180.6,0,201,20.4,201,45.5
			S180.6,91.1,155.4,91.1z M45.6,6C23.8,6,6,23.7,6,45.5s17.8,39.6,39.6,39.6h109.8c21.8,0,39.6-17.8,39.6-39.6S177.2,6,155.4,6
			H45.6z"/>
	</g>
	<g>
		<path class="st2" d="M154.4,14.3H114c-17.3,0-31.3,14-31.3,31.3v0c0,17.3,14,31.3,31.3,31.3h40.4c17.3,0,31.3-14,31.3-31.3v0
			C185.7,28.3,171.7,14.3,154.4,14.3z"/>
		<path class="st1" d="M114,11.8h40.4c18.6,0,33.8,15.2,33.8,33.8c0,18.6-15.2,33.8-33.8,33.8H114c-18.6,0-33.8-15.2-33.8-33.8
			C80.2,26.9,95.3,11.8,114,11.8z M154.4,74.3c15.9,0,28.8-12.9,28.8-28.8c0-15.9-12.9-28.8-28.8-28.8H114
			c-15.9,0-28.8,12.9-28.8,28.8c0,15.9,12.9,28.8,28.8,28.8H154.4z"/>
	</g>
	<g>
		<path class="st1" d="M147.4,33.4c-2-2.1-4.9-3.3-7.8-3.3l-14.7,0c-0.6,0-1.1,0.8-0.6,1.3l1,1.2l0.1,0.2l0.6,0.6l-0.1,0.1l-6.6,2.6
			c-0.9,0.4-1.5,1.2-1.5,2l0,7.7c0,0.6,0.2,1.2,0.6,1.6l2,2c0.4,0.4,1,0.6,1.6,0.6h3.4l-0.5,0.4c-0.2,0.2-0.4,0.4-0.5,0.5
			c-0.2,0.3-0.4,0.5-0.6,0.8h-0.1c-0.9,1.2-1.3,2.6-1.3,4c0,0.3,0,0.6,0,0.9c0,0.4,0.1,0.7,0.2,1.1c0,0.1,0,0.1,0,0.1
			c0.1,0.4,0.3,0.6,0.4,1c0.5,1.3,1.4,2.5,2.8,3.3l3.6,2.3l7.7,4.8l8.6-6.6l3.3-2.6l2-1.5l0-17.4C150.6,38.3,149.5,35.5,147.4,33.4z
			 M122.7,46.1l-0.9-0.9l0-5.6l7.1-2.8l3,3.4v4l-2.1,1.9L122.7,46.1z M146.5,56.7l-10.1,7.7l-7.6-4.8l-1.1-0.6
			c-1-0.5-1.6-1.5-1.7-2.6c-0.1-1.1,0.4-2.1,1.2-2.9l1.9-1.5l5.8-5.1l0.1-0.1c0.5-0.6,0.9-1.3,0.9-2.1v-4.9c0-0.8-0.3-1.6-0.8-2.1
			l-3.1-3.4l7.6,0c1.9,0,3.7,0.7,4.9,2c1.3,1.3,2,3.1,2,5V56.7z"/>
		<path class="st1" d="M129.4,22.5c0-0.3,0.2-0.5,0.4-0.6s0.5-0.1,0.7,0.1l2.7,2.3l2.7-2.3c0.3-0.3,0.7-0.3,1,0l2.7,2.4l2.8-2.4
			c0.2-0.2,0.4-0.2,0.7-0.1s0.4,0.4,0.4,0.6v5.1c0,0.4-0.4,0.7-0.8,0.7l-12.4,0c-0.4,0-0.7-0.4-0.7-0.7V22.5z"/>
	</g>
</g>
</svg>
