<?xml version="1.0" encoding="utf-8"?>
<!-- Generator: Adobe Illustrator 26.0.0, SVG Export Plug-In . SVG Version: 6.00 Build 0)  -->
<svg version="1.1" id="Capa_1" xmlns="http://www.w3.org/2000/svg" xmlns:xlink="http://www.w3.org/1999/xlink" x="0px" y="0px"
	 viewBox="0 0 135.2 135.2" style="enable-background:new 0 0 135.2 135.2;" xml:space="preserve">
<style type="text/css">
	.st0{fill:none;stroke:#CCCCCC;stroke-width:0.5;stroke-miterlimit:10;}
	.st1{fill:#DADADA;}
	.st2{fill:#EDEDED;}
	.st3{fill:#262624;}
</style>
<g>
	<circle class="st0" cx="67.6" cy="67.6" r="66"/>
	<g>
		<g>
			<polygon class="st1" points="42.1,28.1 57.9,28.1 64.3,37.1 93.1,37.1 93.1,68.1 42.1,68.1 			"/>
			<polygon class="st2" points="91.1,38.1 91.1,31.1 57.8,31.1 62.8,38.1 			"/>
			<rect x="23.1" y="89.1" class="st1" width="22" height="16"/>
			<rect x="56.1" y="89.1" class="st1" width="22" height="16"/>
			<rect x="90.1" y="89.1" class="st1" width="22" height="16"/>
			<g>
				<path d="M27.3,94.1h13.1c0.6,0,1-0.4,1-1s-0.4-1-1-1H27.3c-0.6,0-1,0.4-1,1S26.8,94.1,27.3,94.1z"/>
				<path d="M27.3,98.1h13.1c0.6,0,1-0.4,1-1s-0.4-1-1-1H27.3c-0.6,0-1,0.4-1,1S26.8,98.1,27.3,98.1z"/>
				<path d="M27.3,102.1h13.1c0.6,0,1-0.4,1-1s-0.4-1-1-1H27.3c-0.6,0-1,0.4-1,1S26.8,102.1,27.3,102.1z"/>
				<path d="M61,94.1h13.1c0.6,0,1-0.4,1-1s-0.4-1-1-1H61c-0.6,0-1,0.4-1,1S60.5,94.1,61,94.1z"/>
				<path d="M61,98.1h13.1c0.6,0,1-0.4,1-1s-0.4-1-1-1H61c-0.6,0-1,0.4-1,1S60.5,98.1,61,98.1z"/>
				<path d="M61,102.1h13.1c0.6,0,1-0.4,1-1s-0.4-1-1-1H61c-0.6,0-1,0.4-1,1S60.5,102.1,61,102.1z"/>
				<path d="M94.7,94.1h13.1c0.6,0,1-0.4,1-1s-0.4-1-1-1H94.7c-0.6,0-1,0.4-1,1S94.1,94.1,94.7,94.1z"/>
				<path d="M94.7,98.1h13.1c0.6,0,1-0.4,1-1s-0.4-1-1-1H94.7c-0.6,0-1,0.4-1,1S94.1,98.1,94.7,98.1z"/>
				<path d="M94.7,102.1h13.1c0.6,0,1-0.4,1-1s-0.4-1-1-1H94.7c-0.6,0-1,0.4-1,1S94.1,102.1,94.7,102.1z"/>
				<path class="st3" d="M112.1,87.1h-8v-8c0-0.6-0.4-1-1-1H72.8c-0.4-1.8-1.9-3.2-3.7-3.6v-5.4h24.3c0,0,0.7-0.2,0.7-1V37.7
					c0-0.4-0.3-0.6-0.7-0.6l-2.3,0V31c0,0,0.2-1-0.4-0.9H59.4l-1.6-2.3c-0.1-0.2-0.8-0.7-0.8-0.7H42.1c-0.6,0-1,0.4-1,1v40
					c0,0.6,0.4,1,1,1h24v5.5c-1.8,0.4-3.2,1.7-3.7,3.5H32.1c-0.6,0-1,0.4-1,1v8h-8c-0.6,0-1,0.4-1,1v17c0,0.6,0.4,1,1,1h22
					c0.6,0,1-0.4,1-1v-17c0-0.6-0.4-1-1-1h-12v-7h29.2c0.3,1.9,1.8,3.4,3.8,3.7v3.3h-9c-0.6,0-1,0.4-1,1v17c0,0.6,0.4,1,1,1h22
					c0.6,0,1-0.4,1-1v-17c0-0.6-0.4-1-1-1h-10v-3.3c1.9-0.4,3.4-1.9,3.8-3.7h29.2v7h-12c-0.6,0-1,0.4-1,1v17c0,0.6,0.4,1,1,1h22
					c0.6,0,1-0.4,1-1v-17C113.1,87.5,112.6,87.1,112.1,87.1z M44.1,89.1v15h-20v-15H44.1z M90.1,32.1v5H63.4l-3.4-5H90.1z
					 M43.1,67.2V29.1h13.2l6.1,8.6c0.2,0.3,0.5,0.4,0.8,0.4h29v29L43.1,67.2L43.1,67.2L43.1,67.2z M78.1,89.1v15h-20v-15H78.1z
					 M67.6,82.1c-1.6,0-2.9-1.3-2.9-2.9s1.3-2.9,2.9-2.9s2.9,1.3,2.9,2.9C70.5,80.8,69.2,82.1,67.6,82.1z M111.1,104.1h-20v-15h20
					V104.1z"/>
			</g>
		</g>
	</g>
</g>
</svg>
