<?xml version="1.0" encoding="utf-8"?>
<!-- Generator: Adobe Illustrator 26.0.0, SVG Export Plug-In . SVG Version: 6.00 Build 0)  -->
<svg version="1.1" id="Capa_1" xmlns="http://www.w3.org/2000/svg" xmlns:xlink="http://www.w3.org/1999/xlink" x="0px" y="0px"
	 viewBox="0 0 135.2 135.2" style="enable-background:new 0 0 135.2 135.2;" xml:space="preserve">
<style type="text/css">
	.st0{fill:#FFFFFF;stroke:#CDCCCC;stroke-width:0.5;stroke-miterlimit:10;}
	.st1{fill:#1D1D1B;}
	.st2{fill:#F8B133;}
	.st3{fill:#35A8E0;}
	.st4{fill:#93C01F;}
</style>
<circle class="st0" cx="67.6" cy="67.6" r="66"/>
<g>
	<g>
		<path class="st1" d="M97.9,57.1h-2v-6.6c0-5.5-4.5-10-10-10c-5.5,0-10,4.5-10,10v6.6H74c-0.6,0-1,0.4-1,1v13.6
			c0,3.6,2.9,6.6,6.6,6.6h12.8c3.6,0,6.6-2.9,6.6-6.6V58.1C98.9,57.6,98.4,57.1,97.9,57.1z M77.9,50.5c0-4.4,3.6-8,8-8s8,3.6,8,8
			v6.6h-2.3v-6.6c0-3.1-2.5-5.7-5.7-5.7s-5.7,2.5-5.7,5.7v6.6h-2.3V50.5z M89.6,57.1h-7.3v-6.6c0-2,1.6-3.7,3.7-3.7
			c2,0,3.7,1.6,3.7,3.7V57.1z M96.9,71.8c0,2.5-2,4.6-4.6,4.6H79.6c-2.5,0-4.6-2-4.6-4.6V59.1h21.9V71.8z"/>
		<path class="st1" d="M83.5,68.6v3.7c0,0.6,0.4,1,1,1h2.9c0.6,0,1-0.4,1-1v-3.7c1.1-0.8,1.7-2,1.7-3.4c0-2.3-1.9-4.2-4.2-4.2
			s-4.2,1.9-4.2,4.2C81.7,66.6,82.4,67.8,83.5,68.6z M85.9,63c1.2,0,2.2,1,2.2,2.2c0,0.8-0.5,1.6-1.2,2c-0.3,0.2-0.5,0.5-0.5,0.9
			v3.2h-0.9v-3.2c0-0.4-0.2-0.7-0.5-0.9c-0.7-0.4-1.2-1.1-1.2-2C83.7,64,84.7,63,85.9,63z"/>
	</g>
	<path class="st2" d="M80.3,50.5c0-3.1,2.5-5.7,5.7-5.7s5.7,2.5,5.7,5.7v6.6h2.3v-6.6c0-4.4-3.6-8-8-8s-8,3.6-8,8v6.6h2.3V50.5z"/>
	<path class="st3" d="M75,71.8c0,2.5,2,4.6,4.6,4.6h12.8c2.5,0,4.6-2,4.6-4.6V59.1H75V71.8z M85.9,61c2.3,0,4.2,1.9,4.2,4.2
		c0,1.4-0.7,2.6-1.7,3.4v3.7c0,0.6-0.4,1-1,1h-2.9c-0.6,0-1-0.4-1-1v-3.7c-1.1-0.8-1.7-2-1.7-3.4C81.7,62.9,83.6,61,85.9,61z"/>
	<path class="st4" d="M74.5,95.2h-2.7v-8.3c0-0.6-0.4-1-1-1s-1,0.4-1,1v8.3H48.2v-8.3c0-0.6-0.4-1-1-1s-1,0.4-1,1v8.3h-7.9V83.4
		c0-6.4,5.1-11.7,11.5-11.9c5.4,6,8.2,9,8.2,9c0.2,0.2,0.5,0.3,0.7,0.3c0,0,0,0,0,0c0.3,0,0.5-0.1,0.7-0.3c0,0,4.3-4.6,8.2-9
		c1.5,0.1,5.1,0.6,8,3.5c2.3,2.3,3.5,5.3,3.5,8.4v11.8H74.5z"/>
	<path class="st1" d="M81.2,95.2V83.4c0-3.7-1.5-7.2-4.1-9.9c-3.7-3.7-8.2-4.1-9.7-4.1c-0.2-0.1-1-0.5-2.1-3.1c4.1-2.3,7-6.7,7-11.8
		v-6.8c0-5.4-4.4-9.8-9.8-9.8h-7.2c-5.4,0-9.8,4.4-9.8,9.8v6.8c0,5,2.7,9.3,6.7,11.6c-0.3,1.1-1.1,2.2-2.2,3.2
		c-7.5,0.2-13.5,6.4-13.5,13.9v12.8c0,0.6,0.4,1,1,1h37.1h5.7h1V95.2z M47.3,47.8c0-4.3,3.5-7.8,7.8-7.8h7.2c4.2,0,7.6,3.3,7.8,7.4
		c-1.7,1.5-3.3,2.1-4.8,2c-1.7-0.2-3.3-1.4-4.9-3.6c-0.2-0.3-0.5-0.4-0.9-0.4c-0.3,0-0.6,0.2-0.8,0.5c-2.8,4.7-6.5,6.5-11.5,5.5
		V47.8z M47.3,54.7v-1.3c0.9,0.1,1.7,0.2,2.5,0.2c4.1,0,7.4-1.8,10-5.5c1.7,2,3.5,3.1,5.4,3.3c1.6,0.2,3.3-0.3,5-1.5v4.8
		c0,6.3-5.1,11.4-11.4,11.4C52.4,66.1,47.3,61,47.3,54.7z M53.8,67.2c1.5,0.6,3.2,0.9,4.9,0.9c1.6,0,3.2-0.3,4.7-0.9
		c0.7,1.7,1.5,2.8,2.2,3.5c-2.8,3.1-5.6,6.2-6.9,7.6c-1.1-1.2-3.5-3.8-7.1-7.8C52.7,69.5,53.4,68.3,53.8,67.2z M79.2,95.2h-4.7h-2.7
		v-8.3c0-0.6-0.4-1-1-1s-1,0.4-1,1v8.3H48.2v-8.3c0-0.6-0.4-1-1-1s-1,0.4-1,1v8.3h-7.9V83.4c0-6.4,5.1-11.7,11.5-11.9
		c5.4,6,8.2,9,8.2,9c0.2,0.2,0.5,0.3,0.7,0.3c0,0,0,0,0,0c0.3,0,0.5-0.1,0.7-0.3c0,0,4.3-4.6,8.2-9c1.5,0.1,5.1,0.6,8,3.5
		c2.3,2.3,3.5,5.3,3.5,8.4V95.2z"/>
</g>
</svg>
