<?xml version="1.0" encoding="utf-8"?>
<!-- Generator: Adobe Illustrator 26.0.0, SVG Export Plug-In . SVG Version: 6.00 Build 0)  -->
<svg version="1.1" xmlns="http://www.w3.org/2000/svg" xmlns:xlink="http://www.w3.org/1999/xlink" x="0px" y="0px"
	 viewBox="0 0 135.2 135.2" style="enable-background:new 0 0 135.2 135.2;" xml:space="preserve">
<style type="text/css">
	.st0{fill:#FFFFFF;stroke:#CDCCCC;stroke-width:0.5;stroke-miterlimit:10;}
	.st1{fill:#1D1D1B;}
	.st2{fill:#35A8E0;}
	.st3{fill:#ECECEC;}
	.st4{fill:#F8B133;}
	.st5{fill:#93C01F;}
	.st6{fill:#D8BEA1;}
</style>
<g id="Capa_1">
	<circle class="st0" cx="67.6" cy="67.6" r="66"/>
</g>
<g id="Capa_2">
	<g>
		<path class="st1" d="M109.1,98.7H26.1c-2.1,0-3.8-1.7-3.8-3.8V40.3c0-2.1,1.7-3.8,3.8-3.8h82.9c2.1,0,3.8,1.7,3.8,3.8v54.7
			C112.8,97,111.1,98.7,109.1,98.7z M26.1,38.5c-1,0-1.8,0.8-1.8,1.8v54.7c0,1,0.8,1.8,1.8,1.8h82.9c1,0,1.8-0.8,1.8-1.8V40.3
			c0-1-0.8-1.8-1.8-1.8H26.1z"/>
		<path class="st2" d="M39.3,55.5H29.2c-0.6,0-1.1-0.5-1.1-1.1V49c0-0.6,0.5-1.1,1.1-1.1h10.1c0.6,0,1.1,0.5,1.1,1.1v5.4
			C40.4,55,39.9,55.5,39.3,55.5z"/>
		<g>
			<path class="st3" d="M56,55.5H45.9c-0.6,0-1.1-0.5-1.1-1.1V49c0-0.6,0.5-1.1,1.1-1.1H56c0.6,0,1.1,0.5,1.1,1.1v5.4
				C57,55,56.6,55.5,56,55.5z"/>
			<path class="st1" d="M56,56.5H45.9c-1.2,0-2.1-0.9-2.1-2.1V49c0-1.2,0.9-2.1,2.1-2.1H56c1.2,0,2.1,0.9,2.1,2.1v5.4
				C58,55.5,57.1,56.5,56,56.5z M45.9,48.9C45.8,48.9,45.8,48.9,45.9,48.9l-0.1,5.5c0,0.1,0,0.1,0.1,0.1H56c0.1,0,0.1,0,0.1-0.1V49
				c0-0.1,0-0.1-0.1-0.1H45.9z"/>
		</g>
		<g>
			<path class="st3" d="M72.6,55.5H62.6c-0.6,0-1.1-0.5-1.1-1.1V49c0-0.6,0.5-1.1,1.1-1.1h10.1c0.6,0,1.1,0.5,1.1,1.1v5.4
				C73.7,55,73.3,55.5,72.6,55.5z"/>
			<path class="st1" d="M72.6,56.5H62.6c-1.2,0-2.1-0.9-2.1-2.1V49c0-1.2,0.9-2.1,2.1-2.1h10.1c1.2,0,2.1,0.9,2.1,2.1v5.4
				C74.7,55.5,73.8,56.5,72.6,56.5z M62.6,48.9C62.5,48.9,62.5,48.9,62.6,48.9l-0.1,5.5c0,0.1,0,0.1,0.1,0.1h10.1
				c0.1,0,0.1,0,0.1-0.1V49c0-0.1,0-0.1-0.1-0.1H62.6z"/>
		</g>
		<g>
			<path class="st3" d="M89.3,55.5H79.2c-0.6,0-1.1-0.5-1.1-1.1V49c0-0.6,0.5-1.1,1.1-1.1h10.1c0.6,0,1.1,0.5,1.1,1.1v5.4
				C90.4,55,89.9,55.5,89.3,55.5z"/>
			<path class="st1" d="M89.3,56.5H79.2c-1.2,0-2.1-0.9-2.1-2.1V49c0-1.2,0.9-2.1,2.1-2.1h10.1c1.2,0,2.1,0.9,2.1,2.1v5.4
				C91.4,55.5,90.5,56.5,89.3,56.5z M79.2,48.9C79.2,48.9,79.2,48.9,79.2,48.9l-0.1,5.5c0,0.1,0,0.1,0.1,0.1h10.1
				c0.1,0,0.1,0,0.1-0.1V49c0-0.1,0-0.1-0.1-0.1H79.2z"/>
		</g>
		<path class="st4" d="M39.3,68H29.2c-0.6,0-1.1-0.5-1.1-1.1v-5.4c0-0.6,0.5-1.1,1.1-1.1h10.1c0.6,0,1.1,0.5,1.1,1.1v5.4
			C40.4,67.5,39.9,68,39.3,68z"/>
		<path class="st1" d="M39.3,69H29.2c-1.2,0-2.1-0.9-2.1-2.1v-5.4c0-1.2,0.9-2.1,2.1-2.1h10.1c1.2,0,2.1,0.9,2.1,2.1v5.4
			C41.4,68,40.4,69,39.3,69z M29.2,61.4C29.1,61.4,29.1,61.4,29.2,61.4l-0.1,5.5c0,0.1,0,0.1,0.1,0.1h10.1c0,0,0.1,0,0.1-0.1v-5.4
			c0-0.1,0-0.1-0.1-0.1H29.2z"/>
		<g>
			<path class="st3" d="M56,68H45.9c-0.6,0-1.1-0.5-1.1-1.1v-5.4c0-0.6,0.5-1.1,1.1-1.1H56c0.6,0,1.1,0.5,1.1,1.1v5.4
				C57,67.5,56.6,68,56,68z"/>
			<path class="st1" d="M56,69H45.9c-1.2,0-2.1-0.9-2.1-2.1v-5.4c0-1.2,0.9-2.1,2.1-2.1H56c1.2,0,2.1,0.9,2.1,2.1v5.4
				C58,68,57.1,69,56,69z M45.9,61.4C45.8,61.4,45.8,61.4,45.9,61.4l-0.1,5.5c0,0.1,0,0.1,0.1,0.1H56c0.1,0,0.1,0,0.1-0.1v-5.4
				c0-0.1,0-0.1-0.1-0.1H45.9z"/>
		</g>
		<g>
			<path class="st3" d="M72.6,68H62.6c-0.6,0-1.1-0.5-1.1-1.1v-5.4c0-0.6,0.5-1.1,1.1-1.1h10.1c0.6,0,1.1,0.5,1.1,1.1v5.4
				C73.7,67.5,73.3,68,72.6,68z"/>
			<path class="st1" d="M72.6,69H62.6c-1.2,0-2.1-0.9-2.1-2.1v-5.4c0-1.2,0.9-2.1,2.1-2.1h10.1c1.2,0,2.1,0.9,2.1,2.1v5.4
				C74.7,68,73.8,69,72.6,69z M62.6,61.4C62.5,61.4,62.5,61.4,62.6,61.4l-0.1,5.5c0,0.1,0,0.1,0.1,0.1h10.1c0.1,0,0.1,0,0.1-0.1
				v-5.4c0-0.1,0-0.1-0.1-0.1H62.6z"/>
		</g>
		<g>
			<path class="st3" d="M89.3,68H79.2c-0.6,0-1.1-0.5-1.1-1.1v-5.4c0-0.6,0.5-1.1,1.1-1.1h10.1c0.6,0,1.1,0.5,1.1,1.1v5.4
				C90.4,67.5,89.9,68,89.3,68z"/>
			<path class="st1" d="M89.3,69H79.2c-1.2,0-2.1-0.9-2.1-2.1v-5.4c0-1.2,0.9-2.1,2.1-2.1h10.1c1.2,0,2.1,0.9,2.1,2.1v5.4
				C91.4,68,90.5,69,89.3,69z M79.2,61.4C79.2,61.4,79.2,61.4,79.2,61.4l-0.1,5.5c0,0.1,0,0.1,0.1,0.1h10.1c0.1,0,0.1,0,0.1-0.1
				v-5.4c0-0.1,0-0.1-0.1-0.1H79.2z"/>
		</g>
		<path class="st5" d="M39.3,80.5H29.2c-0.6,0-1.1-0.5-1.1-1.1V74c0-0.6,0.5-1.1,1.1-1.1h10.1c0.6,0,1.1,0.5,1.1,1.1v5.4
			C40.4,80,39.9,80.5,39.3,80.5z"/>
		<path class="st1" d="M39.3,81.5H29.2c-1.2,0-2.1-0.9-2.1-2.1V74c0-1.2,0.9-2.1,2.1-2.1h10.1c1.2,0,2.1,0.9,2.1,2.1v5.4
			C41.4,80.5,40.4,81.5,39.3,81.5z M29.2,73.9C29.1,73.9,29.1,73.9,29.2,73.9l-0.1,5.5c0,0.1,0,0.1,0.1,0.1h10.1c0,0,0.1,0,0.1-0.1
			V74c0-0.1,0-0.1-0.1-0.1H29.2z"/>
		<g>
			<path class="st3" d="M55.9,80.5H45.9c-0.6,0-1.1-0.5-1.1-1.1V74c0-0.6,0.5-1.1,1.1-1.1h10.1c0.6,0,1.1,0.5,1.1,1.1v5.4
				C57,80,56.6,80.5,55.9,80.5z"/>
			<path class="st1" d="M55.9,81.5H45.9c-1.2,0-2.1-0.9-2.1-2.1V74c0-1.2,0.9-2.1,2.1-2.1h10.1c1.2,0,2.1,0.9,2.1,2.1v5.4
				C58,80.5,57.1,81.5,55.9,81.5z M45.9,73.9C45.8,73.9,45.8,73.9,45.9,73.9l-0.1,5.5c0,0.1,0,0.1,0.1,0.1h10.1c0.1,0,0.1,0,0.1-0.1
				V74c0-0.1,0-0.1-0.1-0.1H45.9z"/>
		</g>
		<g>
			<path class="st3" d="M72.6,80.5H62.5c-0.6,0-1.1-0.5-1.1-1.1V74c0-0.6,0.5-1.1,1.1-1.1h10.1c0.6,0,1.1,0.5,1.1,1.1v5.4
				C73.7,80,73.2,80.5,72.6,80.5z"/>
			<path class="st1" d="M72.6,81.5H62.5c-1.2,0-2.1-0.9-2.1-2.1V74c0-1.2,0.9-2.1,2.1-2.1h10.1c1.2,0,2.1,0.9,2.1,2.1v5.4
				C74.7,80.5,73.8,81.5,72.6,81.5z M62.5,73.9C62.5,73.9,62.4,73.9,62.5,73.9l-0.1,5.5c0,0.1,0,0.1,0.1,0.1h10.1c0,0,0.1,0,0.1-0.1
				V74c0-0.1,0-0.1-0.1-0.1H62.5z"/>
		</g>
		<g>
			<path class="st3" d="M89.3,80.5H79.2c-0.6,0-1.1-0.5-1.1-1.1V74c0-0.6,0.5-1.1,1.1-1.1h10.1c0.6,0,1.1,0.5,1.1,1.1v5.4
				C90.4,80,89.9,80.5,89.3,80.5z"/>
			<path class="st1" d="M89.3,81.5H79.2c-1.2,0-2.1-0.9-2.1-2.1V74c0-1.2,0.9-2.1,2.1-2.1h10.1c1.2,0,2.1,0.9,2.1,2.1v5.4
				C91.4,80.5,90.5,81.5,89.3,81.5z M79.2,73.9C79.2,73.9,79.1,73.9,79.2,73.9l-0.1,5.5c0,0.1,0,0.1,0.1,0.1h10.1
				c0.1,0,0.1,0,0.1-0.1V74c0-0.1,0-0.1-0.1-0.1H79.2z"/>
		</g>
		<path class="st6" d="M39.3,93H29.2c-0.6,0-1.1-0.5-1.1-1.1v-5.4c0-0.6,0.5-1.1,1.1-1.1h10.1c0.6,0,1.1,0.5,1.1,1.1v5.4
			C40.4,92.5,39.9,93,39.3,93z"/>
		<path class="st1" d="M39.3,94H29.2c-1.2,0-2.1-0.9-2.1-2.1v-5.4c0-1.2,0.9-2.1,2.1-2.1h10.1c1.2,0,2.1,0.9,2.1,2.1v5.4
			C41.4,93,40.4,94,39.3,94z M29.2,86.4C29.1,86.4,29.1,86.4,29.2,86.4l-0.1,5.5c0,0.1,0,0.1,0.1,0.1h10.1c0,0,0.1,0,0.1-0.1v-5.4
			c0-0.1,0-0.1-0.1-0.1H29.2z"/>
		<g>
			<path class="st3" d="M55.9,93H45.9c-0.6,0-1.1-0.5-1.1-1.1v-5.4c0-0.6,0.5-1.1,1.1-1.1h10.1c0.6,0,1.1,0.5,1.1,1.1v5.4
				C57,92.5,56.6,93,55.9,93z"/>
			<path class="st1" d="M55.9,94H45.9c-1.2,0-2.1-0.9-2.1-2.1v-5.4c0-1.2,0.9-2.1,2.1-2.1h10.1c1.2,0,2.1,0.9,2.1,2.1v5.4
				C58,93,57.1,94,55.9,94z M45.9,86.4C45.8,86.4,45.8,86.4,45.9,86.4l-0.1,5.5c0,0.1,0,0.1,0.1,0.1h10.1c0.1,0,0.1,0,0.1-0.1v-5.4
				c0-0.1,0-0.1-0.1-0.1H45.9z"/>
		</g>
		<g>
			<path class="st3" d="M72.6,93H62.5c-0.6,0-1.1-0.5-1.1-1.1v-5.4c0-0.6,0.5-1.1,1.1-1.1h10.1c0.6,0,1.1,0.5,1.1,1.1v5.4
				C73.7,92.5,73.2,93,72.6,93z"/>
			<path class="st1" d="M72.6,94H62.5c-1.2,0-2.1-0.9-2.1-2.1v-5.4c0-1.2,0.9-2.1,2.1-2.1h10.1c1.2,0,2.1,0.9,2.1,2.1v5.4
				C74.7,93,73.8,94,72.6,94z M62.5,86.4C62.5,86.4,62.4,86.4,62.5,86.4l-0.1,5.5c0,0.1,0,0.1,0.1,0.1h10.1c0,0,0.1,0,0.1-0.1v-5.4
				c0-0.1,0-0.1-0.1-0.1H62.5z"/>
		</g>
		<g>
			<path class="st3" d="M89.3,93H79.2c-0.6,0-1.1-0.5-1.1-1.1v-5.4c0-0.6,0.5-1.1,1.1-1.1h10.1c0.6,0,1.1,0.5,1.1,1.1v5.4
				C90.4,92.5,89.9,93,89.3,93z"/>
			<path class="st1" d="M89.3,94H79.2c-1.2,0-2.1-0.9-2.1-2.1v-5.4c0-1.2,0.9-2.1,2.1-2.1h10.1c1.2,0,2.1,0.9,2.1,2.1v5.4
				C91.4,93,90.5,94,89.3,94z M79.2,86.4C79.2,86.4,79.1,86.4,79.2,86.4l-0.1,5.5c0,0.1,0,0.1,0.1,0.1h10.1c0.1,0,0.1,0,0.1-0.1
				v-5.4c0-0.1,0-0.1-0.1-0.1H79.2z"/>
		</g>
		<g>
			<path class="st3" d="M106,55.5H95.9c-0.6,0-1.1-0.5-1.1-1.1V49c0-0.6,0.5-1.1,1.1-1.1H106c0.6,0,1.1,0.5,1.1,1.1v5.4
				C107.1,55,106.6,55.5,106,55.5z"/>
			<path class="st1" d="M106,56.5H95.9c-1.2,0-2.1-0.9-2.1-2.1V49c0-1.2,0.9-2.1,2.1-2.1H106c1.2,0,2.1,0.9,2.1,2.1v5.4
				C108.1,55.5,107.2,56.5,106,56.5z M95.9,48.9C95.9,48.9,95.8,48.9,95.9,48.9l-0.1,5.5c0,0.1,0,0.1,0.1,0.1H106c0,0,0.1,0,0.1-0.1
				V49c0-0.1,0-0.1-0.1-0.1H95.9z"/>
		</g>
		<g>
			<path class="st3" d="M106,68H95.9c-0.6,0-1.1-0.5-1.1-1.1v-5.4c0-0.6,0.5-1.1,1.1-1.1H106c0.6,0,1.1,0.5,1.1,1.1v5.4
				C107.1,67.5,106.6,68,106,68z"/>
			<path class="st1" d="M106,69H95.9c-1.2,0-2.1-0.9-2.1-2.1v-5.4c0-1.2,0.9-2.1,2.1-2.1H106c1.2,0,2.1,0.9,2.1,2.1v5.4
				C108.1,68,107.2,69,106,69z M95.9,61.4C95.9,61.4,95.8,61.4,95.9,61.4l-0.1,5.5c0,0.1,0,0.1,0.1,0.1H106c0,0,0.1,0,0.1-0.1v-5.4
				c0-0.1,0-0.1-0.1-0.1H95.9z"/>
		</g>
		<g>
			<path class="st3" d="M106,80.5H95.9c-0.6,0-1.1-0.5-1.1-1.1V74c0-0.6,0.5-1.1,1.1-1.1H106c0.6,0,1.1,0.5,1.1,1.1v5.4
				C107.1,80,106.6,80.5,106,80.5z"/>
			<path class="st1" d="M106,81.5H95.9c-1.2,0-2.1-0.9-2.1-2.1V74c0-1.2,0.9-2.1,2.1-2.1H106c1.2,0,2.1,0.9,2.1,2.1v5.4
				C108.1,80.5,107.2,81.5,106,81.5z M95.9,73.9C95.9,73.9,95.8,73.9,95.9,73.9l-0.1,5.5c0,0.1,0,0.1,0.1,0.1H106c0,0,0.1,0,0.1-0.1
				V74c0-0.1,0-0.1-0.1-0.1H95.9z"/>
		</g>
		<g>
			<path class="st3" d="M106,93H95.9c-0.6,0-1.1-0.5-1.1-1.1v-5.4c0-0.6,0.5-1.1,1.1-1.1H106c0.6,0,1.1,0.5,1.1,1.1v5.4
				C107.1,92.5,106.6,93,106,93z"/>
			<path class="st1" d="M106,94H95.9c-1.2,0-2.1-0.9-2.1-2.1v-5.4c0-1.2,0.9-2.1,2.1-2.1H106c1.2,0,2.1,0.9,2.1,2.1v5.4
				C108.1,93,107.2,94,106,94z M95.9,86.4C95.9,86.4,95.8,86.4,95.9,86.4l-0.1,5.5c0,0.1,0,0.1,0.1,0.1H106c0,0,0.1,0,0.1-0.1v-5.4
				c0-0.1,0-0.1-0.1-0.1H95.9z"/>
		</g>
		<path class="st6" d="M52.4,41.7v-1.1c0-0.1-0.2-0.2-0.5-0.2h-2c-0.3,0-0.5,0.1-0.5,0.2v1.1c0,0.1-0.2,0.2-0.5,0.2h-2.2
			c-0.4,0-0.6,0.2-0.4,0.3l4.2,3.4c0.2,0.2,0.7,0.2,0.9,0l4.2-3.4c0.2-0.2,0-0.3-0.4-0.3h-2.2C52.6,41.9,52.4,41.8,52.4,41.7z"/>
		<path class="st6" d="M69.1,41.7v-1.1c0-0.1-0.2-0.2-0.5-0.2h-2c-0.3,0-0.5,0.1-0.5,0.2v1.1c0,0.1-0.2,0.2-0.5,0.2h-2.2
			c-0.4,0-0.6,0.2-0.4,0.3l4.2,3.4c0.2,0.2,0.7,0.2,0.9,0l4.2-3.4c0.2-0.2,0-0.3-0.4-0.3h-2.2C69.3,41.9,69.1,41.8,69.1,41.7z"/>
		<path class="st6" d="M85.8,41.7v-1.1c0-0.1-0.2-0.2-0.5-0.2h-2c-0.3,0-0.5,0.1-0.5,0.2v1.1c0,0.1-0.2,0.2-0.5,0.2h-2.2
			c-0.4,0-0.6,0.2-0.4,0.3l4.2,3.4c0.2,0.2,0.7,0.2,0.9,0l4.2-3.4c0.2-0.2,0-0.3-0.4-0.3h-2.2C86,41.9,85.8,41.8,85.8,41.7z"/>
		<path class="st6" d="M102.5,41.7v-1.1c0-0.1-0.2-0.2-0.5-0.2h-2c-0.3,0-0.5,0.1-0.5,0.2v1.1c0,0.1-0.2,0.2-0.5,0.2h-2.2
			c-0.4,0-0.6,0.2-0.4,0.3l4.2,3.4c0.2,0.2,0.7,0.2,0.9,0l4.2-3.4c0.2-0.2,0-0.3-0.4-0.3H103C102.7,41.9,102.5,41.8,102.5,41.7z"/>
		<path class="st1" d="M39.3,46.9H29.2c-1.2,0-2.1,0.9-2.1,2.1v5.4c0,1.2,0.9,2.1,2.1,2.1h0.6c0.6,0,1-0.4,1-1l0,0c0-0.6-0.4-1-1-1
			h-0.6c-0.1,0-0.1,0-0.1-0.1V49c0-0.1,0-0.1,0.1-0.1h10.1c0,0,0.1,0,0.1,0.1v5.4c0,0.1,0,0.1-0.1,0.1h-5c-0.6,0-1,0.4-1,1l0,0
			c0,0.6,0.4,1,1,1h5c1.2,0,2.1-0.9,2.1-2.1V49C41.4,47.8,40.4,46.9,39.3,46.9z"/>
	</g>
</g>
</svg>
