<?xml version="1.0" encoding="utf-8"?>
<!-- Generator: Adobe Illustrator 26.0.0, SVG Export Plug-In . SVG Version: 6.00 Build 0)  -->
<svg version="1.1" id="Capa_1" xmlns="http://www.w3.org/2000/svg" xmlns:xlink="http://www.w3.org/1999/xlink" x="0px" y="0px"
	 viewBox="0 0 133 133" style="enable-background:new 0 0 133 133;" xml:space="preserve">
<style type="text/css">
	.st0{fill:#FFFFFF;stroke:#CDCCCC;stroke-width:0.5;stroke-miterlimit:10;}
	.st1{fill:#F39208;}
	.st2{fill:#F8B133;}
	.st3{fill:#1D1D1B;}
	.st4{fill:#93C01F;}
	.st5{fill:#35A8E0;}
</style>
<circle class="st0" cx="66.5" cy="66.5" r="66"/>
<path class="st1" d="M66.5,133C29.8,133,0,103.2,0,66.5S29.8,0,66.5,0S133,29.8,133,66.5S103.2,133,66.5,133z M66.5,1
	C30.4,1,1,30.4,1,66.5S30.4,132,66.5,132S132,102.6,132,66.5S102.6,1,66.5,1z"/>
<g>
	<rect x="24.8" y="71.6" class="st2" width="21.3" height="25.6"/>
	<path class="st3" d="M109.3,77.5c-0.6-1.6-2.1-2.5-3.9-2.2l-31.9,5.3l-9.9-9.9c-0.2-0.2-0.4-0.3-0.7-0.3H46.3H24.5
		c-0.6,0-1,0.4-1,1v25.8c0,0.6,0.4,1,1,1h21.9c0.6,0,1-0.4,1-1v-2.6l5.1-0.1l18.6,8.9c0.1,0.1,0.3,0.1,0.4,0.1c0.2,0,0.4,0,0.5-0.1
		l35.8-21.6C109.3,80.9,109.9,79.2,109.3,77.5z M25.5,72.5h13.3v23.8H25.5V72.5z M45.3,96.2h-4.5V72.5h4.5V96.2z M106.8,80.1
		l-35.3,21.4l-18.3-8.7c-0.1-0.1-0.3-0.1-0.4-0.1l-5.3,0.1V72.5h15.2l12.4,12.4c1.1,1.1,1.1,3,0,4.1c-1.1,1.1-3,1.1-4.1,0l-7.7-7.7
		c-0.4-0.4-1-0.4-1.4,0s-0.4,1,0,1.4l7.7,7.7c1,1,2.2,1.4,3.5,1.4s2.5-0.5,3.5-1.4c1.9-1.9,1.9-5,0-7l-1.1-1.1l30.5-5.1
		c0.9-0.2,1.5,0.4,1.7,1C107.6,78.8,107.6,79.6,106.8,80.1z"/>
	<path class="st4" d="M46.1,67.1v-0.6c0-0.4,0.4-0.8,0.8-0.8s0.8,0.4,0.8,0.8v0.6h15.2c0.7,0,1.3,0.2,1.9,0.5l1.6,1.2l4.3,4.3h1.5
		v-9.3c0-2.5-1-4.9-2.8-6.7c-2.3-2.3-5.1-2.7-6.3-2.8c-3.1,3.5-6.4,7.1-6.5,7.1c-0.1,0.2-0.4,0.3-0.6,0.3c0,0,0,0,0,0
		c-0.2,0-0.4-0.1-0.6-0.2c0,0-2.2-2.4-6.5-7.1c-5,0.2-9.1,4.3-9.1,9.4v3.3H46.1z"/>
	<path class="st5" d="M72.6,74.9v-3.6c0-0.4,0.3-0.8,0.8-0.8s0.8,0.3,0.8,0.8v5.1l0.6,0.6l15.8-2.6v-3c0-0.4,0.3-0.8,0.8-0.8
		c0.4,0,0.8,0.3,0.8,0.8v2.8l5.6-0.9v-5c0-2.4-0.9-4.7-2.6-6.4c-2.2-2.2-4.9-2.6-6.1-2.6c-2.9,3.3-6.2,6.8-6.2,6.8
		c-0.1,0.2-0.3,0.2-0.6,0.2c0,0,0,0,0,0c-0.2,0-0.4-0.1-0.6-0.2c0,0-2.1-2.3-6.2-6.8c-4.8,0.2-8.7,4.2-8.7,9V69L72.6,74.9z"/>
	<g>
		<path class="st3" d="M88.5,58c-0.1-0.1-0.3-0.3-0.5-0.7c-0.2-0.4-0.3-0.8-0.4-1.1c2.9-1.8,4.9-5.1,4.9-8.8v-5.3c0-0.1,0-0.2,0-0.3
			c0-0.1,0-0.1,0-0.2c-0.2-4-3.6-7.2-7.7-7.2h-5.4c-4.3,0-7.7,3.5-7.7,7.7v5.3c0,3.7,2,7,5,8.8c-0.1,0.3-0.2,0.7-0.4,1.1
			c-0.2,0.4-0.3,0.6-0.5,0.7c-5.7,0.2-10.3,4.5-10.8,10.2c0,0.5,0.4,1,0.9,1.1c0.6,0.1,1-0.4,1.1-0.9c0.4-4.5,4.2-8.1,8.7-8.4
			l5.7,6.8c0.2,0.2,0.5,0.4,0.8,0.4c0,0,0,0,0,0c0.3,0,0.6-0.1,0.8-0.4l5.8-6.8c4.9,0.2,8.7,4.3,8.7,9.2V73c0,0.6,0.4,1,1,1
			s1-0.4,1-1v-3.9C99.4,63.1,94.5,58.2,88.5,58z M79.4,36.4h5.4c3,0,5.4,2.3,5.7,5.2C90.3,42,89.4,43,87.3,43
			c-2.2,0-3.6-2.5-3.7-2.5c-0.2-0.3-0.5-0.5-0.9-0.5c-0.4,0-0.7,0.3-0.9,0.6c0,0-0.5,1.1-2.2,2.6c-1.5,1.3-4.1,1.7-6,1.4v-2.4
			C73.6,39,76.2,36.4,79.4,36.4z M73.6,47.4v-0.8c0.4,0.1,0.9,0.1,1.4,0.1c2.1,0,4.4-0.6,5.9-2c0.8-0.7,1.4-1.4,1.9-1.9
			c0.9,1,2.4,2.3,4.5,2.2c1.4,0,2.4-0.4,3.2-0.8v3.2c0,4.6-3.7,8.3-8.3,8.3H82C77.4,55.7,73.6,52,73.6,47.4z M82.1,64.6l-4.6-5.5
			c0.2-0.3,0.4-0.6,0.6-1c0.2-0.4,0.3-0.7,0.4-1c1.1,0.4,2.3,0.6,3.6,0.6h0.2c1.3,0,2.5-0.2,3.6-0.7c0.1,0.3,0.2,0.6,0.4,1
			c0.2,0.4,0.4,0.7,0.6,1L82.1,64.6z"/>
		<path class="st3" d="M73.3,70.4c-0.6,0-1,0.4-1,1v4.3c0,0.6,0.4,1,1,1s1-0.4,1-1v-4.3C74.3,70.8,73.9,70.4,73.3,70.4z"/>
		<path class="st3" d="M91.2,70.4c-0.6,0-1,0.4-1,1v2.9c0,0.6,0.4,1,1,1s1-0.4,1-1v-2.9C92.2,70.8,91.7,70.4,91.2,70.4z"/>
	</g>
	<g>
		<path class="st3" d="M72.3,59.6c-1.8-3.9-5.6-6.5-9.9-6.6c-0.1-0.1-0.3-0.3-0.4-0.7c-0.2-0.4-0.3-0.8-0.4-1.1
			c2.9-1.8,4.9-5.1,4.9-8.8v-5.3c0-0.1,0-0.2,0-0.3c0-0.1,0-0.1,0-0.2c-0.3-4-3.6-7.2-7.7-7.2h-5.4c-4.3,0-7.7,3.5-7.7,7.7v5.3
			c0,3.7,2,7,5,8.8c-0.1,0.3-0.2,0.7-0.4,1.1c-0.2,0.4-0.3,0.6-0.5,0.7c-5.6,0.2-10.3,4.6-10.8,10.2c0,0.3,0,0.7,0,1v2.9
			c0,0.6,0.4,1,1,1s1-0.4,1-1v-2.9c0-0.3,0-0.5,0-0.8c0.4-4.5,4.2-8.1,8.7-8.4l5.7,6.8c0.2,0.2,0.5,0.4,0.8,0.4c0,0,0,0,0,0
			c0.3,0,0.6-0.1,0.8-0.4l5.8-6.8c3.4,0.2,6.5,2.2,7.9,5.4c0.2,0.5,0.8,0.7,1.3,0.5C72.3,60.7,72.5,60.1,72.3,59.6z M53.3,31.4h5.4
			c3,0,5.4,2.3,5.7,5.2C64.2,37,63.3,38,61.2,38c0,0,0,0-0.1,0c-2.2,0-3.6-2.5-3.6-2.5C57.4,35.2,57,35,56.6,35
			c-0.4,0-0.7,0.3-0.9,0.6c0,0-0.5,1.1-2.2,2.6c-1.5,1.3-4.1,1.7-6,1.4v-2.4C47.5,34,50.1,31.4,53.3,31.4z M47.5,42.4v-0.8
			c0.4,0.1,0.9,0.1,1.4,0.1c2.1,0,4.4-0.6,5.9-2c0.8-0.7,1.4-1.4,1.9-1.9c0.9,1,2.4,2.3,4.5,2.2c1.4,0,2.4-0.4,3.2-0.8v3.2
			c0,4.6-3.7,8.3-8.3,8.3h-0.2C51.3,50.8,47.5,47,47.5,42.4z M56,59.6l-4.6-5.5c0.2-0.3,0.4-0.6,0.6-1c0.2-0.4,0.3-0.7,0.4-1
			c1.1,0.4,2.3,0.6,3.6,0.6h0.2c1.3,0,2.5-0.2,3.6-0.7c0.1,0.3,0.2,0.6,0.4,1c0.2,0.4,0.4,0.7,0.6,1L56,59.6z"/>
		<path class="st3" d="M47.2,65.4c-0.6,0-1,0.4-1,1v0.7c0,0.6,0.4,1,1,1s1-0.4,1-1v-0.7C48.2,65.8,47.8,65.4,47.2,65.4z"/>
	</g>
</g>
</svg>
