<?xml version="1.0" encoding="utf-8"?>
<!-- Generator: Adobe Illustrator 26.0.0, SVG Export Plug-In . SVG Version: 6.00 Build 0)  -->
<svg version="1.1" id="Capa_1" xmlns="http://www.w3.org/2000/svg" xmlns:xlink="http://www.w3.org/1999/xlink" x="0px" y="0px"
	 viewBox="0 0 135.2 135.2" style="enable-background:new 0 0 135.2 135.2;" xml:space="preserve">
<style type="text/css">
	.st0{fill:#FFFFFF;stroke:#CCCCCC;stroke-width:0.5;stroke-miterlimit:10;}
	.st1{fill:#35A8E0;}
	.st2{fill:#F8B133;}
	.st3{fill:#93C01F;}
</style>
<g>
	<circle class="st0" cx="67.6" cy="67.6" r="66"/>
	<g>
		<g>
			<path class="st1" d="M99.6,53.1c0-0.9-0.1-1.7-0.2-2.6l5-3.4c-0.3-1.2-0.7-2.4-1.1-3.5l-6,0.2c-0.8-1.5-1.9-2.9-3-4.1l2-5.7
				c-0.9-0.8-1.9-1.5-3-2.2l-4.8,3.7c-1.5-0.7-3.2-1.3-4.9-1.6l-1.7-5.8c-0.6,0-1.2-0.1-1.8-0.1s-1.2,0-1.8,0.1l-1.7,5.8
				c-1.7,0.3-3.3,0.9-4.9,1.6l-4.8-3.7c-1,0.6-2,1.4-3,2.2l2,5.7c-1.2,1.2-2.2,2.6-3,4.1l-6-0.2c-0.5,1.1-0.8,2.3-1.1,3.5l5,3.4
				c-0.1,0.8-0.2,1.7-0.2,2.6s0.1,1.7,0.2,2.6l-5,3.4c0.3,1.2,0.7,2.4,1.1,3.5l6-0.2c0.8,1.5,1.9,2.9,3,4.1l-2,5.7
				c0.9,0.8,1.9,1.5,3,2.2l4.8-3.7c1.5,0.7,3.2,1.3,4.9,1.6l1.7,5.8c0.6,0,1.2,0.1,1.8,0.1s1.2,0,1.8-0.1l1.7-5.8
				c1.7-0.3,3.3-0.9,4.9-1.6l4.8,3.7c1-0.6,2-1.4,3-2.2l-2-5.7c1.2-1.2,2.2-2.6,3-4.1l6,0.2c0.5-1.1,0.8-2.3,1.1-3.5l-5-3.4
				C99.5,54.8,99.6,54,99.6,53.1z M80.1,66.1c-7.2,0-13-5.8-13-13s5.8-13,13-13s13,5.8,13,13S87.3,66.1,80.1,66.1z"/>
			<path d="M80.1,79.1c-0.6,0-1.2,0-1.9-0.1c-0.4,0-0.8-0.3-0.9-0.7l-1.5-5.2c-1.3-0.3-2.7-0.7-4-1.3l-4.3,3.3
				c-0.3,0.3-0.8,0.3-1.1,0.1c-1.1-0.7-2.1-1.4-3.1-2.2c-0.3-0.3-0.4-0.7-0.3-1.1l1.8-5.1c-0.9-1.1-1.8-2.2-2.5-3.4L57,63.5
				c-0.4,0-0.8-0.2-1-0.6c-0.5-1.2-0.9-2.4-1.2-3.6c-0.1-0.4,0.1-0.8,0.4-1.1l4.5-3.1c-0.1-0.8-0.1-1.4-0.1-2.1s0-1.3,0.1-2.1
				L55.3,48c-0.3-0.2-0.5-0.7-0.4-1.1c0.3-1.2,0.7-2.5,1.2-3.6c0.2-0.4,0.6-0.6,1-0.6l5.4,0.1c0.7-1.2,1.5-2.3,2.5-3.4L63,34.3
				c-0.1-0.4,0-0.8,0.3-1.1c1-0.8,2-1.6,3.1-2.2c0.4-0.2,0.8-0.2,1.1,0.1l4.3,3.3c1.3-0.6,2.6-1,4-1.3l1.5-5.2
				c0.1-0.4,0.5-0.7,0.9-0.7c1.4-0.1,2.4-0.1,3.8,0c0.4,0,0.8,0.3,0.9,0.7l1.5,5.2c1.3,0.3,2.7,0.7,4,1.3l4.3-3.3
				c0.3-0.3,0.8-0.3,1.1-0.1c1.1,0.7,2.1,1.4,3.1,2.2c0.3,0.3,0.4,0.7,0.3,1.1l-1.8,5.1c0.9,1.1,1.8,2.2,2.5,3.4l5.4-0.1
				c0.4,0,0.8,0.2,1,0.6c0.5,1.2,0.9,2.4,1.2,3.6c0.1,0.4-0.1,0.8-0.4,1.1l-4.5,3.1c0.1,0.8,0.1,1.4,0.1,2.1s0,1.3-0.1,2.1l4.5,3.1
				c0.3,0.2,0.5,0.7,0.4,1.1c-0.3,1.2-0.7,2.5-1.2,3.6c-0.2,0.4-0.5,0.6-1,0.6l-5.4-0.1c-0.7,1.2-1.5,2.3-2.5,3.4l1.8,5.1
				c0.1,0.4,0,0.8-0.3,1.1c-1,0.8-2,1.6-3.1,2.2c-0.4,0.2-0.8,0.2-1.1-0.1l-4.3-3.3c-1.3,0.6-2.6,1-4,1.3l-1.5,5.2
				C82.8,78.7,82.4,79,82,79C81.3,79.1,80.7,79.1,80.1,79.1z M81.9,78L81.9,78L81.9,78z M79,77.1c0.7,0,1.4,0,2.1,0l1.5-5.1
				c0.1-0.4,0.4-0.6,0.8-0.7c1.6-0.3,3.1-0.8,4.6-1.5c0.3-0.2,0.7-0.1,1,0.1l4.2,3.2c0.6-0.4,1.2-0.8,1.7-1.3l-1.8-5
				c-0.1-0.4,0-0.8,0.2-1c1.2-1.2,2.1-2.5,2.9-3.9c0.2-0.3,0.5-0.5,0.9-0.5l5.3,0.1c0.3-0.7,0.5-1.3,0.7-2l-4.4-3
				c-0.3-0.2-0.5-0.6-0.4-1c0.1-0.9,0.2-1.7,0.2-2.4s-0.1-1.5-0.2-2.4c0-0.4,0.1-0.7,0.4-1l4.4-3c-0.2-0.7-0.4-1.4-0.7-2l-5.3,0.1
				c-0.4,0-0.7-0.2-0.9-0.5c-0.8-1.4-1.7-2.7-2.9-3.9c-0.3-0.3-0.3-0.7-0.2-1l1.8-5c-0.6-0.4-1.1-0.9-1.7-1.3l-4.2,3.2
				c-0.3,0.2-0.7,0.3-1,0.1c-1.5-0.7-3-1.2-4.6-1.5c-0.4-0.1-0.7-0.3-0.8-0.7l-1.5-5.1c-0.7,0-1.4,0-2.1,0l-1.5,5.1
				c-0.1,0.4-0.4,0.6-0.8,0.7c-1.6,0.3-3.1,0.8-4.6,1.5c-0.3,0.2-0.7,0.1-1-0.1l-4.2-3.2c-0.6,0.4-1.2,0.8-1.7,1.3l1.8,5
				c0.1,0.4,0,0.8-0.2,1c-1.2,1.2-2.1,2.5-2.9,3.9c-0.2,0.3-0.5,0.5-0.9,0.5l-5.3-0.1c-0.3,0.7-0.5,1.3-0.7,2l4.4,3
				c0.3,0.2,0.5,0.6,0.4,1c-0.1,0.9-0.2,1.7-0.2,2.4s0.1,1.5,0.2,2.4c0,0.4-0.1,0.7-0.4,1l-4.4,3c0.2,0.7,0.4,1.4,0.7,2l5.3-0.1
				c0.4,0,0.7,0.2,0.9,0.5c0.8,1.4,1.7,2.7,2.9,3.9c0.3,0.3,0.3,0.7,0.2,1l-1.8,5c0.6,0.4,1.1,0.9,1.7,1.3l4.2-3.2
				c0.3-0.2,0.7-0.3,1-0.1c1.5,0.7,3,1.2,4.6,1.5c0.4,0.1,0.7,0.3,0.8,0.7L79,77.1z"/>
			<path d="M80.1,67.1c-7.7,0-14-6.3-14-14s6.3-14,14-14s14,6.3,14,14S87.8,67.1,80.1,67.1z M80.1,41.1c-6.6,0-12,5.4-12,12
				s5.4,12,12,12s12-5.4,12-12S86.7,41.1,80.1,41.1z"/>
			<g>
				<path d="M84.9,58.3c-0.3,0-0.5-0.1-0.7-0.3c-0.4-0.4-0.4-1,0-1.4l3-3l-3.3-3.3c-0.4-0.4-0.4-1,0-1.4s1-0.4,1.4,0l4,4
					c0.2,0.2,0.3,0.4,0.3,0.7s-0.1,0.5-0.3,0.7L85.6,58C85.4,58.2,85.1,58.3,84.9,58.3z"/>
				<path d="M75.6,58.3c-0.3,0-0.5-0.1-0.7-0.3l-4-4c-0.2-0.2-0.3-0.4-0.3-0.7s0.1-0.5,0.3-0.7l3.7-3.7c0.4-0.4,1-0.4,1.4,0
					s0.4,1,0,1.4l-3,3l3.3,3.3c0.4,0.4,0.4,1,0,1.4C76.1,58.2,75.9,58.3,75.6,58.3z"/>
			</g>
			<path d="M78.5,58.5c-0.1,0-0.3,0-0.4-0.1c-0.5-0.2-0.8-0.8-0.6-1.3l3.2-8c0.2-0.5,0.8-0.8,1.3-0.6c0.5,0.2,0.8,0.8,0.6,1.3
				l-3.2,8C79.3,58.2,78.9,58.5,78.5,58.5z"/>
		</g>
		<g>
			<path class="st2" d="M55.5,71.1c0-0.5,0-1-0.1-1.5l3-2c-0.2-0.7-0.4-1.4-0.7-2.1l-3.6,0.1c-0.5-0.9-1.1-1.7-1.8-2.5l1.2-3.4
				c-0.6-0.5-1.2-0.9-1.8-1.3l-2.9,2.2c-0.9-0.4-1.9-0.8-2.9-1l-1-3.5c-0.4,0-0.7,0-1.1,0s-0.7,0-1.1,0l-1,3.5c-1,0.2-2,0.5-2.9,1
				l-2.9-2.2c-0.6,0.4-1.2,0.8-1.8,1.3l1.2,3.4c-0.7,0.7-1.3,1.6-1.8,2.5l-3.6-0.1c-0.3,0.7-0.5,1.4-0.7,2.1l3,2
				c-0.1,0.5-0.1,1-0.1,1.5c0,0.5,0,1,0.1,1.5l-3,2c0.2,0.7,0.4,1.4,0.7,2.1l3.6-0.1c0.5,0.9,1.1,1.7,1.8,2.5l-1.2,3.4
				c0.6,0.5,1.2,0.9,1.8,1.3l2.9-2.2c0.9,0.4,1.9,0.8,2.9,1l1,3.5c0.4,0,0.7,0,1.1,0s0.7,0,1.1,0l1-3.5c1-0.2,2-0.5,2.9-1l2.9,2.2
				c0.6-0.4,1.2-0.8,1.8-1.3l-1.2-3.4c0.7-0.7,1.3-1.6,1.8-2.5l3.6,0.1c0.3-0.7,0.5-1.4,0.7-2.1l-3-2C55.5,72.2,55.5,71.7,55.5,71.1
				z M43.8,78.9c-4.3,0-7.8-3.5-7.8-7.8c0-4.3,3.5-7.8,7.8-7.8c4.3,0,7.8,3.5,7.8,7.8C51.6,75.5,48.1,78.9,43.8,78.9z"/>
			<g>
				<path d="M43.8,87.1c-0.4,0-0.8,0-1.2,0c-0.4,0-0.8-0.3-0.9-0.7l-0.9-2.9c-0.7-0.2-1.3-0.4-2-0.7l-2.4,1.8
					c-0.3,0.3-0.8,0.3-1.1,0.1c-0.7-0.4-1.3-0.9-1.9-1.4c-0.3-0.3-0.4-0.7-0.3-1.1l1-2.8c-0.5-0.5-0.9-1.1-1.2-1.7l-3,0.1
					c-0.4,0-0.8-0.2-1-0.6c-0.3-0.7-0.5-1.5-0.7-2.2c-0.1-0.4,0.1-0.8,0.4-1.1l2.5-1.7c0-0.4-0.1-0.7-0.1-1.1s0-0.7,0.1-1.1
					l-2.5-1.7c-0.3-0.2-0.5-0.7-0.4-1.1c0.2-0.8,0.4-1.5,0.7-2.2c0.2-0.4,0.5-0.6,1-0.6l3,0.1c0.4-0.6,0.8-1.2,1.2-1.7l-1-2.8
					c-0.1-0.4,0-0.8,0.3-1.1c0.6-0.5,1.2-1,1.9-1.4c0.4-0.2,0.8-0.2,1.1,0.1l2.4,1.8c0.6-0.3,1.3-0.5,2-0.7l0.9-2.9
					c0.1-0.4,0.5-0.7,0.9-0.7c0.8-0.1,1.6-0.1,2.3,0c0.4,0,0.8,0.3,0.9,0.7l0.9,2.9c0.7,0.2,1.3,0.4,2,0.7l2.4-1.8
					c0.3-0.3,0.8-0.3,1.1-0.1c0.7,0.4,1.3,0.9,1.9,1.4c0.3,0.3,0.4,0.7,0.3,1.1l-1,2.8c0.5,0.5,0.9,1.1,1.2,1.7l3-0.1
					c0.4,0,0.8,0.2,1,0.6c0.3,0.7,0.5,1.5,0.7,2.2c0.1,0.4-0.1,0.8-0.4,1.1l-2.5,1.7c0,0.4,0.1,0.7,0.1,1.1s0,0.7-0.1,1.1l2.5,1.7
					c0.3,0.2,0.5,0.7,0.4,1.1c-0.2,0.8-0.4,1.5-0.7,2.2c-0.2,0.4-0.5,0.6-1,0.6l-3-0.1c-0.4,0.6-0.8,1.2-1.2,1.7l1,2.8
					c0.1,0.4,0,0.8-0.3,1.1c-0.6,0.5-1.2,1-1.9,1.4c-0.4,0.2-0.8,0.2-1.1-0.1l-2.4-1.8c-0.6,0.3-1.3,0.5-2,0.7l-0.9,2.9
					c-0.1,0.4-0.5,0.7-0.9,0.7C44.6,87.1,44.2,87.1,43.8,87.1z M44.9,86.1L44.9,86.1L44.9,86.1z M43.5,85.1c0.2,0,0.5,0,0.7,0
					l0.8-2.8c0.1-0.4,0.4-0.6,0.8-0.7c0.9-0.2,1.8-0.5,2.7-0.9c0.3-0.2,0.7-0.1,1,0.1l2.3,1.8c0.2-0.1,0.4-0.3,0.6-0.4l-1-2.7
					c-0.1-0.4,0-0.8,0.2-1c0.7-0.7,1.2-1.5,1.7-2.3c0.2-0.3,0.5-0.5,0.9-0.5l2.9,0.1c0.1-0.2,0.1-0.4,0.2-0.6l-2.4-1.6
					c-0.3-0.2-0.5-0.6-0.4-1c0.1-0.5,0.1-1,0.1-1.4s0-0.9-0.1-1.4c0-0.4,0.1-0.7,0.4-1l2.4-1.6c-0.1-0.2-0.1-0.4-0.2-0.6l-2.9,0.1
					c-0.4,0-0.7-0.2-0.9-0.5c-0.4-0.8-1-1.6-1.7-2.3c-0.3-0.3-0.3-0.7-0.2-1l1-2.7c-0.2-0.1-0.4-0.3-0.6-0.4l-2.3,1.8
					c-0.3,0.2-0.7,0.3-1,0.1c-0.9-0.4-1.8-0.7-2.7-0.9c-0.4-0.1-0.7-0.3-0.8-0.7l-0.8-2.8c-0.2,0-0.5,0-0.7,0l-0.8,2.8
					c-0.1,0.4-0.4,0.6-0.8,0.7c-0.9,0.2-1.8,0.5-2.7,0.9c-0.3,0.2-0.7,0.1-1-0.1l-2.3-1.8c-0.2,0.1-0.4,0.3-0.6,0.4l1,2.7
					c0.1,0.4,0,0.8-0.2,1c-0.7,0.7-1.2,1.5-1.7,2.3c-0.2,0.3-0.5,0.5-0.9,0.5l-2.9-0.1c-0.1,0.2-0.1,0.4-0.2,0.6l2.4,1.6
					c0.3,0.2,0.5,0.6,0.4,1c-0.1,0.5-0.1,1-0.1,1.4s0,0.9,0.1,1.4c0,0.4-0.1,0.7-0.4,1l-2.4,1.6c0.1,0.2,0.1,0.4,0.2,0.6l2.9-0.1
					c0.4,0,0.7,0.2,0.9,0.5c0.4,0.8,1,1.6,1.7,2.3c0.3,0.3,0.3,0.7,0.2,1l-1,2.7c0.2,0.1,0.4,0.3,0.6,0.4l2.3-1.8
					c0.3-0.2,0.7-0.3,1-0.1c0.9,0.4,1.8,0.7,2.7,0.9c0.4,0.1,0.7,0.3,0.8,0.7L43.5,85.1z"/>
				<path d="M43.8,79.9C39,79.9,35,76,35,71.1s3.9-8.8,8.8-8.8c4.9,0,8.8,3.9,8.8,8.8S48.7,79.9,43.8,79.9z M43.8,64.3
					c-3.7,0-6.8,3.1-6.8,6.8s3.1,6.8,6.8,6.8s6.8-3.1,6.8-6.8S47.6,64.3,43.8,64.3z"/>
			</g>
			<g>
				<path d="M39.1,73.2c-1.2,0-2.1-0.9-2.1-2.1s0.9-2.1,2.1-2.1s2.1,0.9,2.1,2.1S40.2,73.2,39.1,73.2z M39.1,70.2
					c-0.5,0-0.9,0.4-0.9,0.9s0.4,0.9,0.9,0.9s0.9-0.4,0.9-0.9S39.6,70.2,39.1,70.2z"/>
				<path d="M43.8,73.2c-1.2,0-2.1-0.9-2.1-2.1s0.9-2.1,2.1-2.1s2.1,0.9,2.1,2.1S45,73.2,43.8,73.2z M43.8,70.2
					c-0.5,0-0.9,0.4-0.9,0.9s0.4,0.9,0.9,0.9s0.9-0.4,0.9-0.9S44.3,70.2,43.8,70.2z"/>
				<path d="M48.6,73.2c-1.2,0-2.1-0.9-2.1-2.1s0.9-2.1,2.1-2.1s2.1,0.9,2.1,2.1S49.7,73.2,48.6,73.2z M48.6,70.2
					c-0.5,0-0.9,0.4-0.9,0.9s0.4,0.9,0.9,0.9s0.9-0.4,0.9-0.9S49.1,70.2,48.6,70.2z"/>
			</g>
		</g>
		<g>
			<circle class="st3" cx="64.1" cy="97.8" r="5.2"/>
			<circle class="st3" cx="80.1" cy="97.8" r="5.2"/>
			<circle class="st3" cx="96.1" cy="97.8" r="5.2"/>
			<path d="M97.1,91.7v-5.3c0-0.6-0.4-1-1-1h-15V79c0-0.6-0.4-1-1-1s-1,0.4-1,1v6.4h-15c-0.6,0-1,0.4-1,1v5.3
				c-3,0.5-5.2,3.1-5.2,6.2c0,3.4,2.8,6.2,6.2,6.2s6.2-2.8,6.2-6.2c0-3.1-2.3-5.7-5.2-6.2v-4.3h14v4.3c-3,0.5-5.2,3.1-5.2,6.2
				c0,3.4,2.8,6.2,6.2,6.2s6.2-2.8,6.2-6.2c0-3.1-2.3-5.7-5.2-6.2v-4.3h14v4.3c-3,0.5-5.2,3.1-5.2,6.2c0,3.4,2.8,6.2,6.2,6.2
				s6.2-2.8,6.2-6.2C102.3,94.7,100.1,92.2,97.1,91.7z M68.3,97.8c0,2.3-1.9,4.2-4.2,4.2s-4.2-1.9-4.2-4.2s1.9-4.2,4.2-4.2
				S68.3,95.5,68.3,97.8z M84.3,97.8c0,2.3-1.9,4.2-4.2,4.2s-4.2-1.9-4.2-4.2s1.9-4.2,4.2-4.2S84.3,95.5,84.3,97.8z M96.1,102.1
				c-2.3,0-4.2-1.9-4.2-4.2s1.9-4.2,4.2-4.2s4.2,1.9,4.2,4.2S98.4,102.1,96.1,102.1z"/>
		</g>
	</g>
</g>
</svg>
