<?xml version="1.0" encoding="utf-8"?>
<!-- Generator: Adobe Illustrator 26.0.0, SVG Export Plug-In . SVG Version: 6.00 Build 0)  -->
<svg version="1.1" id="Capa_1" xmlns="http://www.w3.org/2000/svg" xmlns:xlink="http://www.w3.org/1999/xlink" x="0px" y="0px"
	 viewBox="0 0 135.2 135.2" style="enable-background:new 0 0 135.2 135.2;" xml:space="preserve">
<style type="text/css">
	.st0{fill:#FFFFFF;}
	.st1{fill:#F8B133;}
	.st2{fill:#93C01F;}
	.st3{fill:#35A8E0;}
	.st4{fill:#F39200;}
</style>
<circle class="st0" cx="67.6" cy="67.6" r="66"/>
<g>
	<path class="st1" d="M78.8,58.8l-2.6-6.4L79,46l-4.6-4.6L68,44.2l-6.4-2.6l-2.6-6.5h-6.5l-2.6,6.5l-6.4,2.6l-6.4-2.8L32.7,46
		l2.8,6.4l-2.6,6.4l-6.5,2.6v6.5l6.5,2.6l2.6,6.4l-2.8,6.4l4.6,4.6l6.4-2.8l6.4,2.6l2.6,6.5h5.2h0V79.5c0-4.3,3.5-7.9,7.9-7.9h12.6
		l0.5-1.2l6.5-2.6v-6.5L78.8,58.8z M55.8,71.6c-3.9,0-7-3.1-7-7c0-3.9,3.1-7,7-7s7,3.1,7,7C62.8,68.5,59.7,71.6,55.8,71.6z"/>
	<g>
		<polygon points="57.8,93.1 53.3,93.1 50.8,86.8 43.7,83.9 37.5,86.6 33.9,82.9 36.6,76.8 33.6,69.6 27.3,67.2 27.3,62 33.6,59.6 
			36.6,52.4 33.9,46.3 37.5,42.6 43.7,45.3 50.8,42.4 53.3,36.1 58.4,36.1 60.9,42.4 68,45.3 74.2,42.6 77.8,46.3 75.1,52.4 
			78.1,59.6 84.3,62 84.3,67.2 78.1,69.6 77.3,71.6 79.4,71.6 79.6,71.2 86.3,68.5 86.3,60.7 79.6,58 77.3,52.4 80.2,45.8 
			74.6,40.3 68,43.1 62.4,40.8 59.8,34.1 51.9,34.1 49.3,40.8 43.7,43.1 37.1,40.3 31.5,45.8 34.4,52.4 32.1,58 25.3,60.7 
			25.3,68.5 32.1,71.2 34.4,76.8 31.5,83.4 37.1,88.9 43.7,86.1 49.3,88.4 51.9,95.1 57.8,95.1 		"/>
		<path d="M55.8,72.6c-4.4,0-8-3.6-8-8s3.6-8,8-8s8,3.6,8,8S60.3,72.6,55.8,72.6z M55.8,58.6c-3.3,0-6,2.7-6,6s2.7,6,6,6s6-2.7,6-6
			S59.2,58.6,55.8,58.6z"/>
		<circle cx="55.8" cy="50.6" r="1.1"/>
		<circle cx="65.7" cy="54.7" r="1.1"/>
		<circle cx="69.8" cy="64.6" r="1.1"/>
		<circle cx="55.8" cy="78.6" r="1.1"/>
		<circle cx="46" cy="74.5" r="1.1"/>
		<circle cx="41.8" cy="64.6" r="1.1"/>
		<circle cx="46" cy="54.7" r="1.1"/>
		<circle cx="61.2" cy="51.7" r="1.1"/>
		<circle cx="68.8" cy="59.2" r="1.1"/>
		<circle cx="68.8" cy="70" r="1.1"/>
		<circle cx="50.5" cy="77.5" r="1.1"/>
		<circle cx="42.9" cy="70" r="1.1"/>
		<circle cx="42.9" cy="59.2" r="1.1"/>
		<circle cx="50.5" cy="51.7" r="1.1"/>
	</g>
	<path class="st2" d="M65.7,75.6H99c2.1,0,3.8,1.7,3.8,3.8v31.2h-41V79.4C61.8,77.3,63.6,75.6,65.7,75.6z"/>
	<path d="M102.8,111.6h-41c-0.6,0-1-0.4-1-1V79.4c0-2.7,2.2-4.8,4.8-4.8H99c2.7,0,4.8,2.2,4.8,4.8v31.2
		C103.8,111.2,103.4,111.6,102.8,111.6z M62.8,109.6h39V79.4c0-1.5-1.3-2.8-2.8-2.8H65.7c-1.5,0-2.8,1.3-2.8,2.8V109.6z"/>
	<circle cx="65.8" cy="82.6" r="1.1"/>
	<circle cx="70.6" cy="82.6" r="1.1"/>
	<circle cx="75.3" cy="82.6" r="1.1"/>
	<circle cx="80" cy="82.6" r="1.1"/>
	<circle cx="84.7" cy="82.6" r="1.1"/>
	<circle cx="89.4" cy="82.6" r="1.1"/>
	<circle cx="94.1" cy="82.6" r="1.1"/>
	<circle cx="98.8" cy="82.6" r="1.1"/>
	<path d="M75.5,95.8c-0.3,0-0.5-0.1-0.7-0.3L71,91.6l1.4-1.4l3.2,3.2l6.6-6.6l1.4,1.4l-7.3,7.3C76.1,95.7,75.8,95.8,75.5,95.8z"/>
	<path d="M75.5,105.8c-0.3,0-0.5-0.1-0.7-0.3l-3.9-3.9l1.4-1.4l3.2,3.2l6.6-6.6l1.4,1.4l-7.3,7.3C76.1,105.7,75.8,105.8,75.5,105.8z
		"/>
	<g>
		<path class="st3" d="M68.8,30.6l-4,3.8v5.3L68,41l7.1-3.1l7.5,7.5l-3.1,7.1l1.7,4l7.2,2.8v10.6L84,71.6h13.8V29.7
			c0-2.8-2.3-5.1-5.1-5.1H74.6L68.8,30.6z"/>
	</g>
	<path d="M92.7,23.6H74.2L63.8,34v4.7l2,1v-4.3h9.8l0-9.8h17.1c2.3,0,4.1,1.9,4.1,4.1v40.9H86l-5,2h17.8V29.7
		C98.8,26.4,96.1,23.6,92.7,23.6z M67.3,33.4l6.4-6.4l0,6.4H67.3z"/>
	<path d="M93,38.1H81.3c-0.6,0-1-0.4-1-1s0.4-1,1-1H93c0.6,0,1,0.4,1,1S93.5,38.1,93,38.1z"/>
	<path d="M93,43.1H81.3c-0.6,0-1-0.4-1-1s0.4-1,1-1H93c0.6,0,1,0.4,1,1S93.5,43.1,93,43.1z"/>
	<path d="M93,53.1H81.3c-0.6,0-1-0.4-1-1s0.4-1,1-1H93c0.6,0,1,0.4,1,1S93.5,53.1,93,53.1z"/>
	<path d="M93,58.1h-6.1c-0.6,0-1-0.4-1-1s0.4-1,1-1H93c0.6,0,1,0.4,1,1S93.5,58.1,93,58.1z"/>
</g>
<path class="st4" d="M67.6,134.1c-36.7,0-66.5-29.8-66.5-66.5S30.9,1.1,67.6,1.1s66.5,29.8,66.5,66.5S104.3,134.1,67.6,134.1z
	 M67.6,2.1C31.5,2.1,2.1,31.5,2.1,67.6s29.4,65.5,65.5,65.5s65.5-29.4,65.5-65.5S103.7,2.1,67.6,2.1z"/>
</svg>
