<?xml version="1.0" encoding="utf-8"?>
<!-- Generator: Adobe Illustrator 26.0.0, SVG Export Plug-In . SVG Version: 6.00 Build 0)  -->
<svg version="1.1" id="Capa_1" xmlns="http://www.w3.org/2000/svg" xmlns:xlink="http://www.w3.org/1999/xlink" x="0px" y="0px"
	 viewBox="0 0 135.2 135.2" style="enable-background:new 0 0 135.2 135.2;" xml:space="preserve">
<style type="text/css">
	.st0{fill:#FFFFFF;stroke:#CCCCCC;stroke-width:0.5;stroke-miterlimit:10;}
	.st1{fill:#93C01F;}
	.st2{fill:#35A8E0;}
	.st3{fill:#F8B133;}
</style>
<g>
	<circle class="st0" cx="67.6" cy="67.6" r="66"/>
	<g>
		<rect x="59.7" y="78.1" class="st1" width="18" height="10"/>
		<rect x="59.7" y="94.6" class="st1" width="18" height="10"/>
		<rect x="86.7" y="78.1" class="st1" width="18" height="10"/>
		<rect x="86.7" y="94.6" class="st1" width="18" height="10"/>
		<rect x="67.7" y="30.1" class="st2" width="29" height="16"/>
		<path class="st3" d="M48.1,52.1L44.4,61l-3.3-8.9h-2.9c-4.3,0-7.8,3.5-7.8,7.8v14.2c0,2.7,2.2,5,5,5h1.3v25.5h16v-43
			c0-1.4,1.1-2.5,2.5-2.5h17.4v-7H48.1z"/>
		<g>
			<path d="M43.3,49.1h2.1c3.5,0,6.4-2.9,6.4-6.4v-3.1c0-3.5-2.9-6.4-6.4-6.4h-2.1c-3.5,0-6.4,2.9-6.4,6.4v3.1
				C36.9,46.2,39.8,49.1,43.3,49.1z M38.9,39.5c0-2.4,2-4.4,4.4-4.4h2.1c2.4,0,4.4,2,4.4,4.4v3.1c0,2.4-2,4.4-4.4,4.4h-2.1
				c-2.4,0-4.4-2-4.4-4.4V39.5z"/>
			<rect x="43.4" y="67.1" width="2" height="2.2"/>
			<rect x="43.4" y="72.1" width="2" height="2"/>
			<path d="M95.6,69.1H83.2V50.2h-2v18.9H68.7c-0.6,0-1,0.4-1,1v3h2v-2h24.9v2h2v-3C96.6,69.5,96.2,69.1,95.6,69.1z"/>
			<rect x="71.4" y="34.3" width="15" height="2"/>
			<rect x="71.4" y="39.1" width="20.3" height="2"/>
			<path d="M73.5,51.1H38.2c-4.9,0-8.8,4-8.8,8.8v14.2c0,3.3,2.7,6,6,6h0.3v25.5h18v-44c0-0.9,0.7-1.5,1.5-1.5h18.4V51.1z
				 M46.7,53.1l-2.3,6l-2.3-6H46.7z M71.5,58.1H55.1c-2,0-3.5,1.6-3.5,3.5v42h-6.2V79.4h-2v24.2h-5.8v-42h-2v16.5h-0.3
				c-2.2,0-4-1.8-4-4V59.9c0-3.8,3.1-6.8,6.8-6.8h1.7l3.5,9.1c0.1,0.4,0.5,0.6,0.9,0.6c0,0,0,0,0,0c0.4,0,0.8-0.3,0.9-0.6l3.6-9.1
				h22.7V58.1z"/>
		</g>
		<g>
			<rect x="65" y="82" width="2" height="2.2"/>
			<rect x="70" y="82" width="2" height="2.2"/>
			<rect x="65" y="98.5" width="2" height="2.2"/>
			<rect x="70" y="98.5" width="2" height="2.2"/>
			<path d="M77.7,77.1h-18c-0.6,0-1,0.4-1,1v10c0,0.6,0.4,1,1,1h7.6v4.5h-7.6c-0.6,0-1,0.4-1,1v10c0,0.6,0.4,1,1,1h18
				c0.6,0,1-0.4,1-1v-10c0-0.6-0.4-1-1-1h-8.4v-4.5h8.4c0.6,0,1-0.4,1-1v-10C78.7,77.5,78.2,77.1,77.7,77.1z M76.7,103.6h-16v-8h16
				V103.6z M76.7,87.1h-16v-8h16V87.1z"/>
			<rect x="92" y="82" width="2" height="2.2"/>
			<rect x="97" y="82" width="2" height="2.2"/>
			<rect x="92" y="98.5" width="2" height="2.2"/>
			<rect x="97" y="98.5" width="2" height="2.2"/>
			<path d="M104.7,89.1c0.6,0,1-0.4,1-1v-10c0-0.6-0.4-1-1-1h-18c-0.6,0-1,0.4-1,1v10c0,0.6,0.4,1,1,1h7.6v4.5h-7.6
				c-0.6,0-1,0.4-1,1v10c0,0.6,0.4,1,1,1h18c0.6,0,1-0.4,1-1v-10c0-0.6-0.4-1-1-1h-8.4v-4.5H104.7z M103.7,103.6h-16v-8h16V103.6z
				 M87.7,79.1h16v8h-16V79.1z"/>
		</g>
		<path d="M96.7,47.1h-29c-0.6,0-1-0.4-1-1v-16c0-0.6,0.4-1,1-1h29c0.6,0,1,0.4,1,1v16C97.7,46.7,97.2,47.1,96.7,47.1z M68.7,45.1
			h27v-14h-27V45.1z"/>
	</g>
</g>
</svg>
