<?xml version="1.0" encoding="utf-8"?>
<!-- Generator: Adobe Illustrator 26.0.0, SVG Export Plug-In . SVG Version: 6.00 Build 0)  -->
<svg version="1.1" id="Capa_1" xmlns="http://www.w3.org/2000/svg" xmlns:xlink="http://www.w3.org/1999/xlink" x="0px" y="0px"
	 viewBox="0 0 133 133" style="enable-background:new 0 0 133 133;" xml:space="preserve">
<style type="text/css">
	.st0{fill:#FFFFFF;stroke:#CCCCCC;stroke-width:0.5;stroke-miterlimit:10;}
	.st1{fill:#ECECEC;}
	.st2{fill:#35A8E0;}
	.st3{fill:#1D1D1B;}
	.st4{fill:#F8B133;}
	.st5{fill:#93C01F;}
	.st6{fill:#D8BEA1;}
	.st7{fill:none;}
</style>
<circle class="st0" cx="66.5" cy="66.5" r="66"/>
<path class="st1" d="M75.7,69.9v-2.5c0-0.5-0.4-0.9-0.9-0.9c0,0,0,0,0,0h-8.3c-0.5,0-0.9,0.4-0.9,0.9l0,0v4.4c0,0.5,0.4,0.9,0.9,0.9
	c0,0,0,0,0,0h7.1C74.2,71.7,74.9,70.7,75.7,69.9z"/>
<path class="st2" d="M25.7,46h7.9c0.6,0,1.1,0.5,1.1,1.1v4c0,0.6-0.5,1.1-1.1,1.1h-7.9c-0.6,0-1.1-0.5-1.1-1.1v-4
	C24.6,46.5,25.1,46,25.7,46z"/>
<path class="st1" d="M39.4,46h7.9c0.6,0,1.1,0.5,1.1,1.1v4c0,0.6-0.5,1.1-1.1,1.1h-7.9c-0.6,0-1.1-0.5-1.1-1.1v-4
	C38.3,46.5,38.8,46,39.4,46z"/>
<path class="st3" d="M47.5,53h-8.3c-0.9,0-1.7-0.8-1.7-1.7v-4.4c0-0.9,0.8-1.7,1.7-1.7h8.3c0.9,0,1.7,0.8,1.7,1.7v4.4
	C49.2,52.3,48.4,53,47.5,53z M39.2,46.8C39.2,46.8,39.1,46.8,39.2,46.8l-0.1,4.5c0,0,0,0.1,0.1,0.1h8.3c0,0,0.1,0,0.1-0.1v-4.4
	c0,0,0-0.1-0.1-0.1L39.2,46.8z"/>
<path class="st1" d="M53.1,46h7.9c0.6,0,1.1,0.5,1.1,1.1v4c0,0.6-0.5,1.1-1.1,1.1h-7.9c-0.6,0-1.1-0.5-1.1-1.1v-4
	C52,46.5,52.5,46,53.1,46z"/>
<path class="st3" d="M61.1,53h-8.3c-0.9,0-1.7-0.8-1.7-1.7v-4.4c0-0.9,0.8-1.7,1.7-1.7h8.3c0.9,0,1.7,0.8,1.7,1.7v4.4
	C62.8,52.3,62.1,53,61.1,53z M52.9,46.8C52.8,46.8,52.8,46.8,52.9,46.8l-0.1,4.5c0,0,0,0.1,0.1,0.1h8.3c0,0,0.1,0,0.1-0.1v-4.4
	c0,0,0-0.1-0.1-0.1L52.9,46.8z"/>
<path class="st1" d="M66.7,46h7.9c0.6,0,1.1,0.5,1.1,1.1v4c0,0.6-0.5,1.1-1.1,1.1h-7.9c-0.6,0-1.1-0.5-1.1-1.1v-4
	C65.7,46.5,66.1,46,66.7,46z"/>
<path class="st3" d="M74.8,53h-8.3c-0.9,0-1.7-0.8-1.7-1.7v-4.4c0-0.9,0.8-1.7,1.7-1.7h8.3c0.9,0,1.7,0.8,1.7,1.7v4.4
	C76.5,52.3,75.7,53,74.8,53z M66.5,46.8C66.5,46.8,66.5,46.8,66.5,46.8l-0.1,4.5c0,0,0,0.1,0.1,0.1h8.3c0,0,0.1,0,0.1-0.1v-4.4
	c0,0,0-0.1-0.1-0.1L66.5,46.8z"/>
<path class="st4" d="M25.7,56.3h7.9c0.6,0,1.1,0.5,1.1,1.1v4c0,0.6-0.5,1.1-1.1,1.1h-7.9c-0.6,0-1.1-0.5-1.1-1.1v-4
	C24.6,56.7,25.1,56.3,25.7,56.3z"/>
<path class="st3" d="M33.8,63.3h-8.3c-0.9,0-1.7-0.8-1.7-1.7v-4.4c0-0.9,0.8-1.7,1.7-1.7h8.3c0.9,0,1.7,0.8,1.7,1.7v4.4
	C35.5,62.5,34.8,63.3,33.8,63.3z M25.5,57.1C25.5,57.1,25.5,57.1,25.5,57.1l-0.1,4.5c0,0,0,0.1,0.1,0.1h8.3c0,0,0.1,0,0.1-0.1v-4.4
	c0,0,0-0.1-0.1-0.1H25.5z"/>
<path class="st1" d="M39.4,56.3h7.9c0.6,0,1.1,0.5,1.1,1.1v4c0,0.6-0.5,1.1-1.1,1.1h-7.9c-0.6,0-1.1-0.5-1.1-1.1v-4
	C38.3,56.7,38.8,56.3,39.4,56.3z"/>
<path class="st3" d="M47.5,63.3h-8.3c-0.9,0-1.7-0.8-1.7-1.7v-4.4c0-0.9,0.8-1.7,1.7-1.7c0,0,0,0,0,0h8.3c0.9,0,1.7,0.8,1.7,1.7
	c0,0,0,0,0,0v4.4C49.2,62.5,48.4,63.3,47.5,63.3z M39.2,57.1C39.2,57.1,39.1,57.1,39.2,57.1l-0.1,4.5c0,0,0,0.1,0.1,0.1h8.3
	c0,0,0.1,0,0.1-0.1c0,0,0,0,0,0v-4.4c0,0,0-0.1-0.1-0.1h0H39.2z"/>
<path class="st1" d="M53.1,56.3h7.9c0.6,0,1.1,0.5,1.1,1.1v4c0,0.6-0.5,1.1-1.1,1.1h-7.9c-0.6,0-1.1-0.5-1.1-1.1v-4
	C52,56.7,52.5,56.3,53.1,56.3z"/>
<path class="st3" d="M61.1,63.3h-8.3c-0.9,0-1.7-0.8-1.7-1.7v-4.4c0-0.9,0.8-1.7,1.7-1.7h8.3c0.9,0,1.7,0.8,1.7,1.7v4.4
	C62.8,62.5,62.1,63.3,61.1,63.3z M52.9,57.1C52.8,57.1,52.8,57.1,52.9,57.1l-0.1,4.5c0,0,0,0.1,0.1,0.1h8.3c0,0,0.1,0,0.1-0.1v-4.4
	c0,0,0-0.1-0.1-0.1H52.9z"/>
<path class="st1" d="M66.7,56.3h7.9c0.6,0,1.1,0.5,1.1,1.1v4c0,0.6-0.5,1.1-1.1,1.1h-7.9c-0.6,0-1.1-0.5-1.1-1.1v-4
	C65.7,56.7,66.1,56.3,66.7,56.3z"/>
<path class="st3" d="M74.8,63.3h-8.3c-0.9,0-1.7-0.8-1.7-1.7v-4.4c0-0.9,0.8-1.7,1.7-1.7h8.3c0.9,0,1.7,0.8,1.7,1.7v4.4
	C76.5,62.5,75.8,63.3,74.8,63.3z M66.5,57.1C66.5,57.1,66.5,57.1,66.5,57.1l-0.1,4.5c0,0,0,0.1,0.1,0.1h8.3c0,0,0.1,0,0.1-0.1v-4.4
	c0,0,0-0.1-0.1-0.1H66.5z"/>
<path class="st5" d="M25.7,66.5h7.9c0.6,0,1.1,0.5,1.1,1.1v4c0,0.6-0.5,1.1-1.1,1.1h-7.9c-0.6,0-1.1-0.5-1.1-1.1v-4
	C24.6,67,25.1,66.5,25.7,66.5z"/>
<path class="st3" d="M33.8,73.5h-8.3c-0.9,0-1.7-0.8-1.7-1.7v-4.4c0-0.9,0.8-1.7,1.7-1.7h8.3c0.9,0,1.7,0.8,1.7,1.7v4.4
	C35.5,72.8,34.8,73.5,33.8,73.5z M25.5,67.3C25.5,67.3,25.5,67.3,25.5,67.3l-0.1,4.5c0,0,0,0.1,0.1,0.1h8.3c0,0,0.1,0,0.1-0.1v-4.4
	c0,0,0-0.1-0.1-0.1H25.5z"/>
<path class="st1" d="M39.4,66.5h7.9c0.6,0,1.1,0.5,1.1,1.1v4c0,0.6-0.5,1.1-1.1,1.1h-7.9c-0.6,0-1.1-0.5-1.1-1.1v-4
	C38.3,67,38.8,66.5,39.4,66.5z"/>
<path class="st3" d="M47.5,73.5h-8.3c-0.9,0-1.7-0.8-1.7-1.7v-4.4c0-0.9,0.8-1.7,1.7-1.7h8.3c0.9,0,1.7,0.8,1.7,1.7v4.4
	C49.2,72.8,48.4,73.5,47.5,73.5z M39.2,67.3C39.2,67.3,39.1,67.3,39.2,67.3l-0.1,4.5c0,0,0,0.1,0.1,0.1h8.3c0,0,0.1,0,0.1-0.1v-4.4
	c0,0,0-0.1-0.1-0.1H39.2z"/>
<path class="st1" d="M53.1,66.5h7.9c0.6,0,1.1,0.5,1.1,1.1v4c0,0.6-0.5,1.1-1.1,1.1h-7.9c-0.6,0-1.1-0.5-1.1-1.1v-4
	C52,67,52.5,66.5,53.1,66.5z"/>
<path class="st3" d="M61.1,73.5h-8.3c-0.9,0-1.7-0.8-1.7-1.7v-4.4c0-0.9,0.8-1.7,1.7-1.7h8.3c0.9,0,1.7,0.8,1.7,1.7v4.4
	C62.8,72.8,62.1,73.5,61.1,73.5z M52.9,67.3C52.8,67.3,52.8,67.3,52.9,67.3l-0.1,4.5c0,0,0,0.1,0.1,0.1h8.3c0,0,0.1,0,0.1-0.1v-4.4
	c0,0,0-0.1-0.1-0.1H52.9z"/>
<path class="st6" d="M25.7,76.7h7.9c0.6,0,1.1,0.5,1.1,1.1v4c0,0.6-0.5,1.1-1.1,1.1h-7.9c-0.6,0-1.1-0.5-1.1-1.1v-4
	C24.6,77.2,25.1,76.7,25.7,76.7z"/>
<path class="st3" d="M33.8,83.8h-8.3c-0.9,0-1.7-0.8-1.7-1.7c0,0,0,0,0,0v-4.4c0-0.9,0.8-1.7,1.7-1.7h8.3c0.9,0,1.7,0.8,1.7,1.7V82
	C35.5,82.9,34.8,83.7,33.8,83.8C33.8,83.8,33.8,83.8,33.8,83.8z M25.5,77.6C25.5,77.5,25.5,77.6,25.5,77.6
	C25.5,77.6,25.5,77.6,25.5,77.6L25.5,82c0,0,0,0.1,0.1,0.1c0,0,0,0,0,0h8.3c0,0,0.1,0,0.1-0.1c0,0,0,0,0,0v-4.4c0,0,0-0.1-0.1-0.1
	c0,0,0,0,0,0L25.5,77.6z"/>
<path class="st1" d="M39.4,76.7h7.9c0.6,0,1.1,0.5,1.1,1.1v4c0,0.6-0.5,1.1-1.1,1.1h-7.9c-0.6,0-1.1-0.5-1.1-1.1v-4
	C38.3,77.2,38.8,76.7,39.4,76.7z"/>
<path class="st3" d="M47.5,83.8h-8.3c-0.9,0-1.7-0.8-1.7-1.7c0,0,0,0,0,0v-4.4c0-0.9,0.8-1.7,1.7-1.7h8.3c0.9,0,1.7,0.8,1.7,1.7V82
	C49.2,82.9,48.5,83.7,47.5,83.8C47.5,83.8,47.5,83.8,47.5,83.8z M39.2,77.6C39.2,77.5,39.1,77.6,39.2,77.6
	C39.1,77.6,39.1,77.6,39.2,77.6L39.1,82c0,0,0,0.1,0.1,0.1c0,0,0,0,0,0h8.3c0,0,0.1,0,0.1-0.1c0,0,0,0,0,0v-4.4c0,0,0-0.1-0.1-0.1
	c0,0,0,0,0,0L39.2,77.6z"/>
<path class="st1" d="M53.1,76.7h7.9c0.6,0,1.1,0.5,1.1,1.1v4c0,0.6-0.5,1.1-1.1,1.1h-7.9c-0.6,0-1.1-0.5-1.1-1.1v-4
	C52,77.2,52.5,76.7,53.1,76.7z"/>
<path class="st3" d="M61.1,83.8h-8.3c-0.9,0-1.7-0.8-1.7-1.7c0,0,0,0,0,0v-4.4c0-0.9,0.8-1.7,1.7-1.7h8.3c0.9,0,1.7,0.8,1.7,1.7V82
	C62.9,82.9,62.1,83.7,61.1,83.8C61.2,83.8,61.1,83.8,61.1,83.8z M52.9,77.6C52.8,77.5,52.8,77.6,52.9,77.6
	C52.8,77.6,52.8,77.6,52.9,77.6L52.8,82c0,0,0,0.1,0.1,0.1c0,0,0,0,0,0h8.3c0,0,0.1,0,0.1-0.1c0,0,0,0,0,0v-4.4c0,0,0-0.1-0.1-0.1
	c0,0,0,0,0,0L52.9,77.6z"/>
<path class="st1" d="M80.4,46h7.9c0.6,0,1.1,0.5,1.1,1.1v4c0,0.6-0.5,1.1-1.1,1.1h-7.9c-0.6,0-1.1-0.5-1.1-1.1v-4
	C79.3,46.5,79.8,46,80.4,46z"/>
<path class="st3" d="M88.5,53h-8.3c-0.9,0-1.7-0.8-1.7-1.7v-4.4c0-0.9,0.8-1.7,1.7-1.7h8.3c0.9,0,1.7,0.8,1.7,1.7v4.4
	C90.2,52.3,89.4,53,88.5,53z M80.2,46.8C80.2,46.8,80.1,46.8,80.2,46.8l-0.1,4.5c0,0,0,0.1,0.1,0.1h8.3c0,0,0.1,0,0.1-0.1v-4.4
	c0,0,0-0.1-0.1-0.1L80.2,46.8z"/>
<path class="st1" d="M80.4,56.3h7.9c0.6,0,1.1,0.5,1.1,1.1v4c0,0.6-0.5,1.1-1.1,1.1h-7.9c-0.6,0-1.1-0.5-1.1-1.1v-4
	C79.3,56.7,79.8,56.3,80.4,56.3z"/>
<path class="st3" d="M88.5,63.3h-8.3c-0.9,0-1.7-0.8-1.7-1.7v-4.4c0-0.9,0.8-1.7,1.7-1.7c0,0,0,0,0,0h8.3c0.9,0,1.7,0.8,1.7,1.7
	c0,0,0,0,0,0v4.4C90.2,62.5,89.4,63.3,88.5,63.3z M80.2,57.1C80.2,57.1,80.1,57.1,80.2,57.1l-0.1,4.5c0,0,0,0.1,0.1,0.1h8.3
	c0,0,0.1,0,0.1-0.1v-4.4c0,0,0-0.1-0.1-0.1H80.2z"/>
<path class="st6" d="M44.6,40.9V40c0-0.1-0.2-0.2-0.4-0.2h-1.7c-0.2,0-0.4,0.1-0.4,0.2v0.9c0,0.1-0.2,0.2-0.4,0.2h-1.8
	c-0.3,0-0.5,0.2-0.4,0.3l3.5,2.8c0.2,0.1,0.5,0.1,0.7,0l3.5-2.8c0.2-0.1,0-0.3-0.4-0.3H45C44.8,41.1,44.6,41,44.6,40.9z"/>
<path class="st6" d="M58.2,40.9V40c0-0.1-0.2-0.2-0.4-0.2h-1.6c-0.2,0-0.4,0.1-0.4,0.2v0.9c0,0.1-0.2,0.2-0.4,0.2h-1.8
	c-0.3,0-0.5,0.2-0.3,0.3l3.5,2.8c0.2,0.1,0.5,0.1,0.7,0l3.5-2.8c0.2-0.1,0-0.3-0.3-0.3h-1.8C58.4,41.1,58.2,41,58.2,40.9z"/>
<path class="st6" d="M71.9,40.9V40c0-0.1-0.2-0.2-0.4-0.2h-1.6c-0.2,0-0.4,0.1-0.4,0.2v0.9c0,0.1-0.2,0.2-0.4,0.2h-1.8
	c-0.3,0-0.5,0.2-0.3,0.3l3.5,2.8c0.2,0.1,0.5,0.1,0.7,0l3.5-2.8c0.2-0.1,0-0.3-0.3-0.3h-1.8C72.1,41.1,71.9,41,71.9,40.9z"/>
<path class="st6" d="M85.6,40.9V40c0-0.1-0.2-0.2-0.4-0.2h-1.6c-0.2,0-0.4,0.1-0.4,0.2v0.9c0,0.1-0.2,0.2-0.4,0.2h-1.8
	c-0.3,0-0.5,0.2-0.3,0.3l3.5,2.8c0.2,0.1,0.5,0.1,0.7,0l3.5-2.8c0.2-0.1,0-0.3-0.3-0.3H86C85.8,41.1,85.6,41,85.6,40.9z"/>
<path class="st3" d="M33.8,45.2h-8.3c-0.9,0-1.7,0.8-1.7,1.7v4.4c0,0.9,0.8,1.7,1.7,1.7h0.5c0.5,0,0.8-0.4,0.8-0.8l0,0
	c0-0.5-0.4-0.8-0.8-0.8h-0.5c0,0-0.1,0-0.1-0.1v-4.4c0,0,0-0.1,0.1-0.1h8.3c0,0,0.1,0,0.1,0.1v4.4c0,0,0,0.1-0.1,0.1h-4.1
	c-0.5,0-0.8,0.4-0.8,0.8l0,0c0,0.5,0.4,0.8,0.8,0.8h4.1c0.9,0,1.7-0.8,1.7-1.7v-4.4C35.5,46,34.8,45.2,33.8,45.2z"/>
<path class="st7" d="M79.1,71.4h10.3c0,0,0.1,0,0.1-0.1v-5.2c-0.8-0.2-1.6-0.3-2.5-0.4h-2.1c-2.1,0.1-4.2,0.7-6,1.8v3.8
	C78.9,71.3,79,71.4,79.1,71.4C79,71.4,79.1,71.4,79.1,71.4z"/>
<path class="st7" d="M72.4,78.5C72.4,78.5,72.4,78.4,72.4,78.5l-0.6-0.1c-0.1,0.5-0.1,0.9-0.1,1.4c0,1.4,0.2,2.9,0.6,4.2l0,0
	L72.4,78.5z"/>
<path class="st7" d="M79.1,78.4h10.3c0,0,0.1,0,0.1,0.1V84c0,0,0,0.1-0.1,0.1H79.1c0,0-0.1,0-0.1-0.1L79.1,78.4
	C79,78.5,79,78.4,79.1,78.4z"/>
<path class="st7" d="M96.3,70.1v17c0,2.1-1.6,3.9-3.8,3.9c0,0,0,0-0.1,0H77.2c6,5,15,4.2,20-1.8C101.8,83.5,101.4,75.3,96.3,70.1z"
	/>
<path class="st7" d="M94.2,87.1V68.3c-0.9-0.6-1.8-1.1-2.8-1.6v4.5c0,1.2-1,2.1-2.1,2.1H79.1c-1.2,0-2.1-1-2.1-2.1v-2.4
	c-2.3,1.9-4,4.6-4.7,7.5h0.1c1.2,0,2.1,1,2.1,2.1V84c0,0.9-0.5,1.7-1.3,2c0.5,1.1,1.1,2,1.9,2.9h17.4C93.5,88.9,94.3,88.1,94.2,87.1
	z M91.5,84c0,1.2-1,2.1-2.1,2.1H79.1c-1.2,0-2.1-1-2.1-2.1v-5.5c0-1.2,1-2.1,2.1-2.1h10.2c1.2,0,2.1,1,2.1,2.1V84z"/>
<path d="M86,65.6c-0.4,0-0.7,0-1,0.1h2C86.7,65.7,86.3,65.6,86,65.6z"/>
<path d="M96.3,87.1v-17c-0.6-0.7-1.3-1.3-2-1.8v18.8c0,1-0.8,1.8-1.8,1.8l0,0H75.1c0.6,0.7,1.3,1.4,2.1,2h15.3
	C94.6,90.9,96.3,89.2,96.3,87.1z"/>
<path d="M89.4,76.4H79.1c-1.2,0-2.1,1-2.1,2.1V84c0,1.2,1,2.1,2.1,2.1h10.2c1.2,0,2.1-1,2.1-2.1v-5.5C91.5,77.3,90.5,76.4,89.4,76.4
	z M89.5,84C89.5,84,89.4,84.1,89.5,84C89.4,84.1,89.4,84.1,89.5,84l-10.4,0.1c0,0-0.1,0-0.1-0.1c0,0,0,0,0,0v-5.5
	c0-0.1,0-0.1,0.1-0.1h10.3c0.1,0,0.1,0,0.1,0.1V84z"/>
<path d="M74.5,84v-5.5c0-1.2-1-2.1-2.1-2.1h-0.1c-0.2,0.7-0.3,1.3-0.4,2h0.5c0.1,0,0.1,0,0.1,0.1V84l0,0c0.2,0.7,0.5,1.4,0.8,2
	C74,85.7,74.5,84.9,74.5,84z"/>
<path d="M79.1,73.4h10.3c1.2,0,2.1-1,2.1-2.1v-4.5c-0.7-0.3-1.3-0.5-2-0.7v5.2c0,0,0,0.1-0.1,0.1H79.1c0,0-0.1,0-0.1-0.1
	c0,0,0,0,0,0v-3.8c-0.7,0.4-1.4,0.9-2,1.4v2.4C77,72.4,77.9,73.4,79.1,73.4z"/>
<path class="st3" d="M73.5,86H23.1c-0.8,0-1.4-0.6-1.4-1.4l0,0V39.8c0-0.8,0.6-1.4,1.4-1.4c0,0,0,0,0,0H91c0.8,0,1.4,0.6,1.4,1.4v27
	c0.6,0.3,1.1,0.6,1.6,0.9V39.8c0-1.7-1.4-3.1-3.1-3.1H23.1c-1.7,0-3.1,1.4-3.1,3.1v44.8c0,1.7,1.4,3.1,3.1,3.1h0h51.4
	C74.1,87.1,73.8,86.6,73.5,86z"/>
<path class="st1" d="M71.9,79.5c0-0.9,0.1-1.8,0.3-2.8h-5.7c-0.5,0-0.9,0.4-0.9,0.9l0,0V82c0,0.5,0.4,0.9,0.9,0.9l0,0h5.8
	C72.1,81.8,71.9,80.6,71.9,79.5z"/>
<path class="st3" d="M72.2,82.1h-5.6c0,0-0.1,0-0.1-0.1c0,0,0,0,0,0v-4.4c0,0,0-0.1,0.1-0.1c0,0,0,0,0,0h5.5
	c0.1-0.6,0.2-1.1,0.3-1.6h-5.9c-0.9,0-1.7,0.8-1.7,1.7l0,0V82c0,0.9,0.8,1.7,1.7,1.7l0,0h6C72.4,83.2,72.3,82.7,72.2,82.1z"/>
<path class="st3" d="M74.1,71.9h-7.6c0,0-0.1,0-0.1-0.1c0,0,0,0,0,0v-4.4c0,0,0-0.1,0.1-0.1l0,0h8.3c0,0,0.1,0,0.1,0.1v3.5
	c0.5-0.6,1-1.2,1.6-1.8v-1.7c0-0.9-0.8-1.7-1.7-1.7c0,0,0,0,0,0h-8.3c-0.9,0-1.7,0.8-1.7,1.7c0,0,0,0,0,0v4.4c0,0.9,0.8,1.7,1.7,1.7
	h6.7C73.5,73,73.8,72.4,74.1,71.9z"/>
<path class="st3" d="M82.8,65.7h-2.6c-0.9,0-1.7,0.8-1.7,1.7c0,0,0,0,0,0v0.1C79.8,66.7,81.3,66,82.8,65.7z"/>
<path class="st3" d="M109.1,101l-7.4-9.4c6.7-8.7,5.1-21.2-3.6-27.9S77,58.6,70.3,67.3s-5.1,21.2,3.6,27.9
	c6.1,4.8,14.5,5.5,21.4,1.9l7.3,9.2c0.7,0.9,1.7,1.5,2.8,1.6c0.2,0,0.3,0,0.5,0c1,0,1.9-0.3,2.6-0.9c0.9-0.7,1.5-1.7,1.6-2.8
	C110.1,103,109.8,101.9,109.1,101z M67.8,79.5c0-10.1,8.2-18.2,18.2-18.2s18.2,8.2,18.2,18.2S96.1,97.7,86,97.7l0,0
	C75.9,97.7,67.8,89.5,67.8,79.5z M108.4,104c-0.1,0.7-0.4,1.3-1,1.7c-0.5,0.4-1.2,0.6-1.9,0.6c-0.7-0.1-1.3-0.4-1.7-1l-7.2-9
	c1.5-0.9,2.8-2.1,4-3.3l7.2,9.1C108.3,102.6,108.5,103.3,108.4,104z"/>
<path class="st3" d="M86,64.5c-8.3,0-15,6.7-15,15s6.7,15,15,15s15-6.7,15-15l0,0C101,71.2,94.3,64.5,86,64.5z M86,92.9
	c-7.4,0-13.4-6-13.4-13.4c0-7.4,6-13.4,13.4-13.4c7.4,0,13.4,6,13.4,13.4c0,0,0,0,0,0C99.4,86.9,93.4,92.9,86,92.9z"/>
<path class="st6" d="M108.4,104c-0.1,0.7-0.4,1.3-1,1.7c-0.5,0.4-1.2,0.6-1.9,0.6c-0.7-0.1-1.3-0.4-1.7-1l-7.2-9
	c1.5-0.9,2.8-2.1,4-3.3l7.2,9.1C108.3,102.6,108.5,103.3,108.4,104z"/>
<path class="st6" d="M86,61.3c-10.1,0-18.2,8.2-18.2,18.2S75.9,97.7,86,97.7s18.2-8.2,18.2-18.2c0,0,0,0,0,0
	C104.2,69.4,96.1,61.3,86,61.3z M86,94.5c-8.3,0-15-6.7-15-15s6.7-15,15-15s15,6.7,15,15S94.3,94.5,86,94.5L86,94.5z"/>
</svg>
