<?xml version="1.0" encoding="utf-8"?>
<!-- Generator: Adobe Illustrator 26.0.0, SVG Export Plug-In . SVG Version: 6.00 Build 0)  -->
<svg version="1.1" id="Capa_1" xmlns="http://www.w3.org/2000/svg" xmlns:xlink="http://www.w3.org/1999/xlink" x="0px" y="0px"
	 viewBox="0 0 201 91.1" style="enable-background:new 0 0 201 91.1;" xml:space="preserve">
<style type="text/css">
	.st0{fill:#EEEDED;}
	.st1{fill:#FFFFFF;}
</style>
<g>
	<g>
		<path class="st0" d="M45.6,88.1h109.8c23.5,0,42.6-19.1,42.6-42.6v0C198,22.1,178.9,3,155.4,3H45.6C22.1,3,3,22.1,3,45.6v0
			C3,69.1,22.1,88.1,45.6,88.1z"/>
		<path d="M155.4,91.1H45.6C20.4,91.1,0,70.7,0,45.6S20.4,0,45.6,0h109.8C180.6,0,201,20.4,201,45.6S180.6,91.1,155.4,91.1z M45.6,6
			C23.8,6,6,23.8,6,45.6c0,21.8,17.8,39.6,39.6,39.6h109.8c21.8,0,39.6-17.8,39.6-39.6C195,23.8,177.2,6,155.4,6H45.6z"/>
	</g>
	<g>
		<path class="st1" d="M46.6,76.9H87c17.3,0,31.3-14,31.3-31.3v0c0-17.3-14-31.3-31.3-31.3H46.6c-17.3,0-31.3,14-31.3,31.3v0
			C15.3,62.9,29.3,76.9,46.6,76.9z"/>
		<path d="M87,79.4H46.6c-18.6,0-33.8-15.2-33.8-33.8c0-18.6,15.2-33.8,33.8-33.8H87c18.6,0,33.8,15.2,33.8,33.8
			C120.8,64.2,105.7,79.4,87,79.4z M46.6,16.8c-15.9,0-28.8,12.9-28.8,28.8c0,15.9,12.9,28.8,28.8,28.8H87
			c15.9,0,28.8-12.9,28.8-28.8c0-15.9-12.9-28.8-28.8-28.8H46.6z"/>
	</g>
	<g>
		<path d="M80,33.4c-2-2.1-4.9-3.3-7.8-3.3H57.5c-0.6,0-1.1,0.8-0.6,1.3l1,1.2l0.1,0.2l0.6,0.6l-0.1,0.1l-6.6,2.6
			c-0.9,0.4-1.5,1.2-1.5,2v7.7c0,0.6,0.2,1.2,0.6,1.6l2,2c0.4,0.4,1,0.6,1.6,0.6h3.4l-0.5,0.4c-0.2,0.2-0.4,0.4-0.5,0.5
			c-0.2,0.3-0.4,0.5-0.6,0.8h-0.1c-0.9,1.2-1.3,2.6-1.3,4c0,0.3,0,0.6,0,0.9c0,0.4,0.1,0.7,0.2,1.1c0,0.1,0,0.1,0,0.1
			c0.1,0.4,0.3,0.6,0.4,1c0.5,1.3,1.4,2.5,2.8,3.3l3.6,2.3l7.7,4.8l8.6-6.6l3.3-2.6l2-1.5V41.3C83.2,38.3,82.1,35.6,80,33.4z
			 M55.3,46.1l-0.9-0.9v-5.6l7.1-2.8l3,3.4v4l-2.1,1.9H55.3z M79.1,56.7l-10.1,7.7l-7.6-4.8L60.4,59c-1-0.5-1.6-1.5-1.7-2.6
			c-0.1-1.1,0.4-2.1,1.2-2.9l1.9-1.5l5.8-5.1l0.1-0.1c0.5-0.6,0.9-1.3,0.9-2.1v-4.9c0-0.8-0.3-1.6-0.8-2.1l-3.1-3.4h7.6
			c1.9,0,3.7,0.7,4.9,2c1.3,1.3,2,3.1,2,5V56.7z"/>
		<path d="M62,22.6c0-0.3,0.2-0.5,0.4-0.6c0.2-0.1,0.5-0.1,0.7,0.1l2.7,2.3l2.7-2.3c0.3-0.3,0.7-0.3,1,0l2.7,2.4l2.8-2.4
			c0.2-0.2,0.4-0.2,0.7-0.1c0.3,0.1,0.4,0.4,0.4,0.6v5.1c0,0.4-0.4,0.7-0.8,0.7H62.8c-0.4,0-0.7-0.4-0.7-0.7V22.6z"/>
	</g>
</g>
</svg>
