<?xml version="1.0" encoding="utf-8"?>
<!-- Generator: Adobe Illustrator 26.0.0, SVG Export Plug-In . SVG Version: 6.00 Build 0)  -->
<svg version="1.1" id="Capa_1" xmlns="http://www.w3.org/2000/svg" xmlns:xlink="http://www.w3.org/1999/xlink" x="0px" y="0px"
	 viewBox="0 0 135.2 135.2" style="enable-background:new 0 0 135.2 135.2;" xml:space="preserve">
<style type="text/css">
	.st0{fill:#FFFFFF;stroke:#CDCCCC;stroke-width:0.5;stroke-miterlimit:10;}
	.st1{fill:#F8B133;}
	.st2{fill:#94C11F;}
	.st3{fill:#39A8E0;}
	.st4{fill:#D3DE7B;}
	.st5{fill:#FFD77C;}
	.st6{fill:#D8BEA2;}
	.st7{fill:#1E1E1C;}
</style>
<g>
	<circle class="st0" cx="67.6" cy="67.6" r="66"/>
	<g>
		<path class="st1" d="M33.4,74.2h26.2c0.2-1.6,0.5-3.1,0.9-4.6H39.6c-0.6,0-1-0.4-1-1s0.4-1,1-1h21.6c1-2.3,2.3-4.5,3.9-6.3H51.3
			c-0.6,0-1-0.4-1-1c0-0.6,0.4-1,1-1h14c0.5,0,0.8,0.3,1,0.8c2.6-2.6,5.8-4.6,9.4-5.7H33.4V74.2z M39.6,59.2h5.6c0.6,0,1,0.4,1,1
			c0,0.6-0.4,1-1,1h-5.6c-0.6,0-1-0.4-1-1C38.6,59.6,39,59.2,39.6,59.2z"/>
		<path class="st2" d="M60.3,82.7h-8.9c-0.6,0-1-0.4-1-1s0.4-1,1-1h8.5c-0.2-1.4-0.4-2.8-0.4-4.2c0-0.1,0-0.3,0-0.4H33.4V91
			c0,2.8,2.3,5.1,5.1,5.1h31.6c-2.4-1.5-4.4-3.5-6.1-5.7c-0.1,0.4-0.5,0.7-0.9,0.7H39.6c-0.6,0-1-0.4-1-1s0.4-1,1-1h23.5l0,0
			 M39.6,80.7h5.6c0.6,0,1,0.4,1,1s-0.4,1-1,1h-5.6c-0.6,0-1-0.4-1-1S39,80.7,39.6,80.7z"/>
		<path class="st1" d="M89.9,54.3c5.3,1.7,9.7,5.2,12.6,9.8v-9.8C102.5,54.3,89.9,54.3,89.9,54.3z"/>
		<path class="st3" d="M102.5,37.8c0-2.8-2.3-5.1-5.1-5.1H38.5c-2.8,0-5.1,2.3-5.1,5.1v14.5h69.1V37.8z M39.6,37.6h5.6
			c0.6,0,1,0.4,1,1s-0.4,1-1,1h-5.6c-0.6,0-1-0.4-1-1C38.6,38,39,37.6,39.6,37.6z M96.6,48h-57c-0.6,0-1-0.4-1-1c0-0.6,0.4-1,1-1h57
			c0.6,0,1,0.4,1,1C97.6,47.6,97.1,48,96.6,48z M96.6,39.6H51.3c-0.6,0-1-0.4-1-1c0-0.6,0.4-1,1-1h45.2c0.6,0,1,0.4,1,1
			C97.5,39.2,97.1,39.6,96.6,39.6z"/>
		<path class="st4" d="M82.8,93.9c9.6,0,17.3-7.8,17.3-17.3c0-0.1,0-0.3,0-0.4H65.5c0,0.1,0,0.3,0,0.4c0,1.4,0.2,2.8,0.5,4.2h26.2
			c0.6,0,1,0.4,1,1s-0.4,1-1,1H66.6C69.1,89.2,75.4,93.9,82.8,93.9z"/>
		<path class="st5" d="M82.8,59.2c-6.3,0-11.8,3.4-14.8,8.4h24.2c0.6,0,1,0.4,1,1s-0.4,1-1,1H66.9c-0.6,1.4-1.1,3-1.3,4.6h34.3
			C98.8,65.7,91.6,59.2,82.8,59.2z"/>
		<path class="st6" d="M82.8,99.8c-12.8,0-23.3-10.4-23.3-23.3c0-12.8,10.4-23.3,23.3-23.3s23.3,10.5,23.3,23.3
			C106.1,89.4,95.6,99.8,82.8,99.8z M82.8,59.3c-9.5,0-17.3,7.7-17.3,17.3s7.7,17.3,17.3,17.3s17.3-7.7,17.3-17.3
			S92.3,59.3,82.8,59.3z"/>
		<path class="st6" d="M108,110.3c-0.9,0-1.7-0.4-2.3-1.1l-10-12.4c-1-1.3-0.8-3.2,0.5-4.2c1.3-1,3.2-0.8,4.2,0.5l10,12.4
			c1,1.3,0.8,3.2-0.5,4.2C109.3,110.1,108.7,110.3,108,110.3z"/>
		<g>
			<path class="st7" d="M96.6,48c0.6,0,1-0.4,1-1c0-0.6-0.4-1-1-1h-57c-0.6,0-1,0.4-1,1c0,0.6,0.4,1,1,1H96.6z"/>
			<path class="st7" d="M51.3,39.6h45.2c0.6,0,1-0.4,1-1c0-0.6-0.4-1-1-1H51.3c-0.6,0-1,0.4-1,1C50.3,39.2,50.8,39.6,51.3,39.6z"/>
			<path class="st7" d="M39.6,39.6h5.6c0.6,0,1-0.4,1-1c0-0.6-0.4-1-1-1h-5.6c-0.6,0-1,0.4-1,1C38.6,39.2,39,39.6,39.6,39.6z"/>
			<path class="st7" d="M39.6,82.7h5.6c0.6,0,1-0.4,1-1s-0.4-1-1-1h-5.6c-0.6,0-1,0.4-1,1S39,82.7,39.6,82.7z"/>
			<path class="st7" d="M39.6,61.2h5.6c0.6,0,1-0.4,1-1c0-0.6-0.4-1-1-1h-5.6c-0.6,0-1,0.4-1,1C38.6,60.8,39,61.2,39.6,61.2z"/>
			<path class="st7" d="M111.1,103.2l-9.3-11.5c0.6-0.7,1.1-1.4,1.5-2.2c0.8-1.3,1.5-2.7,2.1-4.1c1.1-2.9,1.7-5.8,1.7-8.9
				s-0.6-6.1-1.7-8.9c-0.3-0.7-0.6-1.4-0.9-2.1V37.8c0-3.9-3.2-7.1-7.1-7.1H38.5c-3.9,0-7.1,3.2-7.1,7.1V91c0,3.9,3.2,7.1,7.1,7.1
				h33.1c0.6,0.3,1.3,0.6,2,0.9c2.9,1.2,6,1.8,9.2,1.8c3.2,0,6.3-0.6,9.2-1.8c0.7-0.3,1.5-0.7,2.2-1l9.2,11.4c0.8,1,2,1.6,3.2,1.8
				c0.2,0,0.3,0,0.5,0c1.1,0,2.1-0.4,3-1.1l0.2-0.2C112.4,108.3,112.8,105.3,111.1,103.2z M102.5,62.3c-2.5-3.5-5.9-6.3-9.9-8h9.9
				V62.3z M33.4,37.8c0-2.8,2.3-5.1,5.1-5.1h58.9c2.8,0,5.1,2.3,5.1,5.1v14.5H85c-1.4-0.1-2.9-0.1-4.3,0H33.4V37.8z M33.4,54.3h39.5
				c-2.7,1.2-5.2,2.9-7.3,5c-0.1,0-0.2,0-0.3,0h-14c-0.6,0-1,0.4-1,1c0,0.6,0.4,1,1,1h12.6c-1.5,1.8-2.7,3.8-3.6,6
				c-0.1,0.1-0.1,0.3-0.2,0.4H39.6c-0.6,0-1,0.4-1,1s0.4,1,1,1h19.9c-0.4,1.5-0.7,3-0.9,4.5v0.1H33.4V54.3z M33.4,91V76.2h25.1v0.4
				c0,1.4,0.1,2.8,0.4,4.2h-7.5c-0.6,0-1,0.4-1,1s0.4,1,1,1h7.9c0,0.1,0,0.2,0.1,0.3c0.6,2.1,1.5,4.2,2.6,6.1H39.6c-0.6,0-1,0.4-1,1
				s0.4,1,1,1h23.5c0.1,0,0.1,0,0.2,0c1.5,2,3.2,3.7,5.2,5.1h-30C35.7,96.1,33.4,93.8,33.4,91z M91.3,97.2c-5.4,2.2-11.5,2.2-16.9,0
				c-1.3-0.5-2.5-1.2-3.6-1.9c-2.3-1.5-4.2-3.3-5.8-5.5c-0.3-0.4-0.6-0.8-0.9-1.3c-1.2-1.9-2.1-3.9-2.7-6.1
				c-0.2-0.6-0.3-1.3-0.4-1.9c-0.2-1.3-0.4-2.7-0.4-4v-0.4c0-0.7,0-1.3,0.1-1.9c0.2-1.5,0.5-3,0.9-4.4c0.2-0.6,0.4-1.3,0.7-1.9
				c0.9-2.2,2.2-4.2,3.8-6.1c0.4-0.4,0.7-0.8,1.1-1.2c2.5-2.5,5.6-4.4,9-5.5c2.2-0.7,4.5-1.1,6.8-1.1c2.3,0,4.6,0.4,6.8,1.1
				c5,1.6,9.3,4.9,12.1,9.3c0.8,1.2,1.4,2.5,1.9,3.8c1,2.6,1.6,5.4,1.6,8.2c0,2.8-0.5,5.6-1.6,8.2c-0.5,1.3-1.2,2.6-1.9,3.8l0,0
				c-1.7,2.7-4.1,5.1-6.8,6.8C93.8,96,92.5,96.7,91.3,97.2z M109.1,108.4l-0.2,0.2c-0.6,0.5-1.3,0.7-2.1,0.6c-0.7-0.1-1.4-0.4-1.9-1
				l-9-11.2l0,0c1.6-1.1,3.1-2.3,4.5-3.7l9.1,11.2C110.5,105.7,110.3,107.4,109.1,108.4z"/>
			<path class="st7" d="M101.1,76.3L101.1,76.3c0-0.8-0.1-1.5-0.2-2.2c-1.2-9-9.1-15.8-18.2-15.8c-6.5,0-12.3,3.3-15.7,8.9
				c-0.4,0.7-0.8,1.4-1.1,2.1c-0.7,1.5-1.1,3.1-1.4,4.8c-0.1,0.7-0.2,1.4-0.2,2.1v0.1c0,0.1,0,0.2,0,0.3c0,1.4,0.2,2.9,0.6,4.4l0,0
				c0.2,0.7,0.4,1.4,0.7,2.1c2.7,7.1,9.6,11.8,17.1,11.8c10.1,0,18.3-8.2,18.3-18.3C101.1,76.4,101.1,76.3,101.1,76.3z M82.8,60.2
				c8.1,0,15,6,16.1,14H66.7c0.2-1.5,0.6-2.9,1.2-4.2c0.1-0.1,0.1-0.3,0.2-0.4h24.1c0.6,0,1-0.4,1-1s-0.4-1-1-1h-23
				C72.2,62.9,77.3,60.2,82.8,60.2z M82.8,92.9c-6.6,0-12.6-4.1-15.1-10.2h24.4c0.6,0,1-0.4,1-1s-0.4-1-1-1H67
				c0-0.1-0.1-0.2-0.1-0.2c-0.3-1.3-0.5-2.7-0.5-3.9v-0.1c0-0.1,0-0.1,0-0.2l0,0H99l0,0c0,0.1,0,0.1,0,0.2v0.1
				C99.1,85.5,91.8,92.9,82.8,92.9z"/>
		</g>
	</g>
</g>
</svg>
