<?xml version="1.0" encoding="utf-8"?>
<!-- Generator: Adobe Illustrator 26.0.0, SVG Export Plug-In . SVG Version: 6.00 Build 0)  -->
<svg version="1.1" id="Capa_1" xmlns="http://www.w3.org/2000/svg" xmlns:xlink="http://www.w3.org/1999/xlink" x="0px" y="0px"
	 viewBox="0 0 16 16" style="enable-background:new 0 0 16 16;" xml:space="preserve">
<style type="text/css">
	.st0{fill:#07AF0D;}
</style>
<path class="st0" d="M14,7.1c-0.5,0-0.9,0.4-0.9,0.9c0,2.8-2.3,5.1-5.1,5.1S2.9,10.8,2.9,8c0-2.8,2.3-5.1,5.1-5.1
	c0.9,0,1.8,0.2,2.6,0.7c0.2,0.1,0.4,0.1,0.7,0.1c0.2-0.1,0.4-0.2,0.5-0.4C12,2.8,11.9,2.3,11.4,2C8.2,0.1,3.9,1.3,2,4.6
	C1.1,6.2,0.9,8,1.4,9.8C1.8,11.6,3,13,4.6,14c1.1,0.6,2.2,0.9,3.4,0.9c0.6,0,1.2-0.1,1.8-0.2c1.8-0.5,3.3-1.6,4.2-3.2
	c0.6-1,0.9-2.2,0.9-3.4C14.9,7.5,14.5,7.1,14,7.1z"/>
<path d="M15.6,2.4c-0.3-0.3-0.9-0.3-1.2,0L8,8.8L5.6,6.4C5.3,6,4.7,6,4.4,6.4C4,6.7,4,7.3,4.4,7.6l3,3c0.2,0.2,0.4,0.3,0.6,0.3
	c0,0,0,0,0,0c0.2,0,0.5-0.1,0.6-0.3l7-7c0.2-0.2,0.3-0.4,0.3-0.6S15.8,2.5,15.6,2.4z"/>
</svg>
