<?xml version="1.0" encoding="utf-8"?>
<!-- Generator: Adobe Illustrator 26.0.0, SVG Export Plug-In . SVG Version: 6.00 Build 0)  -->
<svg version="1.1" id="Capa_1" xmlns="http://www.w3.org/2000/svg" xmlns:xlink="http://www.w3.org/1999/xlink" x="0px" y="0px"
	 viewBox="0 0 80.6 104" style="enable-background:new 0 0 80.6 104;" xml:space="preserve">
<style type="text/css">
	.st0{fill:#FFFFFF;}
</style>
<path class="st0" d="M37.6,17.5l0.2,0.2c0,0.1,0.1,0.1,0.2,0.1l0.3-0.1l0.7-0.2l0.7,1.1l0.5,0.9c0.1,0.1,0.2,0.1,0.3,0c0,0,0,0,0,0
	l0.5-0.9l0.7-1.1l0.7,0.2l0.3,0.1c0.1,0,0.2,0,0.2-0.1l0.2-0.2l0.6-0.6c0.2-0.2,0.3-0.6,0.2-0.9l-0.2-0.5h-2.2l-0.5-0.8
	c-0.1-0.1-0.2-0.2-0.4-0.2c-0.1,0-0.3,0.1-0.4,0.2l-0.7,0.9h-2.2L37,16.1c-0.1,0.3-0.1,0.7,0.2,0.9L37.6,17.5z M41.6,16.3l0.1-0.1
	h1.5c0.1,0,0.1,0,0.1,0.1v0.2l-0.6,0.6h-0.1l-0.8-0.2c0,0-0.1,0-0.1-0.1l0,0l-0.2-0.3V16.3z M39.5,16.9l0.4-0.6l0.1-0.1h0.7
	c0.1,0,0.1,0,0.1,0.1l0.4,0.6V17l-0.7,1.2l-0.1,0.1c0,0-0.1,0-0.1-0.1L39.5,17C39.5,17,39.5,17,39.5,16.9z M37.3,16.3
	c0-0.1,0-0.1,0.1-0.1h1.4c0,0,0.1,0,0.1,0.1c0,0,0,0,0,0v0.1l-0.2,0.3c0,0.1,0,0.1-0.1,0.1L37.9,17h-0.1L37.3,16.3
	C37.3,16.4,37.3,16.4,37.3,16.3z"/>
<path class="st0" d="M45.7,25.7v-0.2h-1.5c-0.3,0-0.6,0.3-0.6,0.6v0.2H45C45.3,26.3,45.7,26.1,45.7,25.7z"/>
<path class="st0" d="M55.1,25.1h-0.3c-0.5,0-1,0.2-1.3,0.6c-0.4,0.3-0.6,0.8-0.6,1.3c0,0.5,0.2,1,0.6,1.3l0.1,0.1
	c0.5,0.4,0.5,1.1,0.1,1.6c0,0,0,0.1-0.1,0.1l-0.1,0.1l-1.3-1l0.4-0.3v-3.4c0-0.6-0.2-1.2-0.7-1.5c-0.4-0.4-1-0.6-1.5-0.7h-2.9
	c-0.1,0-0.2,0.1-0.1,0.2c0,0,0,0,0,0.1l0.3,0.4l-1.3,0.5c-0.2,0.1-0.3,0.2-0.3,0.4v1.5c0,0.1,0,0.2,0.1,0.3l0.4,0.4
	c0.1,0.1,0.2,0.1,0.3,0.1h0.7l-0.1,0.1L47,27.6h-1c-0.3-0.5-0.9-0.8-1.5-0.8h-0.9v1.1c0,0.2,0.1,0.3,0.2,0.5l0.8,1h-1v1.1
	c0,0.2,0.1,0.3,0.2,0.5l1,1.2c0.1,0.2,0.3,0.3,0.5,0.3H47c-0.1,0.1-0.1,0.3-0.1,0.5v0.7l0.6,0.5l0,0L47,34.5h-0.7
	c-0.7,0-1.2,0.6-1.2,1.2v1h3.3l2.5-2.7l0.7,0.4h-0.2c-0.7,0-1.2,0.6-1.2,1.2v1H53l1.8-1.4l0,0c0.2-0.1,0.3-0.3,0.3-0.6
	c0-0.2-0.1-0.4-0.2-0.6l-1.1-1.2v-1.7l0.3-0.3c0.8-0.8,0.8-2,0-2.8L54,28c-0.2-0.2-0.3-0.5-0.3-0.8c0-0.3,0.1-0.6,0.4-0.8
	c0.2-0.2,0.5-0.3,0.8-0.3H55v0.6c0,0.3,0.3,0.6,0.6,0.6h0.1V26C55.7,25.4,55.5,25.1,55.1,25.1z M50.3,24.3c0.4,0,0.7,0.2,1,0.4
	c0.3,0.3,0.4,0.6,0.4,1v3l-2,1.5l-1.4-1L48,29.1c-0.2-0.1-0.3-0.3-0.3-0.5c0-0.2,0.1-0.4,0.2-0.6l0.4-0.3l1.2-1l0,0
	c0.1-0.1,0.2-0.2,0.2-0.4v-1c0-0.2-0.1-0.3-0.2-0.4l-0.6-0.7L50.3,24.3L50.3,24.3z M46.9,26.6l-0.2-0.2v-1.1l1.3-0.6l0.6,0.7v0.8
	l-0.4,0.4L46.9,26.6z M47.4,30L47,30.4h-1v-0.1L45.8,30H47.4z M44.4,28v-0.3h0.1c0.4,0,0.6,0.2,0.9,0.5l0.3,0.4h1.2v0.2
	c0,0.1,0.1,0.3,0.1,0.4h-1.6L44.4,28z M48.1,36H46v-0.3c0-0.2,0.2-0.4,0.4-0.4h0.9l0.7-0.5l0,0c0.3-0.3,0.3-0.8,0-1.2l-0.3-0.3v-0.3
	c0-0.2,0.2-0.5,0.4-0.5c0,0,0,0,0.1,0h1.7l0.4,0.3v0.4c0,0.1,0,0.3,0.1,0.4L48.1,36z M54.2,34.7L54.2,34.7L52.7,36H51v-0.3
	c0-0.2,0.2-0.4,0.4-0.4h1.1l0.1-0.1c0.1-0.2,0.2-0.4,0.2-0.6c0-0.2-0.1-0.4-0.3-0.5l-1.5-1v-0.7L50.2,32c-0.1-0.1-0.3-0.2-0.5-0.2
	L49,31.7h-3.7l-1-1.2v-0.3h0.1c0.4,0,0.8,0.2,1,0.5l0.3,0.4h1.7l0.9-0.9l1.5,1l1.7-1.4l1.6,1.1v1.8c0,0.2,0.1,0.3,0.2,0.5L54.2,34.7
	z"/>
<path class="st0" d="M48.5,23.1h2.4c0.1,0,0.2-0.1,0.2-0.2v-1c0-0.1,0-0.1-0.1-0.1h-0.1l-0.6,0.5l-0.5-0.5c-0.1-0.1-0.1-0.1-0.2,0
	l-0.6,0.5l-0.6-0.5h-0.1l-0.1,0.1v1C48.3,23,48.4,23.1,48.5,23.1z"/>
<path class="st0" d="M48.3,14.3h-1.7c-1.3,0-2.4-1-2.5-2.3l-0.1-1.1l0.1-0.4C44.8,10,45.4,9,45.4,8c0-0.7-0.3-1.4-0.8-1.9
	c-0.3-1.6-1.4-2.9-2.9-3.5c-0.2-0.8-0.5-1.5-1.1-2.1L40.3,0l-0.4,0.5c-0.5,0.6-0.8,1.3-1,2.1c-1.6,0.5-2.8,1.9-3,3.5
	c-0.5,0.5-0.7,1.2-0.8,1.9c0.1,1.1,0.6,2.1,1.5,2.7v0.2l-0.2,1.2c-0.2,1.3-1.3,2.3-2.6,2.3H14.8v0.4c0,0.4,0.2,0.7,0.6,0.8
	c0.9,0.2,1.5,1,1.4,1.9v35.8c0,4.9,3.5,9,8.2,9.9l5.4,1.1c3.2,0.7,6.4,1.8,9.3,3.3l0.2,0.1c0.3,0.2,0.7,0.2,1.1,0l0.2-0.1
	c3-1.4,6.1-2.5,9.3-3.3l5.4-1.2c4.8-0.9,8.2-5,8.2-9.9V17.6c0-0.9,0.6-1.7,1.4-1.9c0.3-0.1,0.6-0.4,0.6-0.8v-0.4H48.3V14.3z
	 M43.3,6.2c0.6,0.4,1,1,1.1,1.8c-0.1,0.7-0.5,1.3-1.1,1.7L43.3,6.2z M40.3,3.4c1.2,0,2.3,0.6,2.9,1.6c-0.1,0-0.2-0.1-0.3-0.1
	l-2.2-0.6c-0.2-0.1-0.5-0.1-0.7,0l-2.2,0.6c-0.1,0-0.2,0.1-0.3,0.1C38.1,4,39.2,3.4,40.3,3.4L40.3,3.4z M39.9,11.7h0.6l2-0.6
	c-0.4,0.9-1.3,1.4-2.2,1.4c-0.9,0-1.8-0.5-2.2-1.4L39.9,11.7z M38.5,10.2V5.9l1.3-0.4v5.1L38.5,10.2z M40.9,10.5v-5l1.3,0.4v4.3
	L40.9,10.5z M36.3,8c0.1-0.7,0.5-1.4,1.1-1.7v3.4C36.7,9.3,36.3,8.7,36.3,8z M34.1,15.4c1.8,0,3.3-1.3,3.6-3
	c0.7,0.8,1.7,1.2,2.7,1.1c1,0,2-0.4,2.7-1.1c0.4,1.7,1.9,2.9,3.7,2.9H49c-0.1,1.3-1.2,2.3-2.5,2.2c-0.2,0-0.4,0-0.6-0.1l-0.4-0.1
	l-0.2,0.4c-1,1.8-2.9,3-5,3.1c-2.1-0.1-4-1.2-5-3l-0.2-0.4l-0.4,0.1c-0.2,0-0.4,0.1-0.6,0.1c-1.3,0-2.4-0.9-2.5-2.2L34.1,15.4z
	 M42.5,40.5h-0.3l-0.7-0.7v-1.2c0-0.5-0.4-0.9-0.8-0.9c0,0,0,0,0,0h-1.1l-0.7-0.7v-0.3h3.6L42.5,40.5z M43.4,41.3L43.4,41.3v1h-0.9
	v-1H43.4z M38,41.4v-3.6h0.3l0.7,0.7v1.2c0,0.5,0.4,0.9,0.9,0.9c0,0,0,0,0,0H41l0.7,0.7v0.3L38,41.4z M37.2,37L37.2,37v-1H38v1H37.2
	L37.2,37z M39.8,39.6v-1h0.9v1H39.8z M39.8,36h-1v-0.1c0-0.5-0.3-0.9-0.8-0.9c0,0,0,0-0.1,0h-0.9c-0.5,0-0.9,0.4-0.9,0.8
	c0,0,0,0,0,0v1c0,0.5,0.4,0.9,0.9,0.9c0,0,0,0,0,0l0,0v0.9H22.3V20.1c0-0.2,0.2-0.4,0.4-0.4h12.8l0.9,0.9c1,0.8,2.3,1.2,3.6,1.4V36z
	 M37.2,39.6v2.2c0,0.2,0.2,0.4,0.4,0.4h2.2V62c-2.4-1.2-4.8-2.1-7.4-2.8l-6.3-1.4c-2.3-0.5-3.9-2.5-3.8-4.8V39.5L37.2,39.6z
	 M40.8,42.3h0.9c0,0.5,0.4,0.9,0.8,0.9c0,0,0,0,0,0h0.9c0.5,0,0.9-0.4,0.9-0.8c0,0,0,0,0,0v-1c0-0.5-0.4-0.9-0.8-0.9c0,0,0,0,0,0
	l0,0v-0.9h15v13.2c0,2.5-1.7,4.6-4.1,5.1l-6.1,1.3c-2.5,0.6-5,1.5-7.3,2.7L40.8,42.3z M43.4,38.6v-2.1c0-0.2-0.2-0.4-0.4-0.4h-2.2
	V21.8c1.3-0.1,2.5-0.6,3.5-1.3c0.4-0.3,0.7-0.6,1-0.9H58c0.2,0,0.4,0.2,0.4,0.4v18.6L43.4,38.6z M62.8,17.4v35.8
	c0,4.3-3.1,8-7.4,8.8L50,63.2c-3.3,0.8-6.5,1.9-9.6,3.4l-0.1,0.1l-0.2-0.1c-3.1-1.5-6.3-2.6-9.6-3.4L25.1,62
	c-4.3-0.8-7.4-4.5-7.4-8.8V17.4c0-0.7-0.3-1.4-0.7-2h13.4c0.1,1.6,1.4,3,3,3.3H21.6c-0.2,0-0.4,0.2-0.4,0.4v34.1
	c0,2.8,1.9,5.2,4.6,5.8l6.3,1.4c2.6,0.6,5.1,1.6,7.5,2.9l0.6,0.3l0.6-0.3c2.3-1.3,4.9-2.3,7.5-2.9l6.2-1.3c2.8-0.6,4.8-3.1,4.9-6V19
	c0-0.2-0.2-0.4-0.4-0.4H47c1.7-0.2,3-1.6,3-3.3h13.5C63,15.9,62.8,16.6,62.8,17.4z"/>
<path class="st0" d="M37.2,25.7l-1.2-1.6c-0.1-0.2-0.3-0.3-0.6-0.3c-0.2,0-0.5,0.2-0.6,0.4l-0.7,1.2h-0.6v-1.5
	c0-0.2-0.2-0.5-0.4-0.6c-0.2-0.1-0.5-0.1-0.7,0.1l-2,1.5l-1.6-1.2c-0.3-0.2-0.6-0.2-0.9,0l-2.7,2.1c-0.2,0.1-0.3,0.3-0.3,0.6
	c0,0.2,0,0.4,0.2,0.6h0.2l2.2-1.7l0,0l1-0.7l1.3,1.1c-0.2,0.1-0.3,0.3-0.3,0.5c0,0.2,0,0.4,0.2,0.6H30l0.8-0.6l0,0l2.2-1.8v1.2
	c0,0.5,0.4,0.9,0.8,0.9c0,0,0,0,0,0h0.5c0.4,0,0.7-0.2,0.9-0.5l0.5-0.9l1.5,1.9h0.2c0.2-0.1,0.3-0.3,0.3-0.5
	C37.3,26.1,37.3,25.9,37.2,25.7z"/>
<path class="st0" d="M30,30.2c-0.2,0-0.3,0.1-0.3,0.3c0,0.2,0.1,0.3,0.3,0.3c0.2,0,0.3-0.1,0.3-0.3C30.2,30.3,30.1,30.2,30,30.2z"/>
<path class="st0" d="M30.6,31.3c-0.2,0-0.3,0.1-0.3,0.3s0.1,0.3,0.3,0.3s0.3-0.1,0.3-0.3C30.9,31.4,30.8,31.3,30.6,31.3
	C30.7,31.3,30.6,31.3,30.6,31.3z"/>
<path class="st0" d="M31.9,31.3c-0.2,0-0.3,0.1-0.3,0.3s0.1,0.3,0.3,0.3c0.2,0,0.3-0.1,0.3-0.3l0,0C32.2,31.4,32.1,31.3,31.9,31.3
	C31.9,31.3,31.9,31.3,31.9,31.3z"/>
<path class="st0" d="M30.6,29.9c0.1,0,0.3-0.1,0.3-0.2c0,0,0-0.1,0-0.1c0-0.2-0.1-0.3-0.3-0.3s-0.3,0.1-0.3,0.3
	C30.3,29.7,30.5,29.8,30.6,29.9z"/>
<path class="st0" d="M31.9,29.9c0.1,0,0.3-0.1,0.3-0.2c0,0,0-0.1,0-0.1c0-0.2-0.1-0.3-0.3-0.3s-0.3,0.1-0.3,0.3
	C31.6,29.7,31.7,29.8,31.9,29.9z"/>
<path class="st0" d="M31.2,30.2c-0.2,0-0.3,0.1-0.3,0.3s0.1,0.3,0.3,0.3s0.3-0.1,0.3-0.3C31.5,30.4,31.4,30.3,31.2,30.2
	C31.3,30.2,31.2,30.2,31.2,30.2z"/>
<path class="st0" d="M32.4,30.2c-0.1,0-0.3,0.1-0.3,0.2c0,0,0,0.1,0,0.1c0,0.2,0.1,0.3,0.3,0.3s0.3-0.1,0.3-0.3S32.6,30.2,32.4,30.2
	z"/>
<path class="st0" d="M37,30.2h-2.8c-0.1-0.3-0.2-0.5-0.4-0.8c0-0.4-0.2-0.8-0.5-1.1c-0.2-0.3-0.6-0.5-1-0.5
	c-0.3-0.3-0.7-0.5-1.1-0.5c-0.4,0-0.8,0.1-1,0.4c-0.4,0-0.8,0.2-1.1,0.5c-0.3,0.2-0.5,0.6-0.5,1c-0.2,0.2-0.3,0.5-0.4,0.9h-2.1
	c-0.4,0-0.8,0.3-0.8,0.7c0,0,0,0,0,0c0,0.1,0,0.1,0.1,0.1h3c0.1,0.1,0.1,0.3,0.3,0.4c0,0.4,0.2,0.7,0.5,1c0.3,0.3,0.6,0.5,1,0.5
	c0.2,0.2,0.5,0.4,0.8,0.4v1.5H30c-0.3,0-0.5,0.2-0.5,0.4c0,0,0,0,0,0v0.2h3.2c0.3,0,0.5-0.2,0.5-0.4c0,0,0,0,0,0v-0.2h-1.6v-1.6
	c0.2-0.1,0.5-0.2,0.7-0.3c0.4,0,0.8-0.2,1.1-0.5c0.3-0.2,0.5-0.6,0.5-1c0.1-0.2,0.3-0.3,0.3-0.5h2.1C36.6,31,36.9,30.6,37,30.2
	C37,30.2,37,30.2,37,30.2L37,30.2z M33.2,31.2L33.2,31.2l-0.1,0.3c0,0.3-0.1,0.5-0.3,0.7c-0.1,0.2-0.3,0.3-0.6,0.3h-0.3l-0.1,0.1
	c-0.3,0.4-0.9,0.4-1.3,0c0,0,0,0,0,0l-0.1-0.1h-0.2c-0.2,0-0.4-0.1-0.6-0.3c-0.2-0.1-0.3-0.4-0.3-0.6v-0.3l-0.1-0.1
	c-0.2-0.2-0.3-0.4-0.3-0.7c0-0.3,0.1-0.5,0.3-0.7l0.1-0.1v-0.2c0-0.3,0.1-0.5,0.3-0.7c0.2-0.2,0.4-0.3,0.7-0.3h0.2l0.1-0.1
	c0.2-0.2,0.4-0.3,0.7-0.3c0.3,0,0.5,0.1,0.7,0.3l0.1,0.1h0.2c0.3,0,0.5,0.1,0.7,0.3c0.2,0.2,0.3,0.4,0.3,0.7v0.2l0.1,0.1
	c0.2,0.2,0.3,0.4,0.3,0.7C33.5,30.8,33.4,31.1,33.2,31.2L33.2,31.2z"/>
<path class="st0" d="M56.6,50.3h-0.3c0-0.1-0.1-0.3-0.2-0.4l-0.1-0.1v-0.1l-0.2-5.8c0-0.1-0.1-0.2-0.2-0.2h-1.2
	c-0.1,0-0.2,0.1-0.2,0.2L54,49.6l0,0v0.1l-0.2,0.2V50l0,0c-0.1,0.1-0.1,0.2-0.1,0.3v1.2c0,0,0,0.1-0.1,0.1l0,0h-0.8
	c0,0-0.1,0-0.1-0.1v-1.2c0-0.1-0.1-0.2-0.1-0.3l0,0v-0.1l-0.1-0.1v-0.1L52.4,44c0-0.1-0.1-0.2-0.2-0.2H51c-0.1,0-0.2,0.1-0.2,0.2
	l-0.2,5.8v0.1L50.2,50v0l0,0c-0.1,0.1-0.1,0.2-0.1,0.3V51l0,0v0.5h-1V51l0,0v-0.8c0-0.1-0.1-0.2-0.1-0.3l0,0v-0.1l-0.1-0.1v-0.1
	l-0.2-5.8c0-0.1-0.1-0.2-0.2-0.2h-1.2c-0.1,0-0.2,0.1-0.2,0.2l-0.2,5.8v0.1l-0.4,0.2V50l0,0c-0.1,0.1-0.1,0.2-0.1,0.3v1.2
	c0,0,0,0.1-0.1,0.1c0,0,0,0,0,0h-0.8c0,0-0.1,0-0.1-0.1l0,0v-1.2c0-0.1-0.1-0.2-0.1-0.3l0,0v-0.1l-0.3-0.1v-0.1l-0.2-5.8
	c0-0.1-0.1-0.2-0.2-0.2h-1.3c-0.1,0-0.2,0.1-0.2,0.2l-0.2,5.8v0.1l-0.2,0.1c-0.1,0.1-0.2,0.2-0.2,0.4h-0.3c-0.1,0-0.2,0.1-0.2,0.2
	V51l0.5,0.3v4.8h12c0.9,0,1.7-0.8,1.7-1.7c0,0,0,0,0,0v-3.1l0.5-0.3v-0.5C56.9,50.4,56.8,50.3,56.6,50.3z M50.9,50.2
	c0.1-0.2,0.2-0.4,0.2-0.6l0.2-5.3h0.2l0.2,5.3c0,0.2,0.1,0.4,0.2,0.6l0.1,0.1C51.9,50.3,50.9,50.2,50.9,50.2z M47.2,50.2
	c0.1-0.2,0.2-0.4,0.2-0.6l0.2-5.3h0.2l0.2,5.3c0,0.2,0.1,0.4,0.2,0.6l0.1,0.1L47.2,50.2L47.2,50.2z M43.6,50.2
	c0.1-0.2,0.2-0.3,0.2-0.5l0.2-5.3h0.3l0.2,5.3c0,0.2,0.1,0.3,0.2,0.5l0.1,0.2h-1.3L43.6,50.2z M55.6,54c0,0.6-0.5,1.1-1.1,1.2
	c0,0-0.1,0-0.1,0h-7.6V54c0-0.4-0.2-0.7-0.5-0.9c-0.3-0.2-0.7-0.2-1,0c-0.3,0.2-0.5,0.5-0.5,0.9v1.1h-1.4V51h1.2v0.6
	c0,0.4,0.4,0.7,0.8,0.8h1c0.4,0,0.7-0.3,0.8-0.8V51h1.2v0.6c0,0.4,0.4,0.7,0.8,0.8h1c0.4,0,0.7-0.4,0.8-0.8V51H52v0.6
	c0,0.4,0.4,0.7,0.8,0.8h1.2c0.4-0.1,0.6-0.4,0.6-0.8V51h1.2L55.6,54z M54.4,50.4l0.1-0.2c0.1-0.1,0.2-0.3,0.2-0.5l0.2-5.3h0.3
	l0.2,5.3c0,0.2,0.1,0.4,0.2,0.5l0.1,0.2H54.4z"/>
<path class="st0" d="M33.7,53.8c-0.4,0-0.8,0.3-0.8,0.7c0,0,0,0,0,0v1.5h1.4v-1.5c0.1-0.3-0.1-0.7-0.5-0.8
	C33.8,53.8,33.7,53.7,33.7,53.8z"/>
<path class="st0" d="M37.4,50.8h-0.3v-0.9c0-0.3-0.2-0.5-0.4-0.5c0,0,0,0,0,0h-1.3v-0.8c0-0.2-0.2-0.5-0.4-0.5c0,0,0,0-0.1,0h-2.3
	c-0.2,0-0.5,0.2-0.5,0.4c0,0,0,0,0,0.1v0.8h-1.3c-0.3,0-0.5,0.2-0.5,0.4c0,0,0,0,0,0v0.9H30c-0.2,0-0.5,0.2-0.5,0.4c0,0,0,0,0,0.1
	V52c0,0.3-0.3,0.6-0.6,0.6h-0.1c-0.4,0-0.7-0.3-0.7-0.6c0,0,0,0,0,0v-0.4c0-0.2-0.2-0.5-0.4-0.5c0,0,0,0-0.1,0h-1.4
	c-0.2,0-0.5,0.2-0.5,0.4c0,0,0,0,0,0.1v0.3c0,0.4-0.3,0.7-0.6,0.7c0,0,0,0,0,0h-0.9V53c0,1.6,1.2,2.9,2.8,2.9c0,0,0,0,0.1,0h4.5
	v-1.5c0-1.2,0.9-2.1,2.1-2.1s2.1,0.9,2.1,2.1c0,0,0,0,0,0V56h2.1v-4.7C38,51,37.8,50.8,37.4,50.8C37.5,50.8,37.5,50.8,37.4,50.8z
	 M36.7,55.1v-0.7c0-1.7-1.3-3-3-3s-3,1.3-3,3v0.7H27c-1,0-1.9-0.7-2-1.7c0.8,0,1.4-0.7,1.4-1.4h0.8c0,0.8,0.7,1.4,1.5,1.4
	c0,0,0.1,0,0.1,0h0.2c0.7,0,1.4-0.6,1.4-1.4v-0.4h0.4c0.3,0,0.5-0.2,0.5-0.5v-0.8h1.3c0.2,0,0.5-0.2,0.5-0.4c0,0,0,0,0-0.1V49h1.5
	v0.8c0,0.2,0.2,0.5,0.4,0.5c0,0,0,0,0.1,0h1.3v0.9c0,0.3,0.2,0.5,0.5,0.5h0.4v3.5H36.7z"/>
<path class="st0" d="M32.5,43.7c-0.3,0-0.5,0.2-0.5,0.5v1.6C31,46,30.2,46.9,30.2,48v0.9c0.5,0,0.9-0.4,0.9-0.9c0,0,0,0,0,0l0,0
	c0-0.7,0.6-1.3,1.3-1.3c0,0,0,0,0,0c0.3,0,0.5-0.2,0.5-0.5v-1.6h1.5v1.5c0,0.3,0.2,0.5,0.5,0.5c0.7,0,1.3,0.6,1.3,1.3c0,0,0,0,0,0.1
	l0,0c0,0.5,0.4,0.9,0.9,0.9c0,0,0,0,0,0v-0.9c0-1.1-0.8-2-1.8-2.2v-1.6c0-0.3-0.2-0.5-0.5-0.5h-0.8V43h0.7v-0.8h-0.7v-0.7h-0.9v0.7
	h-0.6v0.9h0.7v0.6L32.5,43.7z"/>
<path class="st0" d="M24.6,43.7v2.8h-0.1c-0.2,0.1-0.3,0.2-0.3,0.4v3.5c0.5,0,0.9-0.4,0.9-0.9c0,0,0,0,0,0v-2.2h3.8v2.2
	c0,0.5,0.4,0.9,0.8,0.9c0,0,0,0,0,0v-3.5c0-0.2-0.1-0.4-0.3-0.4h-0.1v-2.8l0.4-0.1v-1.9h-2.2V42c0,0.2-0.2,0.5-0.4,0.5
	c0,0,0,0-0.1,0l0,0c-0.2,0-0.5-0.2-0.5-0.4c0,0,0,0,0-0.1v-0.4h-2.2v1.9L24.6,43.7z M25,42.4h0.8c0,0.3,0.3,0.6,0.6,0.6h1
	c0.3,0,0.6-0.3,0.6-0.6h0.9v0.5h-0.1c-0.2,0.1-0.3,0.2-0.3,0.4v3.1h-3v-3.1c0-0.2-0.1-0.4-0.3-0.4h-0.1L25,42.4z"/>
<path class="st0" d="M10.9,80.5h-0.5c-0.1,0-0.2,0.1-0.2,0.3l0.7,1.2l0,0V89l-7.1-8.4H0.2c-0.1,0-0.2,0.1-0.2,0.3l0.7,1.2v12H4v-8.5
	l7.1,8.4h3.2V80.5H10.9z"/>
<path class="st0" d="M27.8,86.8v-4.9l-0.7-1.1c-0.1-0.1,0.1-0.3,0.2-0.3h3.9v6.2c0,4.6-2.6,7.4-7,7.4s-7-2.8-7-7.4v-4.9l-0.7-1.1
	c-0.1-0.1,0.1-0.3,0.2-0.3h3.9v6.2c0,3,1.1,4.2,3.6,4.2S27.9,89.8,27.8,86.8L27.8,86.8z"/>
<path class="st0" d="M34.3,94.1V82l-0.7-1.2c0-0.1,0.1-0.3,0.2-0.3h12.5v3.1h-8.5v2h6v3.1h-6v2.3h8.7v3H34.3z"/>
<path class="st0" d="M59.6,80.5L56,90.6l-3.7-10.1h-4.4c-0.2,0-0.3,0.2-0.2,0.3l1,1.2l4,10.6v1.5h6.3v-1.5l4-10.6l1.1-1.2
	c0.1-0.1,0-0.3-0.2-0.3H59.6z"/>
<path class="st0" d="M80.6,87.3c0,4.3-3.4,7-8.2,7s-8.3-2.7-8.3-7s3.5-7,8.3-7S80.6,83,80.6,87.3z M72.4,83.5c-3.1,0-4.6,1-4.6,3.8
	s1.5,3.8,4.6,3.8s4.6-1,4.6-3.8S75.4,83.5,72.4,83.5z"/>
<path class="st0" d="M4.7,98.5h1.4v5.4H4.8L2,100.5v3.4H0.7v-5.4h1.2l2.8,3.4V98.5z"/>
<path class="st0" d="M13.5,101v-2.5h1.4v2.5c0.2,1.4-0.9,2.7-2.3,2.9c-0.2,0-0.3,0-0.5,0c-1.4,0.1-2.7-1-2.8-2.4c0-0.2,0-0.3,0-0.5
	v-2.5h1.3v2.5c0,1.2,0.4,1.6,1.4,1.6C13.2,102.6,13.5,102.1,13.5,101z"/>
<path class="st0" d="M19.7,102.6h3.5v1.2h-4.8v-5.4H23v1.2h-3.3v0.8h2.7v1.2h-2.7V102.6z"/>
<path class="st0" d="M30.3,98.5h1.5l-1.9,5.4h-2l-2-5.4h1.5l1.5,3.9L30.3,98.5z"/>
<path class="st0" d="M40.9,101.2c0,1.7-1.3,2.8-3.3,2.8s-3.3-1.1-3.3-2.8s1.3-2.8,3.3-2.8S40.9,99.5,40.9,101.2z M37.6,99.7
	c-1.2,0-1.8,0.4-1.8,1.5s0.6,1.5,1.8,1.5s1.8-0.4,1.8-1.5S38.9,99.7,37.6,99.7z"/>
<path class="st0" d="M50.8,102.6h3v1.2h-4.4v-5.4h1.3L50.8,102.6z"/>
<path class="st0" d="M58.3,102.6h3.5v1.2h-4.8v-5.4h4.7v1.2h-3.4v0.8H61v1.2h-2.7V102.6z"/>
<path class="st0" d="M71.1,101.2c0,1.7-1.3,2.8-3.3,2.8s-3.3-1.1-3.3-2.8s1.3-2.8,3.3-2.8S71.1,99.5,71.1,101.2z M69.7,101.2
	c0-1.2-0.6-1.5-1.8-1.5S66,100,66,101.2s0.6,1.5,1.8,1.5S69.7,102.3,69.7,101.2z M67.9,96.5h-1.1c-0.2,0-0.4,0.1-0.5,0.3l-0.4,0.8
	h3.1c0.2,0,0.4-0.1,0.5-0.3l0.4-0.8L67.9,96.5z"/>
<path class="st0" d="M78.3,98.5h1.3v5.4h-1.2l-2.8-3.4v3.4h-1.3v-5.4h1.2l2.8,3.4V98.5z"/>
<path class="st0" d="M9.2,75.6h2.4v0.9H8.2v-3.8h3.4v0.9H9.1v0.6H11V75H9.1L9.2,75.6L9.2,75.6z"/>
<path class="st0" d="M13.7,75.6h2.1v0.9h-3.2v-3.8h1L13.7,75.6L13.7,75.6z"/>
<path class="st0" d="M21.6,74.4h2.2v2.1h-1v-0.3c-0.4,0.2-0.9,0.4-1.4,0.4c-1.1,0.3-2.2-0.3-2.5-1.4c-0.3-1.1,0.3-2.2,1.4-2.5
	c0.4-0.1,0.8-0.1,1.1,0c0.8,0,1.5,0.2,2.1,0.7l-0.7,0.5c-0.4-0.3-0.9-0.4-1.4-0.4c-0.9,0-1.2,0.3-1.2,1s0.4,1.1,1.2,1.1
	c0.4,0.1,0.8-0.1,1.1-0.4h-1L21.6,74.4z"/>
<path class="st0" d="M29.4,74.6c0,1.2-1,1.9-2.3,1.9s-2.3-0.8-2.3-1.9c0-1.1,1-2,2.1-1.9c0.1,0,0.2,0,0.2,0c1.1-0.2,2.1,0.5,2.3,1.5
	C29.4,74.3,29.4,74.5,29.4,74.6z M27.1,73.6c-0.9,0-1.2,0.3-1.2,1s0.4,1.1,1.2,1.1s1.2-0.3,1.2-1.1S27.9,73.5,27.1,73.6L27.1,73.6z"
	/>
<path class="st0" d="M34.1,75.4c0,0.8-0.5,1-1.4,1h-2.2v-3.8h1.9c1,0,1.4,0.4,1.4,1.1c0,0.3-0.1,0.5-0.3,0.7
	C33.9,74.6,34.1,75,34.1,75.4z M32.8,73.8c0-0.2-0.1-0.3-0.5-0.3h-1v0.6h1C32.8,74.1,32.8,74,32.8,73.8z M31.4,75.6h1.2
	c0.3,0,0.4-0.1,0.4-0.3s-0.1-0.3-0.7-0.3h-1L31.4,75.6z"/>
<path class="st0" d="M35.1,76.5v-3.8h1v3.8H35.1z"/>
<path class="st0" d="M38.4,75.6h2.4v0.9h-3.5v-3.8h3.4v0.9h-2.3v0.6h1.9V75h-1.9V75.6z"/>
<path class="st0" d="M44.8,75.3l0.8,1.1h-1.2l-0.7-1h-0.9v1H42v-3.8h2.4c0.7-0.1,1.4,0.5,1.4,1.2c0,0,0,0.1,0,0.1
	C45.7,74.6,45.5,75.2,44.8,75.3z M44.2,73.5h-1.3v1h1.4c0.3,0,0.5-0.2,0.5-0.5c0,0,0,0,0,0C44.7,73.9,44.7,73.5,44.2,73.5z"/>
<path class="st0" d="M49.6,72.7h1v3.8h-0.9l-2-2.4v2.4h-1v-3.8h0.9l2,2.4L49.6,72.7z"/>
<path class="st0" d="M56.2,74.6c0,1.2-1,1.9-2.3,1.9s-2.3-0.8-2.3-1.9s1-1.9,2.3-1.9c1.1-0.2,2.1,0.5,2.3,1.5
	C56.2,74.3,56.3,74.5,56.2,74.6z M54,73.6c-0.9,0-1.2,0.3-1.2,1s0.4,1.1,1.2,1.1s1.2-0.3,1.2-1.1S54.8,73.5,54,73.6L54,73.6z"/>
<path class="st0" d="M63.6,74.6c0,1.2-0.7,1.9-1.7,1.9h-2.1v-3.8h2.1C63,72.7,63.6,73.3,63.6,74.6z M61.9,73.6h-1v2.1h1
	c0.4,0,0.7,0,0.7-1.1S62.3,73.5,61.9,73.6L61.9,73.6z"/>
<path class="st0" d="M65.7,75.6h2.5v0.9h-3.5v-3.8h3.4v0.9h-2.4v0.6h1.9V75h-1.9V75.6z"/>
<path class="st0" d="M70.2,75.6h2.1v0.9h-3.2v-3.8h1L70.2,75.6L70.2,75.6z"/>
</svg>
