<?xml version="1.0" encoding="utf-8"?>
<!-- Generator: Adobe Illustrator 26.0.0, SVG Export Plug-In . SVG Version: 6.00 Build 0)  -->
<svg version="1.1" id="Capa_1" xmlns="http://www.w3.org/2000/svg" xmlns:xlink="http://www.w3.org/1999/xlink" x="0px" y="0px"
	 viewBox="0 0 14.3 12" style="enable-background:new 0 0 14.3 12;" xml:space="preserve">
<style type="text/css">
	.st0{fill:#FFFFFF;}
</style>
<path class="st0" d="M5.6,7.8l6.1-5.4c0,0,0.1-0.1,0-0.2s-0.1-0.1-0.4,0.1L3.9,7L0.3,6C0.1,5.9,0,5.7,0,5.4c0-0.1,0.2-0.2,0.3-0.3
	L13.6,0c0.3-0.1,0.6,0,0.7,0.3c0,0.1,0,0.2,0,0.3L12,11.5c-0.1,0.3-0.4,0.5-0.7,0.4c-0.1,0-0.1,0-0.2-0.1L7.6,9.4
	c0,0-1.5,1.6-1.7,1.8c-0.1,0.1-0.3,0.1-0.4,0.1L5.6,7.8z"/>
</svg>
