<?xml version="1.0" encoding="utf-8"?>
<!-- Generator: Adobe Illustrator 26.0.0, SVG Export Plug-In . SVG Version: 6.00 Build 0)  -->
<svg version="1.1" id="Capa_1" xmlns="http://www.w3.org/2000/svg" xmlns:xlink="http://www.w3.org/1999/xlink" x="0px" y="0px"
	 viewBox="0 0 58.6 79" style="enable-background:new 0 0 58.6 79;" xml:space="preserve">
<style type="text/css">
	.st0{fill:#1D1D1B;}
	.st1{fill:#35A8E0;}
	.st2{fill:#D8BEA1;}
	.st3{fill:#93C01F;}
	.st4{fill:#F8B133;}
</style>
<path class="st0" d="M57.4,2.5H6.3c-0.6,0-1.1,0.5-1.1,1.1v4.1h-4C0.6,7.7,0,8.2,0,8.8c0,0,0,0,0,0.1v69C0,78.5,0.5,79,1.1,79
	c0,0,0,0,0,0h51.2c0.6,0,1.1-0.5,1.1-1.1l0,0v-4.1h4c0.6,0,1.1-0.5,1.1-1.1l0,0v-69C58.5,3.1,58,2.6,57.4,2.5z M51.2,76.8H2.2V10
	h2.9v62.7c0,0.6,0.5,1.1,1.1,1.1c0,0,0,0,0,0h44.9V76.8z M56.3,71.6H7.4V4.8h48.9V71.6z"/>
<path class="st1" d="M51.2,76.8H2.2V10h2.9v62.7c0,0.6,0.5,1.1,1.1,1.1c0,0,0,0,0,0h44.9V76.8z"/>
<path class="st0" d="M54.7,0.4C54.4,0.2,54.1,0,53.8,0H37.6c-0.4,0-0.7,0.2-0.9,0.4c-0.2,0.3-0.3,0.7-0.2,1l2.2,7.8
	c0.1,0.5,0.6,0.8,1.1,0.8h2v4.5c-0.8,0.9-1.2,2-1.2,3.1c0.4,2.7,2.9,4.6,5.7,4.2c2.2-0.3,3.9-2,4.2-4.2c0-1.2-0.4-2.3-1.2-3.1V10
	h2.1c0.5,0,0.9-0.3,1.1-0.8l2.2-7.8C54.9,1.1,54.8,0.7,54.7,0.4z M45.7,20.5c-1.5,0-2.7-1.2-2.7-2.7c0-0.9,0.4-1.7,1.2-2.2V10h3.1
	v5.4c1.2,0.8,1.5,2.5,0.7,3.8C47.4,19.9,46.5,20.4,45.7,20.5L45.7,20.5z M50.7,7.8h-10l-1.6-5.6h13.2L50.7,7.8z"/>
<polygon class="st2" points="50.7,7.8 48.3,7.8 43,7.8 40.7,7.8 39.1,2.2 52.3,2.2 "/>
<rect x="11.6" y="8.9" class="st3" width="18" height="25.6"/>
<path class="st0" d="M29.6,35.6h-18c-0.6,0-1.1-0.5-1.1-1.1V8.9c0-0.6,0.5-1.1,1.1-1.1h18c0.6,0,1.1,0.5,1.1,1.1c0,0,0,0,0,0v25.6
	C30.7,35.1,30.2,35.6,29.6,35.6z M12.7,33.4h15.7V10H12.7V33.4z"/>
<path class="st0" d="M24.3,15.4H16c-0.6,0-1.1-0.5-1.1-1.1c0-0.6,0.5-1.1,1.1-1.1h8.3c0.6,0,1.1,0.5,1.1,1.1
	C25.4,14.9,24.9,15.4,24.3,15.4C24.3,15.4,24.3,15.4,24.3,15.4L24.3,15.4z"/>
<path class="st0" d="M24.3,20.4H16c-0.6-0.1-1.1-0.6-1-1.2c0.1-0.5,0.5-1,1-1h8.3c0.6,0.1,1.1,0.6,1,1.2
	C25.3,19.9,24.8,20.3,24.3,20.4L24.3,20.4z"/>
<path class="st0" d="M24.3,25.3H16c-0.6-0.1-1.1-0.6-1-1.2c0.1-0.5,0.5-1,1-1h8.3c0.6,0.1,1.1,0.6,1,1.2
	C25.3,24.9,24.8,25.3,24.3,25.3L24.3,25.3z"/>
<path class="st0" d="M24.3,30.3H16c-0.6,0-1.1-0.5-1.1-1.1c0-0.6,0.5-1.1,1.1-1.1h8.3c0.6,0.1,1.1,0.6,1,1.2
	C25.3,29.8,24.8,30.2,24.3,30.3L24.3,30.3z"/>
<path class="st0" d="M52.3,28.1H39.1c-0.6,0-1.1-0.5-1.1-1.1c0-0.6,0.5-1.1,1.1-1.1c0,0,0,0,0,0h13.2c0.6,0,1.1,0.5,1.1,1.1
	C53.4,27.6,52.9,28.1,52.3,28.1z"/>
<path class="st0" d="M52.3,33H39.1c-0.6,0-1.1-0.5-1.1-1.1c0-0.6,0.5-1.1,1.1-1.1h13.2c0.6,0,1.1,0.5,1.1,1.1
	C53.4,32.5,52.9,33,52.3,33z"/>
<path class="st0" d="M52.3,38H39.1c-0.6,0-1.1-0.5-1.1-1.1c0-0.6,0.5-1.1,1.1-1.1h13.2c0.6,0,1.1,0.5,1.1,1.1
	C53.4,37.5,52.9,38,52.3,38z"/>
<path class="st0" d="M34.5,28.1h-0.6c-0.6,0-1.1-0.5-1.1-1.1c0-0.6,0.5-1.1,1.1-1.1c0,0,0,0,0,0h0.6c0.6,0,1.1,0.5,1.1,1.1
	C35.6,27.6,35.1,28.1,34.5,28.1z"/>
<path class="st0" d="M34.5,33h-0.6c-0.6,0-1.1-0.5-1.1-1.1c0-0.6,0.5-1.1,1.1-1.1h0.6c0.6,0,1.1,0.5,1.1,1.1
	C35.6,32.5,35.1,33,34.5,33z"/>
<path class="st0" d="M34.5,38h-0.6c-0.6,0-1.1-0.5-1.1-1.1c0-0.6,0.5-1.1,1.1-1.1h0.6c0.6,0,1.1,0.5,1.1,1.1
	C35.6,37.5,35.1,38,34.5,38z"/>
<rect x="13.7" y="60" class="st4" width="5.3" height="7.7"/>
<rect x="23.9" y="54.9" class="st4" width="5.3" height="12.8"/>
<rect x="34" y="49.8" class="st4" width="5.3" height="17.8"/>
<rect x="44.1" y="44.6" class="st4" width="5.3" height="23.1"/>
<path class="st0" d="M52.3,66.6h-1.8V44.6c0-0.6-0.5-1.1-1.1-1.1h-5.3c-0.6,0-1.1,0.5-1.1,1.1v21.9h-2.6V49.8c0-0.6-0.5-1.1-1.1-1.1
	H34c-0.6,0-1.1,0.5-1.1,1.1v16.7h-2.6V54.9c0-0.6-0.5-1.1-1.1-1.1h-5.3c-0.6,0-1.1,0.5-1.1,1.1v11.6h-2.6V60c0-0.6-0.5-1.1-1.1-1.1
	c0,0,0,0,0,0h-5.3c-0.6,0-1.1,0.5-1.1,1.1c0,0,0,0,0,0v6.6H11c-0.6,0-1.1,0.5-1.1,1.1s0.5,1.1,1.1,1.1c0,0,0,0,0,0h41.3
	c0.6,0,1.1-0.5,1.1-1.1C53.4,67.1,52.9,66.6,52.3,66.6L52.3,66.6z M14.9,66.6v-5.5h3v5.5H14.9z M25,66.6V56h3v10.5H25z M35.1,66.6
	V51h3v15.6H35.1z M45.2,66.6V45.7h3v20.8H45.2z"/>
</svg>
