<?xml version="1.0" encoding="utf-8"?>
<!-- Generator: Adobe Illustrator 26.0.0, SVG Export Plug-In . SVG Version: 6.00 Build 0)  -->
<svg version="1.1" id="Capa_1" xmlns="http://www.w3.org/2000/svg" xmlns:xlink="http://www.w3.org/1999/xlink" x="0px" y="0px"
	 viewBox="0 0 16.9 16.9" style="enable-background:new 0 0 16.9 16.9;" xml:space="preserve">
<style type="text/css">
	.st0{fill:#D8BEA2;}
	.st1{fill:#020303;}
	.st2{fill:#1D1D1B;}
</style>
<g id="Capa_2_00000158714648817701835650000010621731304163680174_">
	<path class="st0" d="M8.4,0.5C4,0.5,0.5,4.1,0.5,8.4s3.6,7.9,7.9,7.9c4.4,0,7.9-3.6,7.9-7.9c0,0,0,0,0,0C16.4,4.1,12.8,0.5,8.4,0.5
		C8.4,0.5,8.4,0.5,8.4,0.5z M7.8,11.4c0.2,0.2,0.3,0.6,0.1,0.8c-0.1,0.1-0.3,0.2-0.5,0.2c-0.1,0-0.3-0.1-0.4-0.2L3.3,8.9
		C3.2,8.8,3.1,8.6,3.1,8.4c0-0.2,0.1-0.3,0.2-0.4L7,4.6c0.2-0.2,0.6-0.2,0.8,0s0.2,0.6,0,0.8L4.6,8.4L7.8,11.4z M13.1,11.4
		c0.2,0.2,0.2,0.6,0,0.9c-0.1,0.1-0.3,0.2-0.4,0.2c-0.1,0-0.3-0.1-0.4-0.2L8.6,8.9C8.5,8.8,8.4,8.6,8.4,8.4c0-0.2,0.1-0.3,0.2-0.4
		l3.7-3.4c0.2-0.2,0.6-0.2,0.9,0c0.2,0.2,0.2,0.6,0,0.9l0,0L9.9,8.4L13.1,11.4z"/>
	<path class="st1" d="M8.4,16.9C3.8,16.9,0,13.1,0,8.4S3.8,0,8.4,0s8.4,3.8,8.4,8.4c0,0,0,0,0,0C16.9,13.1,13.1,16.9,8.4,16.9z
		 M8.4,1C4.3,1,1,4.3,1,8.4c0,4.1,3.3,7.4,7.4,7.4s7.4-3.3,7.4-7.4c0,0,0,0,0,0C15.9,4.3,12.5,1,8.4,1C8.4,1,8.4,1,8.4,1z"/>
	<path class="st2" d="M7.4,4.5c0.2,0,0.3,0.1,0.4,0.2c0.2,0.2,0.2,0.6,0,0.8L4.6,8.4l3.2,2.9c0.2,0.2,0.3,0.6,0.1,0.8
		c-0.1,0.1-0.3,0.2-0.5,0.2c-0.1,0-0.3-0.1-0.4-0.2L3.3,8.9C3.2,8.8,3.1,8.6,3.1,8.4c0-0.2,0.1-0.3,0.2-0.4L7,4.6
		C7.1,4.5,7.3,4.5,7.4,4.5 M7.4,3.7c-0.3,0-0.7,0.1-0.9,0.3L2.8,7.4C2.5,7.7,2.3,8,2.3,8.4c0,0.4,0.2,0.7,0.4,1l3.7,3.4
		C6.7,13,7,13.1,7.4,13.2c0.7,0,1.4-0.6,1.4-1.3c0-0.4-0.2-0.7-0.4-1L5.7,8.4l2.6-2.4c0.6-0.5,0.6-1.4,0.1-1.9
		C8.1,3.9,7.8,3.7,7.4,3.7L7.4,3.7z"/>
	<path class="st2" d="M12.7,4.5c0.3,0,0.6,0.3,0.6,0.6c0,0.1-0.1,0.3-0.2,0.4l-3.2,3l3.2,2.9c0.2,0.2,0.2,0.6,0,0.9
		c-0.1,0.1-0.3,0.2-0.4,0.2c-0.1,0-0.3-0.1-0.4-0.2L8.6,8.9C8.5,8.8,8.4,8.6,8.4,8.4c0-0.2,0.1-0.3,0.2-0.4l3.7-3.4
		C12.4,4.5,12.5,4.5,12.7,4.5 M12.7,3.7c-0.3,0-0.7,0.1-0.9,0.3L8.1,7.4C7.8,7.7,7.6,8,7.6,8.4c0,0.4,0.2,0.7,0.4,1l3.7,3.4
		c0.3,0.2,0.6,0.3,0.9,0.4c0.7,0,1.4-0.6,1.4-1.3c0-0.4-0.2-0.7-0.4-1L11,8.4l2.6-2.4c0.6-0.5,0.6-1.4,0.1-1.9
		C13.4,3.9,13.1,3.7,12.7,3.7L12.7,3.7z"/>
</g>
</svg>
