<?xml version="1.0" encoding="utf-8"?>
<!-- Generator: Adobe Illustrator 26.0.0, SVG Export Plug-In . SVG Version: 6.00 Build 0)  -->
<svg version="1.1" id="Capa_1" xmlns="http://www.w3.org/2000/svg" xmlns:xlink="http://www.w3.org/1999/xlink" x="0px" y="0px"
	 viewBox="0 0 86.1 79.3" style="enable-background:new 0 0 86.1 79.3;" xml:space="preserve">
<style type="text/css">
	.st0{fill:#D8BEA2;}
</style>
<g>
	<g>
		<path class="st0" d="M42.2,23.5v1.6c0,0.6,0.4,1,1,1s1-0.4,1-1v-1.6l21.2,12.3l-11.1,6.4c-2.5-3.6-6.6-5.9-11.3-5.9
			c-4.6,0-8.7,2.3-11.2,5.8l-10.9-6.3L42.2,23.5z"/>
		<path class="st0" d="M42.2,76L20.9,63.7l1.8-1c0.5-0.3,0.6-0.9,0.4-1.4s-0.9-0.6-1.4-0.4l-1.7,1V37.5l10.9,6.3
			c-0.9,1.9-1.5,3.9-1.5,6.1c0,7.2,5.7,13.2,12.8,13.6V76z"/>
		<path class="st0" d="M66.4,62l-1.9-1.1c-0.5-0.3-1.1-0.1-1.4,0.4s-0.1,1.1,0.4,1.4l1.9,1.1L44.2,76V63.6c7-0.6,12.6-6.5,12.6-13.6
			c0-2.2-0.5-4.2-1.4-6.1l11.1-6.4V62z"/>
	</g>
	<g>
		<path d="M56.4,57.4c-0.3,0.5-0.1,1.1,0.4,1.4l3.8,2.2c0.2,0.1,0.3,0.1,0.5,0.1c0.3,0,0.7-0.2,0.9-0.5c0.3-0.5,0.1-1.1-0.4-1.4
			L57.8,57C57.3,56.8,56.7,56.9,56.4,57.4z"/>
		<path d="M28.6,57l-3.4,2c-0.5,0.3-0.6,0.9-0.4,1.4c0.2,0.3,0.5,0.5,0.9,0.5c0.2,0,0.3,0,0.5-0.1l3.4-2c0.5-0.3,0.6-0.9,0.4-1.4
			C29.7,56.9,29,56.8,28.6,57z"/>
		<path d="M43.2,34.9c0.6,0,1-0.4,1-1v-4.1c0-0.6-0.4-1-1-1s-1,0.4-1,1v4.1C42.2,34.5,42.6,34.9,43.2,34.9z"/>
		<path d="M85.5,73.3l-3.7-8.2c-0.2-0.5-0.8-0.7-1.3-0.5c-0.5,0.2-0.7,0.8-0.5,1.3l2.4,5.3l-14-8.1v-28l-24.2-14V4.5l3.4,4.8
			c0.2,0.3,0.5,0.4,0.8,0.4c0.2,0,0.4-0.1,0.6-0.2c0.4-0.3,0.6-0.9,0.2-1.4L44,0.8c-0.4-0.5-1.3-0.5-1.6,0l-5.2,7.3
			c-0.3,0.4-0.2,1.1,0.2,1.4c0.5,0.3,1.1,0.2,1.4-0.2l3.4-4.8v16.7l-24.2,14V63L3.7,71.3l2.4-5.3c0.2-0.5,0-1.1-0.5-1.3
			c-0.5-0.2-1.1,0-1.3,0.5l-3.7,8.2c-0.3,0.6,0.2,1.3,0.8,1.4l9,0.9c0.5,0.1,1-0.3,1.1-0.9c0-0.2,0-0.4-0.1-0.6
			c-0.2-0.3-0.4-0.5-0.8-0.5L4.7,73l14.1-8.1l24.3,14l24.2-14l14,8.1l-5.8,0.6c-0.3,0-0.6,0.2-0.8,0.5c-0.1,0.2-0.1,0.4-0.1,0.6
			c0.1,0.5,0.5,1,1.1,0.9l9-0.9C85.4,74.6,85.8,73.9,85.5,73.3z M42.2,23.5v1.6c0,0.6,0.4,1,1,1s1-0.4,1-1v-1.6l21.2,12.3l-11.1,6.4
			c-2.5-3.6-6.6-5.9-11.3-5.9c-4.6,0-8.7,2.3-11.2,5.8l-10.9-6.3L42.2,23.5z M43,41.1c-3,0-5.5,2.5-5.5,5.5c0,1.7,0.8,3.2,1.9,4.2
			c-2.7,1-4.8,3.3-5.8,6c-1.4-1.9-2.2-4.3-2.2-6.8c0-6.4,5.2-11.7,11.7-11.7s11.7,5.2,11.7,11.7c0,2.6-0.9,5.1-2.4,7
			c-0.9-2.8-3.1-5.1-5.9-6.2c1.2-1,1.9-2.5,1.9-4.2C48.5,43.5,46,41.1,43,41.1z M46.5,46.6c0,1.9-1.6,3.5-3.5,3.5s-3.5-1.6-3.5-3.5
			c0-1.9,1.6-3.5,3.5-3.5S46.5,44.7,46.5,46.6z M42.2,76L20.9,63.7l1.8-1c0.5-0.3,0.6-0.9,0.4-1.4s-0.9-0.6-1.4-0.4l-1.7,1V37.5
			l10.9,6.3c-0.9,1.9-1.5,3.9-1.5,6.1c0,7.2,5.7,13.2,12.8,13.6V76z M43.1,61.6c-3,0-5.8-1.2-7.9-3.1c0.7-3.7,3.9-6.4,7.8-6.4
			c3.9,0,7.2,2.9,7.8,6.6C48.7,60.5,46,61.6,43.1,61.6z M66.4,62l-1.9-1.1c-0.5-0.3-1.1-0.1-1.4,0.4s-0.1,1.1,0.4,1.4l1.9,1.1
			L44.2,76V63.6c7-0.6,12.6-6.5,12.6-13.6c0-2.2-0.5-4.2-1.4-6.1l11.1-6.4V62z"/>
	</g>
</g>
</svg>
