<?xml version="1.0" encoding="utf-8"?>
<!-- Generator: Adobe Illustrator 26.0.0, SVG Export Plug-In . SVG Version: 6.00 Build 0)  -->
<svg version="1.1" id="Capa_1" xmlns="http://www.w3.org/2000/svg" xmlns:xlink="http://www.w3.org/1999/xlink" x="0px" y="0px"
	 viewBox="0 0 79.6 80" style="enable-background:new 0 0 79.6 80;" xml:space="preserve">
<style type="text/css">
	.st0{fill:#D8BEA2;}
</style>
<g>
	<path class="st0" d="M38.1,78h-2.7v-8.3c0-0.6-0.4-1-1-1s-1,0.4-1,1V78H11.9v-8.3c0-0.6-0.4-1-1-1s-1,0.4-1,1V78H2V66.2
		c0-6.4,5.1-11.7,11.5-11.9c5.4,6,8.2,9,8.2,9c0.2,0.2,0.5,0.3,0.7,0.3c0,0,0,0,0,0c0.3,0,0.5-0.1,0.7-0.3c0,0,4.3-4.6,8.2-9
		c1.5,0.1,5.1,0.6,8,3.5c2.3,2.3,3.5,5.3,3.5,8.4V78H38.1z"/>
	<path class="st0" d="M73.6,23.8c0.4-1.2,0.5-2.5,0.5-3.7s-0.2-2.5-0.5-3.7c-0.1-0.4,0-0.9,0.4-1.1l3.3-2.1c-0.6-1.3-1.2-2.5-2-3.6
		l-3.5,1.9c-0.4,0.2-0.9,0.1-1.2-0.2c-1.7-1.9-4-3.1-6.4-3.7c-0.4-0.1-0.8-0.5-0.8-0.9l-0.1-4c-1.5-0.2-2.7-0.2-4.1,0l-0.1,4
		c0,0.5-0.3,0.8-0.8,0.9c-2.5,0.6-4.7,1.9-6.4,3.7c-0.3,0.3-0.8,0.4-1.2,0.2l-3.5-1.9c-0.8,1.1-1.5,2.3-2,3.6l3.3,2.1
		c0.4,0.2,0.6,0.7,0.4,1.1c-0.4,1.2-0.5,2.5-0.5,3.7s0.2,2.5,0.5,3.7c0.1,0.4,0,0.9-0.4,1.1L45.1,27c0.6,1.3,1.2,2.5,2,3.6l3.5-1.9
		c0.4-0.2,0.9-0.1,1.2,0.2c1.7,1.9,4,3.1,6.4,3.7c0.4,0.1,0.8,0.5,0.8,0.9l0.1,4c1.5,0.2,2.7,0.2,4.1,0l0.1-4c0-0.5,0.3-0.8,0.8-0.9
		c2.5-0.6,4.7-1.9,6.4-3.7c0.3-0.3,0.8-0.4,1.2-0.2l3.5,1.9c0.8-1.1,1.5-2.3,2-3.6L74,24.9C73.6,24.7,73.5,24.2,73.6,23.8z M61.2,26
		c-3.2,0-5.9-2.6-5.9-5.9c0-3.2,2.6-5.9,5.9-5.9c3.2,0,5.9,2.6,5.9,5.9C67.1,23.3,64.5,26,61.2,26z"/>
	<g>
		<path d="M61.2,12.2c-4.3,0-7.9,3.5-7.9,7.9c0,4.3,3.5,7.9,7.9,7.9s7.9-3.5,7.9-7.9C69.1,15.7,65.6,12.2,61.2,12.2z M61.2,26
			c-3.2,0-5.9-2.6-5.9-5.9c0-3.2,2.6-5.9,5.9-5.9c3.2,0,5.9,2.6,5.9,5.9C67.1,23.3,64.5,26,61.2,26z"/>
		<path d="M79.1,25.8l-3.4-2.1c0.3-1.2,0.4-2.4,0.4-3.6c0-1.2-0.1-2.4-0.4-3.6l3.4-2.1c0.4-0.3,0.6-0.8,0.4-1.2
			c-0.8-2-1.8-3.9-3.2-5.5c-0.3-0.4-0.8-0.5-1.2-0.2l-3.6,1.9c-1.7-1.7-3.8-2.9-6.1-3.5l-0.1-4c0-0.5-0.4-0.9-0.8-1
			c-2.3-0.4-4.1-0.4-6.4,0c-0.5,0.1-0.8,0.5-0.8,1l-0.1,4c-2.3,0.7-4.4,1.9-6.1,3.5l-3.6-1.9c-0.4-0.2-0.9-0.1-1.2,0.2
			c-1.3,1.6-2.4,3.5-3.2,5.5c-0.2,0.4,0,0.9,0.4,1.2l3.4,2.1c-0.3,1.2-0.4,2.4-0.4,3.6c0,1.2,0.1,2.4,0.4,3.6l-3.4,2.1
			c-0.4,0.3-0.6,0.8-0.4,1.2c0.8,2,1.8,3.9,3.2,5.5c0.3,0.4,0.8,0.5,1.2,0.2l3.6-1.9c1.7,1.7,3.8,2.9,6.1,3.5l0.1,4
			c0,0.5,0.4,0.9,0.8,1c1.2,0.2,2.2,0.3,3.2,0.3s2-0.1,3.2-0.3c0.5-0.1,0.8-0.5,0.8-1l0.1-4c2.3-0.7,4.4-1.9,6.1-3.5l3.6,1.9
			c0.4,0.2,0.9,0.1,1.2-0.2c1.3-1.6,2.4-3.5,3.2-5.5C79.7,26.5,79.6,26,79.1,25.8z M75.3,30.6l-3.5-1.9c-0.4-0.2-0.9-0.1-1.2,0.2
			c-1.7,1.9-4,3.1-6.4,3.7c-0.4,0.1-0.8,0.5-0.8,0.9l-0.1,4c-1.5,0.2-2.7,0.2-4.1,0l-0.1-4c0-0.5-0.3-0.8-0.8-0.9
			c-2.5-0.6-4.7-1.9-6.4-3.7c-0.3-0.3-0.8-0.4-1.2-0.2l-3.5,1.9c-0.8-1.1-1.5-2.3-2-3.6l3.3-2.1c0.4-0.2,0.6-0.7,0.4-1.1
			c-0.4-1.2-0.5-2.5-0.5-3.7s0.2-2.5,0.5-3.7c0.1-0.4,0-0.9-0.4-1.1l-3.3-2.1c0.6-1.3,1.2-2.5,2-3.6l3.5,1.9
			c0.4,0.2,0.9,0.1,1.2-0.2c1.7-1.9,4-3.1,6.4-3.7C58.7,7.4,59,7,59,6.6l0.1-4c1.5-0.2,2.7-0.2,4.1,0l0.1,4c0,0.5,0.3,0.8,0.8,0.9
			c2.5,0.6,4.7,1.9,6.4,3.7c0.3,0.3,0.8,0.4,1.2,0.2l3.5-1.9c0.8,1.1,1.5,2.3,2,3.6L74,15.2c-0.4,0.2-0.6,0.7-0.4,1.1
			c0.4,1.2,0.5,2.5,0.5,3.7s-0.2,2.5-0.5,3.7c-0.1,0.4,0,0.9,0.4,1.1l3.3,2.1C76.8,28.3,76.1,29.5,75.3,30.6z"/>
		<path d="M71.4,67.2c0.6,0,1-0.4,1-1V42.2l5,5c0.2,0.2,0.5,0.3,0.7,0.3s0.5-0.1,0.7-0.3c0.4-0.4,0.4-1,0-1.4l-6.7-6.7
			c-0.4-0.4-1-0.4-1.4,0l-6.7,6.7c-0.4,0.4-0.4,1,0,1.4c0.4,0.4,1,0.4,1.4,0l5-5v23.9C70.4,66.7,70.8,67.2,71.4,67.2z"/>
		<path d="M78.6,78h-6.3v-5.4c0-0.6-0.4-1-1-1s-1,0.4-1,1V78H56.1V52.3l5,5c0.2,0.2,0.5,0.3,0.7,0.3s0.5-0.1,0.7-0.3
			c0.4-0.4,0.4-1,0-1.4l-6.7-6.7c-0.4-0.4-1-0.4-1.4,0L47.6,56c-0.4,0.4-0.4,1,0,1.4s1,0.4,1.4,0l5-5V78h-9.2V66.2
			c0-3.7-1.5-7.2-4.1-9.9c-3.7-3.7-8.2-4.1-9.7-4.1c-0.2-0.1-1-0.5-2.1-3.1c4.1-2.3,7-6.7,7-11.8v-6.8c0-5.4-4.4-9.8-9.8-9.8h-7.2
			c-5.4,0-9.8,4.4-9.8,9.8v6.8c0,5,2.7,9.3,6.7,11.6c-0.3,1.1-1.1,2.2-2.2,3.2C6,52.5,0,58.7,0,66.2V79c0,0.6,0.4,1,1,1h37.1h5.7
			h34.8c0.6,0,1-0.4,1-1S79.2,78,78.6,78z M18.8,22.8H26c4.2,0,7.6,3.3,7.8,7.4c-1.7,1.5-3.3,2.1-4.8,2c-1.7-0.2-3.3-1.4-4.9-3.6
			c-0.2-0.3-0.5-0.4-0.9-0.4c-0.3,0-0.6,0.2-0.8,0.5c-2.8,4.7-6.5,6.5-11.5,5.5v-3.5C11,26.3,14.5,22.8,18.8,22.8z M11,37.5v-1.3
			c0.9,0.1,1.7,0.2,2.5,0.2c4.1,0,7.4-1.8,10-5.5c1.7,2,3.5,3.1,5.4,3.3c1.6,0.2,3.3-0.3,5-1.5v4.8c0,6.3-5.1,11.4-11.4,11.4
			C16.1,48.9,11,43.8,11,37.5z M22.4,50.9c1.6,0,3.2-0.3,4.7-0.9c0.7,1.7,1.5,2.8,2.2,3.5c-2.8,3.1-5.6,6.2-6.9,7.6
			c-1.1-1.2-3.5-3.8-7.1-7.8c1-1.1,1.8-2.2,2.2-3.4C19,50.6,20.7,50.9,22.4,50.9z M38.1,78h-2.7v-8.3c0-0.6-0.4-1-1-1s-1,0.4-1,1V78
			H11.9v-8.3c0-0.6-0.4-1-1-1s-1,0.4-1,1V78H2V66.2c0-6.4,5.1-11.7,11.5-11.9c5.4,6,8.2,9,8.2,9c0.2,0.2,0.5,0.3,0.7,0.3
			c0,0,0,0,0,0c0.3,0,0.5-0.1,0.7-0.3c0,0,4.3-4.6,8.2-9c1.5,0.1,5.1,0.6,8,3.5c2.3,2.3,3.5,5.3,3.5,8.4V78H38.1z"/>
	</g>
</g>
</svg>
