<?xml version="1.0" encoding="utf-8"?>
<!-- Generator: Adobe Illustrator 26.0.0, SVG Export Plug-In . SVG Version: 6.00 Build 0)  -->
<svg version="1.1" id="Capa_1" xmlns="http://www.w3.org/2000/svg" xmlns:xlink="http://www.w3.org/1999/xlink" x="0px" y="0px"
	 viewBox="0 0 91.7 79.4" style="enable-background:new 0 0 91.7 79.4;" xml:space="preserve">
<style type="text/css">
	.st0{fill:#D8BEA2;}
	.st1{fill:#F2E6D0;}
	.st2{fill:#36A9E1;}
	.st3{fill:#F9B233;}
	.st4{fill:#95C11F;}
</style>
<g>
	<polygon class="st0" points="20.1,1 35.2,1 41.8,10.3 71.6,10.3 71.6,40.7 20.1,40.7 	"/>
	<polygon class="st1" points="68.9,10.3 68.9,3.6 37,3.6 41.8,10.3 	"/>
	<rect x="1.4" y="61.5" class="st2" width="21.6" height="16.4"/>
	<rect x="35" y="61.5" class="st3" width="21.6" height="16.4"/>
	<rect x="68.6" y="61.5" class="st4" width="21.6" height="16.4"/>
	<g>
		<path d="M5.5,66.6h13.1c0.6,0,1-0.4,1-1s-0.4-1-1-1H5.5c-0.6,0-1,0.4-1,1S5,66.6,5.5,66.6z"/>
		<path d="M5.5,70.7h13.1c0.6,0,1-0.4,1-1s-0.4-1-1-1H5.5c-0.6,0-1,0.4-1,1S5,70.7,5.5,70.7z"/>
		<path d="M5.5,74.8h13.1c0.6,0,1-0.4,1-1s-0.4-1-1-1H5.5c-0.6,0-1,0.4-1,1S5,74.8,5.5,74.8z"/>
		<path d="M39.2,66.6h13.1c0.6,0,1-0.4,1-1s-0.4-1-1-1H39.2c-0.6,0-1,0.4-1,1S38.7,66.6,39.2,66.6z"/>
		<path d="M39.2,70.7h13.1c0.6,0,1-0.4,1-1s-0.4-1-1-1H39.2c-0.6,0-1,0.4-1,1S38.7,70.7,39.2,70.7z"/>
		<path d="M39.2,74.8h13.1c0.6,0,1-0.4,1-1s-0.4-1-1-1H39.2c-0.6,0-1,0.4-1,1S38.7,74.8,39.2,74.8z"/>
		<path d="M72.9,66.6H86c0.6,0,1-0.4,1-1s-0.4-1-1-1H72.9c-0.6,0-1,0.4-1,1S72.3,66.6,72.9,66.6z"/>
		<path d="M72.9,70.7H86c0.6,0,1-0.4,1-1s-0.4-1-1-1H72.9c-0.6,0-1,0.4-1,1S72.3,70.7,72.9,70.7z"/>
		<path d="M72.9,74.8H86c0.6,0,1-0.4,1-1s-0.4-1-1-1H72.9c-0.6,0-1,0.4-1,1S72.3,74.8,72.9,74.8z"/>
		<path d="M90.7,60H82v-8.3c0-0.6-0.4-1-1-1H50.5c-0.4-1.8-1.9-3.2-3.7-3.6v-5.4h24.8c0.6,0,1-0.4,1-1V10.3c0-0.6-0.4-1-1-1h-1.7
			V3.6c0-0.6-0.4-1-1-1H37.6L36,0.4C35.9,0.2,35.6,0,35.2,0H20.1c-0.6,0-1,0.4-1,1v39.7c0,0.6,0.4,1,1,1h24.8v5.4
			c-1.8,0.4-3.2,1.8-3.7,3.6H10.5c-0.6,0-1,0.4-1,1V60H1c-0.6,0-1,0.4-1,1v17.4c0,0.6,0.4,1,1,1h22.4c0.6,0,1-0.4,1-1V61
			c0-0.6-0.4-1-1-1H11.5v-7.3h29.6c0.3,2,1.8,3.5,3.8,3.9V60H34.7c-0.6,0-1,0.4-1,1v17.4c0,0.6,0.4,1,1,1H57c0.6,0,1-0.4,1-1V61
			c0-0.6-0.4-1-1-1H46.8v-3.4c1.9-0.4,3.4-2,3.8-3.9H80V60H68.3c-0.6,0-1,0.4-1,1v17.4c0,0.6,0.4,1,1,1h22.4c0.6,0,1-0.4,1-1V61
			C91.7,60.4,91.2,60,90.7,60z M22.4,62v15.4H2V62H22.4z M67.9,4.6v4.8H42.3L39,4.6H67.9z M21.1,39.7V2h13.6l6.3,8.9
			c0.2,0.3,0.5,0.4,0.8,0.4h28.8v28.3H21.1z M56,62v15.4H35.7V62H56z M45.8,54.7c-1.6,0-2.9-1.3-2.9-2.9s1.3-2.9,2.9-2.9
			s2.9,1.3,2.9,2.9S47.4,54.7,45.8,54.7z M89.7,77.4H69.3V62h20.4V77.4z"/>
	</g>
</g>
</svg>
