<?xml version="1.0" encoding="utf-8"?>
<!-- Generator: Adobe Illustrator 26.0.0, SVG Export Plug-In . SVG Version: 6.00 Build 0)  -->
<svg version="1.1" id="Capa_1" xmlns="http://www.w3.org/2000/svg" xmlns:xlink="http://www.w3.org/1999/xlink" x="0px" y="0px"
	 viewBox="0 0 82.6 82.6" style="enable-background:new 0 0 82.6 82.6;" xml:space="preserve">
<style type="text/css">
	.st0{fill:#D8BEA2;}
</style>
<g>
	<path class="st0" d="M31.5,18.4c-7.2,0-13.1,5.9-13.1,13.1s5.9,13.1,13.1,13.1s13.1-5.9,13.1-13.1S38.7,18.4,31.5,18.4z M31.5,37.8
		c-3.5,0-6.3-2.8-6.3-6.3s2.8-6.3,6.3-6.3c3.5,0,6.3,2.8,6.3,6.3S35,37.8,31.5,37.8z"/>
	<path class="st0" d="M81.5,63.5c0.1-0.8,0.2-1.7,0.2-2.5c0-0.9-0.1-1.7-0.2-2.5l-6.2-0.9c-0.4-1.5-1-2.9-1.7-4.2l3.7-5
		c-1-1.3-2.3-2.5-3.6-3.6l-5,3.7c-1.3-0.8-2.7-1.4-4.2-1.7l-0.9-6.2c-0.8-0.1-1.7-0.2-2.5-0.2c-0.9,0-1.7,0.1-2.5,0.2l-0.9,6.2
		c-1.5,0.4-2.9,1-4.2,1.7l-5-3.7c-1.3,1-2.5,2.3-3.6,3.6l3.7,5c-0.8,1.3-1.4,2.7-1.7,4.2l-6.2,0.9c-0.1,0.8-0.2,1.7-0.2,2.5
		c0,0.9,0.1,1.7,0.2,2.5l6.2,0.9c0.4,1.5,1,2.9,1.7,4.2l-3.7,5c1,1.3,2.3,2.5,3.6,3.6l5-3.7c1.3,0.8,2.7,1.4,4.2,1.7l0.9,6.2
		c0.8,0.1,1.7,0.2,2.5,0.2c0.9,0,1.7-0.1,2.5-0.2l0.9-6.2c1.5-0.4,2.9-1,4.2-1.7l5,3.7c1.3-1,2.5-2.3,3.6-3.6l-3.7-5
		c0.8-1.3,1.4-2.7,1.7-4.2L81.5,63.5z M60.9,67.3c-3.5,0-6.3-2.8-6.3-6.3c0-3.5,2.8-6.3,6.3-6.3c3.5,0,6.3,2.8,6.3,6.3
		C67.2,64.4,64.4,67.3,60.9,67.3z"/>
	<path d="M31.5,38.8c-4,0-7.3-3.3-7.3-7.3s3.3-7.3,7.3-7.3s7.3,3.3,7.3,7.3S35.5,38.8,31.5,38.8z M31.5,26.2c-2.9,0-5.3,2.4-5.3,5.3
		c0,2.9,2.4,5.3,5.3,5.3s5.3-2.4,5.3-5.3C36.8,28.6,34.4,26.2,31.5,26.2z"/>
	<path d="M60.9,68.3c-4,0-7.3-3.3-7.3-7.3s3.3-7.3,7.3-7.3s7.3,3.3,7.3,7.3c0,1.1-0.2,2.1-0.7,3c-0.2,0.5-0.8,0.7-1.3,0.5
		c-0.5-0.2-0.7-0.8-0.5-1.3c0.3-0.7,0.5-1.4,0.5-2.2c0-2.9-2.4-5.3-5.3-5.3s-5.3,2.4-5.3,5.3c0,2.9,2.4,5.3,5.3,5.3
		c1,0,1.9-0.3,2.7-0.7c0.5-0.3,1.1-0.1,1.4,0.4c0.3,0.5,0.1,1.1-0.4,1.4C63.5,67.9,62.2,68.3,60.9,68.3z"/>
	<path d="M31.5,45.6c-7.8,0-14.1-6.3-14.1-14.1c0-3.1,1-6,2.8-8.4c0.3-0.4,1-0.5,1.4-0.2s0.5,1,0.2,1.4c-1.6,2.1-2.4,4.6-2.4,7.2
		c0,6.7,5.4,12.1,12.1,12.1c2.6,0,5.1-0.8,7.2-2.4c0.4-0.3,1.1-0.2,1.4,0.2c0.3,0.4,0.2,1.1-0.2,1.4C37.5,44.6,34.6,45.6,31.5,45.6z
		"/>
	<path d="M42.2,40c-0.2,0-0.4-0.1-0.6-0.2c-0.5-0.3-0.6-0.9-0.2-1.4c1.4-2,2.2-4.4,2.2-6.9c0-6.7-5.4-12.1-12.1-12.1
		c-2.5,0-5,0.8-7,2.2c-0.4,0.3-1.1,0.2-1.4-0.2c-0.3-0.4-0.2-1.1,0.2-1.4c2.4-1.7,5.2-2.6,8.2-2.6c7.8,0,14.1,6.3,14.1,14.1
		c0,2.9-0.9,5.7-2.5,8C42.9,39.8,42.5,40,42.2,40z"/>
	<path d="M31.5,63c-1.3,0-2.5-0.1-3.9-0.2c-0.4-0.1-0.8-0.4-0.9-0.8l-1.3-8.4c-1.8-0.5-3.6-1.2-5.3-2.2l-6.9,5
		c-0.4,0.3-0.9,0.3-1.2,0c-2-1.6-3.9-3.4-5.5-5.5c-0.3-0.4-0.3-0.8,0-1.2l5-6.9c-0.9-1.7-1.7-3.4-2.2-5.3l-8.4-1.3
		c-0.4-0.1-0.8-0.4-0.8-0.9C0.1,34,0,32.7,0,31.5c0-1.3,0.1-2.5,0.2-3.9c0.1-0.4,0.4-0.8,0.8-0.9l8.4-1.3c0.5-1.8,1.2-3.6,2.2-5.3
		l-5-6.9c-0.3-0.4-0.3-0.9,0-1.2c1.6-2,3.4-3.9,5.5-5.5c0.4-0.3,0.8-0.3,1.2,0l6.9,5c1.7-0.9,3.4-1.7,5.3-2.2l1.3-8.4
		c0.1-0.4,0.4-0.8,0.9-0.8c2.7-0.3,5-0.3,7.7,0c0.4,0.1,0.8,0.4,0.9,0.8l1.3,8.4c1.8,0.5,3.6,1.2,5.3,2.2l6.9-5
		c0.4-0.3,0.9-0.3,1.2,0c2,1.6,3.9,3.4,5.5,5.5c0.3,0.4,0.3,0.8,0,1.2l-5,6.9c0.9,1.7,1.7,3.4,2.2,5.3l8.4,1.3
		c0.4,0.1,0.8,0.4,0.8,0.9c0.2,1.3,0.2,2.6,0.2,3.9c0,1.2-0.1,2.5-0.2,3.9c-0.1,0.4-0.4,0.8-0.8,0.9l-8.4,1.3
		c-0.2,0.7-0.4,1.4-0.7,2.1L51,38.9c0.3-0.8,0.6-1.6,0.8-2.5c0.1-0.4,0.4-0.7,0.8-0.8l8.3-1.3c0.1-1,0.1-1.9,0.1-2.9s0-1.9-0.1-2.9
		l-8.3-1.3c-0.4-0.1-0.7-0.4-0.8-0.8c-0.5-2.1-1.3-4.1-2.5-5.9c-0.2-0.3-0.2-0.8,0-1.1l5-6.8c-1.2-1.5-2.6-2.8-4.1-4.1l-6.8,5
		c-0.3,0.2-0.8,0.3-1.1,0c-1.8-1.1-3.8-1.9-5.9-2.5c-0.4-0.1-0.7-0.4-0.8-0.8l-1.3-8.3c-2-0.2-3.8-0.2-5.7,0l-1.3,8.3
		c-0.1,0.4-0.4,0.7-0.8,0.8c-2.1,0.5-4.1,1.3-5.9,2.5c-0.3,0.2-0.8,0.2-1.1,0l-6.8-5c-1.5,1.2-2.8,2.6-4.1,4.1l5,6.8
		c0.2,0.3,0.3,0.8,0,1.1c-1.1,1.8-1.9,3.8-2.5,5.9c-0.1,0.4-0.4,0.7-0.8,0.8l-8.3,1.3C2,29.6,2,30.6,2,31.5s0,1.9,0.1,2.9l8.3,1.3
		c0.4,0.1,0.7,0.4,0.8,0.8c0.5,2.1,1.3,4.1,2.5,5.9c0.2,0.3,0.2,0.8,0,1.1l-5,6.8c1.2,1.5,2.6,2.8,4.1,4.1l6.8-5
		c0.3-0.2,0.8-0.3,1.1,0c1.8,1.1,3.8,1.9,5.9,2.5c0.4,0.1,0.7,0.4,0.8,0.8l1.3,8.3c2,0.2,3.8,0.2,5.7,0l1.3-8.3
		c0.1-0.4,0.4-0.7,0.8-0.8c1.2-0.3,2.3-0.7,3.4-1.1l0.8,1.8c-1,0.4-2,0.8-3.1,1.1l-1.3,8.4c-0.1,0.4-0.4,0.8-0.9,0.8
		C34,62.9,32.8,63,31.5,63z"/>
	<path d="M60.9,82.6c-0.9,0-1.8-0.1-2.7-0.2c-0.4-0.1-0.8-0.4-0.9-0.8l-0.8-5.5c-1.1-0.3-2.2-0.8-3.3-1.4l-4.5,3.3
		c-0.4,0.3-0.9,0.3-1.2,0c-1.4-1.1-2.7-2.4-3.8-3.8c-0.3-0.4-0.3-0.8,0-1.2l3.3-4.5c-0.6-1-1-2.1-1.4-3.3l-5.5-0.9
		c-0.4-0.1-0.8-0.4-0.8-0.9c-0.1-0.9-0.2-1.8-0.2-2.7c0-0.9,0.1-1.8,0.2-2.7c0.1-0.4,0.4-0.8,0.8-0.9l2-0.3c0.5-0.1,1.1,0.3,1.1,0.8
		s-0.3,1.1-0.8,1.1l-1.2,0.2c0,0.6-0.1,1.1-0.1,1.7s0,1.1,0.1,1.7l5.4,0.8c0.4,0.1,0.7,0.4,0.8,0.8c0.3,1.4,0.9,2.7,1.6,3.9
		c0.2,0.3,0.2,0.8,0,1.1l-3.2,4.4c0.7,0.9,1.5,1.6,2.4,2.4l4.4-3.2c0.3-0.2,0.8-0.3,1.1,0c1.2,0.7,2.5,1.3,3.9,1.6
		c0.4,0.1,0.7,0.4,0.8,0.8l0.8,5.4c1.1,0.1,2.2,0.1,3.3,0l0.8-5.4c0.1-0.4,0.4-0.7,0.8-0.8c1.4-0.3,2.7-0.9,3.9-1.6
		c0.3-0.2,0.8-0.2,1.1,0l4.4,3.2c0.9-0.7,1.6-1.5,2.4-2.4l-3.2-4.4c-0.2-0.3-0.3-0.8,0-1.1c0.7-1.2,1.3-2.5,1.6-3.9
		c0.1-0.4,0.4-0.7,0.8-0.8l5.4-0.8c0-0.6,0.1-1.1,0.1-1.7s0-1.1-0.1-1.7l-5.4-0.8c-0.4-0.1-0.7-0.4-0.8-0.8
		c-0.3-1.4-0.9-2.7-1.6-3.9c-0.2-0.3-0.2-0.8,0-1.1l3.2-4.4c-0.7-0.9-1.5-1.6-2.4-2.4l-4.4,3.2c-0.3,0.2-0.8,0.3-1.1,0
		c-1.2-0.7-2.5-1.3-3.9-1.6c-0.4-0.1-0.7-0.4-0.8-0.8l-0.8-5.4c-1.1-0.1-2.2-0.1-3.3,0l-0.8,5.4c-0.1,0.4-0.4,0.7-0.8,0.8
		c-1.4,0.3-2.7,0.9-3.9,1.6c-0.3,0.2-0.8,0.2-1.1,0l-4.4-3.2c-0.9,0.7-1.6,1.5-2.4,2.4l3.2,4.4c0.2,0.3,0.3,0.8,0,1.1
		c-0.7,1.2-1.3,2.5-1.6,3.9c-0.1,0.5-0.7,0.9-1.2,0.7c-0.5-0.1-0.9-0.7-0.7-1.2c0.3-1.4,0.8-2.7,1.5-3.9l-3.3-4.5
		c-0.3-0.4-0.3-0.9,0-1.2c1.1-1.4,2.4-2.7,3.8-3.8c0.4-0.3,0.8-0.3,1.2,0l4.5,3.3c1-0.6,2.1-1,3.3-1.4l0.9-5.5
		c0.1-0.4,0.4-0.8,0.9-0.8c1.9-0.2,3.5-0.2,5.3,0c0.4,0.1,0.8,0.4,0.9,0.8l0.9,5.5c1.1,0.3,2.2,0.8,3.3,1.4l4.5-3.3
		c0.4-0.3,0.9-0.3,1.2,0c1.4,1.1,2.7,2.4,3.8,3.8c0.3,0.4,0.3,0.8,0,1.2l-3.3,4.5c0.6,1,1,2.1,1.4,3.3l5.5,0.8
		c0.4,0.1,0.8,0.4,0.8,0.9c0.1,0.9,0.2,1.8,0.2,2.7c0,0.9-0.1,1.8-0.2,2.7c-0.1,0.4-0.4,0.8-0.8,0.9l-5.5,0.9
		c-0.3,1.1-0.8,2.2-1.4,3.3l3.3,4.5c0.3,0.4,0.3,0.9,0,1.2c-1.1,1.4-2.4,2.7-3.8,3.8c-0.4,0.3-0.8,0.3-1.2,0l-4.5-3.3
		c-1,0.6-2.1,1-3.3,1.4l-0.8,5.5c-0.1,0.4-0.4,0.8-0.9,0.8C62.7,82.6,61.8,82.6,60.9,82.6z"/>
</g>
</svg>
