<?xml version="1.0" encoding="utf-8"?>
<!-- Generator: Adobe Illustrator 26.0.0, SVG Export Plug-In . SVG Version: 6.00 Build 0)  -->
<svg version="1.1" id="Capa_1" xmlns="http://www.w3.org/2000/svg" xmlns:xlink="http://www.w3.org/1999/xlink" x="0px" y="0px"
	 viewBox="0 0 35.8 35.5" style="enable-background:new 0 0 35.8 35.5;" xml:space="preserve">
<style type="text/css">
	.st0{fill:#D8BEA2;}
</style>
<g>
	<path class="st0" d="M28.2,34.5h6.7c0-9.3-7.6-16.9-16.9-16.9S1,25.2,1,34.5h18.2"/>
	<path d="M22.7,17.3c2.7-1.6,4.5-4.6,4.5-8c0-5.1-4.2-9.3-9.3-9.3S8.6,4.2,8.6,9.3c0,3.4,1.8,6.3,4.5,8C5.6,19.4,0,26.3,0,34.5
		c0,0.6,0.4,1,1,1h18.2c0.6,0,1-0.4,1-1s-0.4-1-1-1H2c0.5-8.3,7.4-14.9,15.9-14.9s15.4,6.6,15.9,14.9h-5.6c-0.6,0-1,0.4-1,1
		s0.4,1,1,1h6.7c0.6,0,1-0.4,1-1C35.8,26.3,30.3,19.4,22.7,17.3z M10.6,9.3c0-4,3.3-7.3,7.3-7.3s7.3,3.3,7.3,7.3s-3.3,7.3-7.3,7.3
		S10.6,13.3,10.6,9.3z"/>
</g>
</svg>
