<?xml version="1.0" encoding="utf-8"?>
<!-- Generator: Adobe Illustrator 26.0.0, SVG Export Plug-In . SVG Version: 6.00 Build 0)  -->
<svg version="1.1" id="Capa_1" xmlns="http://www.w3.org/2000/svg" xmlns:xlink="http://www.w3.org/1999/xlink" x="0px" y="0px"
	 viewBox="0 0 90.4 62.2" style="enable-background:new 0 0 90.4 62.2;" xml:space="preserve">
<style type="text/css">
	.st0{fill:#FFFFFF;}
	.st1{fill:#1D1D1B;}
	.st2{fill:#35A8E0;}
	.st3{fill:#ECECEC;}
	.st4{fill:#F8B133;}
	.st5{fill:#93C01F;}
	.st6{fill:#D8BEA1;}
</style>
<path class="st0" d="M86.8,61H3.8c-1.4,0-2.5-1.1-2.5-2.5V3.5C1.3,2.1,2.4,1,3.8,1h82.9c1.4,0,2.5,1.1,2.5,2.5v54.9
	C89.3,59.8,88.2,61,86.8,61z"/>
<g>
	<path class="st1" d="M86.7,62.2H3.8c-2.1,0-3.8-1.7-3.8-3.8V3.8C0,1.7,1.7,0,3.8,0h82.9c2.1,0,3.8,1.7,3.8,3.8v54.7
		C90.4,60.5,88.8,62.2,86.7,62.2z M3.8,2C2.8,2,2,2.8,2,3.8v54.7c0,1,0.8,1.8,1.8,1.8h82.9c1,0,1.8-0.8,1.8-1.8V3.8
		c0-1-0.8-1.8-1.8-1.8H3.8z"/>
	<path class="st2" d="M16.9,18.9H6.8c-0.6,0-1.1-0.5-1.1-1.1v-5.4c0-0.6,0.5-1.1,1.1-1.1h10.1c0.6,0,1.1,0.5,1.1,1.1v5.4
		C18,18.4,17.5,18.9,16.9,18.9z"/>
	<g>
		<path class="st3" d="M33.6,18.9H23.5c-0.6,0-1.1-0.5-1.1-1.1v-5.4c0-0.6,0.5-1.1,1.1-1.1h10.1c0.6,0,1.1,0.5,1.1,1.1v5.4
			C34.7,18.4,34.2,18.9,33.6,18.9z"/>
		<path class="st1" d="M33.6,19.9H23.5c-1.2,0-2.1-0.9-2.1-2.1v-5.4c0-1.2,0.9-2.1,2.1-2.1h10.1c1.2,0,2.1,0.9,2.1,2.1v5.4
			C35.7,19,34.7,19.9,33.6,19.9z M23.5,12.4C23.4,12.4,23.4,12.4,23.5,12.4l-0.1,5.5c0,0.1,0,0.1,0.1,0.1h10.1c0.1,0,0.1,0,0.1-0.1
			v-5.4c0-0.1,0-0.1-0.1-0.1H23.5z"/>
	</g>
	<g>
		<path class="st3" d="M50.3,18.9H40.2c-0.6,0-1.1-0.5-1.1-1.1v-5.4c0-0.6,0.5-1.1,1.1-1.1h10.1c0.6,0,1.1,0.5,1.1,1.1v5.4
			C51.4,18.4,50.9,18.9,50.3,18.9z"/>
		<path class="st1" d="M50.3,19.9H40.2c-1.2,0-2.1-0.9-2.1-2.1v-5.4c0-1.2,0.9-2.1,2.1-2.1h10.1c1.2,0,2.1,0.9,2.1,2.1v5.4
			C52.4,19,51.4,19.9,50.3,19.9z M40.2,12.4C40.1,12.4,40.1,12.4,40.2,12.4l-0.1,5.5c0,0.1,0,0.1,0.1,0.1h10.1c0.1,0,0.1,0,0.1-0.1
			v-5.4c0-0.1,0-0.1-0.1-0.1H40.2z"/>
	</g>
	<g>
		<path class="st3" d="M67,18.9H56.9c-0.6,0-1.1-0.5-1.1-1.1v-5.4c0-0.6,0.5-1.1,1.1-1.1H67c0.6,0,1.1,0.5,1.1,1.1v5.4
			C68.1,18.4,67.6,18.9,67,18.9z"/>
		<path class="st1" d="M67,19.9H56.9c-1.2,0-2.1-0.9-2.1-2.1v-5.4c0-1.2,0.9-2.1,2.1-2.1H67c1.2,0,2.1,0.9,2.1,2.1v5.4
			C69.1,19,68.1,19.9,67,19.9z M56.9,12.4C56.8,12.4,56.8,12.4,56.9,12.4l-0.1,5.5c0,0.1,0,0.1,0.1,0.1H67c0.1,0,0.1,0,0.1-0.1v-5.4
			c0-0.1,0-0.1-0.1-0.1H56.9z"/>
	</g>
	<path class="st4" d="M16.9,31.4H6.8c-0.6,0-1.1-0.5-1.1-1.1V25c0-0.6,0.5-1.1,1.1-1.1h10.1c0.6,0,1.1,0.5,1.1,1.1v5.4
		C18,31,17.5,31.4,16.9,31.4z"/>
	<path class="st1" d="M16.9,32.4H6.8c-1.2,0-2.1-0.9-2.1-2.1V25c0-1.2,0.9-2.1,2.1-2.1h10.1c1.2,0,2.1,0.9,2.1,2.1v5.4
		C19,31.5,18,32.4,16.9,32.4z M6.8,24.9C6.7,24.9,6.7,24.9,6.8,24.9l-0.1,5.5c0,0.1,0,0.1,0.1,0.1h10.1c0,0,0.1,0,0.1-0.1V25
		c0-0.1,0-0.1-0.1-0.1H6.8z"/>
	<g>
		<path class="st3" d="M33.6,31.4H23.5c-0.6,0-1.1-0.5-1.1-1.1V25c0-0.6,0.5-1.1,1.1-1.1h10.1c0.6,0,1.1,0.5,1.1,1.1v5.4
			C34.7,31,34.2,31.4,33.6,31.4z"/>
		<path class="st1" d="M33.6,32.4H23.5c-1.2,0-2.1-0.9-2.1-2.1V25c0-1.2,0.9-2.1,2.1-2.1h10.1c1.2,0,2.1,0.9,2.1,2.1v5.4
			C35.7,31.5,34.7,32.4,33.6,32.4z M23.5,24.9C23.4,24.9,23.4,24.9,23.5,24.9l-0.1,5.5c0,0.1,0,0.1,0.1,0.1h10.1
			c0.1,0,0.1,0,0.1-0.1V25c0-0.1,0-0.1-0.1-0.1H23.5z"/>
	</g>
	<g>
		<path class="st3" d="M50.3,31.4H40.2c-0.6,0-1.1-0.5-1.1-1.1V25c0-0.6,0.5-1.1,1.1-1.1h10.1c0.6,0,1.1,0.5,1.1,1.1v5.4
			C51.4,31,50.9,31.4,50.3,31.4z"/>
		<path class="st1" d="M50.3,32.4H40.2c-1.2,0-2.1-0.9-2.1-2.1V25c0-1.2,0.9-2.1,2.1-2.1h10.1c1.2,0,2.1,0.9,2.1,2.1v5.4
			C52.4,31.5,51.4,32.4,50.3,32.4z M40.2,24.9C40.1,24.9,40.1,24.9,40.2,24.9l-0.1,5.5c0,0.1,0,0.1,0.1,0.1h10.1
			c0.1,0,0.1,0,0.1-0.1V25c0-0.1,0-0.1-0.1-0.1H40.2z"/>
	</g>
	<g>
		<path class="st3" d="M67,31.4H56.9c-0.6,0-1.1-0.5-1.1-1.1V25c0-0.6,0.5-1.1,1.1-1.1H67c0.6,0,1.1,0.5,1.1,1.1v5.4
			C68.1,31,67.6,31.4,67,31.4z"/>
		<path class="st1" d="M67,32.4H56.9c-1.2,0-2.1-0.9-2.1-2.1V25c0-1.2,0.9-2.1,2.1-2.1H67c1.2,0,2.1,0.9,2.1,2.1v5.4
			C69.1,31.5,68.1,32.4,67,32.4z M56.9,24.9C56.8,24.9,56.8,24.9,56.9,24.9l-0.1,5.5c0,0.1,0,0.1,0.1,0.1H67c0.1,0,0.1,0,0.1-0.1V25
			c0-0.1,0-0.1-0.1-0.1H56.9z"/>
	</g>
	<path class="st5" d="M16.9,43.9H6.8c-0.6,0-1.1-0.5-1.1-1.1v-5.4c0-0.6,0.5-1.1,1.1-1.1h10.1c0.6,0,1.1,0.5,1.1,1.1v5.4
		C18,43.5,17.5,43.9,16.9,43.9z"/>
	<path class="st1" d="M16.9,44.9H6.8c-1.2,0-2.1-0.9-2.1-2.1v-5.4c0-1.2,0.9-2.1,2.1-2.1h10.1c1.2,0,2.1,0.9,2.1,2.1v5.4
		C19,44,18,44.9,16.9,44.9z M6.8,37.4C6.7,37.4,6.7,37.4,6.8,37.4l-0.1,5.5c0,0.1,0,0.1,0.1,0.1h10.1c0,0,0.1,0,0.1-0.1v-5.4
		c0-0.1,0-0.1-0.1-0.1H6.8z"/>
	<g>
		<path class="st3" d="M33.6,43.9H23.5c-0.6,0-1.1-0.5-1.1-1.1v-5.4c0-0.6,0.5-1.1,1.1-1.1h10.1c0.6,0,1.1,0.5,1.1,1.1v5.4
			C34.7,43.5,34.2,43.9,33.6,43.9z"/>
		<path class="st1" d="M33.6,44.9H23.5c-1.2,0-2.1-0.9-2.1-2.1v-5.4c0-1.2,0.9-2.1,2.1-2.1h10.1c1.2,0,2.1,0.9,2.1,2.1v5.4
			C35.7,44,34.7,44.9,33.6,44.9z M23.5,37.4C23.4,37.4,23.4,37.4,23.5,37.4l-0.1,5.5c0,0.1,0,0.1,0.1,0.1h10.1c0.1,0,0.1,0,0.1-0.1
			v-5.4c0-0.1,0-0.1-0.1-0.1H23.5z"/>
	</g>
	<g>
		<path class="st3" d="M50.3,43.9H40.2c-0.6,0-1.1-0.5-1.1-1.1v-5.4c0-0.6,0.5-1.1,1.1-1.1h10.1c0.6,0,1.1,0.5,1.1,1.1v5.4
			C51.4,43.5,50.9,43.9,50.3,43.9z"/>
		<path class="st1" d="M50.3,44.9H40.2c-1.2,0-2.1-0.9-2.1-2.1v-5.4c0-1.2,0.9-2.1,2.1-2.1h10.1c1.2,0,2.1,0.9,2.1,2.1v5.4
			C52.4,44,51.4,44.9,50.3,44.9z M40.2,37.4C40.1,37.4,40.1,37.4,40.2,37.4l-0.1,5.5c0,0.1,0,0.1,0.1,0.1h10.1c0,0,0.1,0,0.1-0.1
			v-5.4c0-0.1,0-0.1-0.1-0.1H40.2z"/>
	</g>
	<g>
		<path class="st3" d="M66.9,43.9H56.8c-0.6,0-1.1-0.5-1.1-1.1v-5.4c0-0.6,0.5-1.1,1.1-1.1h10.1c0.6,0,1.1,0.5,1.1,1.1v5.4
			C68,43.5,67.5,43.9,66.9,43.9z"/>
		<path class="st1" d="M66.9,44.9H56.8c-1.2,0-2.1-0.9-2.1-2.1v-5.4c0-1.2,0.9-2.1,2.1-2.1h10.1c1.2,0,2.1,0.9,2.1,2.1v5.4
			C69,44,68.1,44.9,66.9,44.9z M56.8,37.4C56.8,37.4,56.8,37.4,56.8,37.4l-0.1,5.5c0,0.1,0,0.1,0.1,0.1h10.1c0.1,0,0.1,0,0.1-0.1
			v-5.4c0-0.1,0-0.1-0.1-0.1H56.8z"/>
	</g>
	<path class="st6" d="M16.9,56.5H6.8c-0.6,0-1.1-0.5-1.1-1.1V50c0-0.6,0.5-1.1,1.1-1.1h10.1c0.6,0,1.1,0.5,1.1,1.1v5.4
		C18,56,17.5,56.5,16.9,56.5z"/>
	<path class="st1" d="M16.9,57.5H6.8c-1.2,0-2.1-0.9-2.1-2.1V50c0-1.2,0.9-2.1,2.1-2.1h10.1c1.2,0,2.1,0.9,2.1,2.1v5.4
		C19,56.5,18,57.5,16.9,57.5z M6.8,49.9C6.7,49.9,6.7,49.9,6.8,49.9l-0.1,5.5c0,0.1,0,0.1,0.1,0.1h10.1c0,0,0.1,0,0.1-0.1V50
		c0-0.1,0-0.1-0.1-0.1H6.8z"/>
	<g>
		<path class="st3" d="M33.6,56.5H23.5c-0.6,0-1.1-0.5-1.1-1.1V50c0-0.6,0.5-1.1,1.1-1.1h10.1c0.6,0,1.1,0.5,1.1,1.1v5.4
			C34.7,56,34.2,56.5,33.6,56.5z"/>
		<path class="st1" d="M33.6,57.5H23.5c-1.2,0-2.1-0.9-2.1-2.1V50c0-1.2,0.9-2.1,2.1-2.1h10.1c1.2,0,2.1,0.9,2.1,2.1v5.4
			C35.7,56.5,34.7,57.5,33.6,57.5z M23.5,49.9C23.4,49.9,23.4,49.9,23.5,49.9l-0.1,5.5c0,0.1,0,0.1,0.1,0.1h10.1
			c0.1,0,0.1,0,0.1-0.1V50c0-0.1,0-0.1-0.1-0.1H23.5z"/>
	</g>
	<g>
		<path class="st3" d="M50.3,56.5H40.2c-0.6,0-1.1-0.5-1.1-1.1V50c0-0.6,0.5-1.1,1.1-1.1h10.1c0.6,0,1.1,0.5,1.1,1.1v5.4
			C51.4,56,50.9,56.5,50.3,56.5z"/>
		<path class="st1" d="M50.3,57.5H40.2c-1.2,0-2.1-0.9-2.1-2.1V50c0-1.2,0.9-2.1,2.1-2.1h10.1c1.2,0,2.1,0.9,2.1,2.1v5.4
			C52.4,56.5,51.4,57.5,50.3,57.5z M40.2,49.9C40.1,49.9,40.1,49.9,40.2,49.9l-0.1,5.5c0,0.1,0,0.1,0.1,0.1h10.1c0,0,0.1,0,0.1-0.1
			V50c0-0.1,0-0.1-0.1-0.1H40.2z"/>
	</g>
	<g>
		<path class="st3" d="M66.9,56.5H56.8c-0.6,0-1.1-0.5-1.1-1.1V50c0-0.6,0.5-1.1,1.1-1.1h10.1c0.6,0,1.1,0.5,1.1,1.1v5.4
			C68,56,67.5,56.5,66.9,56.5z"/>
		<path class="st1" d="M66.9,57.5H56.8c-1.2,0-2.1-0.9-2.1-2.1V50c0-1.2,0.9-2.1,2.1-2.1h10.1c1.2,0,2.1,0.9,2.1,2.1v5.4
			C69,56.5,68.1,57.5,66.9,57.5z M56.8,49.9C56.8,49.9,56.8,49.9,56.8,49.9l-0.1,5.5c0,0.1,0,0.1,0.1,0.1h10.1c0.1,0,0.1,0,0.1-0.1
			V50c0-0.1,0-0.1-0.1-0.1H56.8z"/>
	</g>
	<g>
		<path class="st3" d="M83.7,18.9H73.6c-0.6,0-1.1-0.5-1.1-1.1v-5.4c0-0.6,0.5-1.1,1.1-1.1h10.1c0.6,0,1.1,0.5,1.1,1.1v5.4
			C84.7,18.4,84.3,18.9,83.7,18.9z"/>
		<path class="st1" d="M83.7,19.9H73.6c-1.2,0-2.1-0.9-2.1-2.1v-5.4c0-1.2,0.9-2.1,2.1-2.1h10.1c1.2,0,2.1,0.9,2.1,2.1v5.4
			C85.7,19,84.8,19.9,83.7,19.9z M73.6,12.4C73.5,12.4,73.5,12.4,73.6,12.4l-0.1,5.5c0,0.1,0,0.1,0.1,0.1h10.1c0,0,0.1,0,0.1-0.1
			v-5.4c0-0.1,0-0.1-0.1-0.1H73.6z"/>
	</g>
	<g>
		<path class="st3" d="M83.7,31.4H73.6c-0.6,0-1.1-0.5-1.1-1.1V25c0-0.6,0.5-1.1,1.1-1.1h10.1c0.6,0,1.1,0.5,1.1,1.1v5.4
			C84.7,31,84.3,31.4,83.7,31.4z"/>
		<path class="st1" d="M83.7,32.4H73.6c-1.2,0-2.1-0.9-2.1-2.1V25c0-1.2,0.9-2.1,2.1-2.1h10.1c1.2,0,2.1,0.9,2.1,2.1v5.4
			C85.7,31.5,84.8,32.4,83.7,32.4z M73.6,24.9C73.5,24.9,73.5,24.9,73.6,24.9l-0.1,5.5c0,0.1,0,0.1,0.1,0.1h10.1c0,0,0.1,0,0.1-0.1
			V25c0-0.1,0-0.1-0.1-0.1H73.6z"/>
	</g>
	<g>
		<path class="st3" d="M83.7,43.9H73.6c-0.6,0-1.1-0.5-1.1-1.1v-5.4c0-0.6,0.5-1.1,1.1-1.1h10.1c0.6,0,1.1,0.5,1.1,1.1v5.4
			C84.7,43.5,84.3,43.9,83.7,43.9z"/>
		<path class="st1" d="M83.7,44.9H73.6c-1.2,0-2.1-0.9-2.1-2.1v-5.4c0-1.2,0.9-2.1,2.1-2.1h10.1c1.2,0,2.1,0.9,2.1,2.1v5.4
			C85.7,44,84.8,44.9,83.7,44.9z M73.6,37.4C73.5,37.4,73.5,37.4,73.6,37.4l-0.1,5.5c0,0.1,0,0.1,0.1,0.1h10.1c0,0,0.1,0,0.1-0.1
			v-5.4c0-0.1,0-0.1-0.1-0.1H73.6z"/>
	</g>
	<g>
		<path class="st3" d="M83.7,56.5H73.6c-0.6,0-1.1-0.5-1.1-1.1V50c0-0.6,0.5-1.1,1.1-1.1h10.1c0.6,0,1.1,0.5,1.1,1.1v5.4
			C84.7,56,84.3,56.5,83.7,56.5z"/>
		<path class="st1" d="M83.7,57.5H73.6c-1.2,0-2.1-0.9-2.1-2.1V50c0-1.2,0.9-2.1,2.1-2.1h10.1c1.2,0,2.1,0.9,2.1,2.1v5.4
			C85.7,56.5,84.8,57.5,83.7,57.5z M73.6,49.9C73.5,49.9,73.5,49.9,73.6,49.9l-0.1,5.5c0,0.1,0,0.1,0.1,0.1h10.1c0,0,0.1,0,0.1-0.1
			V50c0-0.1,0-0.1-0.1-0.1H73.6z"/>
	</g>
	<path class="st6" d="M30,5.1V4c0-0.1-0.2-0.2-0.5-0.2h-2C27.2,3.8,27,3.9,27,4v1.1c0,0.1-0.2,0.2-0.5,0.2h-2.2
		c-0.4,0-0.6,0.2-0.4,0.3l4.2,3.4c0.2,0.2,0.7,0.2,0.9,0l4.2-3.4c0.2-0.2,0-0.3-0.4-0.3h-2.2C30.2,5.4,30,5.3,30,5.1z"/>
	<path class="st6" d="M46.7,5.1V4c0-0.1-0.2-0.2-0.5-0.2h-2c-0.3,0-0.5,0.1-0.5,0.2v1.1c0,0.1-0.2,0.2-0.5,0.2H41
		c-0.4,0-0.6,0.2-0.4,0.3l4.2,3.4c0.2,0.2,0.7,0.2,0.9,0l4.2-3.4c0.2-0.2,0-0.3-0.4-0.3h-2.2C46.9,5.4,46.7,5.3,46.7,5.1z"/>
	<path class="st6" d="M63.4,5.1V4c0-0.1-0.2-0.2-0.5-0.2h-2c-0.3,0-0.5,0.1-0.5,0.2v1.1c0,0.1-0.2,0.2-0.5,0.2h-2.2
		c-0.4,0-0.6,0.2-0.4,0.3l4.2,3.4c0.2,0.2,0.7,0.2,0.9,0l4.2-3.4c0.2-0.2,0-0.3-0.4-0.3h-2.2C63.6,5.4,63.4,5.3,63.4,5.1z"/>
	<path class="st6" d="M80.1,5.1V4c0-0.1-0.2-0.2-0.5-0.2h-2c-0.3,0-0.5,0.1-0.5,0.2v1.1c0,0.1-0.2,0.2-0.5,0.2h-2.2
		c-0.4,0-0.6,0.2-0.4,0.3l4.2,3.4c0.2,0.2,0.7,0.2,0.9,0l4.2-3.4c0.2-0.2,0-0.3-0.4-0.3h-2.2C80.3,5.4,80.1,5.3,80.1,5.1z"/>
	<path class="st1" d="M16.9,10.4H6.8c-1.2,0-2.1,0.9-2.1,2.1v5.4c0,1.2,0.9,2.1,2.1,2.1h0.6c0.6,0,1-0.4,1-1v0c0-0.6-0.4-1-1-1H6.8
		c-0.1,0-0.1,0-0.1-0.1v-5.4c0-0.1,0-0.1,0.1-0.1h10.1c0,0,0.1,0,0.1,0.1v5.4c0,0.1,0,0.1-0.1,0.1h-5c-0.6,0-1,0.4-1,1v0
		c0,0.6,0.4,1,1,1h5c1.2,0,2.1-0.9,2.1-2.1v-5.4C19,11.3,18,10.4,16.9,10.4z"/>
</g>
</svg>
