<?xml version="1.0" encoding="utf-8"?>
<!-- Generator: Adobe Illustrator 26.0.0, SVG Export Plug-In . SVG Version: 6.00 Build 0)  -->
<svg version="1.1" id="Capa_1" xmlns="http://www.w3.org/2000/svg" xmlns:xlink="http://www.w3.org/1999/xlink" x="0px" y="0px"
	 viewBox="0 0 82 80.5" style="enable-background:new 0 0 82 80.5;" xml:space="preserve">
<style type="text/css">
	.st0{fill:#020203;}
	.st1{fill:#D8BFA3;}
</style>
<g>
	<g>
		<rect x="63.5" y="18.5" class="st0" width="3" height="3"/>
		<rect x="69.5" y="18.5" class="st0" width="3" height="3"/>
		<rect x="69.5" y="24.4" class="st0" width="3" height="3"/>
		<rect x="69.5" y="30.3" class="st0" width="3" height="3"/>
		<rect x="69.5" y="36.2" class="st0" width="3" height="3"/>
		<rect x="69.5" y="42.1" class="st0" width="3" height="3"/>
		<rect x="69.5" y="48" class="st0" width="3" height="3"/>
		<rect x="15.5" y="18.5" transform="matrix(-1 -4.486867e-11 4.486867e-11 -1 34 40)" class="st0" width="3" height="3"/>
		<rect x="9.5" y="18.5" transform="matrix(-1 -4.486867e-11 4.486867e-11 -1 22 40)" class="st0" width="3" height="3"/>
		<rect x="9.5" y="24.4" transform="matrix(-1 -4.486867e-11 4.486867e-11 -1 22 51.8)" class="st0" width="3" height="3"/>
		<rect x="9.5" y="30.3" transform="matrix(-1 -4.426205e-11 4.426205e-11 -1 22 63.6)" class="st0" width="3" height="3"/>
		<rect x="9.5" y="36.2" transform="matrix(-1 -4.486867e-11 4.486867e-11 -1 22 75.4)" class="st0" width="3" height="3"/>
		<rect x="9.5" y="42.1" transform="matrix(-1 -4.486867e-11 4.486867e-11 -1 22 87.2)" class="st0" width="3" height="3"/>
		<rect x="9.5" y="48" transform="matrix(-1 -4.486867e-11 4.486867e-11 -1 22 99)" class="st0" width="3" height="3"/>
		<rect x="39.5" y="42.1" transform="matrix(-1 -4.486867e-11 4.486867e-11 -1 82 87.2)" class="st0" width="3" height="3"/>
		<rect x="39.5" y="48" transform="matrix(-1 -4.486867e-11 4.486867e-11 -1 82 99)" class="st0" width="3" height="3"/>
		<g>
			<path class="st0" d="M14.9,66.2c1.6-1.2,2.6-3.1,2.6-5.2c0-3.6-2.9-6.5-6.5-6.5S4.5,57.4,4.5,61c0,2.1,1,4,2.6,5.2
				C3,67.8,0,71.8,0,76.5v3c0,0.6,0.4,1,1,1h20c0.6,0,1-0.4,1-1v-3C22,71.8,19,67.8,14.9,66.2z M6.5,61c0-2.5,2-4.5,4.5-4.5
				s4.5,2,4.5,4.5s-2,4.5-4.5,4.5S6.5,63.5,6.5,61z M20,78.5H2v-2c0-5,4-9,9-9s9,4,9,9V78.5z"/>
			<path class="st0" d="M44.9,66.2c1.6-1.2,2.6-3.1,2.6-5.2c0-3.6-2.9-6.5-6.5-6.5s-6.5,2.9-6.5,6.5c0,2.1,1,4,2.6,5.2
				C33,67.8,30,71.8,30,76.5v3c0,0.6,0.4,1,1,1h20c0.6,0,1-0.4,1-1v-3C52,71.8,49,67.8,44.9,66.2z M36.5,61c0-2.5,2-4.5,4.5-4.5
				s4.5,2,4.5,4.5s-2,4.5-4.5,4.5S36.5,63.5,36.5,61z M50,78.5H32v-2c0-5,4-9,9-9s9,4,9,9V78.5z"/>
			<path class="st0" d="M74.9,66.2c1.6-1.2,2.6-3.1,2.6-5.2c0-3.6-2.9-6.5-6.5-6.5s-6.5,2.9-6.5,6.5c0,2.1,1,4,2.6,5.2
				C63,67.8,60,71.8,60,76.5v3c0,0.6,0.4,1,1,1h20c0.6,0,1-0.4,1-1v-3C82,71.8,79,67.8,74.9,66.2z M66.5,61c0-2.5,2-4.5,4.5-4.5
				s4.5,2,4.5,4.5s-2,4.5-4.5,4.5S66.5,63.5,66.5,61z M80,78.5H62v-2c0-5,4-9,9-9s9,4,9,9V78.5z"/>
			<path class="st0" d="M41,8c-6.6,0-12,5.4-12,12s5.4,12,12,12s12-5.4,12-12S47.6,8,41,8z M41,30c-5.5,0-10-4.5-10-10s4.5-10,10-10
				s10,4.5,10,10S46.5,30,41,30z"/>
			<path class="st0" d="M55.8,27l0.6-1.5c0.1-0.3,0.4-0.5,0.8-0.5H61V15h-3.8c-0.4,0-0.7-0.2-0.8-0.5L55.8,13
				c-0.1-0.3-0.1-0.7,0.2-0.9l2.7-2.7l-7.1-7.1L49,5c-0.2,0.2-0.6,0.3-0.9,0.2l-1.5-0.6C46.2,4.4,46,4.1,46,3.8V0H36v3.8
				c0,0.4-0.2,0.7-0.5,0.8L34,5.2C33.7,5.3,33.3,5.2,33,5l-2.7-2.7l-7.1,7.1L26,12c0.2,0.2,0.3,0.6,0.2,0.9l-0.6,1.5
				c-0.1,0.3-0.4,0.5-0.8,0.5H21v10h3.8c0.4,0,0.7,0.2,0.8,0.5l0.6,1.5c0.1,0.3,0.1,0.7-0.2,0.9l-2.7,2.7l7.1,7.1L33,35
				c0.2-0.2,0.6-0.3,0.9-0.2l1.5,0.6c0.3,0.1,0.5,0.4,0.5,0.8V40h10v-3.8c0-0.4,0.2-0.7,0.5-0.8l1.5-0.6c0.3-0.1,0.7-0.1,0.9,0.2
				l2.7,2.7l7.1-7.1L56,28C55.8,27.7,55.7,27.3,55.8,27z M51.6,34.8l-1.2-1.2c-0.8-0.8-2-1.1-3.1-0.6l-1.5,0.6
				C44.7,34,44,35.1,44,36.2V38h-6v-1.8c0-1.2-0.7-2.2-1.8-2.6L34.8,33c-1.1-0.4-2.3-0.2-3.1,0.6l-1.2,1.2l-4.2-4.2l1.2-1.2
				c0.8-0.8,1.1-2,0.6-3.1l-0.6-1.5C27,23.7,25.9,23,24.8,23H23v-6h1.8c1.2,0,2.2-0.7,2.6-1.8l0.6-1.5c0.4-1.1,0.2-2.3-0.6-3.1
				l-1.2-1.2l4.2-4.2l1.2,1.2c0.8,0.8,2,1.1,3.1,0.6l1.5-0.6C37.3,6,38,4.9,38,3.8V2h6v1.8c0,1.2,0.7,2.2,1.8,2.6L47.2,7
				c1.1,0.4,2.3,0.2,3.1-0.6l1.2-1.2l4.2,4.2l-1.2,1.2c-0.8,0.8-1.1,2-0.6,3.1l0.6,1.5c0.4,1.1,1.5,1.8,2.6,1.8H59v6h-1.8
				c-1.2,0-2.2,0.7-2.6,1.8L54,26.2c-0.4,1.1-0.2,2.3,0.6,3.1l1.2,1.2L51.6,34.8z"/>
			<path class="st0" d="M38,13.2c-0.3-0.2-0.7-0.2-1,0s-0.5,0.5-0.5,0.9v11.5c0,0.4,0.2,0.7,0.5,0.9c0.2,0.1,0.3,0.1,0.5,0.1
				s0.3,0,0.5-0.1l10-5.8c0.3-0.2,0.5-0.5,0.5-0.9S48.3,19.2,48,19L38,13.2z M38.5,23.9v-8.1l7,4L38.5,23.9z"/>
		</g>
	</g>
	<path class="st1" d="M20,78.5H2v-2c0-5,4-9,9-9s9,4,9,9V78.5z"/>
	<path class="st1" d="M50,78.5H32v-2c0-5,4-9,9-9s9,4,9,9V78.5z"/>
	<path class="st1" d="M80,78.5H62v-2c0-5,4-9,9-9s9,4,9,9V78.5z"/>
	<path class="st1" d="M57.1,17c-1.2,0-2.2-0.7-2.6-1.8l-0.6-1.5c-0.4-1.1-0.2-2.3,0.6-3.1l1.2-1.2l-4.2-4.2l-1.2,1.2
		c-0.8,0.8-2,1.1-3.1,0.6l-1.5-0.6c-1.1-0.4-1.8-1.5-1.8-2.6V2h-6v1.8c0,1.2-0.7,2.2-1.8,2.6L34.6,7c-1.1,0.4-2.3,0.2-3.1-0.6
		l-1.2-1.2L26,9.4l1.2,1.2c0.8,0.8,1.1,2,0.6,3.1l-0.6,1.5c-0.4,1.1-1.5,1.8-2.6,1.8h-1.8v6h1.8c1.2,0,2.2,0.7,2.6,1.8l0.6,1.5
		c0.4,1.1,0.2,2.3-0.6,3.1L26,30.6l4.2,4.2l1.2-1.2c0.8-0.8,2-1.1,3.1-0.6l1.5,0.6c1.1,0.4,1.8,1.5,1.8,2.6V38h6v-1.8
		c0-1.2,0.7-2.2,1.8-2.6l1.5-0.6c1.1-0.4,2.3-0.2,3.1,0.6l1.2,1.2l4.2-4.2l-1.2-1.2c-0.8-0.8-1.1-2-0.6-3.1l0.6-1.5
		c0.4-1.1,1.5-1.8,2.6-1.8h1.8v-6H57.1z M40.9,32c-6.6,0-12-5.4-12-12s5.4-12,12-12s12,5.4,12,12S47.5,32,40.9,32z"/>
</g>
</svg>
