<?xml version="1.0" encoding="utf-8"?>
<!-- Generator: Adobe Illustrator 26.0.0, SVG Export Plug-In . SVG Version: 6.00 Build 0)  -->
<svg version="1.1" id="Capa_1" xmlns="http://www.w3.org/2000/svg" xmlns:xlink="http://www.w3.org/1999/xlink" x="0px" y="0px"
	 viewBox="0 0 69.7 78.4" style="enable-background:new 0 0 69.7 78.4;" xml:space="preserve">
<style type="text/css">
	.st0{fill:#B2B2B2;}
</style>
<g>
	<g>
		<path class="st0" d="M13.1,24.2h14.6c0.6,0,1-0.4,1-1V8.6c0-0.6-0.4-1-1-1H13.1c-0.6,0-1,0.4-1,1v14.6
			C12.1,23.7,12.5,24.2,13.1,24.2z M14.1,9.6h12.6v12.6H14.1V9.6z"/>
		<path class="st0" d="M50.4,9.5H32.9c-0.6,0-1,0.4-1,1s0.4,1,1,1h17.4c0.6,0,1-0.4,1-1S50.9,9.5,50.4,9.5z"/>
		<path class="st0" d="M50.4,14.9H32.9c-0.6,0-1,0.4-1,1s0.4,1,1,1h17.4c0.6,0,1-0.4,1-1S50.9,14.9,50.4,14.9z"/>
		<path class="st0" d="M50.4,20.3H32.9c-0.6,0-1,0.4-1,1s0.4,1,1,1h17.4c0.6,0,1-0.4,1-1S50.9,20.3,50.4,20.3z"/>
		<path class="st0" d="M21.7,31.7c0,0.6,0.4,1,1,1h17.4c0.6,0,1-0.4,1-1s-0.4-1-1-1H22.7C22.1,30.7,21.7,31.1,21.7,31.7z"/>
		<path class="st0" d="M12.5,39.6H25c0.6,0,1-0.4,1-1s-0.4-1-1-1H12.5c-0.6,0-1,0.4-1,1S11.9,39.6,12.5,39.6z"/>
		<path class="st0" d="M50.4,37.6H30.2c-0.6,0-1,0.4-1,1s0.4,1,1,1h20.2c0.6,0,1-0.4,1-1S50.9,37.6,50.4,37.6z"/>
		<path class="st0" d="M50.4,44.5H12.5c-0.6,0-1,0.4-1,1s0.4,1,1,1h37.9c0.6,0,1-0.4,1-1S50.9,44.5,50.4,44.5z"/>
		<path class="st0" d="M68.7,12.6h-5.9V7.4c0-0.6-0.4-1-1-1h-5.1V0h-50v53.1H0.2L0.1,54c-0.7,6.5,1.8,10.5,7.3,11.9H13v5.3
			c0,0.6,0.4,1,1,1h5.9v5.2c0,0.6,0.4,1,1,1h23.4c0.6,0,1-0.4,1-1s-0.4-1-1-1H21.9v-4.2h39.8c0.6,0,1-0.4,1-1v-18c0-0.6-0.4-1-1-1
			s-1,0.4-1,1v17.1H15V66h32.3l0,0l0,0h9.3V8.4h4.1v39.2c0,0.6,0.4,1,1,1s1-0.4,1-1v-33h4.9v61.8H50.4c-0.6,0-1,0.4-1,1s0.4,1,1,1
			h18.3c0.6,0,1-0.4,1-1V13.6C69.7,13.1,69.2,12.6,68.7,12.6z M54.7,63.9h-7.2c-4.5-1.2-6.3-4.3-5.7-9.8l0.1-1.1H32
			c-0.6,0-1,0.4-1,1s0.4,1,1,1h7.8c-0.2,4,0.9,7,3.3,8.9H7.8H7.7c-0.5-0.1-1-0.3-1.4-0.5l0,0c-0.4-0.2-0.8-0.4-1.2-0.6
			c0,0-0.1,0-0.1-0.1c-0.3-0.2-0.7-0.5-0.9-0.8L4,61.8c-0.3-0.3-0.5-0.6-0.7-0.9l-0.1-0.1c-0.2-0.3-0.4-0.7-0.5-1
			c0-0.1,0-0.1-0.1-0.2c-0.1-0.4-0.3-0.8-0.4-1.2c0-0.1,0-0.1,0-0.2c-0.1-0.4-0.1-0.9-0.2-1.4c0-0.1,0-0.1,0-0.2c0-0.5,0-1,0-1.6
			l0,0h25.2c0.6,0,1-0.4,1-1s-0.4-1-1-1H8.7V2h46V63.9z"/>
	</g>
</g>
</svg>
