<?xml version="1.0" encoding="utf-8"?>
<!-- Generator: Adobe Illustrator 26.0.0, SVG Export Plug-In . SVG Version: 6.00 Build 0)  -->
<svg version="1.1" id="Capa_1" xmlns="http://www.w3.org/2000/svg" xmlns:xlink="http://www.w3.org/1999/xlink" x="0px" y="0px"
	 viewBox="0 0 83.3 80.9" style="enable-background:new 0 0 83.3 80.9;" xml:space="preserve">
<style type="text/css">
	.st0{fill:#D8BEA2;}
</style>
<g>
	<path class="st0" d="M64.2,23.3c2.5,0,4.9,0.6,7,1.7V9c0-1.6-1.3-2.9-2.9-2.9H4.2C2.6,6.1,1.3,7.4,1.3,9v49.3
		c0,1.6,1.3,2.9,2.9,2.9h64.2c1.6,0,2.9-1.3,2.9-2.9v-0.4l-3.2-5.3c-1.2,0.3-2.5,0.5-3.8,0.5c-8.2,0-14.9-6.7-14.9-14.9
		C49.3,29.9,56,23.3,64.2,23.3z M41.8,29.7c1.4,0,2.5,1.1,2.5,2.5s-1.1,2.5-2.5,2.5s-2.5-1.1-2.5-2.5S40.5,29.7,41.8,29.7z
		 M30.6,23.2c1.4,0,2.5,1.1,2.5,2.5s-1.1,2.5-2.5,2.5s-2.5-1.1-2.5-2.5S29.3,23.2,30.6,23.2z M19.4,29.3c1.4,0,2.5,1.1,2.5,2.5
		c0,1.4-1.1,2.5-2.5,2.5c-1.4,0-2.5-1.1-2.5-2.5C16.9,30.4,18,29.3,19.4,29.3z M22.5,54.5h-5.6V43.7h5.6V54.5z M33.6,54.5H28V37.2
		h5.6V54.5z M44.8,54.5h-5.6V43.7h5.6V54.5z M50.5,16.3c0-1.4,1.1-2.5,2.5-2.5s2.5,1.1,2.5,2.5s-1.1,2.5-2.5,2.5
		S50.5,17.6,50.5,16.3z"/>
	<g>
		<path d="M16.7,42.6c-0.6,0-1,0.4-1,1v10.8c0,0.6,0.4,1,1,1h5.6c0.6,0,1-0.4,1-1V43.6c0-0.6-0.4-1-1-1H16.7z M21.3,53.4h-3.6v-8.8
			h3.6V53.4z"/>
		<path d="M27.8,36.2c-0.6,0-1,0.4-1,1v17.2c0,0.6,0.4,1,1,1h5.6c0.6,0,1-0.4,1-1V37.2c0-0.6-0.4-1-1-1H27.8z M32.4,53.4h-3.6V38.2
			h3.6V53.4z"/>
		<path d="M39,42.6c-0.6,0-1,0.4-1,1v10.8c0,0.6,0.4,1,1,1h5.6c0.6,0,1-0.4,1-1V43.6c0-0.6-0.4-1-1-1H39z M43.6,53.4H40v-8.8h3.6
			V53.4z"/>
		<path d="M50.2,49.5c-0.6,0-1,0.4-1,1v3.9c0,0.6,0.4,1,1,1h5.6c0.6,0,1-0.4,1-1s-0.4-1-1-1h-4.6v-2.9
			C51.2,49.9,50.8,49.5,50.2,49.5z"/>
		<path d="M53,20.1c2.1,0,3.8-1.7,3.8-3.8s-1.7-3.8-3.8-3.8s-3.8,1.7-3.8,3.8c0,0.9,0.3,1.7,0.8,2.3l-7.2,9.9
			c-0.3-0.1-0.7-0.2-1-0.2c-1,0-1.8,0.4-2.5,0.9l-5-2.7c0.1-0.3,0.1-0.6,0.1-0.9c0-2.1-1.7-3.8-3.8-3.8s-3.8,1.7-3.8,3.8
			c0,0.3,0,0.6,0.1,0.9l-4.7,2.6c-0.7-0.8-1.7-1.3-2.8-1.3c-2.1,0-3.8,1.7-3.8,3.8c0,2.1,1.7,3.8,3.8,3.8c2.1,0,3.8-1.7,3.8-3.8
			c0-0.3,0-0.5-0.1-0.8l4.8-2.7c0.7,0.7,1.6,1.1,2.7,1.1c1.1,0,2-0.4,2.7-1.1l4.9,2.6c-0.1,0.4-0.2,0.8-0.2,1.2
			c0,2.1,1.7,3.8,3.8,3.8s3.8-1.7,3.8-3.8c0-1-0.4-1.9-1-2.6l7.1-9.8C52.1,20,52.5,20.1,53,20.1z M19.5,33.6c-1,0-1.8-0.8-1.8-1.8
			s0.8-1.8,1.8-1.8c0.7,0,1.3,0.4,1.6,1c0,0,0,0,0,0c0,0,0,0,0,0c0.1,0.2,0.2,0.5,0.2,0.7C21.3,32.7,20.4,33.6,19.5,33.6z
			 M30.6,27.5c-0.7,0-1.2-0.4-1.6-0.9c0,0,0,0,0,0c0,0,0,0,0,0c-0.1-0.3-0.2-0.5-0.2-0.9c0-1,0.8-1.8,1.8-1.8s1.8,0.8,1.8,1.8
			c0,0.3-0.1,0.6-0.2,0.9c0,0,0,0,0,0c0,0,0,0,0,0C31.9,27.1,31.3,27.5,30.6,27.5z M53,14.5c1,0,1.8,0.8,1.8,1.8S54,18.1,53,18.1
			c-0.4,0-0.8-0.1-1.1-0.4c0,0,0,0,0,0c0,0,0,0,0,0c-0.4-0.3-0.7-0.8-0.7-1.4C51.2,15.3,52,14.5,53,14.5z M41.8,33.9
			c-1,0-1.8-0.8-1.8-1.8s0.8-1.8,1.8-1.8s1.8,0.8,1.8,1.8S42.8,33.9,41.8,33.9z"/>
		<path d="M74.1,32.6c-0.3-0.5-0.9-0.7-1.4-0.4c-0.5,0.3-0.7,0.9-0.4,1.4c0.8,1.4,1.2,3,1.2,4.6c0,5.2-4.3,9.5-9.5,9.5
			s-9.5-4.3-9.5-9.5s4.3-9.5,9.5-9.5c1.9,0,3.7,0.6,5.3,1.6c0.5,0.3,1.1,0.2,1.4-0.3c0.3-0.5,0.2-1.1-0.3-1.4
			c-1.9-1.3-4.1-1.9-6.4-1.9c-6.3,0-11.5,5.2-11.5,11.5c0,6.3,5.2,11.5,11.5,11.5s11.5-5.2,11.5-11.5C75.5,36.2,75.1,34.3,74.1,32.6
			z"/>
		<path d="M82.7,61.8l-7.3-12.7c2.8-2.9,4.5-6.8,4.5-11.1c0-8.8-7.1-15.9-15.9-15.9s-15.9,7.1-15.9,15.9C48.1,46.9,55.3,54,64,54
			c1.2,0,2.4-0.2,3.6-0.4L75,66.3c0.8,1.4,2.3,2.2,3.9,2.2c0.8,0,1.5-0.2,2.2-0.6C83.2,66.7,84,64,82.7,61.8z M50.1,38.1
			c0-7.7,6.2-13.9,13.9-13.9s13.9,6.2,13.9,13.9C77.9,45.7,71.7,52,64,52S50.1,45.7,50.1,38.1z M80.1,66.2c-1.2,0.7-2.7,0.3-3.4-0.9
			L69.6,53c1.6-0.6,3-1.4,4.3-2.4L81,62.8C81.7,64,81.3,65.5,80.1,66.2z"/>
		<path d="M68.7,60.3H3.9c-1.1,0-1.9-0.9-1.9-1.9V9c0-1.1,0.9-1.9,1.9-1.9h4.8c0.6,0,1-0.4,1-1s-0.4-1-1-1H3.9C1.8,5.1,0,6.8,0,9
			v49.4c0,2.2,1.8,3.9,3.9,3.9H12V65c0,1.6,1.3,2.9,2.9,2.9h12.2l-6.1,11.5c-0.3,0.5-0.1,1.1,0.4,1.4c0.1,0.1,0.3,0.1,0.5,0.1
			c0.4,0,0.7-0.2,0.9-0.5l6.6-12.5h13.5l6.4,12.5c0.2,0.3,0.5,0.5,0.9,0.5c0.2,0,0.3,0,0.5-0.1c0.5-0.3,0.7-0.9,0.4-1.3l-5.9-11.6
			h12.6c1.6,0,2.9-1.3,2.9-2.9v-2.8h8.1c0.6,0,1-0.4,1-1S69.3,60.3,68.7,60.3z M58.6,65c0,0.5-0.4,0.9-0.9,0.9H14.9
			c-0.5,0-0.9-0.4-0.9-0.9v-2.8h44.6V65z"/>
		<path d="M14.1,7.1h54.6c1.1,0,1.9,0.9,1.9,1.9v11c0,0.6,0.4,1,1,1s1-0.4,1-1V9c0-2.2-1.8-3.9-3.9-3.9H42.8V3c0-1.6-1.3-3-3-3h-7.2
			c-1.6,0-3,1.3-3,3v2.1H14.1c-0.6,0-1,0.4-1,1S13.6,7.1,14.1,7.1z M31.6,3c0-0.5,0.4-1,1-1h7.2c0.5,0,1,0.4,1,1v2.1h-9.2V3z"/>
	</g>
</g>
</svg>
