<?xml version="1.0" encoding="utf-8"?>
<!-- Generator: Adobe Illustrator 26.0.0, SVG Export Plug-In . SVG Version: 6.00 Build 0)  -->
<svg version="1.1" id="Capa_1" xmlns="http://www.w3.org/2000/svg" xmlns:xlink="http://www.w3.org/1999/xlink" x="0px" y="0px"
	 viewBox="0 0 79.4 79.4" style="enable-background:new 0 0 79.4 79.4;" xml:space="preserve">
<style type="text/css">
	.st0{fill:#D8BEA2;}
</style>
<g>
	<g>
		<path class="st0" d="M57.7,66.2l-4,4l0-5c-4.1,2.3-8.9,3.6-14,3.6s-9.8-1.3-14-3.6l0,5l-4-4L16.9,71c6.4,4.7,14.3,7.4,22.8,7.4
			c8.5,0,16.4-2.8,22.8-7.4L57.7,66.2z"/>
		<path class="st0" d="M71,16.9l-4.8,4.8l4,4l-5,0c2.3,4.1,3.6,8.9,3.6,14s-1.3,9.8-3.6,14l5,0l-4,4l4.8,4.8
			c4.7-6.4,7.4-14.3,7.4-22.8C78.4,31.2,75.7,23.3,71,16.9z"/>
		<path class="st0" d="M21.7,13.3l4-4l0,5c4.1-2.3,8.9-3.6,14-3.6s9.8,1.3,14,3.6l0-5l4,4l4.8-4.8C56.1,3.8,48.2,1,39.7,1
			c-8.5,0-16.4,2.8-22.8,7.4L21.7,13.3z"/>
		<path class="st0" d="M13.3,57.7l-4-4l5,0c-2.3-4.1-3.6-8.9-3.6-14s1.3-9.8,3.6-14l-5,0l4-4l-4.8-4.8C3.8,23.3,1,31.2,1,39.7
			c0,8.5,2.8,16.4,7.4,22.8L13.3,57.7z"/>
	</g>
	<g>
		<path d="M52.6,38.7c-0.6,0-1,0.4-1,1c0,6.5-5.3,11.9-11.9,11.9s-11.9-5.3-11.9-11.9c0-6.5,5.3-11.9,11.9-11.9c2.4,0,4.7,0.7,6.6,2
			c0.5,0.3,1.1,0.2,1.4-0.3c0.3-0.5,0.2-1.1-0.3-1.4c-2.3-1.5-5-2.4-7.7-2.4c-7.6,0-13.9,6.2-13.9,13.9s6.2,13.9,13.9,13.9
			s13.9-6.2,13.9-13.9C53.6,39.2,53.1,38.7,52.6,38.7z"/>
		<path d="M12.9,28.5c-0.5-0.2-1.1,0.1-1.3,0.6c-1.3,3.4-1.9,7-1.9,10.6c0,3.5,0.6,7,1.8,10.3c0.1,0.4,0.5,0.7,0.9,0.7
			c0.1,0,0.2,0,0.3-0.1c0.5-0.2,0.8-0.8,0.6-1.3c-1.1-3.1-1.7-6.3-1.7-9.6c0-3.4,0.6-6.7,1.8-9.9C13.7,29.3,13.4,28.7,12.9,28.5z"/>
		<path d="M49.3,66c-6.2,2.3-13.3,2.3-19.5-0.1c-0.5-0.2-1.1,0.1-1.3,0.6c-0.2,0.5,0.1,1.1,0.6,1.3c3.4,1.3,7,1.9,10.6,1.9
			c3.5,0,7-0.6,10.3-1.8c0.5-0.2,0.8-0.8,0.6-1.3C50.4,66.1,49.9,65.8,49.3,66z"/>
		<path d="M66.6,28.8c-0.5,0.2-0.8,0.8-0.6,1.3c1.1,3.1,1.7,6.3,1.7,9.6c0,3.4-0.6,6.7-1.8,9.9c-0.2,0.5,0.1,1.1,0.6,1.3
			c0.1,0,0.2,0.1,0.4,0.1c0.4,0,0.8-0.2,0.9-0.6c1.3-3.4,1.9-7,1.9-10.6c0-3.5-0.6-7-1.8-10.3C67.7,28.9,67.1,28.6,66.6,28.8z"/>
		<path d="M30.1,13.4c6.2-2.3,13.3-2.3,19.5,0.1c0.1,0,0.2,0.1,0.4,0.1c0.4,0,0.8-0.2,0.9-0.6c0.2-0.5-0.1-1.1-0.6-1.3
			c-6.7-2.5-14.2-2.6-20.9-0.1c-0.5,0.2-0.8,0.8-0.6,1.3C29,13.3,29.6,13.6,30.1,13.4z"/>
		<path d="M72.3,62.4c4.7-6.7,7.1-14.5,7.1-22.7c0-8.2-2.5-16-7.1-22.7l2.7-2.7c0.4-0.4,0.4-1,0-1.4s-1-0.4-1.4,0L65.4,21
			c-0.4,0.4-0.4,1,0,1.4l2.3,2.3l-13.1,0l0-13.1L57,14c0.2,0.2,0.4,0.3,0.7,0.3s0.5-0.1,0.7-0.3l8.2-8.2c0.4-0.4,0.4-1,0-1.4
			s-1-0.4-1.4,0l-2.7,2.7C55.7,2.5,47.9,0,39.7,0c-8.2,0-16,2.5-22.7,7.1l-2.7-2.7c-0.4-0.4-1-0.4-1.4,0c-0.4,0.4-0.4,1,0,1.4L21,14
			c0.4,0.4,1,0.4,1.4,0l2.3-2.3l0,13.1l-13.1,0l2.3-2.3c0.4-0.4,0.4-1,0-1.4l-8.2-8.2c-0.4-0.4-1-0.4-1.4,0c-0.4,0.4-0.4,1,0,1.4
			L7.1,17C2.5,23.7,0,31.5,0,39.7c0,8.2,2.5,16,7.1,22.7l-2.7,2.7c-0.4,0.4-0.4,1,0,1.4s1,0.4,1.4,0l8.2-8.2
			c0.2-0.2,0.3-0.4,0.3-0.7S14.2,57.1,14,57l-2.3-2.3l13.1,0l0,13.1l-2.3-2.3c-0.4-0.4-1-0.4-1.4,0l-8.2,8.2c-0.4,0.4-0.4,1,0,1.4
			c0.2,0.2,0.5,0.3,0.7,0.3s0.5-0.1,0.7-0.3l2.7-2.7c6.7,4.7,14.5,7.1,22.7,7.1c8.2,0,16-2.5,22.7-7.1l2.7,2.7
			c0.2,0.2,0.5,0.3,0.7,0.3s0.5-0.1,0.7-0.3c0.4-0.4,0.4-1,0-1.4l-8.2-8.2c-0.2-0.2-0.4-0.3-0.7-0.3s-0.5,0.1-0.7,0.3l-2.3,2.3
			l0-13.1l13.1,0L65.4,57c-0.4,0.4-0.4,1,0,1.4l8.2,8.2c0.4,0.4,1,0.4,1.4,0c0.4-0.4,0.4-1,0-1.4L72.3,62.4z M70.9,54.4
			c0.3-0.3,0.4-0.7,0.2-1.1s-0.5-0.6-0.9-0.6l-16.5,0c-0.6,0-1,0.4-1,1l0,16.5c0,0.4,0.2,0.8,0.6,0.9c0.4,0.2,0.8,0.1,1.1-0.2
			l3.3-3.3l3.3,3.3c-6.3,4.3-13.6,6.6-21.2,6.6c-7.6,0-15-2.3-21.2-6.6l3.3-3.3l3.3,3.3c0.3,0.3,0.7,0.4,1.1,0.2
			c0.4-0.2,0.6-0.5,0.6-0.9l0-16.5c0-0.6-0.4-1-1-1l-16.5,0c-0.4,0-0.8,0.2-0.9,0.6c-0.2,0.4-0.1,0.8,0.2,1.1l3.3,3.3l-3.3,3.3
			C4.3,54.7,2,47.3,2,39.7c0-7.6,2.3-15,6.6-21.2l3.3,3.3L8.5,25c-0.3,0.3-0.4,0.7-0.2,1.1s0.5,0.6,0.9,0.6l16.5,0c0.6,0,1-0.4,1-1
			l0-16.5c0-0.4-0.2-0.8-0.6-0.9c-0.4-0.2-0.8-0.1-1.1,0.2l-3.3,3.3l-3.3-3.3C24.7,4.3,32.1,2,39.7,2s15,2.3,21.2,6.6l-3.3,3.3
			l-3.3-3.3c-0.3-0.3-0.7-0.4-1.1-0.2c-0.4,0.2-0.6,0.5-0.6,0.9l0,16.5c0,0.6,0.4,1,1,1l16.5,0c0.4,0,0.8-0.2,0.9-0.6
			s0.1-0.8-0.2-1.1l-3.3-3.3l3.3-3.3c4.3,6.3,6.6,13.6,6.6,21.2c0,7.6-2.3,15-6.6,21.2l-3.3-3.3L70.9,54.4z"/>
		<path d="M32.1,36.9c-0.4-0.4-1-0.4-1.4,0s-0.4,1,0,1.4l7,7c0.2,0.2,0.4,0.3,0.7,0.3s0.5-0.1,0.7-0.3l14-14c0.4-0.4,0.4-1,0-1.4
			s-1-0.4-1.4,0L38.4,43.2L32.1,36.9z"/>
	</g>
</g>
</svg>
