<?xml version="1.0" encoding="utf-8"?>
<!-- Generator: Adobe Illustrator 26.0.0, SVG Export Plug-In . SVG Version: 6.00 Build 0)  -->
<svg version="1.1" id="Capa_1" xmlns="http://www.w3.org/2000/svg" xmlns:xlink="http://www.w3.org/1999/xlink" x="0px" y="0px"
	 viewBox="0 0 79.1 79.9" style="enable-background:new 0 0 79.1 79.9;" xml:space="preserve">
<style type="text/css">
	.st0{fill:#D8BEA2;}
</style>
<g>
	<path class="st0" d="M19.8,68.5c0-5.2-4.2-9.4-9.4-9.4S1,63.3,1,68.5H19.8z"/>
	<path class="st0" d="M49,68.5c0-5.2-4.2-9.4-9.4-9.4s-9.4,4.2-9.4,9.4H49z"/>
	<path class="st0" d="M49,20.1c0-5.2-4.2-9.4-9.4-9.4s-9.4,4.2-9.4,9.4H49z"/>
	<path class="st0" d="M78.1,68.5c0-5.2-4.2-9.4-9.4-9.4c-5.2,0-9.4,4.2-9.4,9.4H78.1z"/>
	<g>
		<path d="M14,58.7c1.3-1.1,2.1-2.7,2.1-4.5c0-3.2-2.6-5.9-5.9-5.9S4.4,51,4.4,54.2c0,1.9,0.9,3.5,2.2,4.6C2.7,60.3,0,64.1,0,68.5
			c0,0.6,0.4,1,1,1h18.8c0.6,0,1-0.4,1-1C20.8,64,18,60.2,14,58.7z M10.2,50.4c2.1,0,3.9,1.7,3.9,3.9s-1.7,3.9-3.9,3.9
			s-3.9-1.7-3.9-3.9S8.1,50.4,10.2,50.4z M2.1,67.5c0.5-4.2,4-7.4,8.3-7.4s7.9,3.2,8.3,7.4H2.1z"/>
		<path d="M19.8,72.3h-2.9c-0.6,0-1,0.4-1,1s0.4,1,1,1h1.9v3.6H2v-3.6h8.4c0.6,0,1-0.4,1-1s-0.4-1-1-1H1c-0.6,0-1,0.4-1,1v5.6
			c0,0.6,0.4,1,1,1h18.8c0.6,0,1-0.4,1-1v-5.6C20.8,72.8,20.4,72.3,19.8,72.3z"/>
		<path d="M43.1,58.7c1.3-1.1,2.1-2.7,2.1-4.5c0-3.2-2.6-5.9-5.9-5.9s-5.9,2.6-5.9,5.9c0,1.9,0.9,3.5,2.2,4.6
			c-3.9,1.5-6.6,5.3-6.6,9.7c0,0.6,0.4,1,1,1H49c0.6,0,1-0.4,1-1C50,64,47.1,60.2,43.1,58.7z M39.4,50.4c2.1,0,3.9,1.7,3.9,3.9
			s-1.7,3.9-3.9,3.9s-3.9-1.7-3.9-3.9S37.2,50.4,39.4,50.4z M31.2,67.5c0.5-4.2,4-7.4,8.3-7.4s7.9,3.2,8.3,7.4H31.2z"/>
		<path d="M49,72.3H30.1c-0.6,0-1,0.4-1,1v5.6c0,0.6,0.4,1,1,1H49c0.6,0,1-0.4,1-1v-5.6C50,72.8,49.5,72.3,49,72.3z M48,77.9H31.1
			v-3.6H48V77.9z"/>
		<path d="M30.1,21.1h10.5c0.6,0,1-0.4,1-1s-0.4-1-1-1h-9.4c0.5-4.2,4-7.4,8.3-7.4s7.9,3.2,8.3,7.4h-1.8c-0.6,0-1,0.4-1,1s0.4,1,1,1
			H49c0.6,0,1-0.4,1-1c0-4.5-2.9-8.3-6.8-9.8c1.3-1.1,2.1-2.7,2.1-4.5c0-3.2-2.6-5.9-5.9-5.9s-5.9,2.6-5.9,5.9
			c0,1.9,0.9,3.5,2.2,4.6c-3.9,1.5-6.6,5.3-6.6,9.7C29.1,20.7,29.6,21.1,30.1,21.1z M39.4,2c2.1,0,3.9,1.7,3.9,3.9s-1.7,3.9-3.9,3.9
			S35.5,8,35.5,5.9S37.2,2,39.4,2z"/>
		<path d="M62.6,54.2c0,1.9,0.9,3.5,2.2,4.6c-3.9,1.5-6.6,5.3-6.6,9.7c0,0.6,0.4,1,1,1h18.8c0.6,0,1-0.4,1-1c0-4.5-2.9-8.3-6.8-9.8
			c1.3-1.1,2.1-2.7,2.1-4.5c0-3.2-2.6-5.9-5.9-5.9S62.6,51,62.6,54.2z M77,67.5H60.3c0.5-4.2,4-7.4,8.3-7.4S76.5,63.3,77,67.5z
			 M72.4,54.2c0,2.1-1.7,3.9-3.9,3.9s-3.9-1.7-3.9-3.9s1.7-3.9,3.9-3.9S72.4,52.1,72.4,54.2z"/>
		<path d="M78.1,72.3h-2.6c-0.6,0-1,0.4-1,1s0.4,1,1,1h1.6v3.6H60.3v-3.6h9.9c0.6,0,1-0.4,1-1s-0.4-1-1-1H59.3c-0.6,0-1,0.4-1,1v5.6
			c0,0.6,0.4,1,1,1h18.8c0.6,0,1-0.4,1-1v-5.6C79.1,72.8,78.7,72.3,78.1,72.3z"/>
		<path d="M10.4,45.1c0.6,0,1-0.4,1-1v-5.2h27.1v5.2c0,0.6,0.4,1,1,1s1-0.4,1-1v-5.2h27.1v5.2c0,0.6,0.4,1,1,1s1-0.4,1-1v-6.2
			c0-0.6-0.4-1-1-1H40.5v-5.4H49c0.6,0,1-0.4,1-1V25c0-0.6-0.4-1-1-1H30.1c-0.6,0-1,0.4-1,1v5.6c0,0.6,0.4,1,1,1h8.4v5.4H10.4
			c-0.6,0-1,0.4-1,1v6.2C9.4,44.7,9.9,45.1,10.4,45.1z M31.1,26H48v3.6H31.1V26z"/>
	</g>
</g>
</svg>
