<?xml version="1.0" encoding="utf-8"?>
<!-- Generator: Adobe Illustrator 26.0.0, SVG Export Plug-In . SVG Version: 6.00 Build 0)  -->
<svg version="1.1" id="Capa_1" xmlns="http://www.w3.org/2000/svg" xmlns:xlink="http://www.w3.org/1999/xlink" x="0px" y="0px"
	 viewBox="0 0 78 81.5" style="enable-background:new 0 0 78 81.5;" xml:space="preserve">
<style type="text/css">
	.st0{fill:#B2B2B2;}
</style>
<g>
	<path class="st0" d="M64.3,40.1H59c-0.6,0-1-0.5-1-1v-5.3c0-0.6,0.5-1,1-1h5.3c0.6,0,1,0.5,1,1v5.3C65.3,39.7,64.8,40.1,64.3,40.1z
		 M60,38.1h3.2v-3.2H60V38.1z M73.2,40.1h-5.3c-0.6,0-1-0.5-1-1v-5.3c0-0.6,0.5-1,1-1h5.3c0.6,0,1,0.5,1,1v5.3
		C74.2,39.7,73.7,40.1,73.2,40.1z M68.9,38.1h3.2v-3.2h-3.2V38.1z M73.2,49.3h-5.3c-0.6,0-1-0.5-1-1V43c0-0.6,0.5-1,1-1h5.3
		c0.6,0,1,0.5,1,1v5.3C74.2,48.8,73.7,49.3,73.2,49.3z M68.9,47.3h3.2V44h-3.2V47.3z M73.2,58.4h-5.3c-0.6,0-1-0.5-1-1v-5.3
		c0-0.6,0.5-1,1-1h5.3c0.6,0,1,0.5,1,1v5.3C74.2,58,73.7,58.4,73.2,58.4z M68.9,56.4h3.2v-3.2h-3.2V56.4z M32,20.6h-5.3
		c-0.6,0-1-0.5-1-1v-5.3c0-0.6,0.5-1,1-1H32c0.6,0,1,0.5,1,1v5.3C33.1,20.1,32.6,20.6,32,20.6z M27.8,18.6H31v-3.2h-3.2V18.6z
		 M32,29.7h-5.3c-0.6,0-1-0.5-1-1v-5.3c0-0.6,0.5-1,1-1H32c0.6,0,1,0.5,1,1v5.3C33.1,29.3,32.6,29.7,32,29.7z M27.8,27.7H31v-3.2
		h-3.2V27.7z M32,38.9h-5.3c-0.6,0-1-0.5-1-1v-5.3c0-0.6,0.5-1,1-1H32c0.6,0,1,0.5,1,1v5.3C33.1,38.4,32.6,38.9,32,38.9z M27.8,36.8
		H31v-3.2h-3.2V36.8z M40.8,29.7h-5.3c-0.6,0-1-0.5-1-1v-5.3c0-0.6,0.5-1,1-1h5.3c0.6,0,1,0.5,1,1v5.3
		C41.8,29.3,41.4,29.7,40.8,29.7z M36.6,27.7h3.2v-3.2h-3.2V27.7z M40.8,38.9h-5.3c-0.6,0-1-0.5-1-1v-5.3c0-0.6,0.5-1,1-1h5.3
		c0.6,0,1,0.5,1,1v5.3C41.8,38.4,41.4,38.9,40.8,38.9z M36.6,36.8h3.2v-3.2h-3.2V36.8z M23.2,29.7h-5.3c-0.6,0-1-0.5-1-1v-5.3
		c0-0.6,0.5-1,1-1h5.3c0.6,0,1,0.5,1,1v5.3C24.2,29.3,23.7,29.7,23.2,29.7z M18.9,27.7h3.2v-3.2h-3.2V27.7z M23.2,38.9h-5.3
		c-0.6,0-1-0.5-1-1v-5.3c0-0.6,0.5-1,1-1h5.3c0.6,0,1,0.5,1,1v5.3C24.2,38.4,23.7,38.9,23.2,38.9z M18.9,36.8h3.2v-3.2h-3.2V36.8z
		 M73.2,31h-5.3c-0.6,0-1-0.5-1-1v-5.3c0-0.6,0.5-1,1-1h5.3c0.6,0,1,0.5,1,1V30C74.2,30.6,73.7,31,73.2,31z M68.9,29h3.2v-3.2h-3.2
		V29z M77.5,14.6c-0.3-0.2-0.6-0.2-1-0.1L54,24.4c-0.4,0.2-0.6,0.5-0.6,0.9v15.5h-7.6V1c0-0.3-0.2-0.7-0.5-0.8
		c-0.3-0.2-0.6-0.2-0.9-0.1L13.1,13.4c-0.4,0.2-0.6,0.5-0.6,0.9v31.1C10.2,47.2,8.8,50,8.8,53c0,2.9,1.4,5.7,3.7,7.6v3.7
		C5.5,64.8,0,70.6,0,77.7V78c0,1.9,1.5,3.4,3.4,3.4h10h11.2h1h30.3h0.9H77c0.6,0,1-0.5,1-1v-65C78,15.1,77.8,14.8,77.5,14.6z
		 M53.4,42.8v23.7c-2.2-1.5-4.8-2.3-7.5-2.3h-0.1v-2.9c2.9-1.8,4.7-4.9,4.7-8.3s-1.8-6.6-4.7-8.3v-1.8H53.4z M44.4,46.1
		c2.6,1.3,4.2,4,4.2,6.9c0,2.9-1.6,5.5-4.2,6.9c0,0,0,0,0,0c-1.1,0.6-2.3,0.9-3.5,0.9c-4.3,0-7.8-3.5-7.8-7.8s3.5-7.8,7.8-7.8
		C42,45.2,43.2,45.5,44.4,46.1C44.4,46.1,44.4,46.1,44.4,46.1z M14.5,15L43.8,2.5v41.2c-0.6-0.2-1.2-0.3-1.8-0.4c0,0,0,0,0,0
		c-0.4,0-0.8-0.1-1.1-0.1c-5.4,0-9.8,4.4-9.8,9.8c0,5.4,4.4,9.8,9.8,9.8c0.4,0,0.8,0,1.1-0.1c0,0,0,0,0,0c0.6-0.1,1.2-0.2,1.8-0.4
		v1.9h-8.2c-2.1,0-4.1,0.5-6,1.4c-0.2-0.1-0.4-0.2-0.6-0.2c-0.2-0.1-0.4-0.2-0.6-0.3c-0.3-0.1-0.6-0.2-0.9-0.3
		c-0.2-0.1-0.4-0.1-0.6-0.2c-0.3-0.1-0.7-0.1-1-0.2c-0.2,0-0.4-0.1-0.5-0.1c-0.5-0.1-1.1-0.1-1.6-0.1h-9.2v-2.4
		c1.3,0.6,2.7,0.9,4.1,0.9c5.4,0,9.8-4.4,9.8-9.8c0-5.4-4.4-9.8-9.8-9.8c-1.4,0-2.8,0.3-4.1,0.9V15z M10.8,53c0-2.5,1.2-4.8,3.2-6.3
		c0,0,0,0,0,0c1.3-1,2.9-1.5,4.5-1.5c4.3,0,7.8,3.5,7.8,7.8s-3.5,7.8-7.8,7.8c-1.6,0-3.2-0.5-4.5-1.5c0,0,0,0,0,0
		C12,57.8,10.8,55.5,10.8,53z M13.5,79.5h-3.2v-4.3h-2v4.3H3.4C2.7,79.5,2,78.8,2,78v-0.4c0-6.3,5.1-11.4,11.4-11.4h0h10.2
		c0.4,0,0.9,0,1.3,0.1c0.1,0,0.2,0,0.3,0c0.4,0.1,0.7,0.1,1.1,0.2c0.1,0,0.1,0,0.2,0c0.3,0.1,0.7,0.2,1,0.3
		c-3.4,2.5-5.4,6.5-5.4,10.8V78c0,0.5,0.1,1,0.3,1.4H13.5z M57.3,78c0,0.8-0.6,1.4-1.4,1.4h-5.3v-4.3c0-0.6-0.5-1-1-1s-1,0.5-1,1
		v4.3h-16v-4.3c0-0.6-0.5-1-1-1s-1,0.5-1,1v4.3h-5c-0.8,0-1.4-0.6-1.4-1.4v-0.4c0-4.2,2.3-8,6-10c1.7-0.9,3.6-1.4,5.5-1.4h9.2h1.1
		c2.9,0,5.7,1.1,7.8,3.1c0,0,0,0,0,0c2.3,2.2,3.6,5.1,3.6,8.3V78z M76,79.5H59c0.2-0.4,0.3-0.9,0.3-1.4v-0.4c0-3.6-1.4-6.9-3.9-9.5
		V26L76,17V79.5z"/>
</g>
</svg>
