<?xml version="1.0" encoding="utf-8"?>
<!-- Generator: Adobe Illustrator 26.0.0, SVG Export Plug-In . SVG Version: 6.00 Build 0)  -->
<svg version="1.1" id="Capa_1" xmlns="http://www.w3.org/2000/svg" xmlns:xlink="http://www.w3.org/1999/xlink" x="0px" y="0px"
	 viewBox="0 0 80.8 80.5" style="enable-background:new 0 0 80.8 80.5;" xml:space="preserve">
<style type="text/css">
	.st0{fill:#F8B133;}
	.st1{fill:#93C01F;}
	.st2{fill:#35A8E0;}
	.st3{fill:#D2DD7A;}
	.st4{fill:#FFD77B;}
	.st5{fill:#D8BEA1;}
	.st6{fill:#1D1D1B;}
</style>
<g>
	<path class="st0" d="M2,43.5h26.2c0.2-1.6,0.5-3.1,0.9-4.6H8.2c-0.6,0-1-0.4-1-1s0.4-1,1-1h21.6c1-2.3,2.3-4.5,3.9-6.3H19.9
		c-0.6,0-1-0.4-1-1s0.4-1,1-1h14c0.5,0,0.8,0.3,1,0.8c2.6-2.6,5.8-4.6,9.4-5.7H2V43.5z M8.2,28.5h5.6c0.6,0,1,0.4,1,1s-0.4,1-1,1
		H8.2c-0.6,0-1-0.4-1-1S7.6,28.5,8.2,28.5z"/>
	<path class="st1" d="M28.9,52h-8.9c-0.6,0-1-0.4-1-1s0.4-1,1-1h8.5c-0.2-1.4-0.4-2.8-0.4-4.2c0-0.1,0-0.3,0-0.4H2v14.9
		c0,2.8,2.3,5.1,5.1,5.1h31.6c-2.4-1.5-4.4-3.5-6.1-5.7c-0.1,0.4-0.5,0.7-0.9,0.7H8.2c-0.6,0-1-0.4-1-1s0.4-1,1-1h23.5c0,0,0,0,0,0
		 M8.2,50h5.6c0.6,0,1,0.4,1,1s-0.4,1-1,1H8.2c-0.6,0-1-0.4-1-1S7.6,50,8.2,50z"/>
	<path class="st0" d="M58.5,23.6c5.3,1.7,9.7,5.2,12.6,9.8v-9.8H58.5z"/>
	<path class="st2" d="M71.1,7.1C71.1,4.3,68.8,2,66,2H7.1C4.3,2,2,4.3,2,7.1v14.5h69.1V7.1z M8.2,6.9h5.6c0.6,0,1,0.4,1,1
		s-0.4,1-1,1H8.2c-0.6,0-1-0.4-1-1S7.6,6.9,8.2,6.9z M65.2,17.3h-57c-0.6,0-1-0.4-1-1s0.4-1,1-1h57c0.6,0,1,0.4,1,1
		S65.7,17.3,65.2,17.3z M65.2,8.9H19.9c-0.6,0-1-0.4-1-1s0.4-1,1-1h45.2c0.6,0,1,0.4,1,1S65.7,8.9,65.2,8.9z"/>
	<path class="st3" d="M51.4,63.2c9.6,0,17.3-7.8,17.3-17.3c0-0.1,0-0.3,0-0.4H34.1c0,0.1,0,0.3,0,0.4c0,1.4,0.2,2.8,0.5,4.2h26.2
		c0.6,0,1,0.4,1,1s-0.4,1-1,1H35.2C37.7,58.5,44,63.2,51.4,63.2z"/>
	<path class="st4" d="M51.4,28.5c-6.3,0-11.8,3.4-14.8,8.4h24.2c0.6,0,1,0.4,1,1s-0.4,1-1,1H35.5c-0.6,1.4-1.1,3-1.3,4.6h34.3
		C67.4,35,60.2,28.5,51.4,28.5z"/>
	<path class="st5" d="M51.4,69.1c-12.8,0-23.3-10.4-23.3-23.3c0-12.8,10.4-23.3,23.3-23.3S74.7,33,74.7,45.8
		C74.7,58.7,64.2,69.1,51.4,69.1z M51.4,28.6c-9.5,0-17.3,7.7-17.3,17.3s7.7,17.3,17.3,17.3s17.3-7.7,17.3-17.3S60.9,28.6,51.4,28.6
		z"/>
	<path class="st5" d="M76.6,79.6c-0.9,0-1.7-0.4-2.3-1.1l-10-12.4c-1-1.3-0.8-3.2,0.5-4.2c1.3-1,3.2-0.8,4.2,0.5l10,12.4
		c1,1.3,0.8,3.2-0.5,4.2C77.9,79.4,77.3,79.6,76.6,79.6z"/>
	<g>
		<path class="st6" d="M65.2,17.3c0.6,0,1-0.4,1-1s-0.4-1-1-1h-57c-0.6,0-1,0.4-1,1s0.4,1,1,1H65.2z"/>
		<path class="st6" d="M19.9,8.9h45.2c0.6,0,1-0.4,1-1s-0.4-1-1-1H19.9c-0.6,0-1,0.4-1,1S19.4,8.9,19.9,8.9z"/>
		<path class="st6" d="M8.2,8.9h5.6c0.6,0,1-0.4,1-1s-0.4-1-1-1H8.2c-0.6,0-1,0.4-1,1S7.6,8.9,8.2,8.9z"/>
		<path class="st6" d="M8.2,52h5.6c0.6,0,1-0.4,1-1s-0.4-1-1-1H8.2c-0.6,0-1,0.4-1,1S7.6,52,8.2,52z"/>
		<path class="st6" d="M8.2,30.5h5.6c0.6,0,1-0.4,1-1s-0.4-1-1-1H8.2c-0.6,0-1,0.4-1,1S7.6,30.5,8.2,30.5z"/>
		<path class="st6" d="M79.7,72.5L70.4,61c0.6-0.7,1.1-1.4,1.5-2.2c0.8-1.3,1.5-2.7,2.1-4.1c1.1-2.9,1.7-5.8,1.7-8.9
			c0-3.1-0.6-6.1-1.7-8.9c-0.3-0.7-0.6-1.4-0.9-2.1V7.1C73.1,3.2,69.9,0,66,0H7.1C3.2,0,0,3.2,0,7.1v53.2c0,3.9,3.2,7.1,7.1,7.1
			h33.1c0.6,0.3,1.3,0.6,2,0.9c2.9,1.2,6,1.8,9.2,1.8s6.3-0.6,9.2-1.8c0.7-0.3,1.5-0.7,2.2-1L72,78.7c0.8,1,2,1.6,3.2,1.8
			c0.2,0,0.3,0,0.5,0c1.1,0,2.1-0.4,3-1.1l0.2-0.2C81,77.6,81.4,74.6,79.7,72.5z M71.1,31.6c-2.5-3.5-5.9-6.3-9.9-8h9.9V31.6z
			 M2,7.1C2,4.3,4.3,2,7.1,2H66c2.8,0,5.1,2.3,5.1,5.1v14.5H53.6c-1.4-0.1-2.9-0.1-4.3,0H2V7.1z M2,23.6h39.5
			c-2.7,1.2-5.2,2.9-7.3,5c-0.1,0-0.2,0-0.3,0h-14c-0.6,0-1,0.4-1,1s0.4,1,1,1h12.6c-1.5,1.8-2.7,3.8-3.6,6
			c-0.1,0.1-0.1,0.3-0.2,0.4H8.2c-0.6,0-1,0.4-1,1s0.4,1,1,1h19.9c-0.4,1.5-0.7,3-0.9,4.5c0,0,0,0.1,0,0.1H2V23.6z M2,60.3V45.5
			h25.1l0,0.4c0,1.4,0.1,2.8,0.4,4.2h-7.5c-0.6,0-1,0.4-1,1s0.4,1,1,1h7.9c0,0.1,0,0.2,0.1,0.3c0.6,2.1,1.5,4.2,2.6,6.1H8.2
			c-0.6,0-1,0.4-1,1s0.4,1,1,1h23.5c0.1,0,0.1,0,0.2,0c1.5,2,3.2,3.7,5.2,5.1H7.1C4.3,65.4,2,63.1,2,60.3z M59.9,66.5
			c-5.4,2.2-11.5,2.2-16.9,0c-1.3-0.5-2.5-1.2-3.6-1.9c-2.3-1.5-4.2-3.3-5.8-5.5c-0.3-0.4-0.6-0.8-0.9-1.3c-1.2-1.9-2.1-3.9-2.7-6.1
			c-0.2-0.6-0.3-1.3-0.4-1.9c-0.2-1.3-0.4-2.7-0.4-4l0-0.4c0-0.7,0-1.3,0.1-1.9c0.2-1.5,0.5-3,0.9-4.4c0.2-0.6,0.4-1.3,0.7-1.9
			c0.9-2.2,2.2-4.2,3.8-6.1c0.4-0.4,0.7-0.8,1.1-1.2c2.5-2.5,5.6-4.4,9-5.5c2.2-0.7,4.5-1.1,6.8-1.1s4.6,0.4,6.8,1.1
			c5,1.6,9.3,4.9,12.1,9.3c0.8,1.2,1.4,2.5,1.9,3.8c1,2.6,1.6,5.4,1.6,8.2s-0.5,5.6-1.6,8.2c-0.5,1.3-1.2,2.6-1.9,3.8h0
			c-1.7,2.7-4.1,5.1-6.8,6.8C62.4,65.3,61.1,66,59.9,66.5z M77.7,77.7l-0.2,0.2c-0.6,0.5-1.3,0.7-2.1,0.6c-0.7-0.1-1.4-0.4-1.9-1
			l-9-11.2c0,0,0,0,0,0c1.6-1.1,3.1-2.3,4.5-3.7l9.1,11.2C79.1,75,78.9,76.7,77.7,77.7z"/>
		<path class="st6" d="M69.7,45.6l0-0.1c0-0.7-0.1-1.4-0.2-2.1c-1.2-9-9.1-15.8-18.2-15.8c-6.5,0-12.3,3.3-15.7,8.9
			c-0.4,0.7-0.8,1.4-1.1,2.1c-0.7,1.5-1.1,3.1-1.4,4.8c-0.1,0.7-0.2,1.4-0.2,2.1l0,0.1c0,0.1,0,0.2,0,0.3c0,1.4,0.2,2.9,0.6,4.4h0
			c0.2,0.7,0.4,1.4,0.7,2.1c2.7,7.1,9.6,11.8,17.1,11.8c10.1,0,18.3-8.2,18.3-18.3C69.7,45.7,69.7,45.6,69.7,45.6z M51.4,29.5
			c8.1,0,15,6,16.1,14H35.3c0.2-1.5,0.6-2.9,1.2-4.2c0.1-0.1,0.1-0.3,0.2-0.4h24.1c0.6,0,1-0.4,1-1s-0.4-1-1-1h-23
			C40.8,32.2,45.9,29.5,51.4,29.5z M51.4,62.2c-6.6,0-12.6-4.1-15.1-10.2h24.4c0.6,0,1-0.4,1-1s-0.4-1-1-1H35.6
			c0-0.1-0.1-0.2-0.1-0.2c-0.3-1.3-0.5-2.7-0.5-3.9l0-0.1c0-0.1,0-0.1,0-0.2c0,0,0,0,0,0h32.6c0,0,0,0,0,0c0,0.1,0,0.1,0,0.2l0,0.1
			C67.7,54.8,60.4,62.2,51.4,62.2z"/>
	</g>
</g>
</svg>
