<?xml version="1.0" encoding="utf-8"?>
<!-- Generator: Adobe Illustrator 26.0.0, SVG Export Plug-In . SVG Version: 6.00 Build 0)  -->
<svg version="1.1" id="Capa_1" xmlns="http://www.w3.org/2000/svg" xmlns:xlink="http://www.w3.org/1999/xlink" x="0px" y="0px"
	 viewBox="0 0 73.4 79.5" style="enable-background:new 0 0 73.4 79.5;" xml:space="preserve">
<style type="text/css">
	.st0{fill:#D8BEA2;}
</style>
<g>
	<path class="st0" d="M67.3,77.5H19.8c-2.3,0-4.1-1.8-4.1-4.1v-5.7h44.1c2.6,0,4.7-2.1,4.7-4.7V41.9c0-2.6-2.1-4.7-4.7-4.7l-44.1,0
		V6.1c0-2.3,1.8-4.1,4.1-4.1h38.2v12.2c0,0.6,0.4,1,1,1h12.5v58.2C71.4,75.6,69.6,77.5,67.3,77.5z"/>
	<path d="M73.1,13.4L60.3,0.5c-0.1-0.1-0.3-0.2-0.5-0.3l-0.4-0.1C59.2,0,59.1,0,58.9,0c0,0,0,0-0.1,0c0,0-0.1,0-0.1,0h-39
		c-3.4,0-6.1,2.7-6.1,6.1v20.7H6.2c-3.3,0-6,2.6-6.2,5.8c0,0,0,0.1,0,0.1c0,0.1,0,0.2,0,0.3c0,0,0,0,0,0s0,0,0,0c0,0,0,0,0,0.1v26.8
		c0,4.3,3.5,7.8,7.8,7.8h5.9v5.7c0,3.4,2.7,6.1,6.1,6.1h47.6c3.4,0,6.1-2.7,6.1-6.1V14.1C73.4,13.8,73.3,13.6,73.1,13.4z M70.1,13.2
		H59.9V3L70.1,13.2z M6.2,28.8h7.4v8.5H7c-1.6-0.1-2.6-0.5-3.4-0.9C2.6,35.5,2,34.4,2,33v0C2,30.7,3.9,28.8,6.2,28.8z M2,59.9V37.6
		c0,0,0.1,0,0.1,0.1c1.1,1,2.6,1.6,4.1,1.6h0.7h7.7h45.1c1.5,0,2.7,1.2,2.7,2.7V63c0,1.5-1.2,2.7-2.7,2.7h-52
		C4.6,65.7,2,63.1,2,59.9z M67.3,77.5H19.8c-2.3,0-4.1-1.8-4.1-4.1v-5.7h44.1c2.6,0,4.7-2.1,4.7-4.7V41.9c0-2.6-2.1-4.7-4.7-4.7
		l-44.1,0V6.1c0-2.3,1.8-4.1,4.1-4.1h38.2v12.2c0,0.6,0.4,1,1,1h12.5v58.2C71.4,75.6,69.6,77.5,67.3,77.5z"/>
	<path d="M50.5,27.4H22.6c-0.6,0-1-0.4-1-1s0.4-1,1-1h27.9c0.6,0,1,0.4,1,1S51.1,27.4,50.5,27.4z"/>
	<path d="M50.5,20.4H22.6c-0.6,0-1-0.4-1-1s0.4-1,1-1h27.9c0.6,0,1,0.4,1,1S51.1,20.4,50.5,20.4z"/>
	<path d="M36.6,13.5h-14c-0.6,0-1-0.4-1-1s0.4-1,1-1h14c0.6,0,1,0.4,1,1S37.1,13.5,36.6,13.5z"/>
	<g>
		<path d="M15.4,44c-3,0-5.4,2.4-5.4,5.4v6.3c0,3,2.4,5.4,5.4,5.4s5.4-2.4,5.4-5.4v-6.3C20.8,46.4,18.4,44,15.4,44z M18.8,55.7
			c0,1.9-1.5,3.4-3.4,3.4S12,57.6,12,55.7v-6.3c0-1.9,1.5-3.4,3.4-3.4s3.4,1.5,3.4,3.4V55.7z"/>
		<path d="M27.8,44h-1.5c-0.6,0-1,0.4-1,1v15.2c0,0.6,0.4,1,1,1h1.5c4.6,0,8.3-3.7,8.3-8.3v-0.5C36.1,47.7,32.4,44,27.8,44z
			 M34.1,52.8c0,3.5-2.8,6.3-6.3,6.3h-0.5V46h0.5c3.5,0,6.3,2.8,6.3,6.3V52.8z"/>
		<path d="M45.6,46h5.2c0.6,0,1-0.4,1-1s-0.4-1-1-1h-5.2c-2.6,0-4.8,2.1-4.8,4.8s2.1,4.8,4.8,4.8h0.3h0.6h0c1.5,0,2.8,1.3,2.8,2.8
			s-1.3,2.8-2.8,2.8h-5.1c-0.6,0-1,0.4-1,1s0.4,1,1,1h5.1c2.6,0,4.8-2.1,4.8-4.8c0-2.6-2.1-4.8-4.8-4.8h0h-0.6h-0.3
			c-1.5,0-2.8-1.3-2.8-2.8S44,46,45.6,46z"/>
	</g>
</g>
</svg>
