<?xml version="1.0" encoding="utf-8"?>
<!-- Generator: Adobe Illustrator 26.0.0, SVG Export Plug-In . SVG Version: 6.00 Build 0)  -->
<svg version="1.1" id="Capa_1" xmlns="http://www.w3.org/2000/svg" xmlns:xlink="http://www.w3.org/1999/xlink" x="0px" y="0px"
	 viewBox="0 0 57.6 75.1" style="enable-background:new 0 0 57.6 75.1;" xml:space="preserve">
<style type="text/css">
	.st0{fill:#ECECEC;}
	.st1{fill:#F8B133;}
	.st2{fill:#1D1D1B;}
	.st3{fill:#D8BEA1;}
	.st4{fill:#35A8E0;}
	.st5{fill:#93C01F;}
</style>
<path class="st0" d="M54.4,72.8H3.2c-0.6,0-1-0.4-1-1V3.2c0-0.6,0.4-1,1-1h33.3v15.5c0,1.9,1.5,3.4,3.4,3.4c0,0,0,0,0,0h15.5v50.8
	C55.4,72.4,54.9,72.8,54.4,72.8z"/>
<path class="st1" d="M32.9,22.7V8.2H7.7v20.6h41.5v-4.2H34.8C33.7,24.6,32.9,23.8,32.9,22.7z"/>
<path class="st2" d="M57.5,19.5c-0.1-0.1-0.1-0.3-0.2-0.4L38.5,0.3c-0.1-0.1-0.2-0.2-0.4-0.2C38,0,37.8,0,37.7,0H3.2
	C1.4,0,0,1.4,0,3.2v68.7c0,1.8,1.4,3.2,3.2,3.2c0,0,0,0,0,0h51.2c1.8,0,3.2-1.4,3.2-3.2V20C57.6,19.8,57.6,19.7,57.5,19.5z
	 M38.8,3.8l15,15H39.9c-0.6,0-1.1-0.5-1.1-1.1L38.8,3.8z M54.4,72.8H3.2c-0.6,0-1-0.4-1-1V3.2c0-0.6,0.4-1,1-1h33.3v15.5
	c0,1.9,1.5,3.4,3.4,3.4c0,0,0,0,0,0h15.5v50.8C55.4,72.4,54.9,72.8,54.4,72.8z"/>
<path class="st3" d="M38.8,3.8l15,15H39.9c-0.6,0-1.1-0.5-1.1-1.1L38.8,3.8z"/>
<path class="st2" d="M47.5,29.9H9.5c-1.6,0-2.9-1.3-2.9-2.9l0,0V10c0-1.6,1.3-2.9,2.9-2.9h23.3c0.6,0.1,1.1,0.6,1,1.2
	c-0.1,0.5-0.5,1-1,1H9.5c-0.4,0-0.7,0.3-0.7,0.7c0,0,0,0,0,0v17c0,0.4,0.3,0.7,0.7,0.7l0,0h37.9c0.4,0,0.7-0.3,0.7-0.7c0,0,0,0,0,0
	v-2.4c-0.1-0.6,0.4-1.2,1-1.2c0.6-0.1,1.2,0.4,1.2,1c0,0.1,0,0.1,0,0.2V27C50.4,28.6,49.1,29.9,47.5,29.9z"/>
<path class="st2" d="M49.3,40.2H7.7c-0.6,0.1-1.2-0.4-1.2-1c-0.1-0.6,0.4-1.2,1-1.2c0.1,0,0.1,0,0.2,0h41.5c0.6,0.1,1.1,0.6,1,1.2
	C50.2,39.7,49.8,40.1,49.3,40.2z"/>
<path class="st2" d="M49.3,47.6H7.7c-0.6,0-1.1-0.5-1.1-1.1c0-0.6,0.5-1.1,1.1-1.1l0,0h41.5c0.6,0,1.1,0.5,1.1,1.1
	C50.4,47.1,49.9,47.6,49.3,47.6z"/>
<path class="st2" d="M49.3,55H7.7c-0.6,0.1-1.2-0.4-1.2-1c-0.1-0.6,0.4-1.2,1-1.2c0.1,0,0.1,0,0.2,0h41.5c0.6,0.1,1.1,0.6,1,1.2
	C50.2,54.5,49.8,54.9,49.3,55z"/>
<path class="st4" d="M7.5,63.3h3.4c0.3,0,0.5,0.2,0.5,0.5v3.4c0,0.3-0.2,0.5-0.5,0.5H7.5c-0.3,0-0.5-0.2-0.5-0.5v-3.4
	C7,63.5,7.2,63.3,7.5,63.3z"/>
<path class="st5" d="M14.9,63.3h3.4c0.3,0,0.5,0.2,0.5,0.5v3.4c0,0.3-0.2,0.5-0.5,0.5h-3.4c-0.3,0-0.5-0.2-0.5-0.5v-3.4
	C14.4,63.5,14.6,63.3,14.9,63.3z"/>
<path class="st1" d="M22.2,63.3h3.4c0.3,0,0.5,0.2,0.5,0.5v3.4c0,0.3-0.2,0.5-0.5,0.5h-3.4c-0.3,0-0.5-0.2-0.5-0.5v-3.4
	C21.8,63.5,22,63.3,22.2,63.3z"/>
</svg>
