<?xml version="1.0" encoding="utf-8"?>
<!-- Generator: Adobe Illustrator 26.0.0, SVG Export Plug-In . SVG Version: 6.00 Build 0)  -->
<svg version="1.1" id="Capa_1" xmlns="http://www.w3.org/2000/svg" xmlns:xlink="http://www.w3.org/1999/xlink" x="0px" y="0px"
	 viewBox="0 0 76.3 76.5" style="enable-background:new 0 0 76.3 76.5;" xml:space="preserve">
<style type="text/css">
	.st0{fill:#93C01F;}
	.st1{fill:#35A8E0;}
	.st2{fill:#F8B133;}
</style>
<g>
	<rect x="30.3" y="49" class="st0" width="18" height="10"/>
	<rect x="30.3" y="65.5" class="st0" width="18" height="10"/>
	<rect x="57.3" y="49" class="st0" width="18" height="10"/>
	<rect x="57.3" y="65.5" class="st0" width="18" height="10"/>
	<rect x="38.3" y="1" class="st1" width="29" height="16"/>
	<path class="st2" d="M18.7,23L15,31.9L11.7,23H8.8C4.5,23,1,26.5,1,30.8V45c0,2.7,2.2,5,5,5h1.3v25.5h16v-43c0-1.4,1.1-2.5,2.5-2.5
		h17.4v-7H18.7z"/>
	<g>
		<path d="M13.9,20H16c3.5,0,6.4-2.9,6.4-6.4v-3.1c0-3.5-2.9-6.4-6.4-6.4h-2.1c-3.5,0-6.4,2.9-6.4,6.4v3.1C7.5,17.1,10.4,20,13.9,20
			z M9.5,10.4c0-2.4,2-4.4,4.4-4.4H16c2.4,0,4.4,2,4.4,4.4v3.1c0,2.4-2,4.4-4.4,4.4h-2.1c-2.4,0-4.4-2-4.4-4.4V10.4z"/>
		<rect x="14" y="38" width="2" height="2.2"/>
		<rect x="14" y="43" width="2" height="2"/>
		<path d="M66.2,40H53.8V21.1h-2V40H39.3c-0.6,0-1,0.4-1,1v3h2v-2h24.9v2h2v-3C67.2,40.4,66.8,40,66.2,40z"/>
		<rect x="42" y="5.2" width="15" height="2"/>
		<rect x="42" y="10" width="20.3" height="2"/>
		<path d="M44.1,22H8.8C3.9,22,0,26,0,30.8V45c0,3.3,2.7,6,6,6h0.3v25.5h18v-44c0-0.9,0.7-1.5,1.5-1.5h18.4L44.1,22L44.1,22z
			 M17.3,24L15,30l-2.3-6H17.3z M42.1,29H25.7c-2,0-3.5,1.6-3.5,3.5v42H16V50.3h-2v24.2H8.2v-42h-2V49H5.9c-2.2,0-4-1.8-4-4V30.8
			C1.9,27,5,24,8.7,24h1.7l3.5,9.1c0.1,0.4,0.5,0.6,0.9,0.6l0,0c0.4,0,0.8-0.3,0.9-0.6l3.6-9.1H42L42.1,29L42.1,29z"/>
	</g>
	<g>
		<rect x="35.6" y="52.9" width="2" height="2.2"/>
		<rect x="40.6" y="52.9" width="2" height="2.2"/>
		<rect x="35.6" y="69.4" width="2" height="2.2"/>
		<rect x="40.6" y="69.4" width="2" height="2.2"/>
		<path d="M48.3,48h-18c-0.6,0-1,0.4-1,1v10c0,0.6,0.4,1,1,1h7.6v4.5h-7.6c-0.6,0-1,0.4-1,1v10c0,0.6,0.4,1,1,1h18c0.6,0,1-0.4,1-1
			v-10c0-0.6-0.4-1-1-1h-8.4V60h8.4c0.6,0,1-0.4,1-1V49C49.3,48.4,48.8,48,48.3,48z M47.3,74.5h-16v-8h16V74.5z M47.3,58h-16v-8h16
			V58z"/>
		<rect x="62.6" y="52.9" width="2" height="2.2"/>
		<rect x="67.6" y="52.9" width="2" height="2.2"/>
		<rect x="62.6" y="69.4" width="2" height="2.2"/>
		<rect x="67.6" y="69.4" width="2" height="2.2"/>
		<path d="M75.3,60c0.6,0,1-0.4,1-1V49c0-0.6-0.4-1-1-1h-18c-0.6,0-1,0.4-1,1v10c0,0.6,0.4,1,1,1h7.6v4.5h-7.6c-0.6,0-1,0.4-1,1v10
			c0,0.6,0.4,1,1,1h18c0.6,0,1-0.4,1-1v-10c0-0.6-0.4-1-1-1h-8.4V60H75.3z M74.3,74.5h-16v-8h16V74.5z M58.3,50h16v8h-16V50z"/>
	</g>
	<path d="M67.3,18h-29c-0.6,0-1-0.4-1-1V1c0-0.6,0.4-1,1-1h29c0.6,0,1,0.4,1,1v16C68.3,17.6,67.8,18,67.3,18z M39.3,16h27V2h-27V16z
		"/>
</g>
</svg>
