<?xml version="1.0" encoding="utf-8"?>
<!-- Generator: Adobe Illustrator 26.0.0, SVG Export Plug-In . SVG Version: 6.00 Build 0)  -->
<svg version="1.1" id="Capa_1" xmlns="http://www.w3.org/2000/svg" xmlns:xlink="http://www.w3.org/1999/xlink" x="0px" y="0px"
	 viewBox="0 0 21.4 21.4" style="enable-background:new 0 0 21.4 21.4;" xml:space="preserve">
<style type="text/css">
	.st0{fill:#FFFFFF;}
</style>
<g id="iconos">
	<path class="st0" d="M8,7.6c0.3-0.3,0.5-0.6,0.7-1C9.2,5.3,9,5,9,5C8.4,4,7.7,3,6.8,2.2C6,1.3,5.1,0.6,4,0.1
		c-0.8-0.2-1.6,0-2.1,0.6l0,0L1.5,1L8,7.6z"/>
	<path class="st0" d="M21.3,17.3c-0.5-1-1.3-2-2.1-2.8c-0.8-0.9-1.8-1.6-2.8-2.1c0,0-0.3-0.2-1.6,0.3c-0.4,0.2-0.7,0.4-1,0.7
		l6.5,6.5c0.1-0.1,0.3-0.2,0.4-0.4l0,0C21.3,18.9,21.5,18.1,21.3,17.3z"/>
	<path class="st0" d="M13.1,14.3c-0.2,0.3-0.6,0.4-0.9,0.4c-1.4-0.2-2.7-0.8-3.7-1.8c-1-1-2.5-3.8-1.4-4.6l0.2-0.1L0.9,1.8
		C0.4,2.5,0.1,3.4,0,4.4c0,0-0.2,5.3,5.8,11.2c5.6,5.6,10.6,5.8,11.2,5.8H17c0.9-0.1,1.8-0.4,2.6-0.9l-6.4-6.3L13.1,14.3z"/>
</g>
</svg>
