<?xml version="1.0" encoding="UTF-8" standalone="no"?>
<!-- Generator: Adobe Illustrator 26.0.0, SVG Export Plug-In . SVG Version: 6.00 Build 0)  -->

<svg
   version="1.1"
   id="Capa_1"
   x="0px"
   y="0px"
   viewBox="0 0 35.900002 35.5"
   xml:space="preserve"
   sodipodi:docname="d696fad87c92d459dfe2b2fa19d74779.svg"
   width="35.900002"
   height="35.5"
   xmlns:inkscape="http://www.inkscape.org/namespaces/inkscape"
   xmlns:sodipodi="http://sodipodi.sourceforge.net/DTD/sodipodi-0.dtd"
   xmlns="http://www.w3.org/2000/svg"
   xmlns:svg="http://www.w3.org/2000/svg"><defs
   id="defs13" /><sodipodi:namedview
   id="namedview11"
   pagecolor="#ffffff"
   bordercolor="#666666"
   borderopacity="1.0"
   inkscape:pageshadow="2"
   inkscape:pageopacity="0.0"
   inkscape:pagecheckerboard="0" />
<style
   type="text/css"
   id="style2">
	.st0{fill:#D8BEA2;}
</style>
<g
   id="g8">
	<path
   class="st0"
   d="m 28.2,34.5 h 6.7 C 34.9,25.2 27.3,17.6 18,17.6 8.7,17.6 1,25.2 1,34.5 h 18.2"
   id="path4" />
	<path
   d="m 22.7,17.3 c 2.7,-1.6 4.5,-4.6 4.5,-8 C 27.2,4.2 23,0 17.9,0 12.8,0 8.6,4.2 8.6,9.3 c 0,3.4 1.8,6.3 4.5,8 C 5.6,19.4 0,26.3 0,34.5 c 0,0.6 0.4,1 1,1 h 18.2 c 0.6,0 1,-0.4 1,-1 0,-0.6 -0.4,-1 -1,-1 H 2 c 0.5,-8.3 7.4,-14.9 15.9,-14.9 8.5,0 15.4,6.6 15.9,14.9 h -5.6 c -0.6,0 -1,0.4 -1,1 0,0.6 0.4,1 1,1 h 6.7 c 0.6,0 1,-0.4 1,-1 C 35.8,26.3 30.3,19.4 22.7,17.3 Z m -12.1,-8 c 0,-4 3.3,-7.3 7.3,-7.3 4,0 7.3,3.3 7.3,7.3 0,4 -3.3,7.3 -7.3,7.3 -4,0 -7.3,-3.3 -7.3,-7.3 z"
   id="path6" />
</g>
</svg>
