<?xml version="1.0" encoding="utf-8"?>
<!-- Generator: Adobe Illustrator 26.0.0, SVG Export Plug-In . SVG Version: 6.00 Build 0)  -->
<svg version="1.1" id="Capa_1" xmlns="http://www.w3.org/2000/svg" xmlns:xlink="http://www.w3.org/1999/xlink" x="0px" y="0px"
	 viewBox="0 0 16.9 16.9" style="enable-background:new 0 0 16.9 16.9;" xml:space="preserve">
<style type="text/css">
	.st0{fill:#EDEDED;}
	.st1{fill:#020303;}
	.st2{fill:#1D1D1B;}
</style>
<g id="Capa_2_00000101803115284694731620000003180560218303140534_">
	<path class="st0" d="M0.5,8.4c0,4.4,3.5,7.9,7.9,7.9s7.9-3.5,7.9-7.9s-3.5-7.9-7.9-7.9c0,0,0,0,0,0C4.1,0.5,0.5,4.1,0.5,8.4z
		 M12.3,8.4L9.1,5.5c-0.2-0.2-0.2-0.6,0-0.8c0,0,0,0,0,0c0.2-0.2,0.6-0.2,0.9,0L13.6,8c0.1,0.1,0.2,0.3,0.2,0.4
		c0,0.2-0.1,0.3-0.2,0.4l-3.7,3.4c-0.2,0.2-0.6,0.2-0.9,0s-0.2-0.6,0-0.9L12.3,8.4z M7,8.4L3.8,5.5c-0.2-0.2-0.2-0.6,0-0.8
		c0,0,0,0,0,0c0.2-0.2,0.6-0.2,0.8,0L8.3,8c0.1,0.1,0.2,0.3,0.2,0.4c0,0.2-0.1,0.3-0.2,0.4l-3.7,3.4c-0.1,0.1-0.3,0.2-0.4,0.2
		c-0.3,0-0.6-0.3-0.6-0.6c0-0.2,0.1-0.3,0.2-0.5L7,8.4z"/>
	<path class="st1" d="M0,8.4C0,3.8,3.8,0,8.4,0s8.4,3.8,8.4,8.4c0,4.7-3.8,8.4-8.4,8.4c0,0,0,0,0,0C3.8,16.9,0,13.1,0,8.4z M1,8.4
		c0,4.1,3.3,7.4,7.4,7.4s7.4-3.3,7.4-7.4S12.6,1,8.4,1c0,0,0,0,0,0C4.3,1,1,4.3,1,8.4z"/>
	<path class="st2" d="M9.5,4.5c0.2,0,0.3,0.1,0.4,0.2L13.6,8c0.1,0.1,0.2,0.3,0.2,0.4c0,0.2-0.1,0.3-0.2,0.4l-3.7,3.4
		c-0.2,0.2-0.6,0.2-0.9,0s-0.2-0.6,0-0.9l3.2-2.9L9.1,5.5c-0.2-0.2-0.2-0.6,0-0.8c0,0,0,0,0,0C9.2,4.5,9.4,4.5,9.5,4.5 M9.5,3.7
		c-0.7,0-1.4,0.6-1.4,1.3c0,0.4,0.2,0.7,0.4,1l2.6,2.4l-2.6,2.4C8,11.3,8,12.2,8.5,12.7c0.3,0.3,0.6,0.4,1,0.4
		c0.3,0,0.7-0.1,0.9-0.4l3.7-3.4c0.3-0.3,0.4-0.6,0.4-1c0-0.4-0.2-0.7-0.4-1l-3.7-3.4C10.1,3.8,9.8,3.7,9.5,3.7L9.5,3.7z"/>
	<path class="st2" d="M4.2,4.5c0.2,0,0.3,0.1,0.4,0.2L8.3,8c0.1,0.1,0.2,0.3,0.2,0.4c0,0.2-0.1,0.3-0.2,0.4l-3.7,3.4
		c-0.1,0.1-0.3,0.2-0.4,0.2c-0.3,0-0.6-0.3-0.6-0.6c0-0.2,0.1-0.3,0.2-0.5L7,8.4L3.8,5.5c-0.2-0.2-0.2-0.6,0-0.8c0,0,0,0,0,0
		C3.9,4.5,4,4.5,4.2,4.5 M4.2,3.7c-0.4,0-0.7,0.2-1,0.4C2.7,4.7,2.8,5.6,3.3,6.1l2.6,2.4l-2.6,2.4c-0.5,0.5-0.6,1.4-0.1,1.9
		c0,0,0,0,0,0c0.3,0.3,0.6,0.4,1,0.4c0.3,0,0.7-0.1,0.9-0.4l3.7-3.4c0.3-0.3,0.4-0.6,0.4-1c0-0.4-0.2-0.7-0.4-1L5.1,4.1
		C4.8,3.8,4.5,3.7,4.2,3.7L4.2,3.7z"/>
</g>
</svg>
