<?xml version="1.0" encoding="utf-8"?>
<!-- Generator: Adobe Illustrator 26.0.0, SVG Export Plug-In . SVG Version: 6.00 Build 0)  -->
<svg version="1.1" id="Capa_1" xmlns="http://www.w3.org/2000/svg" xmlns:xlink="http://www.w3.org/1999/xlink" x="0px" y="0px"
	 viewBox="0 0 71.7 72.1" style="enable-background:new 0 0 71.7 72.1;" xml:space="preserve">
<style type="text/css">
	.st0{fill:#B2B2B2;}
</style>
<g>
	<path class="st0" d="M64,7.1h-5.2V2.5c0-1.4-1.1-2.5-2.5-2.5h-3.4c-1.4,0-2.5,1.1-2.5,2.5v4.6H40V2.5C40,1.1,38.9,0,37.5,0h-3.3
		c-1.4,0-2.5,1.1-2.5,2.5v4.6H21.3V2.5c0-1.4-1.1-2.5-2.5-2.5h-3.4c-1.4,0-2.5,1.1-2.5,2.5v4.6H7.7C3.5,7.1,0,10.6,0,14.8v8.9v2
		v38.7c0,4.2,3.5,7.7,7.7,7.7H64c4.2,0,7.7-3.5,7.7-7.7V25.7v-2v-8.9C71.7,10.6,68.3,7.1,64,7.1z M52.5,7.1V2.5
		C52.5,2.2,52.7,2,53,2h3.4c0.3,0,0.5,0.2,0.5,0.5v4.6v8.8c0,0.3-0.2,0.5-0.5,0.5H53c-0.3,0-0.5-0.2-0.5-0.5V7.1z M33.7,7.1V2.5
		c0-0.3,0.2-0.5,0.5-0.5h3.4c0.3,0,0.5,0.2,0.5,0.5v4.6v8.8c0,0.3-0.2,0.5-0.5,0.5h-3.4c-0.3,0-0.5-0.2-0.5-0.5V7.1z M14.9,7.1V2.5
		c0-0.3,0.2-0.5,0.5-0.5h3.4c0.3,0,0.5,0.2,0.5,0.5v4.6v8.8c0,0.3-0.2,0.5-0.5,0.5h-3.4c-0.3,0-0.5-0.2-0.5-0.5V7.1z M69.7,64.4
		c0,3.1-2.6,5.7-5.7,5.7H7.7c-3.1,0-5.7-2.6-5.7-5.7V25.7h67.7V64.4z M2,23.7v-8.9c0-3.1,2.6-5.7,5.7-5.7h5.2v6.8
		c0,1.4,1.1,2.5,2.5,2.5h3.4c1.4,0,2.5-1.1,2.5-2.5V9.1h10.4v6.8c0,1.4,1.1,2.5,2.5,2.5h3.4c1.4,0,2.5-1.1,2.5-2.5V9.1h10.4v6.8
		c0,1.4,1.1,2.5,2.5,2.5h3.4c1.4,0,2.5-1.1,2.5-2.5V9.1h5.2c3.1,0,5.7,2.6,5.7,5.7v8.9H2z"/>
	<path class="st0" d="M51.9,38.4l-5-5L32.2,48.1l-7.4-7.4l-5,5l12.5,12.5L51.9,38.4z M24.7,43.5l7.4,7.4l14.7-14.7l2.2,2.2
		L32.1,55.3l-9.6-9.6L24.7,43.5z"/>
</g>
</svg>
