<?xml version="1.0" encoding="utf-8"?>
<!-- Generator: Adobe Illustrator 26.0.0, SVG Export Plug-In . SVG Version: 6.00 Build 0)  -->
<svg version="1.1" id="Capa_1" xmlns="http://www.w3.org/2000/svg" xmlns:xlink="http://www.w3.org/1999/xlink" x="0px" y="0px"
	 viewBox="0 0 69.7 78.4" style="enable-background:new 0 0 69.7 78.4;" xml:space="preserve">
<style type="text/css">
	.st0{fill:#D8BEA2;}
</style>
<g>
	<polygon class="st0" points="62,13.6 62,7.4 56,7.4 56,64.9 24.8,64.9 21.2,64.9 14.3,64.9 14.3,71.2 21.2,71.2 21.2,77.4 
		61.3,77.4 63.7,77.4 69,77.4 69,13.6 	"/>
	<rect x="13.1" y="8.6" class="st0" width="14.6" height="14.6"/>
	<g>
		<path d="M13.1,24.2h14.6c0.6,0,1-0.4,1-1V8.6c0-0.6-0.4-1-1-1H13.1c-0.6,0-1,0.4-1,1v14.6C12.1,23.7,12.5,24.2,13.1,24.2z
			 M14.1,9.6h12.6v12.6H14.1V9.6z"/>
		<path d="M50.4,9.5H32.9c-0.6,0-1,0.4-1,1s0.4,1,1,1h17.4c0.6,0,1-0.4,1-1S50.9,9.5,50.4,9.5z"/>
		<path d="M50.4,14.9H32.9c-0.6,0-1,0.4-1,1s0.4,1,1,1h17.4c0.6,0,1-0.4,1-1S50.9,14.9,50.4,14.9z"/>
		<path d="M50.4,20.3H32.9c-0.6,0-1,0.4-1,1s0.4,1,1,1h17.4c0.6,0,1-0.4,1-1S50.9,20.3,50.4,20.3z"/>
		<path d="M21.7,31.7c0,0.6,0.4,1,1,1h17.4c0.6,0,1-0.4,1-1s-0.4-1-1-1H22.7C22.1,30.7,21.7,31.1,21.7,31.7z"/>
		<path d="M12.5,39.6H25c0.6,0,1-0.4,1-1s-0.4-1-1-1H12.5c-0.6,0-1,0.4-1,1S11.9,39.6,12.5,39.6z"/>
		<path d="M50.4,37.6H30.2c-0.6,0-1,0.4-1,1s0.4,1,1,1h20.2c0.6,0,1-0.4,1-1S50.9,37.6,50.4,37.6z"/>
		<path d="M50.4,44.5H12.5c-0.6,0-1,0.4-1,1s0.4,1,1,1h37.9c0.6,0,1-0.4,1-1S50.9,44.5,50.4,44.5z"/>
		<path d="M68.7,12.6h-5.9V7.4c0-0.6-0.4-1-1-1h-5.1V0h-50v53.1H0.2L0.1,54c-0.7,6.5,1.8,10.5,7.3,11.9l5.6,0v5.3c0,0.6,0.4,1,1,1
			h5.9v5.2c0,0.6,0.4,1,1,1h23.4c0.6,0,1-0.4,1-1s-0.4-1-1-1H21.9v-4.2h39.8c0.6,0,1-0.4,1-1V53.2c0-0.6-0.4-1-1-1s-1,0.4-1,1v17.1
			H15v-4.3l32.3,0c0,0,0,0,0,0c0,0,0,0,0,0l9.3,0V8.4h4.1v39.2c0,0.6,0.4,1,1,1s1-0.4,1-1v-33h4.9v61.8H50.4c-0.6,0-1,0.4-1,1
			s0.4,1,1,1h18.3c0.6,0,1-0.4,1-1V13.6C69.7,13.1,69.2,12.6,68.7,12.6z M54.7,63.9h-7.2c-4.5-1.2-6.3-4.3-5.7-9.8l0.1-1.1h-9.9
			c-0.6,0-1,0.4-1,1s0.4,1,1,1h7.8c-0.2,4,0.9,7,3.3,8.9H7.8c0,0-0.1,0-0.1,0c-0.5-0.1-1-0.3-1.4-0.5c0,0,0,0,0,0
			c-0.4-0.2-0.8-0.4-1.2-0.6c0,0-0.1,0-0.1-0.1c-0.3-0.2-0.7-0.5-0.9-0.8c0,0-0.1-0.1-0.1-0.1c-0.3-0.3-0.5-0.6-0.7-0.9
			c0,0-0.1-0.1-0.1-0.1c-0.2-0.3-0.4-0.7-0.5-1c0-0.1,0-0.1-0.1-0.2c-0.1-0.4-0.3-0.8-0.4-1.2c0-0.1,0-0.1,0-0.2
			c-0.1-0.4-0.1-0.9-0.2-1.4c0-0.1,0-0.1,0-0.2c0-0.5,0-1,0-1.6c0,0,0,0,0,0h25.2c0.6,0,1-0.4,1-1s-0.4-1-1-1H8.7V2h46V63.9z"/>
	</g>
</g>
</svg>
