<?xml version="1.0" encoding="utf-8"?>
<!-- Generator: Adobe Illustrator 26.0.0, SVG Export Plug-In . SVG Version: 6.00 Build 0)  -->
<svg version="1.1" id="Capa_1" xmlns="http://www.w3.org/2000/svg" xmlns:xlink="http://www.w3.org/1999/xlink" x="0px" y="0px"
	 viewBox="0 0 13 13" style="enable-background:new 0 0 13 13;" xml:space="preserve">
<style type="text/css">
	.st0{fill:#FFFFFF;}
</style>
<path class="st0" d="M10.8,0H2.2C1,0,0,1,0,2.2c0,0,0,0,0,0v8.6C0,12,1,13,2.2,13c0,0,0,0,0,0h4.7V8H5.2V6.1h1.7V4.6
	C6.8,3.3,7.7,2.2,9,2.1c0.1,0,0.3,0,0.4,0c0.7,0,1.3,0,1.5,0.1v1.7h-1c-0.8,0-1,0.4-1,1v1.2h1.9L10.6,8H8.9v5h1.9
	c1.2,0,2.2-1,2.2-2.2c0,0,0,0,0,0V2.2C13,1,12,0,10.8,0C10.8,0,10.8,0,10.8,0z"/>
</svg>
