<?xml version="1.0" encoding="utf-8"?>
<!-- Generator: Adobe Illustrator 26.0.0, SVG Export Plug-In . SVG Version: 6.00 Build 0)  -->
<svg version="1.1" id="Capa_1" xmlns="http://www.w3.org/2000/svg" xmlns:xlink="http://www.w3.org/1999/xlink" x="0px" y="0px"
	 viewBox="0 0 78.8 79.5" style="enable-background:new 0 0 78.8 79.5;" xml:space="preserve">
<style type="text/css">
	.st0{fill:#D8BEA2;}
</style>
<g>
	<path class="st0" d="M47.6,77.5H4.2c-1.5,0-2.7-1.2-2.7-2.7v-56h48.8v56C50.3,76.3,49.1,77.5,47.6,77.5z"/>
	<path class="st0" d="M64.6,7.4h1.5c2.5,0,4.5,2,4.5,4.5v4.9H60V12C60,9.5,62.1,7.4,64.6,7.4z"/>
	<path class="st0" d="M65.3,73.4L65.3,73.4c-2.9,0-5.3-8.5-5.3-11.4v-1.1h10.6v1.1C70.6,64.9,68.3,73.4,65.3,73.4z"/>
	<g>
		<path d="M45.1,4.2h-3.2V1c0-0.6-0.4-1-1-1s-1,0.4-1,1v3.2h-8V1c0-0.6-0.4-1-1-1s-1,0.4-1,1v3.2h-8V1c0-0.6-0.4-1-1-1s-1,0.4-1,1
			v3.2h-8V1c0-0.6-0.4-1-1-1s-1,0.4-1,1v3.2h-3C3,4.2,0,7.2,0,10.9v61.9c0,3.7,3,6.7,6.7,6.7h38.4c3.7,0,6.7-3,6.7-6.7V10.9
			C51.8,7.2,48.8,4.2,45.1,4.2z M6.7,6.2h3v3.4c0,0.6,0.4,1,1,1s1-0.4,1-1V6.2h8v3.4c0,0.6,0.4,1,1,1s1-0.4,1-1V6.2h8v3.4
			c0,0.6,0.4,1,1,1s1-0.4,1-1V6.2h8v3.4c0,0.6,0.4,1,1,1s1-0.4,1-1V6.2h3.2c2.6,0,4.7,2.1,4.7,4.7v6.9H2v-6.9C2,8.3,4.1,6.2,6.7,6.2
			z M45.1,77.5H6.7c-2.6,0-4.7-2.1-4.7-4.7v-53h47.8v53C49.8,75.4,47.7,77.5,45.1,77.5z"/>
		<path d="M40.9,28.2H10.8c-0.6,0-1,0.4-1,1s0.4,1,1,1h30.1c0.6,0,1-0.4,1-1S41.5,28.2,40.9,28.2z"/>
		<path d="M40.9,37.5H10.8c-0.6,0-1,0.4-1,1s0.4,1,1,1h30.1c0.6,0,1-0.4,1-1S41.5,37.5,40.9,37.5z"/>
		<path d="M40.9,46.8H10.8c-0.6,0-1,0.4-1,1s0.4,1,1,1h30.1c0.6,0,1-0.4,1-1S41.5,46.8,40.9,46.8z"/>
		<path d="M40.9,56.1H10.8c-0.6,0-1,0.4-1,1s0.4,1,1,1h30.1c0.6,0,1-0.4,1-1S41.5,56.1,40.9,56.1z"/>
		<path d="M35.2,65.4H10.8c-0.6,0-1,0.4-1,1s0.4,1,1,1h24.4c0.6,0,1-0.4,1-1S35.8,65.4,35.2,65.4z"/>
	</g>
	<path d="M77.8,17.8c-0.6,0-1,0.4-1,1v1.7h-5.2v-7.7c0-3.5-2.8-6.3-6.3-6.3s-6.3,2.8-6.3,6.3v48.3c0,2.1,1.8,11.7,5.3,13.3v3.2
		c0,0.6,0.4,1,1,1s1-0.4,1-1v-3.2c3.5-1.6,5.3-11.2,5.3-13.3V40.4h5.2v7.4c0,0.6,0.4,1,1,1s1-0.4,1-1v-29
		C78.8,18.3,78.4,17.8,77.8,17.8z M61.1,60.1v-42h8.6v42H61.1z M65.4,8.4c2.4,0,4.3,1.9,4.3,4.3v3.4h-8.6v-3.4
		C61.1,10.4,63,8.4,65.4,8.4z M65.4,72.6c-1.6,0-3.9-6.7-4.2-10.5h8.5C69.2,65.8,67,72.6,65.4,72.6z M71.7,38.4V22.5h5.2v15.9H71.7z
		"/>
</g>
</svg>
