<?xml version="1.0" encoding="utf-8"?>
<!-- Generator: Adobe Illustrator 26.0.0, SVG Export Plug-In . SVG Version: 6.00 Build 0)  -->
<svg version="1.1" id="Capa_1" xmlns="http://www.w3.org/2000/svg" xmlns:xlink="http://www.w3.org/1999/xlink" x="0px" y="0px"
	 viewBox="0 0 78.5 88" style="enable-background:new 0 0 78.5 88;" xml:space="preserve">
<style type="text/css">
	.st0{fill:#F8B133;}
	.st1{fill:#93C01F;}
	.st2{fill:#35A8E0;}
</style>
<g>
	<path class="st0" d="M53.5,35.2l-2.6-6.4l2.8-6.4l-4.6-4.6l-6.4,2.8L36.3,18l-2.6-6.5h-6.5L24.6,18l-6.4,2.6l-6.4-2.8l-4.4,4.6
		l2.8,6.4l-2.6,6.4l-6.5,2.6v6.5l6.5,2.6l2.6,6.4l-2.8,6.4l4.6,4.6l6.4-2.8l6.4,2.6l2.6,6.5h5.2l0,0V55.9c0-4.3,3.5-7.9,7.9-7.9
		h12.6l0.5-1.2l6.5-2.6v-6.5L53.5,35.2z M30.5,48c-3.9,0-7-3.1-7-7s3.1-7,7-7s7,3.1,7,7S34.4,48,30.5,48z"/>
	<g>
		<polygon points="32.5,69.5 28,69.5 25.5,63.2 18.4,60.3 12.2,63 8.6,59.3 11.3,53.2 8.3,46 2,43.6 2,38.4 8.3,36 11.3,28.8 
			8.6,22.7 12.2,19 18.4,21.7 25.5,18.8 28,12.5 33.1,12.5 35.6,18.8 42.7,21.7 48.9,19 52.5,22.7 49.8,28.8 52.8,36 59,38.4 
			59,43.6 52.8,46 52,48 54.1,48 54.3,47.6 61,44.9 61,37.1 54.3,34.4 52,28.8 54.9,22.2 49.3,16.7 42.7,19.5 37.1,17.2 34.5,10.5 
			26.6,10.5 24,17.2 18.4,19.5 11.8,16.7 6.2,22.2 9.1,28.8 6.8,34.4 0,37.1 0,44.9 6.8,47.6 9.1,53.2 6.2,59.8 11.8,65.3 
			18.4,62.5 24,64.8 26.6,71.5 32.5,71.5 		"/>
		<path d="M30.5,49c-4.4,0-8-3.6-8-8s3.6-8,8-8s8,3.6,8,8S35,49,30.5,49z M30.5,35c-3.3,0-6,2.7-6,6c0,3.3,2.7,6,6,6s6-2.7,6-6
			S33.9,35,30.5,35z"/>
		<circle cx="30.5" cy="27" r="1.1"/>
		<circle cx="40.4" cy="31.1" r="1.1"/>
		<circle cx="44.5" cy="41" r="1.1"/>
		<circle cx="30.5" cy="55" r="1.1"/>
		<circle cx="20.7" cy="50.9" r="1.1"/>
		<circle cx="16.5" cy="41" r="1.1"/>
		<circle cx="20.7" cy="31.1" r="1.1"/>
		<circle cx="35.9" cy="28.1" r="1.1"/>
		<circle cx="43.5" cy="35.6" r="1.1"/>
		<circle cx="43.5" cy="46.4" r="1.1"/>
		<circle cx="25.2" cy="53.9" r="1.1"/>
		<circle cx="17.6" cy="46.4" r="1.1"/>
		<circle cx="17.6" cy="35.6" r="1.1"/>
		<circle cx="25.2" cy="28.1" r="1.1"/>
	</g>
	<path class="st1" d="M40.4,52h33.3c2.1,0,3.8,1.7,3.8,3.8V87h-41V55.8C36.5,53.7,38.3,52,40.4,52z"/>
	<path d="M77.5,88h-41c-0.6,0-1-0.4-1-1V55.8c0-2.7,2.2-4.8,4.8-4.8h33.4c2.7,0,4.8,2.2,4.8,4.8V87C78.5,87.6,78.1,88,77.5,88z
		 M37.5,86h39V55.8c0-1.5-1.3-2.8-2.8-2.8H40.4c-1.5,0-2.8,1.3-2.8,2.8L37.5,86L37.5,86z"/>
	<circle cx="40.5" cy="59" r="1.1"/>
	<circle cx="45.3" cy="59" r="1.1"/>
	<circle cx="50" cy="59" r="1.1"/>
	<circle cx="54.7" cy="59" r="1.1"/>
	<circle cx="59.4" cy="59" r="1.1"/>
	<circle cx="64.1" cy="59" r="1.1"/>
	<circle cx="68.8" cy="59" r="1.1"/>
	<circle cx="73.5" cy="59" r="1.1"/>
	<path d="M50.2,72.2c-0.3,0-0.5-0.1-0.7-0.3L45.7,68l1.4-1.4l3.2,3.2l6.6-6.6l1.4,1.4L51,71.9C50.8,72.1,50.5,72.2,50.2,72.2z"/>
	<path d="M50.2,82.2c-0.3,0-0.5-0.1-0.7-0.3L45.6,78l1.4-1.4l3.2,3.2l6.6-6.6l1.4,1.4l-7.3,7.3C50.8,82.1,50.5,82.2,50.2,82.2z"/>
	<g>
		<path class="st2" d="M43.5,7l-4,3.8v5.3l3.2,1.3l7.1-3.1l7.5,7.5l-3.1,7.1l1.7,4l7.2,2.8v10.6L58.7,48h13.8V6.1
			c0-2.8-2.3-5.1-5.1-5.1H49.3L43.5,7z"/>
	</g>
	<path d="M67.4,0H48.9L38.5,10.4v4.7l2,1v-4.3h9.8V2h17.1c2.3,0,4.1,1.9,4.1,4.1V47H60.7l-5,2h17.8V6.1C73.5,2.8,70.8,0,67.4,0z
		 M42,9.8l6.4-6.4v6.4H42z"/>
	<path d="M67.7,14.5H56c-0.6,0-1-0.4-1-1s0.4-1,1-1h11.7c0.6,0,1,0.4,1,1S68.2,14.5,67.7,14.5z"/>
	<path d="M67.7,19.5H56c-0.6,0-1-0.4-1-1s0.4-1,1-1h11.7c0.6,0,1,0.4,1,1S68.2,19.5,67.7,19.5z"/>
	<path d="M67.7,29.5H56c-0.6,0-1-0.4-1-1s0.4-1,1-1h11.7c0.6,0,1,0.4,1,1S68.2,29.5,67.7,29.5z"/>
	<path d="M67.7,34.5h-6.1c-0.6,0-1-0.4-1-1s0.4-1,1-1h6.1c0.6,0,1,0.4,1,1S68.2,34.5,67.7,34.5z"/>
</g>
</svg>
