<?xml version="1.0" encoding="utf-8"?>
<!-- Generator: Adobe Illustrator 26.0.0, SVG Export Plug-In . SVG Version: 6.00 Build 0)  -->
<svg version="1.1" id="Capa_1" xmlns="http://www.w3.org/2000/svg" xmlns:xlink="http://www.w3.org/1999/xlink" x="0px" y="0px"
	 viewBox="0 0 16.9 16.9" style="enable-background:new 0 0 16.9 16.9;" xml:space="preserve">
<style type="text/css">
	.st0{fill:#EDEDED;}
	.st1{fill:#1D1D1B;}
</style>
<g id="Capa_2_00000005985148694120659640000010150596946391559567_">
	<path class="st0" d="M8.4,0.5C4,0.5,0.5,4.1,0.5,8.4s3.6,7.9,7.9,7.9c4.4,0,7.9-3.6,7.9-7.9c0,0,0,0,0,0C16.4,4.1,12.8,0.5,8.4,0.5
		C8.4,0.5,8.4,0.5,8.4,0.5z M8.7,12.6v-2.4H3.6V6.8h5.1V4.2l4.6,4.2L8.7,12.6z"/>
	<path class="st1" d="M8.4,16.9C3.8,16.9,0,13.1,0,8.4S3.8,0,8.4,0s8.4,3.8,8.4,8.4c0,0,0,0,0,0C16.9,13.1,13.1,16.9,8.4,16.9z
		 M8.4,1C4.3,1,1,4.3,1,8.4c0,4.1,3.3,7.4,7.4,7.4s7.4-3.3,7.4-7.4c0,0,0,0,0,0C15.9,4.3,12.5,1,8.4,1C8.4,1,8.4,1,8.4,1z M8.7,13.1
		c-0.1,0-0.1,0-0.2-0.1c-0.2-0.1-0.3-0.3-0.3-0.4v-1.9H3.6c-0.3,0-0.5-0.2-0.5-0.5V6.8c0-0.3,0.2-0.5,0.5-0.5h4.6V4.2
		c0-0.2,0.1-0.4,0.3-0.5c0.2-0.1,0.4,0,0.5,0.1l4.6,4.2c0.1,0.1,0.2,0.2,0.2,0.4c0,0.1-0.1,0.3-0.2,0.4L9,13
		C8.9,13.1,8.8,13.1,8.7,13.1z M4.1,9.7h4.6c0.3,0,0.5,0.2,0.5,0.5v1.3l3.4-3.1L9.2,5.4v1.4c0,0.3-0.2,0.5-0.5,0.5H4.1V9.7z"/>
</g>
</svg>
