<?xml version="1.0" encoding="utf-8"?>
<!-- Generator: Adobe Illustrator 26.0.0, SVG Export Plug-In . SVG Version: 6.00 Build 0)  -->
<svg version="1.1" xmlns="http://www.w3.org/2000/svg" xmlns:xlink="http://www.w3.org/1999/xlink" x="0px" y="0px"
	 viewBox="0 0 716 204.6" style="enable-background:new 0 0 716 204.6;" xml:space="preserve">
<style type="text/css">
	.st0{fill:#DF433C;}
	.st1{fill:url(#SVGID_1_);}
	.st2{fill:#25374F;}
	.st3{fill:url(#SVGID_00000083059999503758334750000017988685981085222273_);}
	.st4{fill:url(#SVGID_00000060002826557617021230000000557614083459491005_);}
	.st5{fill:#009B9B;}
	.st6{fill:#9D9D9C;}
	.st7{fill:#BE9053;}
</style>
<g id="Capa_1">
</g>
<g id="Capa_2">
	<g>
		<g>
			<path class="st0" d="M370.7,114.6v37.8h41.9c3.9,0,7.1,0.3,9.7,1c2.5,0.7,4.5,1.7,6,3.1c1.5,1.4,2.5,3,3.1,4.9
				c0.6,1.9,0.9,4.1,0.9,6.6v5.6c0,2.4-0.3,4.6-0.9,6.5c-0.6,1.9-1.7,3.6-3.3,4.9c-1.6,1.4-3.7,2.4-6.3,3.1c-2.6,0.7-6,1.1-10.1,1.1
				h-30.6c-5,0-9.2-0.4-12.5-1.2c-3.3-0.8-6-2.1-7.9-3.9c-2-1.8-3.4-4.2-4.2-7.1c-0.8-2.9-1.2-6.5-1.2-10.9v-51.7L370.7,114.6z
				 M370.7,167.5c0,2.2,0.2,4,0.6,5.4c0.4,1.4,1,2.5,1.9,3.2c0.8,0.8,1.9,1.3,3.2,1.6c1.3,0.3,2.9,0.4,4.7,0.4h29.2
				c2,0,3.6-0.4,4.7-1.2c1.1-0.8,1.7-2.3,1.7-4.4v-4.1c0-2.3-0.5-3.9-1.6-4.8c-1-0.8-2.5-1.3-4.3-1.3h-40.2V167.5z"/>
			<path class="st0" d="M273.4,189.3v-51.7c0-4.3,0.4-7.9,1.2-10.9c0.8-2.9,2.2-5.3,4.2-7.1c2-1.8,4.6-3.1,7.9-3.9
				c3.3-0.8,7.5-1.2,12.5-1.2h30.6c4.1,0,7.5,0.4,10.1,1.1c2.6,0.7,4.8,1.8,6.3,3.1c1.6,1.4,2.7,3,3.3,4.9c0.6,1.9,0.9,4.1,0.9,6.5
				v5.6c0,2.5-0.3,8.6-0.9,10.6c-0.6,1.9-1.6,3.6-3.1,4.9c-1.5,1.4-3.5,2.4-6,3.1c-2.5,0.7-5.8,1-9.7,1h-41.9v33.8L273.4,189.3z
				 M288.9,145.3h40.2c1.8,0,3.2-0.4,4.3-1.3c1-0.8,1.6-2.4,1.6-4.8v-8c0-2.1-0.6-3.6-1.7-4.4c-1.1-0.8-2.7-1.2-4.7-1.2h-29.2
				c-1.8,0-3.4,0.1-4.7,0.4c-1.3,0.3-2.4,0.8-3.2,1.6c-0.8,0.8-1.5,1.8-1.9,3.2c-0.4,1.4-0.6,3.2-0.6,5.4V145.3z"/>
			<path class="st0" d="M701.6,175.1h-29.5c-2.4,0-4.4-0.2-6-0.5c-1.6-0.4-2.9-1-3.9-2c-1-0.9-1.7-2.2-2.1-3.7
				c-0.5-1.5-0.7-3.4-0.7-5.8v-48.6h-16v49.1c0,4.8,0.4,8.8,1.3,12c0.9,3.3,2.3,5.9,4.4,7.9c2.1,2,4.9,3.5,8.4,4.4
				c3.5,0.9,7.8,1.4,13.1,1.4h31V175.1z"/>
			<path class="st0" d="M514.1,123.7c-0.6-1.9-1.7-3.6-3.3-4.9c-1.6-1.4-3.7-2.4-6.3-3.1c-2.6-0.7-6-1.1-10.1-1.1h-30.6
				c-5,0-9.2,0.4-12.5,1.2c-3.3,0.8-6,2.1-7.9,3.9c-2,1.8-3.4,4.2-4.2,7.1c-0.8,2.9-1.2,6.5-1.2,10.9v51.7l15.6,0v-23.8h0v-20.1V142
				v-5.6c0-2.2,0.2-4,0.6-5.4c0.4-1.4,1-2.5,1.9-3.2c0.8-0.8,1.9-1.3,3.2-1.6c1.3-0.3,2.9-0.4,4.7-0.4h29.2c2,0,3.6,0.4,4.7,1.2
				c1.1,0.8,1.7,2.3,1.7,4.4v8c0,2.3-0.5,3.9-1.6,4.8c-1,0.8-2.5,1.3-4.3,1.3h-32.8v9.9c9.4,0,19.4,3.6,25.4,7.8s8.6,8.8,8.6,15
				v11.3h15.5c0,0,0.6-6.8,0-14c-0.6-7.2-4.5-12.1-8.6-15c-4.1-2.9-8.6-3.8-14.4-4.9h8c3.9,0,7.1-0.3,9.7-1c2.5-0.7,4.5-1.7,6-3.1
				c1.5-1.4,2.5-3,3.1-4.9c0.6-1.9,0.9-8.1,0.9-10.6v-5.6C515,127.8,514.7,125.6,514.1,123.7z"/>
			<path class="st0" d="M622.4,114.6v49.8c0,2.8-3.5,4-5.2,1.8l-39.9-50.8c-0.4-0.5-1-0.8-1.6-0.8h-14.4v74.7h15.6V137
				c0-1.9,2.4-2.8,3.6-1.3l41.2,52.4c0.6,0.7,1.4,1.1,2.3,1.1h7.6c1.6,0,2.9-1.3,2.9-2.9v-71.7H622.4z"/>
			<path class="st0" d="M370.7,114.6v37.8h41.9c3.9,0,7.1,0.3,9.7,1c2.5,0.7,4.5,1.7,6,3.1c1.5,1.4,2.5,3,3.1,4.9
				c0.6,1.9,0.9,4.1,0.9,6.6v5.6c0,2.4-0.3,4.6-0.9,6.5c-0.6,1.9-1.7,3.6-3.3,4.9c-1.6,1.4-3.7,2.4-6.3,3.1c-2.6,0.7-6,1.1-10.1,1.1
				h-30.6c-5,0-9.2-0.4-12.5-1.2c-3.3-0.8-6-2.1-7.9-3.9c-2-1.8-3.4-4.2-4.2-7.1c-0.8-2.9-1.2-6.5-1.2-10.9v-51.7L370.7,114.6z
				 M370.7,167.5c0,2.2,0.2,4,0.6,5.4c0.4,1.4,1,2.5,1.9,3.2c0.8,0.8,1.9,1.3,3.2,1.6c1.3,0.3,2.9,0.4,4.7,0.4h29.2
				c2,0,3.6-0.4,4.7-1.2c1.1-0.8,1.7-2.3,1.7-4.4v-4.1c0-2.3-0.5-3.9-1.6-4.8c-1-0.8-2.5-1.3-4.3-1.3h-40.2V167.5z"/>
			<path class="st0" d="M273.4,189.3v-51.7c0-4.3,0.4-7.9,1.2-10.9c0.8-2.9,2.2-5.3,4.2-7.1c2-1.8,4.6-3.1,7.9-3.9
				c3.3-0.8,7.5-1.2,12.5-1.2h30.6c4.1,0,7.5,0.4,10.1,1.1c2.6,0.7,4.8,1.8,6.3,3.1c1.6,1.4,2.7,3,3.3,4.9c0.6,1.9,0.9,4.1,0.9,6.5
				v5.6c0,2.5-0.3,8.6-0.9,10.6c-0.6,1.9-1.6,3.6-3.1,4.9c-1.5,1.4-3.5,2.4-6,3.1c-2.5,0.7-5.8,1-9.7,1h-41.9v33.8L273.4,189.3z
				 M288.9,145.3h40.2c1.8,0,3.2-0.4,4.3-1.3c1-0.8,1.6-2.4,1.6-4.8v-8c0-2.1-0.6-3.6-1.7-4.4c-1.1-0.8-2.7-1.2-4.7-1.2h-29.2
				c-1.8,0-3.4,0.1-4.7,0.4c-1.3,0.3-2.4,0.8-3.2,1.6c-0.8,0.8-1.5,1.8-1.9,3.2c-0.4,1.4-0.6,3.2-0.6,5.4V145.3z"/>
			<path class="st0" d="M701.6,175.1h-29.5c-2.4,0-4.4-0.2-6-0.5c-1.6-0.4-2.9-1-3.9-2c-1-0.9-1.7-2.2-2.1-3.7
				c-0.5-1.5-0.7-3.4-0.7-5.8v-48.6h-16v49.1c0,4.8,0.4,8.8,1.3,12c0.9,3.3,2.3,5.9,4.4,7.9c2.1,2,4.9,3.5,8.4,4.4
				c3.5,0.9,7.8,1.4,13.1,1.4h31V175.1z"/>
			<path class="st0" d="M514.1,123.7c-0.6-1.9-1.7-3.6-3.3-4.9c-1.6-1.4-3.7-2.4-6.3-3.1c-2.6-0.7-6-1.1-10.1-1.1h-30.6
				c-5,0-9.2,0.4-12.5,1.2c-3.3,0.8-6,2.1-7.9,3.9c-2,1.8-3.4,4.2-4.2,7.1c-0.8,2.9-1.2,6.5-1.2,10.9v51.7l15.6,0v-23.8h0v-20.1V142
				v-5.6c0-2.2,0.2-4,0.6-5.4c0.4-1.4,1-2.5,1.9-3.2c0.8-0.8,1.9-1.3,3.2-1.6c1.3-0.3,2.9-0.4,4.7-0.4h29.2c2,0,3.6,0.4,4.7,1.2
				c1.1,0.8,1.7,2.3,1.7,4.4v8c0,2.3-0.5,3.9-1.6,4.8c-1,0.8-2.5,1.3-4.3,1.3h-32.8v9.9c9.4,0,19.4,3.6,25.4,7.8s8.6,8.8,8.6,15
				v11.3h15.5c0,0,0.6-6.8,0-14c-0.6-7.2-4.5-12.1-8.6-15c-4.1-2.9-8.6-3.8-14.4-4.9h8c3.9,0,7.1-0.3,9.7-1c2.5-0.7,4.5-1.7,6-3.1
				c1.5-1.4,2.5-3,3.1-4.9c0.6-1.9,0.9-8.1,0.9-10.6v-5.6C515,127.8,514.7,125.6,514.1,123.7z"/>
			<path class="st0" d="M622.4,114.6v49.8c0,2.8-3.5,4-5.2,1.8l-39.9-50.8c-0.4-0.5-1-0.8-1.6-0.8h-14.4v74.7h15.6V137
				c0-1.9,2.4-2.8,3.6-1.3l41.2,52.4c0.6,0.7,1.4,1.1,2.3,1.1h7.6c1.6,0,2.9-1.3,2.9-2.9v-71.7H622.4z"/>
		</g>
		<g>
			<path class="st0" d="M566,31.3v31.5c0,2.4,0.2,4.3,0.5,5.8c0.4,1.5,1,2.7,1.9,3.5c0.9,0.9,2.1,1.5,3.7,1.8
				c1.6,0.3,3.5,0.5,5.9,0.5h16.1c2.3,0,4.3-0.2,5.8-0.5c1.6-0.3,2.8-1,3.7-1.8c0.9-0.9,1.6-2.1,1.9-3.5c0.4-1.5,0.5-3.4,0.5-5.8
				V42.5h14.8v20.9c0,4.5-0.4,8.3-1.2,11.5c-0.8,3.1-2.2,5.7-4.2,7.6c-2,1.9-4.6,3.3-8,4.2c-3.3,0.9-7.5,1.3-12.4,1.3h-18
				c-5,0-9.2-0.4-12.5-1.3c-3.3-0.9-6-2.3-8-4.2c-2-1.9-3.4-4.4-4.2-7.6c-0.8-3.1-1.2-7-1.2-11.5v-32H566z"/>
			<path class="st0" d="M648,87.9c-3.9,0-7.1-0.3-9.6-1c-2.5-0.7-4.5-1.7-6-3c-1.5-1.3-2.5-2.9-3.1-4.7c-0.6-1.8-0.9-3.9-0.9-6.2
				v-5.3c0-2.4,0.3-4.5,0.8-6.3c0.6-1.8,1.5-3.4,2.9-4.7c1.4-1.3,3.3-2.3,5.7-2.9c2.4-0.7,5.5-1,9.2-1h39.9v-1.3
				c0-3.6-0.7-6-2.1-7.3c-1.4-1.2-3.7-1.8-7.1-1.8H663V31.3h14.7c4.3,0,8,0.4,11,1.3c3,0.8,5.5,2.1,7.4,3.8c1.9,1.7,3.3,3.9,4.2,6.5
				c0.9,2.6,1.3,5.7,1.3,9.3v13.8c0,4.1-0.4,7.6-1.1,10.3c-0.8,2.8-2.1,5-4,6.8c-1.9,1.7-4.4,3-7.6,3.7c-3.1,0.7-7.1,1.1-11.9,1.1
				H648z M686.8,62.3h-38.3c-1.7,0-3.1,0.4-4.1,1.2c-1,0.8-1.5,2.3-1.5,4.5v3.9c0,2,0.5,3.4,1.6,4.2c1.1,0.8,2.6,1.1,4.5,1.1h27.8
				c1.7,0,3.2-0.1,4.5-0.4c1.3-0.3,2.3-0.8,3.1-1.5c0.8-0.7,1.4-1.8,1.8-3.1c0.4-1.3,0.6-3,0.6-5.1V62.3z"/>
			<path class="st0" d="M438,87.9c-3.9,0-7.1-0.3-9.6-1c-2.5-0.7-4.5-1.7-6-3c-1.5-1.3-2.5-2.9-3.1-4.7c-0.6-1.8-0.9-3.9-0.9-6.2
				v-5.3c0-2.4,0.3-4.5,0.8-6.3c0.6-1.8,1.5-3.4,2.9-4.7c1.4-1.3,3.3-2.3,5.7-2.9c2.4-0.7,5.5-1,9.2-1h39.9v-1.3
				c0-3.6-0.7-6-2.1-7.3c-1.4-1.2-3.7-1.8-7.1-1.8H453V31.3h14.7c4.3,0,8,0.4,11,1.3c3,0.8,5.5,2.1,7.4,3.8c1.9,1.7,3.3,3.9,4.2,6.5
				c0.9,2.6,1.3,5.7,1.3,9.3v13.8c0,4.1-0.4,7.6-1.1,10.3c-0.8,2.8-2.1,5-4,6.8c-1.9,1.7-4.4,3-7.6,3.7c-3.1,0.7-7.1,1.1-11.9,1.1
				H438z M476.9,62.3h-38.3c-1.7,0-3.1,0.4-4.1,1.2c-1,0.8-1.5,2.3-1.5,4.5v3.9c0,2,0.5,3.4,1.6,4.2c1.1,0.8,2.6,1.1,4.5,1.1H467
				c1.7,0,3.2-0.1,4.5-0.4c1.3-0.3,2.3-0.8,3.1-1.5c0.8-0.7,1.4-1.8,1.8-3.1c0.4-1.3,0.6-3,0.6-5.1V62.3z"/>
			<path class="st0" d="M327,31.3c3.9,0,7.1,0.3,9.6,1c2.5,0.7,4.5,1.7,6,3c1.5,1.3,2.5,2.9,3.1,4.7c0.6,1.8,0.9,3.9,0.9,6.2v5.3
				c0,2.4-0.3,4.5-0.8,6.3c-0.6,1.8-1.5,3.4-2.9,4.7c-1.4,1.3-3.3,2.3-5.7,2.9c-2.4,0.7-5.5,1-9.2,1h-39.9v1.3c0,3.6,0.7,6,2.1,7.3
				c1.4,1.2,3.7,1.8,7.1,1.8H312v11.1h-14.7c-4.3,0-8-0.4-11-1.3c-3-0.8-5.5-2.1-7.4-3.8c-1.9-1.7-3.3-3.9-4.2-6.5
				c-0.9-2.6-1.3-5.7-1.3-9.3V53.2c0-4.1,0.4-7.6,1.1-10.3c0.8-2.8,2.1-5,4-6.8c1.9-1.7,4.4-3,7.6-3.7c3.1-0.7,7.1-1.1,11.9-1.1H327
				z M288.2,56.9h38.3c1.7,0,3.1-0.4,4.1-1.2c1-0.8,1.5-2.3,1.5-4.5v-3.9c0-2-0.5-3.4-1.6-4.2c-1.1-0.8-2.6-1.1-4.5-1.1h-27.8
				c-1.7,0-3.2,0.1-4.5,0.4c-1.3,0.3-2.3,0.8-3.1,1.5c-0.8,0.7-1.4,1.8-1.8,3.1c-0.4,1.3-0.6,3-0.6,5.1V56.9z"/>
			<path class="st0" d="M542.3,74.3H531c-2.3,0-4.2-0.2-5.7-0.5c-1.6-0.3-2.8-1-3.7-1.9c-0.9-0.9-1.6-2.1-2-3.5
				c-0.4-1.4-0.6-3.3-0.6-5.5V16.7h-15.2v46.8c0,4.5,0.4,8.3,1.2,11.4c0.8,3.1,2.2,5.6,4.2,7.5c2,1.9,4.6,3.3,8,4.2
				c3.3,0.9,7.5,1.3,12.4,1.3h12.8V74.3z"/>
			<path class="st0" d="M404.7,31.3l-10.6,38.8c-1.1,3.9-4.7,6.7-8.7,6.7l0,0c-4.1,0-7.7-2.7-8.7-6.7l-10.6-38.8h-15.4l13.6,49.9
				c1.1,3.9,4.7,6.7,8.7,6.7h8.4h7.8h8.4c4.1,0,7.7-2.7,8.7-6.7l13.6-49.9H404.7z"/>
			<g>
				<polygon class="st0" points="601.2,39.3 611.1,23.3 593.9,23.3 585.8,39.3 				"/>
			</g>
			<path class="st0" d="M566,31.3v31.5c0,2.4,0.2,4.3,0.5,5.8c0.4,1.5,1,2.7,1.9,3.5c0.9,0.9,2.1,1.5,3.7,1.8
				c1.6,0.3,3.5,0.5,5.9,0.5h16.1c2.3,0,4.3-0.2,5.8-0.5c1.6-0.3,2.8-1,3.7-1.8c0.9-0.9,1.6-2.1,1.9-3.5c0.4-1.5,0.5-3.4,0.5-5.8
				V42.5h14.8v20.9c0,4.5-0.4,8.3-1.2,11.5c-0.8,3.1-2.2,5.7-4.2,7.6c-2,1.9-4.6,3.3-8,4.2c-3.3,0.9-7.5,1.3-12.4,1.3h-18
				c-5,0-9.2-0.4-12.5-1.3c-3.3-0.9-6-2.3-8-4.2c-2-1.9-3.4-4.4-4.2-7.6c-0.8-3.1-1.2-7-1.2-11.5v-32H566z"/>
			<path class="st0" d="M648,87.9c-3.9,0-7.1-0.3-9.6-1c-2.5-0.7-4.5-1.7-6-3c-1.5-1.3-2.5-2.9-3.1-4.7c-0.6-1.8-0.9-3.9-0.9-6.2
				v-5.3c0-2.4,0.3-4.5,0.8-6.3c0.6-1.8,1.5-3.4,2.9-4.7c1.4-1.3,3.3-2.3,5.7-2.9c2.4-0.7,5.5-1,9.2-1h39.9v-1.3
				c0-3.6-0.7-6-2.1-7.3c-1.4-1.2-3.7-1.8-7.1-1.8H663V31.3h14.7c4.3,0,8,0.4,11,1.3c3,0.8,5.5,2.1,7.4,3.8c1.9,1.7,3.3,3.9,4.2,6.5
				c0.9,2.6,1.3,5.7,1.3,9.3v13.8c0,4.1-0.4,7.6-1.1,10.3c-0.8,2.8-2.1,5-4,6.8c-1.9,1.7-4.4,3-7.6,3.7c-3.1,0.7-7.1,1.1-11.9,1.1
				H648z M686.8,62.3h-38.3c-1.7,0-3.1,0.4-4.1,1.2c-1,0.8-1.5,2.3-1.5,4.5v3.9c0,2,0.5,3.4,1.6,4.2c1.1,0.8,2.6,1.1,4.5,1.1h27.8
				c1.7,0,3.2-0.1,4.5-0.4c1.3-0.3,2.3-0.8,3.1-1.5c0.8-0.7,1.4-1.8,1.8-3.1c0.4-1.3,0.6-3,0.6-5.1V62.3z"/>
			<path class="st0" d="M438,87.9c-3.9,0-7.1-0.3-9.6-1c-2.5-0.7-4.5-1.7-6-3c-1.5-1.3-2.5-2.9-3.1-4.7c-0.6-1.8-0.9-3.9-0.9-6.2
				v-5.3c0-2.4,0.3-4.5,0.8-6.3c0.6-1.8,1.5-3.4,2.9-4.7c1.4-1.3,3.3-2.3,5.7-2.9c2.4-0.7,5.5-1,9.2-1h39.9v-1.3
				c0-3.6-0.7-6-2.1-7.3c-1.4-1.2-3.7-1.8-7.1-1.8H453V31.3h14.7c4.3,0,8,0.4,11,1.3c3,0.8,5.5,2.1,7.4,3.8c1.9,1.7,3.3,3.9,4.2,6.5
				c0.9,2.6,1.3,5.7,1.3,9.3v13.8c0,4.1-0.4,7.6-1.1,10.3c-0.8,2.8-2.1,5-4,6.8c-1.9,1.7-4.4,3-7.6,3.7c-3.1,0.7-7.1,1.1-11.9,1.1
				H438z M476.9,62.3h-38.3c-1.7,0-3.1,0.4-4.1,1.2c-1,0.8-1.5,2.3-1.5,4.5v3.9c0,2,0.5,3.4,1.6,4.2c1.1,0.8,2.6,1.1,4.5,1.1H467
				c1.7,0,3.2-0.1,4.5-0.4c1.3-0.3,2.3-0.8,3.1-1.5c0.8-0.7,1.4-1.8,1.8-3.1c0.4-1.3,0.6-3,0.6-5.1V62.3z"/>
			<path class="st0" d="M327,31.3c3.9,0,7.1,0.3,9.6,1c2.5,0.7,4.5,1.7,6,3c1.5,1.3,2.5,2.9,3.1,4.7c0.6,1.8,0.9,3.9,0.9,6.2v5.3
				c0,2.4-0.3,4.5-0.8,6.3c-0.6,1.8-1.5,3.4-2.9,4.7c-1.4,1.3-3.3,2.3-5.7,2.9c-2.4,0.7-5.5,1-9.2,1h-39.9v1.3c0,3.6,0.7,6,2.1,7.3
				c1.4,1.2,3.7,1.8,7.1,1.8H312v11.1h-14.7c-4.3,0-8-0.4-11-1.3c-3-0.8-5.5-2.1-7.4-3.8c-1.9-1.7-3.3-3.9-4.2-6.5
				c-0.9-2.6-1.3-5.7-1.3-9.3V53.2c0-4.1,0.4-7.6,1.1-10.3c0.8-2.8,2.1-5,4-6.8c1.9-1.7,4.4-3,7.6-3.7c3.1-0.7,7.1-1.1,11.9-1.1H327
				z M288.2,56.9h38.3c1.7,0,3.1-0.4,4.1-1.2c1-0.8,1.5-2.3,1.5-4.5v-3.9c0-2-0.5-3.4-1.6-4.2c-1.1-0.8-2.6-1.1-4.5-1.1h-27.8
				c-1.7,0-3.2,0.1-4.5,0.4c-1.3,0.3-2.3,0.8-3.1,1.5c-0.8,0.7-1.4,1.8-1.8,3.1c-0.4,1.3-0.6,3-0.6,5.1V56.9z"/>
			<path class="st0" d="M542.3,74.3H531c-2.3,0-4.2-0.2-5.7-0.5c-1.6-0.3-2.8-1-3.7-1.9c-0.9-0.9-1.6-2.1-2-3.5
				c-0.4-1.4-0.6-3.3-0.6-5.5V16.7h-15.2v46.8c0,4.5,0.4,8.3,1.2,11.4c0.8,3.1,2.2,5.6,4.2,7.5c2,1.9,4.6,3.3,8,4.2
				c3.3,0.9,7.5,1.3,12.4,1.3h12.8V74.3z"/>
			<path class="st0" d="M404.7,31.3l-10.6,38.8c-1.1,3.9-4.7,6.7-8.7,6.7l0,0c-4.1,0-7.7-2.7-8.7-6.7l-10.6-38.8h-15.4l13.6,49.9
				c1.1,3.9,4.7,6.7,8.7,6.7h8.4h7.8h8.4c4.1,0,7.7-2.7,8.7-6.7l13.6-49.9H404.7z"/>
			<g>
				<polygon class="st0" points="601.2,39.3 611.1,23.3 593.9,23.3 585.8,39.3 				"/>
			</g>
		</g>
	</g>
	<linearGradient id="SVGID_1_" gradientUnits="userSpaceOnUse" x1="77.4458" y1="188.144" x2="77.4458" y2="111.8024">
		<stop  offset="0" style="stop-color:#EFE2D3"/>
		<stop  offset="1" style="stop-color:#BE9053"/>
	</linearGradient>
	<path class="st1" d="M108.7,111.8c8.2,8.1,13.3,19.3,13.3,31.8c0,24.6-20,44.6-44.6,44.6s-44.6-20-44.6-44.6l44.6,0.8L108.7,111.8z
		"/>
	<path class="st2" d="M77.2,191c-26.2,0-47.5-21.3-47.5-47.5c0-0.8,0.3-1.5,0.9-2.1c0.6-0.5,1.3-0.8,2.1-0.8l43.3,0.8l30.4-31.7
		c0.5-0.6,1.3-0.9,2-0.9c0.8,0,1.5,0.3,2.1,0.8c9.1,9,14.2,21,14.2,33.8C124.7,169.8,103.4,191,77.2,191z M35.6,146.5
		c1.5,21.6,19.6,38.7,41.6,38.7c23,0,41.7-18.7,41.7-41.7c0-10.3-3.7-20-10.4-27.6l-29.1,30.4c-0.6,0.6-1.3,0.9-2.1,0.9L35.6,146.5z
		"/>
	
		<linearGradient id="SVGID_00000136398901360640673680000018179729943951052218_" gradientUnits="userSpaceOnUse" x1="42.0718" y1="123.7754" x2="42.0718" y2="79.2128">
		<stop  offset="0" style="stop-color:#DEEEEE"/>
		<stop  offset="1" style="stop-color:#009B9B"/>
	</linearGradient>
	<path style="fill:url(#SVGID_00000136398901360640673680000018179729943951052218_);" d="M19.8,123.8c0-24.6,20-44.6,44.6-44.6
		v44.6H19.8L19.8,123.8z"/>
	<path class="st2" d="M64.4,126.6H19.9c-1.6,0-3-1.3-3-2.9c0-26.2,21.3-47.5,47.5-47.5c1.6,0,2.9,1.3,2.9,2.9v44.6
		C67.2,125.3,66,126.6,64.4,126.6z M22.8,120.8h38.7V82.2C40.8,83.6,24.2,100.2,22.8,120.8z"/>
	
		<linearGradient id="SVGID_00000061443500700063151410000015415437107659986339_" gradientUnits="userSpaceOnUse" x1="90.5772" y1="132.9855" x2="90.5772" y2="87.6327">
		<stop  offset="9.776536e-02" style="stop-color:#EDEDED"/>
		<stop  offset="1" style="stop-color:#9D9D9C"/>
	</linearGradient>
	<path style="fill:url(#SVGID_00000061443500700063151410000015415437107659986339_);" d="M106.2,100.4c-8-7.9-19.1-12.8-31.2-12.8
		V133L106.2,100.4z"/>
	<path class="st2" d="M74.9,136.1c-0.4,0-0.7-0.1-1.1-0.2c-1.1-0.4-1.8-1.5-1.8-2.7V87.8c0-1.6,1.3-2.9,2.9-2.9
		c12.5,0,24.3,4.8,33.3,13.6c1.1,1.1,1.2,2.9,0.1,4.1L77,135.2C76.4,135.7,75.6,136.1,74.9,136.1z M77.8,90.8V126l24.2-25.2
		C95.2,94.9,86.7,91.4,77.8,90.8z"/>
	<g>
		<path class="st5" d="M240.8,188.4h-122c-1.7,0-3.1-1.4-3.1-3.1s1.4-3.1,3.1-3.1h122c3.9,0,7-3.2,7-7V26.8c0-3.9-3.2-7-7-7H27.6
			c-3.9,0-7,3.2-7,7v58.1c0,1.7-1.4,3.1-3.1,3.1c-1.7,0-3.1-1.4-3.1-3.1V26.8c0-7.3,6-13.3,13.3-13.3h213.2c7.3,0,13.3,6,13.3,13.3
			v148.3C254.1,182.4,248.2,188.4,240.8,188.4z"/>
		<path class="st5" d="M35.6,188.4h-8c-7.3,0-13.3-6-13.3-13.3v-39c0-1.7,1.4-3.1,3.1-3.1c1.7,0,3.1,1.4,3.1,3.1v39c0,3.9,3.2,7,7,7
			h8c1.7,0,3.1,1.4,3.1,3.1S37.4,188.4,35.6,188.4z"/>
	</g>
	<path class="st6" d="M162.5,22.9c-5.7,0-10.4,4.7-10.4,10.4c0,1.9,0.5,3.6,1.4,5.1L126,65.1c-1.5-0.9-3.4-1.5-5.3-1.5
		c-2.1,0-4.1,0.6-5.7,1.7L83.1,44.6c0.5-1.2,0.8-2.6,0.8-4c0-5.7-4.7-10.4-10.4-10.4c-5.7,0-10.4,4.7-10.4,10.4
		c0,1.4,0.3,2.7,0.8,3.9L41.3,57.8c-1.8-1.4-4-2.2-6.4-2.2c-5.7,0-10.4,4.7-10.4,10.4c0,5.7,4.7,10.4,10.4,10.4S45.4,71.8,45.4,66
		c0-1.1-0.2-2.1-0.5-3l23-13.6c1.6,1,3.5,1.6,5.6,1.6c2,0,3.9-0.6,5.5-1.6l32,20.8c-0.5,1.2-0.7,2.4-0.7,3.8
		c0,5.7,4.7,10.4,10.4,10.4s10.4-4.7,10.4-10.4c0-1.5-0.3-3-0.9-4.3l27.9-27c1.3,0.6,2.8,1,4.4,1c5.7,0,10.4-4.7,10.4-10.4
		C172.9,27.6,168.2,22.9,162.5,22.9z M35,70.2c-2.3,0-4.1-1.9-4.1-4.2s1.9-4.1,4.1-4.1c2.3,0,4.1,1.9,4.1,4.1S37.3,70.2,35,70.2z
		 M69.4,40.6c0-2.3,1.9-4.2,4.1-4.2s4.1,1.9,4.1,4.2c0,2.3-1.9,4.1-4.1,4.1S69.4,42.9,69.4,40.6z M120.7,78.1
		c-2.3,0-4.1-1.9-4.1-4.2s1.9-4.1,4.1-4.1s4.1,1.9,4.1,4.1S123,78.1,120.7,78.1z M162.5,37.5c-2.3,0-4.1-1.9-4.1-4.2
		c0-2.3,1.9-4.1,4.1-4.1c2.3,0,4.1,1.9,4.1,4.1C166.6,35.6,164.8,37.5,162.5,37.5z"/>
	<path class="st7" d="M162.5,49.1c-4.3,0-8,2.9-9.2,6.9l-23.2-4.3c-0.9-4.4-4.8-7.6-9.4-7.6c-4.6,0-8.5,3.2-9.4,7.6l-28.6,4.5
		c-1.2-4-4.9-6.9-9.2-6.9c-3.5,0-6.5,1.9-8.2,4.7l-20.9-8.5c0.2-0.7,0.2-1.4,0.2-2.1c0-5.3-4.3-9.6-9.6-9.6c-5.3,0-9.6,4.3-9.6,9.6
		s4.3,9.6,9.6,9.6c2.9,0,5.5-1.3,7.2-3.3l21.7,8.8c0,0.2,0,0.3,0,0.5c0,5.3,4.3,9.6,9.6,9.6c4.6,0,8.5-3.2,9.4-7.6l28.6-4.5
		c1.2,4,4.9,6.9,9.2,6.9c4.3,0,8-2.9,9.2-6.9l23.2,4.3c0.9,4.4,4.8,7.6,9.4,7.6c5.3,0,9.6-4.3,9.6-9.6
		C172.1,53.4,167.8,49.1,162.5,49.1z M35,48.1c-2.7,0-4.9-2.2-4.9-4.9c0-2.7,2.2-4.9,4.9-4.9c2.7,0,4.9,2.2,4.9,4.9
		C39.9,45.8,37.7,48.1,35,48.1z M73.5,63.7c-2.7,0-4.9-2.2-4.9-4.9c0-2.7,2.2-4.9,4.9-4.9c2.7,0,4.9,2.2,4.9,4.9
		C78.4,61.5,76.2,63.7,73.5,63.7z M120.7,58.6c-2.7,0-4.9-2.2-4.9-4.9c0-2.7,2.2-4.9,4.9-4.9c2.7,0,4.9,2.2,4.9,4.9
		C125.6,56.4,123.4,58.6,120.7,58.6z M162.5,63.7c-2.7,0-4.9-2.2-4.9-4.9c0-2.7,2.2-4.9,4.9-4.9c2.7,0,4.9,2.2,4.9,4.9
		C167.4,61.5,165.2,63.7,162.5,63.7z"/>
	<g>
		<path class="st7" d="M192.5,122.1l0.1,0.1h2.2l0.9-0.8h-3.8C192.1,121.6,192.3,121.8,192.5,122.1z"/>
		<polygon class="st7" points="198.9,112.8 198.9,111 197.6,109.4 194.3,110.7 194.3,113.2 194.7,113.7 194.7,113.6 198,113.6 		"/>
		<path class="st7" d="M194.7,119.6c-0.1-0.3-0.3-0.6-0.3-1c0-0.1,0-0.3,0-0.4h-2.8l-0.7-0.8c-0.6-0.8-1.2-1.2-2.1-1.2h-0.1v0.7
			l2.1,2.7H194.7z"/>
		<path class="st7" d="M200.9,110.8v2.2c0,0.3-0.1,0.7-0.4,1l-0.1,0.1l-2.6,2.3l-0.8,0.8c-0.4,0.3-0.6,0.8-0.6,1.3
			c0.1,0.5,0.3,0.9,0.8,1.2l0.5,0.3l3.5,2.2l4.6-3.5v-7c0-0.9-0.3-1.7-1-2.3c-0.6-0.6-1.5-1-2.3-1h-3.4l1.4,1.5
			C200.7,110.1,200.9,110.5,200.9,110.8z"/>
		<path class="st7" d="M208.6,128.2v-4.1l-3.7-2.7l-3.9,3l-3.5-2.2l-2.1,1.9h-3.9l-0.6-0.8c-0.7-0.8-1.3-1.2-2.1-1.2h-0.2v0.7
			l2.1,2.8h8.5h2c0.4,0,0.8,0.1,1.1,0.4l1.5,1.2v1.7l3.5,2.1c0.3,0.3,0.6,0.8,0.6,1.2c0.1,0.4-0.1,0.9-0.5,1.2l-0.3,0.3h-2.4
			c-0.6,0-1,0.4-1,1v0.7h4.1l3.7-3c0-0.1,0-0.1,0-0.1c0-0.1,0-0.1-0.1-0.1l-2.5-2.8C208.8,129.1,208.6,128.7,208.6,128.2z"/>
		<path class="st7" d="M202.3,128l-0.8-0.7h-2h-1.5h-0.4c-0.7,0-1.2,0.6-1.2,1.2v0.6l0.8,0.6c0.8,0.8,0.8,2,0,2.8l-0.1,0.1l-1.5,1.2
			h-2.1c-0.6,0-1,0.4-1,1v0.7h5l5-5.5c-0.1-0.3-0.2-0.6-0.2-0.9V128z"/>
		<path class="st7" d="M218.6,98.8h-69.4c-1.9,0-3.5,1.6-3.5,3.5c0,1.9,1.6,3.5,3.5,3.5h30.1c1.7,0,3.1,1.4,3.1,3.1v64.4
			c0,1-0.4,1.8-1.1,2.4H218c-0.7-0.6-1.1-1.4-1.1-2.4v-56c0-1.7,1.4-3.1,3.1-3.1c1.7,0,3.1,1.4,3.1,3.1v31.3h4.6
			c2.3,0,4.1-1.9,4.1-4.1v-32.6C231.9,104.8,225.9,98.8,218.6,98.8z M197.8,103c0-0.1,0.1-0.2,0.2-0.3c0.1-0.1,0.3-0.1,0.3,0l1.2,1
			l1.2-1c0.1-0.1,0.3-0.1,0.5,0l1.2,1.1l1.2-1.1c0.1-0.1,0.2-0.1,0.3-0.1s0.2,0.1,0.2,0.3v2.3c0,0.2-0.1,0.3-0.3,0.3h-5.7
			c-0.2,0-0.3-0.1-0.4-0.3V103z M186.9,112.5c0-0.8,0.6-1.4,1.4-1.4h3.4v0.6c0,0.8-0.6,1.4-1.4,1.4h-3.4V112.5z M214.9,114.8h-0.5
			c-0.8,0-1.3-0.6-1.3-1.3v-1.3h-0.3c-0.7,0-1.4,0.3-1.9,0.8c-0.5,0.5-0.8,1.2-0.8,1.9c0,0.7,0.3,1.4,0.8,1.9l0.3,0.3
			c1.7,1.7,1.7,4.6,0,6.4l-0.7,0.7v4l2.4,2.9c0.3,0.3,0.6,0.8,0.6,1.3c0,0.6-0.2,1-0.6,1.4l-0.1,0.1l-4.3,3.5H202v-2.5
			c0-1.6,1.3-2.8,2.8-2.8h0.6l-1.5-1l-5.7,6.3h-7.7v-2.4c0-1.6,1.3-2.8,2.8-2.8h1.5l1-0.8v-0.1l-1.3-1v-1.5c0-0.4,0.1-0.8,0.2-1.2
			h-4.1c-0.4,0-0.8-0.2-1.1-0.6l-2.3-2.9c-0.3-0.3-0.4-0.7-0.4-1.1v-2.6h2.1c0.1,0,0.1,0,0.1,0l-1.7-2.2c-0.3-0.3-0.4-0.7-0.4-1.1
			v-2.6h2c1.4,0,2.6,0.6,3.5,1.9l0.1,0.1h2.5c0.1-0.2,0.3-0.4,0.6-0.6l0.2-0.2h-1.5c-0.3,0-0.6-0.1-0.8-0.3l-0.9-0.9
			c-0.1-0.2-0.3-0.5-0.3-0.8v-3.5c0-0.4,0.3-0.8,0.7-0.9l3.1-1.1l-0.7-1c-0.2-0.3,0-0.6,0.3-0.6h1.6h5c1.4,0,2.6,0.5,3.6,1.5
			c0.9,1,1.5,2.2,1.5,3.6v7.9l-0.9,0.7l3,2.2l0.3-0.3c1-1,1-2.7,0-3.7l-0.3-0.3c-0.8-0.8-1.3-2-1.3-3.2c0-1.2,0.5-2.3,1.3-3.2
			c0.8-0.8,2-1.3,3.2-1.3h0.3h0.5c0.8,0,1.3,0.6,1.3,1.4V114.8z"/>
	</g>
	<g>
		<path class="st2" d="M218.6,92.6h-3.3c3.9-3.9,6.4-9.3,6.4-15.2c0-11.8-9.6-21.5-21.5-21.5c-11.8,0-21.5,9.6-21.5,21.5
			c0,5.9,2.4,11.3,6.4,15.2h-35.8c-5.4,0-9.8,4.4-9.8,9.8c0,5.4,4.4,9.8,9.8,9.8h27v61.3c0,1.7,1.4,3.1,3.1,3.1
			c1.7,0,3.1-1.4,3.1-3.1V109c0-1.7-1.4-3.1-3.1-3.1h-30.1c-1.9,0-3.5-1.6-3.5-3.5c0-1.9,1.6-3.5,3.5-3.5h69.4
			c7.3,0,13.3,5.9,13.3,13.3v32.6c0,2.3-1.9,4.1-4.1,4.1h-4.6v-31.3c0-1.7-1.4-3.1-3.1-3.1s-3.1,1.4-3.1,3.1v56
			c0,1.7,1.4,3.1,3.1,3.1s3.1-1.4,3.1-3.1v-18.4h4.6c5.7,0,10.4-4.7,10.4-10.4v-32.6C238.1,101.3,229.4,92.6,218.6,92.6z
			 M184.9,77.4c0-8.4,6.8-15.2,15.2-15.2c8.4,0,15.2,6.8,15.2,15.2c0,8.4-6.8,15.2-15.2,15.2C191.8,92.6,184.9,85.8,184.9,77.4z"/>
		<path class="st2" d="M199.8,146.4c-1.7,0-3.1,1.4-3.1,3.1v23.9c0,1.7,1.4,3.1,3.1,3.1s3.1-1.4,3.1-3.1v-23.9
			C203,147.8,201.6,146.4,199.8,146.4z"/>
	</g>
</g>
</svg>
