<?xml version="1.0" encoding="utf-8"?>
<!-- Generator: Adobe Illustrator 21.1.0, SVG Export Plug-In . SVG Version: 6.00 Build 0)  -->
<svg version="1.1" id="Layer_1" xmlns="http://www.w3.org/2000/svg" xmlns:xlink="http://www.w3.org/1999/xlink" x="0px" y="0px"
	 viewBox="0 0 210.9 100" style="enable-background:new 0 0 210.9 100;" xml:space="preserve">
<style type="text/css">
	.st0{fill:#FE2728;}
	.st1{fill:#AF8C55;}
	.st2{fill:#FD5F5F;}
</style>
<g>
	<g>
		<g>
			<path class="st0" d="M38.8,44.8h-8.5l3.5,3.8c0.6,0.6,0.9,1.5,0.9,2.4v5.5c0,0.9-0.4,1.7-1,2.4l-0.1,0.1l-6.5,5.7L25,66.4
				c-0.9,0.8-1.4,2-1.3,3.2c0.1,1.2,0.8,2.3,1.9,2.9l1.2,0.7l8.5,5.4l11.3-8.7l0-17.2c0-2.1-0.8-4.1-2.3-5.6
				C42.9,45.6,40.9,44.8,38.8,44.8z"/>
			<polygon class="st0" points="30.2,55.9 30.2,51.4 26.8,47.6 18.8,50.7 18.8,57 19.8,58 27.8,58 			"/>
			<path class="st0" d="M0,20.7v61.3c0,4.6,3.1,8.4,7.6,9.4L20,94.2c6.4,1.4,12,4.3,13.5,5.2l1.1,0.6l1.1-0.6
				c1.6-0.9,7.2-3.7,13.5-5.2l12-2.7c4.7-1,8-5.1,8-10V20.7H0z M27.4,31.6c0-0.3,0.2-0.6,0.4-0.7c0.2-0.1,0.6-0.1,0.8,0.1l3,2.6
				l3-2.6c0.3-0.3,0.8-0.3,1.1,0l3,2.7l3.1-2.7c0.2-0.2,0.5-0.2,0.8-0.1c0.3,0.1,0.4,0.4,0.4,0.7v5.7c0,0.5-0.4,0.8-0.9,0.8H28.2
				c-0.5,0-0.8-0.4-0.8-0.8V31.6z M51.2,72.1l-2.3,1.7l-3.7,2.9l-9.6,7.4L27,78.7l-4-2.6c-1.5-0.9-2.5-2.2-3.1-3.7h0
				c-0.1-0.4-0.3-0.7-0.4-1.1c0,0,0,0,0-0.1c-0.1-0.4-0.2-0.8-0.2-1.2c0-0.3,0-0.7,0-1h0c0-1.6,0.5-3.2,1.5-4.5h0.1
				c0.2-0.3,0.5-0.6,0.7-0.9c0.2-0.2,0.4-0.4,0.6-0.6l0.6-0.5H19c-0.7,0-1.3-0.3-1.8-0.7L15,59.6c-0.5-0.5-0.7-1.1-0.7-1.8v-8.6
				c0-1,0.7-1.9,1.7-2.3l7.4-2.9l0.1-0.1l-0.7-0.7l-0.1-0.2l-1.1-1.4c-0.5-0.6,0-1.5,0.7-1.5h16.5c3.3,0,6.5,1.3,8.8,3.7
				c2.3,2.4,3.6,5.5,3.6,8.8L51.2,72.1z"/>
		</g>
		<path class="st1" d="M69,0.2c-0.5-0.3-1.2-0.2-1.6,0.2l-6.2,5.5l-6-5.4c-0.6-0.6-1.6-0.6-2.3-0.1l-6.1,5.2l-6.2-5.2
			C40.2,0,39.5-0.1,39,0.2c-0.5,0.2-0.9,0.8-0.9,1.4v13.3c0,1,0.8,1.7,1.7,1.7h28.3c1,0,1.8-0.8,1.8-1.7V1.6
			C69.9,0.9,69.6,0.4,69,0.2z"/>
		<path class="st0" d="M1.1,2.1v14.5h4V6.5l8.5,10.1l3.8,0V0.3l-4,0h-0.6c-0.2,0-0.3,0.2-0.2,0.3l0.8,1.5v0v8.3L4.9,0.3H0.5
			c-0.2,0-0.3,0.2-0.2,0.3L1.1,2.1z"/>
		<path class="st0" d="M22.3,2.1v14.4h13.4v-1.8l0-2h-9.2l0-12.5l-4.7,0c-0.2,0-0.3,0.1-0.3,0.3L22.3,2.1z"/>
		<g>
			<path class="st0" d="M83.5,20.8h12.7v3.1h-4.6v10.4h-3.5V23.9h-4.6V20.8z"/>
			<path class="st0" d="M101.5,31.3h8.7v3.1H98V20.8h12v3.1h-8.5v2h6.8V29h-6.8V31.3z"/>
			<path class="st0" d="M125.6,30.1c0,2.7-2.6,4.5-6.4,4.5c-4,0-7.6-2-7.6-2l1.5-2.9c0,0,3.4,1.7,5.9,1.7c2.1,0,3.3-0.3,3.3-1.1
				c0-0.7-0.3-1.2-3.9-1.2c-4.8,0-5.8-1.6-5.8-3.5c0-3,2.5-4.9,6.6-4.9c3.7,0,5.8,1.4,5.8,1.4l-1.2,3c0,0-2.4-1.1-4.8-1.1
				c-2.1,0-3,0.6-3,1.2c0,0.5,0.3,1,3.8,1C123.3,26,125.6,27.3,125.6,30.1z"/>
			<path class="st0" d="M143.5,27.6c0,4.3-3.4,7-8.2,7s-8.2-2.7-8.2-7s3.4-7,8.2-7S143.5,23.3,143.5,27.6z M135.3,23.8
				c-3.1,0-4.6,1-4.6,3.8c0,2.8,1.5,3.8,4.6,3.8s4.6-1,4.6-3.8S138.4,23.8,135.3,23.8z"/>
			<path class="st0" d="M156.2,30.5l2.7,3.8h-4.1l-2.5-3.5H149v3.5h-3.5V20.8h8.4c4.1,0,5.2,3.2,5.2,4.9
				C159.1,27.6,158.3,29.7,156.2,30.5z M153.9,23.9H149v3.9h5.2c1.6,0,1.6-1.7,1.6-1.8C155.8,25.4,155.6,23.9,153.9,23.9z"/>
			<path class="st0" d="M164.8,31.3h8.7v3.1h-12.2V20.8h12v3.1h-8.5v2h6.8V29h-6.8V31.3z"/>
			<path class="st0" d="M186.3,30.5l2.7,3.8h-4.1l-2.5-3.5h-3.2v3.5h-3.5V20.8h8.4c4.1,0,5.2,3.2,5.2,4.9
				C189.2,27.6,188.4,29.7,186.3,30.5z M184,23.9h-4.9v3.9h5.2c1.6,0,1.6-1.7,1.6-1.8C185.9,25.4,185.7,23.9,184,23.9z"/>
			<path class="st0" d="M191.3,34.4V20.8h3.5v13.5H191.3z"/>
			<path class="st0" d="M206,20.8l4.9,13.5h-3.6l-0.8-2.2h-5.7l-0.8,2.2h-3.6l4.9-13.5H206z M203.7,24.4l-1.7,4.7h3.5L203.7,24.4z"
				/>
		</g>
		<g>
			<path class="st0" d="M86.4,52.3h2.5l0,2.3h-1.1v-0.3c-0.4,0.3-0.9,0.4-1.5,0.4c-1.5,0-2.6-0.9-2.6-2.2c0-1.4,1.1-2.2,2.6-2.2
				c1.7,0,2.4,0.8,2.4,0.8l-0.8,0.7c0,0-0.5-0.4-1.6-0.4c-1,0-1.5,0.3-1.5,1.2c0,0.9,0.5,1.2,1.5,1.2c0.5,0,0.9-0.1,1.2-0.4h-1.1
				V52.3z"/>
			<path class="st0" d="M93.5,50.4l1.6,4.3h-1.1L93.7,54h-1.8l-0.3,0.7h-1.1l1.6-4.3H93.5z M92.8,51.5L92.2,53h1.1L92.8,51.5z"/>
			<path class="st0" d="M101,53.5c0,0.8-0.6,1.2-1.6,1.2h-2.5v-4.3H99c1.1,0,1.6,0.4,1.6,1.2c0,0.4-0.1,0.6-0.3,0.8
				C100.9,52.6,101,53,101,53.5z M99.6,51.6c0-0.2-0.1-0.3-0.6-0.3h-1.1V52h1.1C99.5,52,99.6,51.8,99.6,51.6z M97.9,53.7h1.4
				c0.3,0,0.4-0.1,0.4-0.4c0-0.2-0.1-0.3-0.7-0.3h-1.1V53.7z"/>
			<path class="st0" d="M102.9,54.7v-4.3h1.1v4.3H102.9z"/>
			<path class="st0" d="M109.3,50.4h1.1v4.3h-1l-2.2-2.7v2.7h-1.1v-4.3h1l2.2,2.7V50.4z"/>
			<path class="st0" d="M113.6,53.7h2.8v1h-3.9v-4.3h3.8v1h-2.7V52h2.2v1h-2.2V53.7z"/>
			<path class="st0" d="M117.9,50.4h4.1v1h-1.5v3.3h-1.1v-3.3h-1.5V50.4z"/>
			<path class="st0" d="M124.9,53.7h2.8v1h-3.9v-4.3h3.8v1h-2.7V52h2.2v1h-2.2V53.7z"/>
			<path class="st0" d="M137.4,52.5c0,1.4-0.7,2.2-2,2.2h-2.4v-4.3h2.4C136.7,50.4,137.4,51.1,137.4,52.5z M135.5,51.3h-1.2v2.3h1.2
				c0.4,0,0.8,0,0.8-1.2S135.9,51.3,135.5,51.3z"/>
			<path class="st0" d="M140.5,53.7h2.8v1h-3.9v-4.3h3.8v1h-2.7V52h2.2v1h-2.2V53.7z"/>
			<path class="st0" d="M88,60.9c0,0.8-0.6,1.2-1.6,1.2h-2.5v-4.3H86c1.1,0,1.6,0.4,1.6,1.2c0,0.4-0.1,0.6-0.3,0.8
				C87.9,60.1,88,60.5,88,60.9z M86.6,59.1c0-0.2-0.1-0.3-0.6-0.3H85v0.7h1.1C86.5,59.5,86.6,59.3,86.6,59.1z M85,61.1h1.4
				c0.3,0,0.4-0.1,0.4-0.4c0-0.2-0.1-0.3-0.7-0.3H85V61.1z"/>
			<path class="st0" d="M93.1,59.8v-2h1.1v2c0,1.5-0.8,2.3-2.2,2.3c-1.4,0-2.2-0.9-2.2-2.3v-2h1.1v2c0,0.9,0.3,1.3,1.1,1.3
				C92.8,61.2,93.1,60.8,93.1,59.8L93.1,59.8z"/>
			<path class="st0" d="M97.4,61.1h2.8v1h-3.9v-4.3h3.8v1h-2.7v0.6h2.2v1h-2.2V61.1z"/>
			<path class="st0" d="M105.3,57.8h1.1v4.3h-1l-2.2-2.7v2.7H102v-4.3h1l2.2,2.7V57.8z"/>
			<path class="st0" d="M114.5,59.8h2.5l0,2.3h-1.1v-0.3c-0.4,0.3-0.9,0.4-1.5,0.4c-1.5,0-2.6-0.9-2.6-2.2c0-1.4,1.1-2.2,2.6-2.2
				c1.7,0,2.4,0.8,2.4,0.8l-0.8,0.7c0,0-0.5-0.4-1.6-0.4c-1,0-1.5,0.3-1.5,1.2c0,0.9,0.5,1.2,1.5,1.2c0.5,0,0.9-0.1,1.2-0.4h-1.1
				V59.8z"/>
			<path class="st0" d="M124,60c0,1.4-1.1,2.2-2.6,2.2c-1.5,0-2.6-0.9-2.6-2.2c0-1.4,1.1-2.2,2.6-2.2C122.9,57.8,124,58.6,124,60z
				 M121.4,58.8c-1,0-1.5,0.3-1.5,1.2c0,0.9,0.5,1.2,1.5,1.2c1,0,1.5-0.3,1.5-1.2C122.8,59.1,122.3,58.8,121.4,58.8z"/>
			<path class="st0" d="M130,60.9c0,0.8-0.6,1.2-1.6,1.2h-2.5v-4.3h2.2c1.1,0,1.6,0.4,1.6,1.2c0,0.4-0.1,0.6-0.3,0.8
				C129.9,60.1,130,60.5,130,60.9z M128.6,59.1c0-0.2-0.1-0.3-0.6-0.3H127v0.7h1.1C128.6,59.5,128.6,59.3,128.6,59.1z M127,61.1h1.4
				c0.3,0,0.4-0.1,0.4-0.4c0-0.2-0.1-0.3-0.7-0.3H127V61.1z"/>
			<path class="st0" d="M131.9,62.1v-4.3h1.1v4.3H131.9z"/>
			<path class="st0" d="M136.2,61.1h2.8v1h-3.9v-4.3h3.8v1h-2.7v0.6h2.2v1h-2.2V61.1z"/>
			<path class="st0" d="M144.3,60.9l0.9,1.2h-1.3L143,61h-1v1.1h-1.1v-4.3h2.7c1.3,0,1.6,1,1.6,1.5C145.2,60,144.9,60.6,144.3,60.9z
				 M143.6,58.8H142V60h1.6c0.5,0,0.5-0.5,0.5-0.6C144.1,59.3,144.1,58.8,143.6,58.8z"/>
			<path class="st0" d="M150.4,57.8h1.1v4.3h-1l-2.2-2.7v2.7h-1.1v-4.3h1l2.2,2.7V57.8z"/>
			<path class="st0" d="M158.5,60c0,1.4-1.1,2.2-2.6,2.2c-1.5,0-2.6-0.9-2.6-2.2c0-1.4,1.1-2.2,2.6-2.2
				C157.4,57.8,158.5,58.6,158.5,60z M155.9,58.8c-1,0-1.5,0.3-1.5,1.2c0,0.9,0.5,1.2,1.5,1.2c1,0,1.5-0.3,1.5-1.2
				C157.4,59.1,156.9,58.8,155.9,58.8z"/>
		</g>
		<path class="st1" d="M83.7,43.1c0-1.2,1-2.2,2.2-2.2h9.4v0.9c0,1.2-1,2.2-2.2,2.2h-9.4V43.1z"/>
		<path class="st2" d="M191.3,19.4l0-0.6c0-0.8,0.7-1.5,1.5-1.5l3.6,0l0,0.6c0,0.8-0.7,1.5-1.5,1.5L191.3,19.4z"/>
	</g>
</g>
</svg>
