<?xml version="1.0" encoding="utf-8"?>
<!-- Generator: Adobe Illustrator 26.0.0, SVG Export Plug-In . SVG Version: 6.00 Build 0)  -->
<svg version="1.1" id="Capa_1" xmlns="http://www.w3.org/2000/svg" xmlns:xlink="http://www.w3.org/1999/xlink" x="0px" y="0px"
	 viewBox="0 0 77.9 77.5" style="enable-background:new 0 0 77.9 77.5;" xml:space="preserve">
<style type="text/css">
	.st0{fill:#B2B2B2;}
</style>
<g>
	<g>
		<path class="st0" d="M19.2,52.1H5.8c-3.2,0-5.8,2.6-5.8,5.8v15c0,2.6,2.1,4.6,4.6,4.6s4.6-2.1,4.6-4.6V62.5c0-0.6-0.4-1-1-1
			s-1,0.4-1,1v10.4c0,1.5-1.2,2.6-2.6,2.6S2,74.3,2,72.9v-15c0-2.1,1.7-3.8,3.8-3.8h13.5c2.1,0,3.8,1.7,3.8,3.8v18.7
			c0,0.6,0.4,1,1,1s1-0.4,1-1V57.8C25,54.7,22.4,52.1,19.2,52.1z"/>
		<path class="st0" d="M11.4,49.5c5.7,0,10.4-4.7,10.4-10.4s-4.7-10.4-10.4-10.4S1.1,33.4,1.1,39.1S5.7,49.5,11.4,49.5z M11.4,30.7
			c4.6,0,8.4,3.8,8.4,8.4s-3.8,8.4-8.4,8.4S3,43.7,3,39.1S6.8,30.7,11.4,30.7z"/>
		<path class="st0" d="M36.7,52.1h-9.4c-0.6,0-1,0.4-1,1s0.4,1,1,1h9.4c2.1,0,3.8,1.7,3.8,3.8v18.7c0,0.6,0.4,1,1,1s1-0.4,1-1V57.8
			C42.5,54.7,39.9,52.1,36.7,52.1z"/>
		<path class="st0" d="M23.8,33.3c1.6-1.7,3.8-2.6,6.1-2.6c4.6,0,8.4,3.8,8.4,8.4s-3.8,8.4-8.4,8.4c-2.3,0-4.5-0.9-6.1-2.6
			c-0.4-0.4-1-0.4-1.4,0s-0.4,1,0,1.4c2,2.1,4.6,3.2,7.5,3.2c5.7,0,10.4-4.7,10.4-10.4s-4.7-10.4-10.4-10.4c-2.9,0-5.5,1.1-7.5,3.2
			c-0.4,0.4-0.4,1,0,1.4C22.8,33.7,23.4,33.7,23.8,33.3z"/>
		<path class="st0" d="M76.5,40.1c-0.9-0.9-2.1-1.4-3.4-1.4c-0.1,0-0.3,0-0.4,0V23V5.3V1c0-0.6-0.4-1-1-1s-1,0.4-1,1v3.3H57.2V2.7
			c0-0.6-0.4-1-1-1H32.8c-0.3,0-0.7,0.2-0.9,0.5c-0.2,0.3-0.2,0.7,0,1l4.3,8.4L31.9,20c-0.2,0.3-0.1,0.7,0,1
			c0.2,0.3,0.5,0.5,0.9,0.5h22.4V23c0,0.6,0.4,1,1,1h14.5v15.4c-0.3,0.2-0.7,0.4-0.9,0.7l-12,12H44.5c-0.6,0-1,0.4-1,1s0.4,1,1,1
			h13.6c0.3,0,0.6,0,0.8-0.3l12.3-12.3c1-1,2.9-1,3.9,0c1.1,1.1,1.1,2.8,0,3.9L71,49.5l0,0L59.3,61.3C59.1,61.5,59,61.7,59,62v14.5
			c0,0.6,0.4,1,1,1s1-0.4,1-1V62.4l9.7-9.7v23.9c0,0.6,0.4,1,1,1s1-0.4,1-1V50.7l3.8-3.8C78.4,45,78.4,42,76.5,40.1z M34.4,19.4
			l3.8-7.4c0.1-0.3,0.1-0.6,0-0.9l-3.8-7.4h20.8v1.6v14.1C55.2,19.4,34.4,19.4,34.4,19.4z M57.2,22v-1.6V6.3h13.5V22H57.2z"/>
		<path class="st0" d="M48.8,47.5c-2.3,0-4.5-0.9-6.1-2.6c-0.4-0.4-1-0.4-1.4,0s-0.4,1,0,1.4c2,2.1,4.7,3.2,7.5,3.2
			c5.7,0,10.4-4.7,10.4-10.4s-4.7-10.4-10.4-10.4c-2.9,0-5.5,1.1-7.5,3.2c-0.4,0.4-0.4,1,0,1.4c0.4,0.4,1,0.4,1.4,0
			c1.6-1.7,3.8-2.6,6.1-2.6c4.6,0,8.4,3.8,8.4,8.4S53.4,47.5,48.8,47.5z"/>
	</g>
</g>
</svg>
