<?xml version="1.0" encoding="utf-8"?>
<!-- Generator: Adobe Illustrator 26.0.0, SVG Export Plug-In . SVG Version: 6.00 Build 0)  -->
<svg version="1.1" id="Capa_1" xmlns="http://www.w3.org/2000/svg" xmlns:xlink="http://www.w3.org/1999/xlink" x="0px" y="0px"
	 viewBox="0 0 175.9 41.3" style="enable-background:new 0 0 175.9 41.3;" xml:space="preserve">
<style type="text/css">
	.st0{fill:#FFFFFF;}
</style>
<path class="st0" d="M5.8,10.8v-0.7H1.7c-0.9,0-1.6,0.7-1.6,1.7v0.7h4.1C5,12.4,5.8,11.7,5.8,10.8L5.8,10.8z"/>
<path class="st0" d="M32,9.2h-0.9c-3,0-5.4,2.4-5.4,5.4c0,1.4,0.6,2.8,1.6,3.8l0.4,0.4c1.2,1.2,1.2,3.2,0,4.4c0,0,0,0,0,0l-0.4,0.3
	l-3.6-2.6l1.1-0.8v-9.5c0-1.6-0.6-3.1-1.7-4.3c-1.1-1.1-2.7-1.8-4.3-1.7h-8c-0.3,0-0.4,0.2-0.4,0.5c0,0.1,0,0.2,0.1,0.3l0.8,1.2
	L7.5,7.8C7,7.9,6.7,8.4,6.7,8.9V13c0,0.3,0.1,0.6,0.3,0.9L8.1,15c0.2,0.2,0.6,0.4,0.9,0.4h1.7l-0.2,0.2c-0.2,0.2-0.5,0.5-0.7,0.7h-3
	l-0.1-0.2C5.8,14.9,4.2,14,2.6,14H0.2v3.1c0,0.5,0.2,1,0.5,1.3L2.7,21H0v3.1c0,0.5,0.2,1,0.5,1.3L3.2,29c0.3,0.4,0.8,0.6,1.3,0.7
	h4.9c-0.2,0.4-0.2,0.9-0.2,1.3v1.8l1.6,1.2v0.1l-1.2,0.9H7.8c-1.9,0-3.4,1.5-3.4,3.4v2.9h9.2l6.8-7.5l1.8,1.2h-0.7
	c-1.9,0-3.4,1.5-3.4,3.4v3H26l5.1-4.1l0.1-0.1c0.4-0.4,0.7-1,0.7-1.7c0-0.6-0.2-1.2-0.7-1.6l-2.9-3.5v-4.8l0.8-0.8
	c2.1-2.1,2.1-5.5,0-7.6l-0.4-0.4c-1.3-1.2-1.3-3.2-0.1-4.4c0.6-0.6,1.5-1,2.4-1h0.4V13c0,0.9,0.7,1.6,1.6,1.6c0,0,0,0,0,0h0.6v-3.7
	c0.1-0.8-0.6-1.6-1.4-1.6C32.1,9.2,32.1,9.2,32,9.2z M18.7,6.8c1,0,2,0.4,2.7,1.2c0.7,0.7,1.2,1.7,1.2,2.7V19L17,23.2l-4.1-2.6
	l-0.6-0.3c-0.5-0.3-0.8-0.8-0.9-1.4c-0.1-0.6,0.2-1.2,0.7-1.6l1-0.9l3.1-2.7l0.1-0.1c0.3-0.3,0.5-0.7,0.5-1.2V9.8
	c0-0.4-0.2-0.9-0.5-1.2l-1.7-1.8H18.7z M9.4,13.2l-0.5-0.5V9.6l3.9-1.5l1.6,1.9v2.1l-1.1,1L9.4,13.2L9.4,13.2z M10.6,22.4l-1.1,1
	H6.9l-0.1-0.2C6.5,23,6.3,22.7,6,22.4H10.6z M2.3,17.1v-0.8h0.2c1,0,2,0.5,2.5,1.4l0.8,1h3.3v0.5c0,0.4,0.1,0.8,0.3,1.2H4.9
	L2.3,17.1z M12.6,39.1h-6v-0.8c0-0.6,0.5-1.1,1.1-1.2c0,0,0,0,0.1,0h2.5l1.8-1.5l0.1-0.1c0.9-0.9,0.9-2.4,0-3.3l-0.9-0.7v-0.7
	c0-0.8,0.6-1.4,1.4-1.4c0,0,0,0,0,0h4.7l1,0.8v1.2c0,0.4,0.1,0.7,0.2,1.1L12.6,39.1z M29.6,35.4L29.6,35.4c0.1,0.1,0.1,0.1,0.1,0.2
	v0.1l-4.5,3.5h-4.9v-0.8c0-0.6,0.5-1.1,1.1-1.2c0,0,0,0,0.1,0h2.9l0.3-0.3c0.4-0.4,0.6-0.9,0.6-1.5c0-0.6-0.3-1.1-0.8-1.5l-4.1-2.6
	v-2l-1.8-1.5c-0.4-0.3-0.8-0.5-1.3-0.5H4.8l-2.6-3.3v-0.8h0.2c1,0,2,0.6,2.5,1.4l0.7,1h4.6l2.5-2.3L17,26l4.6-3.6l4.4,3.2v5
	c0,0.5,0.2,1.1,0.7,1.4L29.6,35.4z"/>
<path class="st0" d="M13.6,3.6h6.8c0.2,0,0.4-0.1,0.4-0.3c0,0,0,0,0-0.1V0.4c0-0.2-0.1-0.2-0.2-0.3s-0.2,0-0.4,0.1l-1.5,1.3
	l-1.4-1.3C17,0,16.8,0,16.6,0.1c0,0,0,0,0,0l-1.5,1.2l-1.5-1.2c0-0.1-0.2-0.1-0.3,0s-0.2,0.2-0.2,0.3v2.8
	C13.1,3.5,13.3,3.6,13.6,3.6z"/>
<g id="Group_546-2">
	<path id="Path_595-2" class="st0" d="M65,16.2h3.1l0.7,1.2c1-0.9,2.3-1.4,3.6-1.4c3,0,3.6,2,3.6,4.4v7.9h-3.7v-8
		c0-1.1-0.3-1.4-1-1.4c-0.9-0.1-1.7,0.3-2.3,0.9v8.4h-3.7L65,16.2L65,16.2z"/>
	<path id="Path_596-2" class="st0" d="M78.7,10.6h3.7v12.7c0,1.6,0.3,2.1,0.9,2.2c0,0,1.2,0.5,1.3,0.5v2.2h-2.9
		c-2.1,0-3.1-1.1-3.1-4.3C78.6,24,78.7,10.6,78.7,10.6z"/>
	<path id="Path_597-2" class="st0" d="M87.7,25.5c0-0.2,0-0.3,0.1-0.5c0.1-0.1,0.3-0.2,0.5-0.1h2.2c0.2,0,0.3,0,0.5,0.1
		c0.1,0.1,0.1,0.3,0.1,0.5v2.3c0,0.1-0.1,0.3-0.2,0.3c-0.1,0.1-0.2,0.2-0.3,0.2h-2.2c-0.1,0-0.3-0.1-0.3-0.2
		c-0.1-0.1-0.1-0.2-0.2-0.3v-2.3H87.7z"/>
	<path id="Path_598-2" class="st0" d="M95.6,23.8c-0.9-0.8-1.4-2.1-1.3-3.3c0-2.9,1.5-4.3,4.3-4.3h7.4v2.1l-1.1,0.3
		c0.3,0.7,0.4,1.5,0.3,2.2c0,1.8-0.8,3.9-4.3,3.9h-2.5c-0.3,0-0.9,0-0.9,0.5s0.3,0.6,0.9,0.6h3.2c2.3,0,3.8,1.1,3.8,3.7v1.2
		c0,1.8-0.9,3.5-3.9,3.5h-3.3c-2.2,0-3.8-1.1-3.8-3.5v-1.4l1.1-0.9C94.8,28,94.2,27,94.3,26C94.3,25.1,94.8,24.2,95.6,23.8z
		 M99.3,22h0.9c1,0,1.3-0.5,1.3-1.6S101,19,100.2,19h-0.9c-1.1,0-1.3,0.7-1.3,1.4C98.1,21.5,98.4,22,99.3,22z M99.4,31.5h1.3
		c1,0,1.1-0.5,1.1-1v-0.8c0-0.6-0.2-0.9-1-0.9h-2.6v1.6C98.2,31.4,98.6,31.5,99.4,31.5L99.4,31.5z"/>
	<path id="Path_599-2" class="st0" d="M114,16.1c4.2,0,5.5,1.5,5.5,6.3c0,4.5-1.3,5.9-5.5,5.9s-5.5-1.6-5.5-6
		C108.4,17.5,109.8,16.1,114,16.1z M114,25.6c1.6,0,1.8-0.2,1.8-3c0-3.1-0.2-3.5-1.8-3.5s-1.8,0.3-1.8,3.5
		C112.1,25.1,112.5,25.6,114,25.6z"/>
	<path id="Path_600-2" class="st0" d="M122.5,10.5h3.7v6.3c1-0.5,2.2-0.7,3.3-0.8c3.2,0,3.9,2.2,3.9,6.2s-1,6-3.9,6
		c-1.2,0-2.4-0.5-3.3-1.3l-0.7,1.2h-3.1L122.5,10.5L122.5,10.5z M128.5,25.2c0.8,0,1.3-0.6,1.3-3.1c0-2.9-0.5-3.2-1.3-3.2
		c-0.8,0-1.5,0.1-2.2,0.3v5.4C126.8,25.1,127.6,25.3,128.5,25.2L128.5,25.2z"/>
	<path id="Path_601-2" class="st0" d="M136.2,25.5c0-0.2,0-0.3,0.1-0.5c0.1-0.1,0.3-0.2,0.5-0.1h2.2c0.2,0,0.3,0,0.5,0.1
		c0.1,0.1,0.1,0.3,0.1,0.5v2.3c0,0.1-0.1,0.3-0.2,0.3c-0.1,0.1-0.2,0.1-0.3,0.2h-2.2c-0.1,0-0.3-0.1-0.3-0.2
		c-0.1-0.1-0.1-0.2-0.2-0.3v-2.3H136.2z"/>
	<path id="Path_602-2" class="st0" d="M143.1,16.2h3.1l0.7,1.2c1-0.9,2.2-1.4,3.6-1.4c1.2-0.1,2.4,0.5,3.1,1.5
		c1.1-0.9,2.5-1.4,4-1.5c2.9,0,3.6,1.8,3.6,4.4v7.8h-3.7v-7.9c0-1-0.3-1.4-1-1.4c-0.9-0.1-1.8,0.2-2.4,0.8v8.4h-3.7v-7.9
		c0-1-0.3-1.4-1.1-1.4c-0.9-0.1-1.7,0.3-2.3,0.9V28H143L143.1,16.2L143.1,16.2z"/>
	<polygon id="Path_603-2" class="st0" points="167.4,22.2 163.4,16.2 167.8,16.2 169.6,19.5 171.5,16.2 175.9,16.2 171.9,22.3 
		175.8,28.2 171.5,28.2 169.7,25.1 167.8,28.2 163.4,28.2 	"/>
</g>
<polygon class="st0" points="48.2,0 48.2,20.7 48.2,41.3 50.3,41.3 50.3,20.7 50.3,0 "/>
</svg>
