<svg xmlns="http://www.w3.org/2000/svg" xmlns:xlink="http://www.w3.org/1999/xlink" viewBox="0 0 1366 709"><defs><style>.cls-1{isolation:isolate;}.cls-2{fill:#f2f2f2;}.cls-3{fill:#f44238;}.cls-4{fill:#fff;}.cls-5{fill:gray;mix-blend-mode:multiply;}.cls-6{fill:#cba775;}.cls-7{fill:#b08c55;}</style></defs><g class="cls-1"><g id="Capa_1" data-name="Capa 1"><rect class="cls-2" width="1366" height="709"/><rect class="cls-3" width="686" height="709"/><path class="cls-4" d="M275.46,392.41a11.48,11.48,0,0,0,7.87,3.21h15.74l-2.48,2.19a32.62,32.62,0,0,0-2.71,2.67,31.89,31.89,0,0,0-3.12,4h-.25a35.28,35.28,0,0,0-6.4,19.67h.09c0,1.46,0,3.06.15,4.51a29.9,29.9,0,0,0,.89,5l.06.25A40.12,40.12,0,0,0,287,438.9h0a35.21,35.21,0,0,0,13.62,16L318,466l37.16,23.6,41.68-32.05L413,445.17l9.9-7.58.15-84.52a54,54,0,0,0-53.91-53.91H297.61a4,4,0,0,0-3.06,6.41l4.66,6.12.59.73,3.05,2.91-.58.29-32.06,12.53a10.33,10.33,0,0,0-7.28,9.77v37.3a11.33,11.33,0,0,0,3.2,7.87Zm93.69-73.58a34.31,34.31,0,0,1,34.25,34.25l-.15,74.74-49.1,37.74-36.72-23.31-5.25-2.92a16.29,16.29,0,0,1-2.62-26.66l9-7.86,28.13-24.63.43-.44a14.58,14.58,0,0,0,4.38-10.35V345.64a14.8,14.8,0,0,0-4.09-10.2l-15-16.61ZM282.6,344.47,317,331.07l14.86,16.47v19.52l-10.34,9H286.82l-4.22-4.38Z" transform="translate(0)"/><path class="cls-4" d="M323.4,290.56h60.33a3.74,3.74,0,0,0,3.79-3.64V262a3.06,3.06,0,0,0-1.89-2.92,3.12,3.12,0,0,0-3.51.44l-13.25,11.66L356,259.67a3.57,3.57,0,0,0-4.81-.15L338.12,270.6,325,259.52a2.85,2.85,0,0,0-3.34-.44,3.05,3.05,0,0,0-1.9,2.92v24.92A3.61,3.61,0,0,0,323.4,290.56Z" transform="translate(0)"/><image width="2550" height="1331" transform="translate(223.39 79) scale(0.09)" xlink:href="../imagenes%20varias/logo_tesoreria%20bco.png"/><path class="cls-4" d="M1199.59,134.79V449.26s3.79,54.08-11.71,71.64c-16.51,18.72-42,20.67-86.79,29.62S1026,582.21,1026,582.21s-30.31-22.73-75.09-31.69-70.28-10.9-86.79-29.62c-15.5-17.56-11.71-71.64-11.71-71.64V134.79Z" transform="translate(0)"/><rect class="cls-5" x="895.86" y="293.31" width="43.14" height="43.06"/><rect class="cls-5" x="895.86" y="293.31" width="43.06" height="43.06"/><path class="cls-6" d="M919,314.05a3.77,3.77,0,1,0-3.35,0,6,6,0,0,0-4.37,5.77v2.85h12.09v-2.85A6,6,0,0,0,919,314.05Z" transform="translate(0)"/><rect class="cls-5" x="895.86" y="347.93" width="43.14" height="43.06"/><rect class="cls-5" x="895.86" y="347.93" width="43.06" height="43.06"/><path class="cls-6" d="M922.2,365.58h-1.06v-1.31a4.41,4.41,0,1,0-8.81,0v1.31h-1.05a1.5,1.5,0,0,0-1.5,1.5v8.58a1.51,1.51,0,0,0,1.5,1.51H922.2a1.52,1.52,0,0,0,1.51-1.51v-8.58A1.51,1.51,0,0,0,922.2,365.58Zm-7.88-1.31a2.42,2.42,0,1,1,4.83,0v1.31h-4.83Zm3.23,8.93v2.19a.16.16,0,0,1-.17.16h-1a.16.16,0,0,1-.16-.16V373.2a1.93,1.93,0,1,1,1.38,0Z" transform="translate(0)"/><path class="cls-7" d="M1122,126.79h55a0,0,0,0,1,0,0V132a10,10,0,0,1-10,10h-55a0,0,0,0,1,0,0v-5.26A10,10,0,0,1,1122,126.79Z"/><image width="2550" height="1331" transform="translate(929.48 151) scale(0.08)" xlink:href="../imagenes%20varias/logo_tesoreria.png"/></g></g></svg>