<?xml version="1.0" encoding="utf-8"?>
<!-- Generator: Adobe Illustrator 26.0.0, SVG Export Plug-In . SVG Version: 6.00 Build 0)  -->
<svg version="1.1" id="Capa_1" xmlns="http://www.w3.org/2000/svg" xmlns:xlink="http://www.w3.org/1999/xlink" x="0px" y="0px"
	 viewBox="0 0 135.2 135.2" style="enable-background:new 0 0 135.2 135.2;" xml:space="preserve">
<style type="text/css">
	.st0{fill:#FFFFFF;}
	.st1{fill:#F39200;}
	.st2{fill:#F9B233;}
	.st3{fill:#FFD77B;}
	.st4{fill:#95C11F;}
	.st5{fill:#D3DE79;}
	.st6{fill:#36A9E1;}
	.st7{fill:#7FC3ED;}
</style>
<g>
	<g>
		<circle class="st0" cx="67.6" cy="67.6" r="66"/>
		<path class="st1" d="M67.6,134.1c-36.7,0-66.5-29.8-66.5-66.5c0-36.7,29.8-66.5,66.5-66.5c36.7,0,66.5,29.8,66.5,66.5
			C134.1,104.3,104.3,134.1,67.6,134.1z M67.6,2.1C31.5,2.1,2.1,31.5,2.1,67.6s29.4,65.5,65.5,65.5s65.5-29.4,65.5-65.5
			S103.7,2.1,67.6,2.1z"/>
	</g>
	<g>
		<g>
			<g>
				<path class="st2" d="M27.2,70.8c-2.1-4.6-2.1-9.8,0-14.4c1.5-3.4,4.1-6.3,7.3-8.1c-4.7,1.6-8.6,5.1-10.6,9.6
					c-2,4.6-2,9.8,0,14.4c1.2,2.5,4.1,3.6,6.6,2.4c0.6-0.3,1.1-0.6,1.5-1C30,73.8,28.1,72.7,27.2,70.8z"/>
				<path class="st2" d="M47.2,84.2l-1.3-2.8c-1.9-4.1-0.8-9,2.6-12.2c2.7-2.5,3.3-6.5,1.4-9.7c-1.8-3-5.6-4.5-8.9-3.4
					c-0.9,0.3-1.7,0.7-2.4,1.3c3.1-0.6,6.4,0.9,8.1,3.6c1.9,3.2,1.3,7.2-1.4,9.7c-3.4,3.1-4.5,8-2.6,12.2l1.3,2.8
					c1.1,2.5,4.1,3.6,6.6,2.5c0.6-0.3,1.1-0.6,1.5-1C50,87.3,48.1,86.2,47.2,84.2z"/>
				<path class="st3" d="M53,81.6l-1.3-2.8c-0.1-0.3,0-0.6,0.3-0.8c6.1-5.6,7.5-14.9,3.3-22.1c-4.2-7-12.8-10.3-20.6-7.8
					c-0.1,0-0.1,0.1-0.2,0.1c-3.2,1.9-5.8,4.7-7.3,8.1c-2,4.6-2,9.8,0,14.4c0.9,1.9,2.8,3,4.8,2.9c1.4-1.4,1.9-3.6,1-5.5
					c-0.9-2-0.9-4.3,0-6.3c0.9-2,2.6-3.5,4.7-4.2c0.3-0.1,0.6-0.2,0.9-0.2c0.7-0.5,1.5-1,2.4-1.3c3.3-1.1,7.2,0.4,8.9,3.4
					c1.9,3.2,1.3,7.2-1.4,9.7c-3.4,3.1-4.5,8-2.6,12.2l1.3,2.8c0.9,1.9,2.8,3,4.8,2.9C53.4,85.7,53.9,83.5,53,81.6z"/>
				<path class="st2" d="M51.8,97.3c-1-2.1-0.3-4.6,1.5-6c-0.4,0.1-0.8,0.2-1.2,0.4c-2.5,1.1-3.6,4.1-2.5,6.6
					c1.1,2.5,4.1,3.6,6.6,2.5c0.4-0.2,0.7-0.4,1-0.6C55.1,100.6,52.8,99.5,51.8,97.3z"/>
				
					<ellipse transform="matrix(0.9118 -0.4107 0.4107 0.9118 -34.462 31.1575)" class="st3" cx="55.3" cy="95.8" rx="3.8" ry="4.8"/>
				<path d="M50.9,89c-3,1.3-6.5,0-7.8-2.9l-1.3-2.8c-2-4.5-0.9-9.8,2.8-13.2c2.4-2.2,2.9-5.7,1.2-8.5c-1.6-2.7-5-3.9-7.9-3
					c-1.9,0.6-3.4,1.9-4.2,3.7c-0.8,1.8-0.8,3.8,0,5.6c1.3,3,0,6.5-2.9,7.8c-3,1.3-6.5,0-7.8-2.9c-2.2-4.8-2.2-10.3,0-15.2
					c2.1-4.8,6.3-8.5,11.3-10.2c8.2-2.6,17.3,0.8,21.7,8.2c4.4,7.5,3,17.2-3.4,23.1l1.2,2.6C55.2,84.2,53.9,87.7,50.9,89z
					 M36.5,57.1c0.3-0.1,0.6-0.3,0.9-0.4c3.7-1.2,8,0.4,10,3.8c2.1,3.6,1.5,8-1.6,10.8c-3.1,2.9-4.1,7.4-2.4,11.1l1.3,2.8
					c0.9,2,3.3,3,5.4,2c2-0.9,3-3.3,2-5.4L50.8,79c-0.3-0.6-0.1-1.3,0.5-1.8c5.8-5.3,7.1-14.1,3.1-20.9c-3.9-6.7-12.2-9.8-19.5-7.4
					c-4.6,1.5-8.3,4.8-10.2,9.2c-1.9,4.4-1.9,9.3,0,13.7c0.9,2,3.3,3,5.4,2s3-3.3,2-5.4c-1-2.2-1-4.8,0-7
					C33.1,59.5,34.6,58,36.5,57.1z"/>
				<path d="M56.6,101.7c-3,1.3-6.5,0-7.8-2.9c-1.3-3,0-6.5,2.9-7.8c2.9-1.3,6.5,0,7.8,2.9C60.9,96.8,59.5,100.3,56.6,101.7z
					 M52.5,92.6c-2,0.9-3,3.3-2,5.4c0.9,2,3.3,3,5.4,2c2-0.9,3-3.3,2-5.4C56.9,92.5,54.5,91.6,52.5,92.6z"/>
			</g>
			<g>
				<path class="st4" d="M81.8,59.4c1.4-4.8,4.8-8.8,9.3-11c3.4-1.6,7.2-2.1,10.8-1.4c-4.6-1.9-9.8-1.7-14.3,0.4
					c-4.5,2.2-7.9,6.2-9.3,11c-0.8,2.6,0.7,5.4,3.4,6.2c0.6,0.2,1.2,0.2,1.8,0.2C82,63.5,81.2,61.4,81.8,59.4z"/>
				<path class="st4" d="M88.3,82.6l0.9-3c1.3-4.4,5.3-7.4,9.9-7.6c3.7-0.1,6.7-2.8,7.3-6.4c0.6-3.4-1.4-7-4.6-8.4
					c-0.9-0.4-1.7-0.5-2.6-0.6c2.7,1.6,4.3,4.8,3.8,8c-0.6,3.7-3.7,6.3-7.3,6.4c-4.7,0.2-8.6,3.2-9.9,7.6l-0.9,3
					c-0.8,2.6,0.7,5.4,3.4,6.2c0.6,0.2,1.2,0.2,1.8,0.2C88.4,86.7,87.7,84.6,88.3,82.6z"/>
				<path class="st5" d="M94.4,84.4l0.9-3c0.1-0.3,0.4-0.4,0.7-0.4c8.3-0.3,15.4-6.4,16.8-14.7c1.4-8.1-3-16.2-10.6-19.3
					c-0.1,0-0.1,0-0.2-0.1c-3.7-0.7-7.4-0.2-10.8,1.4c-4.5,2.2-7.9,6.2-9.3,11c-0.6,2,0.2,4.1,1.8,5.3c2-0.2,3.8-1.5,4.4-3.6
					c0.6-2.1,2.1-3.9,4.1-4.8c2-1,4.3-1,6.3-0.1c0.3,0.1,0.6,0.3,0.8,0.4c0.9,0,1.8,0.2,2.6,0.6c3.2,1.3,5.2,4.9,4.6,8.4
					c-0.6,3.7-3.7,6.3-7.3,6.4c-4.7,0.2-8.6,3.2-9.9,7.6l-0.9,3c-0.6,2,0.2,4.1,1.8,5.3C92,87.8,93.8,86.4,94.4,84.4z"/>
				<path class="st4" d="M83.3,95.5c0.7-2.2,2.7-3.7,5-3.6c-0.3-0.2-0.7-0.4-1.1-0.5c-2.6-0.8-5.4,0.7-6.2,3.4
					c-0.8,2.6,0.7,5.4,3.4,6.2c0.4,0.1,0.8,0.2,1.2,0.2C83.6,100.1,82.6,97.8,83.3,95.5z"/>
				<ellipse transform="matrix(0.2801 -0.96 0.96 0.2801 -30.1696 152.9354)" class="st5" cx="86.9" cy="96.6" rx="4.8" ry="3.8"/>
				<path d="M88,88.6c-3.1-0.9-4.9-4.2-4-7.3l0.9-3c1.4-4.7,5.7-8,10.7-8.2c3.2-0.1,5.9-2.4,6.5-5.7c0.5-3-1.2-6.2-4.1-7.4
					c-1.8-0.8-3.8-0.7-5.6,0.1c-1.7,0.8-3.1,2.4-3.6,4.2c-0.9,3.1-4.2,4.9-7.3,4s-4.9-4.2-4-7.3c1.5-5.1,5.1-9.3,9.8-11.6
					c4.8-2.3,10.3-2.4,15.2-0.4c7.9,3.3,12.6,11.8,11.1,20.3c-1.5,8.6-8.9,15.1-17.6,15.4l-0.8,2.7C94.3,87.7,91.1,89.5,88,88.6z
					 M97.7,55c0.3,0.1,0.6,0.2,1,0.3c3.6,1.5,5.8,5.5,5.1,9.4c-0.7,4.1-4.1,7-8.2,7.2c-4.3,0.1-7.9,2.9-9.1,6.9l-0.9,3
					c-0.6,2.2,0.6,4.4,2.8,5.1s4.4-0.6,5.1-2.8l0.9-3c0.2-0.6,0.8-1,1.5-1.1c7.9-0.3,14.6-6.1,16-13.9c1.3-7.6-2.9-15.3-10-18.3
					c-4.4-1.8-9.4-1.7-13.7,0.3c-4.3,2.1-7.5,5.9-8.9,10.4c-0.6,2.2,0.6,4.4,2.8,5.1c2.2,0.6,4.4-0.6,5.1-2.8
					c0.7-2.3,2.3-4.3,4.6-5.4C93.6,54.6,95.7,54.4,97.7,55z"/>
				<path d="M84.1,101.9c-3.1-0.9-4.9-4.2-4-7.3c0.9-3.1,4.2-4.9,7.3-4s4.9,4.2,4,7.3S87.2,102.8,84.1,101.9z M86.9,92.3
					c-2.2-0.6-4.4,0.6-5.1,2.8c-0.6,2.2,0.6,4.4,2.8,5.1c2.2,0.6,4.4-0.6,5.1-2.8S89,93,86.9,92.3z"/>
			</g>
			<path class="st6" d="M54.3,53.4c0-5.5,2.4-10.8,6.5-14.5c3.1-2.8,7-4.4,11-4.9c-5.5-0.5-10.9,1.2-15,4.9s-6.5,9-6.5,14.5
				c0,3,2.5,5.5,5.5,5.5c0.7,0,1.4-0.1,2-0.4C55.8,57.7,54.3,55.8,54.3,53.4z"/>
			<path class="st6" d="M67,91.3c0-2.6,1.8-4.7,4.2-5.3c-0.4-0.1-0.9-0.2-1.3-0.2c-3,0-5.5,2.5-5.5,5.5s2.5,5.5,5.5,5.5
				c0.5,0,0.9-0.1,1.3-0.2C68.8,96.1,67,93.9,67,91.3z"/>
			<ellipse class="st7" cx="71.2" cy="91.3" rx="4.2" ry="5.3"/>
			<g>
				<path class="st6" d="M67.8,76v-3.4c0-5,3.3-9.5,8.2-11.1c3.9-1.3,6.2-5,5.8-9.1c-0.4-3.8-3.6-7-7.5-7.5c-1-0.1-2,0-3,0.2
					c3.4,0.8,6.1,3.8,6.5,7.3c0.5,4.1-1.9,7.8-5.8,9.1c-4.9,1.6-8.2,6.1-8.2,11.1V76c0,3,2.5,5.5,5.5,5.5c0.7,0,1.4-0.1,2-0.4
					C69.3,80.4,67.8,78.4,67.8,76z"/>
				<path class="st7" d="M74.7,76v-3.4c0-0.3,0.3-0.5,0.6-0.6c8.7-2.9,14.3-11.6,13.3-20.7c-1-9-8.2-16.2-17.2-17.2
					c-0.1,0-0.1,0-0.2,0c-4.1,0.4-8,2.1-11,4.9c-4.1,3.7-6.5,9-6.5,14.5c0,2.3,1.5,4.3,3.5,5.1c2.1-0.8,3.5-2.8,3.5-5.1
					c0-2.4,1-4.7,2.8-6.4c1.8-1.6,4.2-2.4,6.7-2.1c0.3,0,0.7,0.1,1,0.2c1-0.2,2-0.3,3-0.2c3.8,0.4,7,3.6,7.5,7.5
					c0.5,4.1-1.9,7.8-5.8,9.1c-4.9,1.6-8.2,6.1-8.2,11.1v3.4c0,2.3,1.5,4.3,3.5,5.1C73.2,80.4,74.7,78.4,74.7,76z"/>
				<path d="M68,82.1c-2.6-1-4.2-3.6-4.2-6.3l0-3.2c0-5.5,3.6-10.3,8.9-12c3.4-1.1,5.5-4.4,5.1-8c-0.4-3.4-3.2-6.2-6.6-6.6
					c-2.2-0.2-4.3,0.4-5.9,1.9c-1.6,1.4-2.5,3.6-2.5,5.7c0,2.2-1,4.4-2.9,5.4c-5,2.7-10.1-0.8-10.1-5.5c0-5.8,2.5-11.4,6.8-15.3
					s10.2-5.7,16-5.1c9.4,1,17,8.6,18.1,18.1c1,9.5-4.8,18.6-13.9,21.7V76C76.8,80.4,72.3,83.7,68,82.1z M70.3,43.9
					c0.4,0,0.7,0,1.1,0.1c4.3,0.5,7.9,4.1,8.4,8.4c0.5,4.6-2.2,8.7-6.5,10.1c-4.5,1.5-7.5,5.5-7.5,10.1v3.2c0,2.3,1.8,4.5,4.1,4.7
					c2.7,0.2,4.9-1.9,4.9-4.5v-3.4c0-0.7,0.5-1.3,1.3-1.6c8.3-2.7,13.6-11,12.6-19.7c-1-8.5-7.8-15.3-16.3-16.3
					c-5.3-0.6-10.6,1.1-14.5,4.6c-3.8,3.4-6.1,8.3-6.2,13.5c0,2.3,1.5,4.3,3.7,4.7c2.8,0.5,5.3-1.7,5.3-4.4c0-2.7,1.2-5.3,3.2-7.1
					C65.7,44.7,67.9,43.9,70.3,43.9z"/>
				<path d="M69.9,97.8c-3.6,0-6.5-2.9-6.5-6.5s2.9-6.5,6.5-6.5s6.5,2.9,6.5,6.5S73.4,97.8,69.9,97.8z M69.9,86.8
					c-2.5,0-4.5,2-4.5,4.5s2,4.5,4.5,4.5s4.5-2,4.5-4.5S72.3,86.8,69.9,86.8z"/>
			</g>
		</g>
	</g>
</g>
</svg>
