<?xml version="1.0" encoding="utf-8"?>
<!-- Generator: Adobe Illustrator 26.0.0, SVG Export Plug-In . SVG Version: 6.00 Build 0)  -->
<svg version="1.1" id="Capa_1" xmlns="http://www.w3.org/2000/svg" xmlns:xlink="http://www.w3.org/1999/xlink" x="0px" y="0px"
	 viewBox="0 0 149.3 70.8" style="enable-background:new 0 0 149.3 70.8;" xml:space="preserve">
<style type="text/css">
	.st0{fill:#FFFFFF;}
</style>
<path class="st0" d="M27.5,31.7h-6l2.5,2.7c0.4,0.5,0.6,1.1,0.6,1.7V40c0,0.6-0.3,1.2-0.7,1.7l-0.1,0.1l-4.6,4L17.7,47
	c-0.6,0.6-1,1.4-0.9,2.3c0.1,0.9,0.6,1.6,1.3,2.1l0.9,0.5l6,3.8l8-6.2V37.3c0-1.5-0.6-2.9-1.6-4C30.3,32.3,28.9,31.7,27.5,31.7z"/>
<polygon class="st0" points="21.4,39.5 21.4,36.4 19,33.7 13.3,35.9 13.3,40.3 14,41 19.7,41 "/>
<path class="st0" d="M0,14.6V58c0,3.2,2.2,6,5.4,6.7l8.8,2c3.3,0.8,6.6,2,9.5,3.7l0.8,0.4l0.8-0.4c3-1.6,6.2-2.9,9.6-3.7l8.5-1.9
	c3.3-0.7,5.7-3.7,5.7-7.1v-43L0,14.6z M19.4,22.4c0-0.2,0.1-0.4,0.3-0.5c0.2-0.1,0.4-0.1,0.6,0.1l2.1,1.8l2.1-1.8
	c0.2-0.2,0.5-0.2,0.8,0c0,0,0,0,0,0l2.1,1.9l2.2-1.9c0.2-0.1,0.4-0.2,0.6-0.1c0.2,0.1,0.3,0.3,0.3,0.5v4c0,0.3-0.3,0.6-0.6,0.6
	c0,0,0,0,0,0H20c-0.3,0-0.6-0.2-0.6-0.5c0,0,0,0,0,0L19.4,22.4z M36.2,51l-1.6,1.2L32,54.3l-6.8,5.2l-6.1-3.8l-2.8-1.8
	c-1-0.6-1.8-1.5-2.2-2.6l0,0c-0.1-0.3-0.2-0.5-0.3-0.8v-0.1c-0.1-0.3-0.1-0.6-0.1-0.8v-0.7l0,0c0-1.2,0.4-2.3,1.1-3.2h0.1
	c0.1-0.2,0.4-0.4,0.5-0.6l0.4-0.4l0.4-0.3h-2.7c-0.5,0-0.9-0.2-1.3-0.5l-1.6-1.6c-0.3-0.3-0.5-0.8-0.5-1.3v-6.1
	c0-0.7,0.5-1.4,1.2-1.6l5.2-2l0.1-0.1l-0.5-0.5l-0.1-0.1l-0.8-1c-0.2-0.3-0.2-0.7,0.1-0.9c0.1-0.1,0.2-0.1,0.4-0.1h11.7
	c2.3,0,4.6,0.9,6.2,2.6c1.6,1.7,2.5,3.9,2.5,6.2V51z"/>
<path class="st0" d="M48.8,0.1C48.5-0.1,48,0,47.7,0.3l-4.4,3.9l-4.2-3.8c-0.5-0.4-1.1-0.4-1.6-0.1L33.1,4l-4.4-3.7
	C28.4,0,28-0.1,27.6,0.1c-0.4,0.2-0.6,0.6-0.6,1v9.4c0,0.7,0.5,1.2,1.2,1.2c0,0,0,0,0,0h20c0.7,0,1.2-0.5,1.3-1.2V1.1
	C49.5,0.7,49.2,0.3,48.8,0.1z"/>
<path class="st0" d="M0.8,1.5v10.3h2.8V4.6l6,7.1h2.7V0.2H9.1c-0.1,0-0.2,0.2-0.1,0.2l0.6,1.1l0,0v5.9l-6-7.2H0.3
	c-0.1,0-0.2,0.2-0.1,0.2L0.8,1.5z"/>
<path class="st0" d="M15.8,1.5v10.2h9.5V9h-6.5V0.1h-3.3c-0.1,0-0.2,0.1-0.2,0.2L15.8,1.5z"/>
<path class="st0" d="M59.1,14.7h9v2.2h-3.3v7.4h-2.5v-7.4h-3.3V14.7z"/>
<path class="st0" d="M71.8,22.1H78v2.2h-8.6v-9.6h8.5v2.2h-6v1.4h4.8v2.2h-4.8V22.1z"/>
<path class="st0" d="M88.9,21.3c0,1.9-1.8,3.2-4.5,3.2c-1.9-0.1-3.7-0.5-5.4-1.4l1.1-2c1.3,0.7,2.7,1.1,4.2,1.2
	c1.5,0,2.3-0.2,2.3-0.8s-0.2-0.9-2.8-0.9c-3.4,0-4.1-1.1-4.1-2.5c0-2.1,1.8-3.5,4.7-3.5c1.4,0,2.9,0.3,4.1,1l-0.8,2.1
	c-1.1-0.5-2.2-0.7-3.4-0.8c-1.5,0-2.1,0.4-2.1,0.9s0.2,0.7,2.7,0.7S88.9,19.3,88.9,21.3z"/>
<path class="st0" d="M101.6,19.5c0,3-2.4,5-5.8,5s-5.8-1.9-5.8-5s2.4-5,5.8-5S101.6,16.5,101.6,19.5z M95.8,16.8
	c-2.2,0-3.3,0.7-3.3,2.7s1.1,2.7,3.3,2.7s3.2-0.7,3.2-2.7S98,16.8,95.8,16.8z"/>
<path class="st0" d="M110.6,21.6l1.9,2.7h-2.9l-1.8-2.5h-2.3v2.5H103v-9.6h6c1.9-0.1,3.5,1.3,3.7,3.2c0,0.1,0,0.2,0,0.3
	C112.8,19.6,111.9,21,110.6,21.6z M109,16.9h-3.5v2.8h3.7c1.1,0,1.1-1.2,1.1-1.3c0.1-0.7-0.4-1.4-1.2-1.5
	C109.1,16.9,109.1,16.9,109,16.9z"/>
<path class="st0" d="M116.7,22.1h6.2v2.2h-8.6v-9.6h8.5v2.2h-6v1.4h4.8v2.2h-4.8L116.7,22.1z"/>
<path class="st0" d="M131.9,21.6l1.9,2.7h-2.9l-1.8-2.5h-2.3v2.5h-2.5v-9.6h6c1.9-0.1,3.5,1.4,3.6,3.3c0,0.1,0,0.1,0,0.2
	C134,19.6,133.2,21,131.9,21.6z M130.3,16.9h-3.5v2.8h3.7c1.1,0,1.1-1.2,1.1-1.3c0.1-0.7-0.4-1.4-1.2-1.5
	C130.4,16.9,130.3,16.9,130.3,16.9L130.3,16.9z"/>
<path class="st0" d="M135.4,24.3v-9.6h2.5v9.6L135.4,24.3L135.4,24.3z"/>
<path class="st0" d="M145.8,14.7l3.5,9.6h-2.6l-0.6-1.5h-4l-0.6,1.5H139l3.5-9.6H145.8z M144.2,17.2l-1.2,3.3h2.5L144.2,17.2z"/>
<path class="st0" d="M61.2,37h1.8v1.6h-0.8v-0.2c-0.3,0.2-0.7,0.3-1.1,0.3c-0.9,0.1-1.7-0.5-1.8-1.4c0,0,0-0.1,0-0.1
	c0-1,0.8-1.6,1.8-1.6c0.6-0.1,1.2,0.2,1.7,0.6l-0.6,0.5c-0.3-0.2-0.7-0.3-1.1-0.3c-0.7,0-1.1,0.2-1.1,0.8s0.3,0.8,1.1,0.8
	c0.3,0,0.6-0.1,0.8-0.3h-0.8V37z"/>
<path class="st0" d="M66.2,35.7l1.1,3h-0.8l-0.2-0.5h-1.3l-0.2,0.5h-0.8l1.1-3H66.2z M65.7,36.4l-0.4,1.1h0.8L65.7,36.4z"/>
<path class="st0" d="M71.5,37.9c0,0.6-0.4,0.8-1.1,0.8h-1.8v-3h1.5c0.8,0,1.1,0.3,1.1,0.8c0,0.2-0.1,0.4-0.2,0.6
	C71.3,37.2,71.5,37.5,71.5,37.9z M70.5,36.5c0-0.1-0.1-0.2-0.4-0.2h-0.8v0.5h0.8C70.4,36.8,70.5,36.7,70.5,36.5L70.5,36.5z M69.3,38
	h1c0.2,0,0.3-0.1,0.3-0.3s-0.1-0.2-0.5-0.2h-0.8V38z"/>
<path class="st0" d="M72.8,38.7v-3h0.8v3H72.8z"/>
<path class="st0" d="M77.4,35.7h0.8v3h-0.7l-1.6-1.9v2h-0.8v-3h0.7l1.6,1.9L77.4,35.7z"/>
<path class="st0" d="M80.4,38h2v0.7h-2.8v-3h2.7v0.7h-1.9v0.4H82v0.7h-1.6V38z"/>
<path class="st0" d="M83.5,35.7h2.9v0.7h-1.1v2.3h-0.8v-2.3h-1.1V35.7z"/>
<path class="st0" d="M88.4,38h2v0.7h-2.8v-3h2.7v0.7h-1.9v0.4H90v0.7h-1.6V38z"/>
<path class="st0" d="M97.3,37.2c0,1-0.5,1.5-1.4,1.5h-1.7v-3h1.7c0.7-0.1,1.4,0.4,1.4,1.2C97.3,37,97.3,37.1,97.3,37.2z M95.9,36.3
	h-0.8v1.6h0.8c0.3,0,0.6,0,0.6-0.8S96.2,36.3,95.9,36.3z"/>
<path class="st0" d="M99.5,38h2v0.7h-2.8v-3h2.7v0.7h-1.9v0.4h1.5v0.7h-1.5V38z"/>
<path class="st0" d="M62.3,43.1c0,0.6-0.4,0.8-1.1,0.8h-1.8v-3h1.5c0.8,0,1.1,0.3,1.1,0.8c0,0.2-0.1,0.4-0.2,0.6
	C62.1,42.5,62.3,42.8,62.3,43.1z M61.3,41.8c0-0.1-0.1-0.2-0.4-0.2h-0.7v0.5H61C61.2,42.1,61.3,42,61.3,41.8z M60.2,43.2h1
	c0.2,0,0.3-0.1,0.3-0.3s-0.1-0.2-0.5-0.2h-0.8L60.2,43.2z"/>
<path class="st0" d="M65.9,42.3v-1.4h0.8v1.4c0.1,0.8-0.4,1.5-1.2,1.6c-0.1,0-0.2,0-0.3,0c-0.8,0.1-1.5-0.6-1.6-1.4
	c0-0.1,0-0.2,0-0.3v-1.4h0.8v1.4c0,0.6,0.2,0.9,0.8,0.9S65.9,43,65.9,42.3z"/>
<path class="st0" d="M69,43.2h2v0.7h-2.8v-3h2.7v0.7H69V42h1.6v0.7H69V43.2z"/>
<path class="st0" d="M74.5,40.9h0.8v3h-0.7L73.1,42v1.9h-0.8v-3h0.7l1.6,1.9L74.5,40.9L74.5,40.9z"/>
<path class="st0" d="M81.1,42.3h1.8v1.6H82v-0.2c-0.3,0.2-0.7,0.3-1,0.3c-0.9,0.1-1.7-0.5-1.8-1.4c0,0,0-0.1,0-0.1
	c0-1,0.8-1.6,1.8-1.6c0.6-0.1,1.2,0.2,1.7,0.6L82.1,42c-0.3-0.2-0.7-0.3-1.1-0.3c-0.7,0-1.1,0.2-1.1,0.8s0.4,0.8,1.1,0.8
	c0.3,0,0.6-0.1,0.8-0.3h-0.8L81.1,42.3z"/>
<path class="st0" d="M87.8,42.5c0,1-0.8,1.5-1.8,1.5c-0.9,0.1-1.7-0.5-1.8-1.4c0,0,0-0.1,0-0.1c0-1,0.8-1.6,1.8-1.6
	S87.8,41.5,87.8,42.5z M85.9,41.6c-0.7,0-1.1,0.2-1.1,0.8s0.3,0.8,1.1,0.8s1.1-0.2,1.1-0.8S86.6,41.6,85.9,41.6z"/>
<path class="st0" d="M92,43.1c0,0.6-0.4,0.8-1.1,0.8h-1.7v-3h1.6c0.8,0,1.1,0.3,1.1,0.8c0,0.2-0.1,0.4-0.2,0.6
	C91.9,42.5,92,42.8,92,43.1z M91,41.8c0-0.1-0.1-0.2-0.4-0.2h-0.7v0.5h0.8C91,42.1,91,42,91,41.8z M89.9,43.2h1
	c0.2,0,0.3-0.1,0.3-0.3s-0.1-0.2-0.5-0.2h-0.8V43.2z"/>
<path class="st0" d="M93.4,43.9v-3h0.8v3H93.4z"/>
<path class="st0" d="M96.4,43.2h2v0.7h-2.8v-3h2.7v0.7h-1.9V42H98v0.7h-1.6V43.2L96.4,43.2z"/>
<path class="st0" d="M102.2,43.1l0.6,0.8h-0.9l-0.6-0.8h-0.7v0.8h-0.8v-3h1.9c0.5-0.1,1.1,0.3,1.1,0.9c0,0.1,0,0.1,0,0.2
	C102.8,42.5,102.6,42.9,102.2,43.1z M101.7,41.6h-1.1v0.8h1.1c0.3,0,0.3-0.4,0.3-0.4S102,41.6,101.7,41.6z"/>
<path class="st0" d="M106.5,40.9h0.8v3h-0.7L105,42v1.9h-0.8v-3h0.7l1.6,1.9L106.5,40.9z"/>
<path class="st0" d="M112.2,42.5c0,1-0.8,1.5-1.8,1.5c-0.9,0.1-1.7-0.5-1.8-1.4c0,0,0-0.1,0-0.1c0-1,0.8-1.6,1.8-1.6
	S112.2,41.5,112.2,42.5z M110.4,41.6c-0.7,0-1.1,0.2-1.1,0.8s0.4,0.8,1.1,0.8s1.1-0.2,1.1-0.8S111.1,41.6,110.4,41.6z"/>
<path class="st0" d="M59.2,30.5c0-0.9,0.7-1.5,1.6-1.5h6.6v0.6c0,0.9-0.7,1.5-1.6,1.6h-6.7V30.5z"/>
<path class="st0" d="M135.4,13.7v-0.4c0-0.6,0.5-1,1.1-1.1h2.5v0.4c0,0.6-0.4,1-1,1.1H135.4z"/>
</svg>
